<svg xmlns="http://www.w3.org/2000/svg" xmlns:xlink="http://www.w3.org/1999/xlink" width="192" zoomAndPan="magnify" viewBox="0 0 144 34.499999" height="46" preserveAspectRatio="xMidYMid meet" version="1.2"><defs><clipPath id="b33db28879"><path d="M 1.027344 0 L 142.96875 0 L 142.96875 34.007812 L 1.027344 34.007812 Z M 1.027344 0 "/></clipPath><clipPath id="4f9f981076"><path d="M 42.613281 0 L 101.019531 0 L 101.019531 34.007812 L 42.613281 34.007812 Z M 42.613281 0 "/></clipPath></defs><g id="bbfca695c8"><g clip-rule="nonzero" clip-path="url(#b33db28879)"><path style=" stroke:none;fill-rule:nonzero;fill:#ffffff;fill-opacity:1;" d="M 1.027344 0 L 142.972656 0 L 142.972656 34.007812 L 1.027344 34.007812 Z M 1.027344 0 "/><path style=" stroke:none;fill-rule:nonzero;fill:#ffffff;fill-opacity:1;" d="M 1.027344 0 L 142.972656 0 L 142.972656 34.007812 L 1.027344 34.007812 Z M 1.027344 0 "/></g><g clip-rule="nonzero" clip-path="url(#4f9f981076)"><path style=" stroke:none;fill-rule:nonzero;fill:#fefefe;fill-opacity:1;" d="M 35 -18.949219 L 105.972656 -18.949219 L 105.972656 52.019531 L 35 52.019531 Z M 35 -18.949219 "/></g><path style=" stroke:none;fill-rule:nonzero;fill:#e00713;fill-opacity:1;" d="M 73.359375 6.214844 C 73.738281 6.40625 74.089844 6.621094 74.429688 6.875 L 74.535156 6.957031 C 75.382812 7.621094 76.046875 8.476562 76.449219 9.476562 C 76.578125 9.800781 76.683594 10.121094 76.757812 10.464844 L 76.792969 10.613281 C 76.960938 11.402344 76.949219 12.324219 76.757812 13.105469 L 76.734375 13.203125 C 76.464844 14.300781 75.9375 15.253906 75.160156 16.078125 C 74.398438 16.867188 73.453125 17.425781 72.398438 17.730469 C 71.957031 17.847656 71.496094 17.9375 71.039062 17.953125 L 70.90625 17.960938 C 69.824219 17.988281 68.730469 17.726562 67.78125 17.207031 C 67.511719 17.054688 67.261719 16.882812 67.015625 16.691406 L 66.914062 16.613281 C 66.046875 15.925781 65.429688 15.066406 65.011719 14.042969 C 64.617188 13.03125 64.5 11.9375 64.648438 10.855469 C 64.699219 10.523438 64.78125 10.195312 64.886719 9.871094 L 64.914062 9.796875 C 65.175781 9.027344 65.582031 8.359375 66.109375 7.742188 L 66.210938 7.625 C 66.476562 7.320312 66.769531 7.070312 67.097656 6.835938 C 67.121094 6.820312 67.144531 6.800781 67.167969 6.785156 C 68.03125 6.167969 69.019531 5.789062 70.074219 5.671875 C 71.1875 5.566406 72.347656 5.726562 73.359375 6.214844 "/><path style=" stroke:none;fill-rule:nonzero;fill:#e00612;fill-opacity:1;" d="M 72.054688 1.351562 L 72.320312 1.351562 C 72.5625 1.351562 72.800781 1.351562 73.039062 1.351562 C 73.292969 1.351562 73.542969 1.351562 73.796875 1.351562 C 74.214844 1.351562 74.636719 1.351562 75.058594 1.351562 C 75.492188 1.351562 75.925781 1.351562 76.363281 1.351562 L 76.441406 1.351562 L 76.847656 1.355469 C 77.960938 1.355469 79.074219 1.355469 80.1875 1.355469 C 80.128906 1.496094 80.046875 1.585938 79.941406 1.691406 L 79.59375 2.039062 C 79.484375 2.152344 79.375 2.261719 79.261719 2.375 L 79.054688 2.582031 C 78.835938 2.800781 78.621094 3.019531 78.402344 3.238281 C 78.152344 3.488281 77.898438 3.742188 77.648438 3.992188 C 77.457031 4.1875 77.261719 4.382812 77.066406 4.578125 C 76.953125 4.695312 76.835938 4.8125 76.722656 4.925781 C 76.613281 5.039062 76.503906 5.148438 76.394531 5.253906 C 76.355469 5.296875 76.3125 5.335938 76.273438 5.375 C 76.21875 5.429688 76.164062 5.484375 76.109375 5.539062 L 76.019531 5.632812 L 75.929688 5.691406 C 75.824219 5.6875 75.824219 5.6875 75.730469 5.652344 C 75.644531 5.59375 75.644531 5.59375 75.554688 5.515625 C 75.3125 5.3125 75.054688 5.144531 74.785156 4.984375 L 74.707031 4.933594 C 73.628906 4.28125 72.375 3.941406 71.117188 3.886719 C 71 3.878906 71 3.878906 70.921875 3.839844 C 70.855469 3.835938 70.792969 3.835938 70.726562 3.835938 L 70.621094 3.835938 C 70.519531 3.835938 70.519531 3.835938 70.410156 3.878906 C 70.351562 3.886719 70.296875 3.890625 70.242188 3.894531 C 69.117188 3.972656 68.039062 4.242188 67.046875 4.789062 C 66.980469 4.824219 66.910156 4.859375 66.84375 4.894531 C 65.667969 5.53125 64.691406 6.511719 63.992188 7.640625 C 63.617188 8.261719 63.34375 8.90625 63.113281 9.597656 L 64.453125 9.636719 C 64.375 10.03125 64.375 10.03125 64.335938 10.199219 C 64.238281 10.613281 64.191406 11.023438 64.167969 11.449219 L 64.160156 11.570312 L 64.152344 11.679688 L 64.140625 11.765625 C 64.007812 11.828125 63.867188 11.808594 63.722656 11.808594 L 63.617188 11.808594 C 63.5 11.808594 63.386719 11.8125 63.269531 11.8125 L 63.03125 11.8125 C 62.863281 11.8125 62.695312 11.8125 62.527344 11.8125 C 62.308594 11.8125 62.09375 11.8125 61.878906 11.8125 C 61.710938 11.8125 61.546875 11.8125 61.382812 11.8125 C 61.300781 11.8125 61.222656 11.8125 61.144531 11.8125 C 61.03125 11.8125 60.921875 11.8125 60.808594 11.8125 C 60.777344 11.8125 60.742188 11.8125 60.707031 11.8125 C 60.628906 11.8125 60.550781 11.808594 60.472656 11.804688 L 60.394531 11.726562 C 60.269531 10.515625 60.785156 9.101562 61.269531 8.011719 C 61.628906 7.230469 62.066406 6.484375 62.601562 5.8125 L 62.65625 5.742188 C 63.285156 4.9375 63.992188 4.214844 64.808594 3.601562 L 64.875 3.554688 C 65.398438 3.164062 65.953125 2.816406 66.542969 2.539062 L 66.683594 2.472656 C 67.226562 2.210938 67.777344 2 68.359375 1.828125 L 68.441406 1.804688 C 69.136719 1.597656 69.84375 1.457031 70.566406 1.394531 L 70.679688 1.386719 C 71.136719 1.351562 71.59375 1.351562 72.054688 1.351562 "/><path style=" stroke:none;fill-rule:nonzero;fill:#373637;fill-opacity:1;" d="M 77.386719 11.84375 C 77.5 11.839844 77.613281 11.839844 77.726562 11.839844 L 77.835938 11.839844 C 77.953125 11.839844 78.074219 11.839844 78.191406 11.839844 C 78.273438 11.839844 78.355469 11.839844 78.4375 11.839844 C 78.609375 11.839844 78.78125 11.839844 78.953125 11.839844 C 79.175781 11.839844 79.398438 11.839844 79.617188 11.839844 C 79.789062 11.839844 79.957031 11.839844 80.128906 11.839844 C 80.207031 11.839844 80.289062 11.839844 80.371094 11.839844 C 80.484375 11.839844 80.601562 11.839844 80.714844 11.839844 L 80.816406 11.839844 C 80.894531 11.839844 80.976562 11.839844 81.054688 11.84375 L 81.09375 11.882812 C 81.097656 11.953125 81.097656 12.023438 81.097656 12.09375 L 81.097656 12.207031 C 81.09375 12.316406 81.09375 12.316406 81.074219 12.386719 C 81.050781 12.496094 81.042969 12.597656 81.039062 12.707031 C 81.019531 12.992188 80.964844 13.261719 80.898438 13.542969 L 80.878906 13.617188 C 80.746094 14.1875 80.558594 14.730469 80.34375 15.273438 L 80.296875 15.394531 C 80.140625 15.785156 79.976562 16.152344 79.746094 16.503906 C 79.675781 16.609375 79.617188 16.71875 79.554688 16.832031 C 79.425781 17.074219 79.277344 17.296875 79.121094 17.519531 L 79.042969 17.640625 L 78.964844 17.640625 L 78.9375 17.722656 C 78.871094 17.871094 78.777344 17.976562 78.667969 18.097656 C 78.511719 18.277344 78.511719 18.277344 78.371094 18.46875 L 78.292969 18.46875 L 78.265625 18.53125 C 78.195312 18.65625 78.113281 18.753906 78.019531 18.863281 L 77.9375 18.863281 L 77.9375 18.941406 L 77.859375 18.941406 L 77.859375 19.019531 C 77.804688 19.082031 77.804688 19.082031 77.742188 19.136719 L 77.664062 19.136719 L 77.664062 19.214844 C 77.601562 19.273438 77.539062 19.324219 77.476562 19.375 L 77.355469 19.472656 L 77.292969 19.519531 C 77.195312 19.601562 77.101562 19.683594 77.003906 19.765625 C 76.75 19.976562 76.480469 20.164062 76.203125 20.347656 C 76.132812 20.394531 76.0625 20.441406 75.992188 20.492188 C 74.511719 21.476562 72.730469 22.070312 70.960938 22.214844 C 70.355469 22.25 69.75 22.257812 69.144531 22.257812 L 68.882812 22.257812 C 68.652344 22.257812 68.417969 22.257812 68.1875 22.257812 C 67.941406 22.257812 67.699219 22.257812 67.453125 22.257812 C 66.992188 22.257812 66.53125 22.257812 66.070312 22.253906 C 65.546875 22.253906 65.023438 22.253906 64.496094 22.253906 C 63.417969 22.253906 62.339844 22.253906 61.261719 22.253906 L 65.597656 17.914062 C 65.703125 17.96875 65.796875 18.019531 65.890625 18.089844 L 65.964844 18.144531 L 66.042969 18.203125 C 66.144531 18.277344 66.246094 18.351562 66.347656 18.429688 L 66.417969 18.480469 C 66.558594 18.582031 66.695312 18.667969 66.851562 18.742188 L 66.976562 18.804688 L 67.097656 18.863281 C 67.164062 18.894531 67.230469 18.929688 67.296875 18.960938 C 67.71875 19.171875 68.128906 19.351562 68.589844 19.464844 C 68.667969 19.480469 68.746094 19.5 68.820312 19.523438 C 70.132812 19.878906 71.546875 19.808594 72.855469 19.484375 C 73.449219 19.324219 74.007812 19.070312 74.546875 18.78125 L 74.621094 18.746094 C 75.171875 18.453125 75.675781 18.074219 76.125 17.640625 L 76.203125 17.566406 C 76.992188 16.8125 77.589844 15.976562 78.039062 14.976562 L 78.074219 14.902344 C 78.199219 14.613281 78.277344 14.316406 78.371094 14.011719 L 76.992188 14.011719 L 77.152344 13.382812 C 77.238281 12.972656 77.289062 12.578125 77.320312 12.164062 L 77.332031 12.054688 L 77.335938 11.957031 L 77.347656 11.882812 Z M 77.386719 11.84375 "/><path style=" stroke:none;fill-rule:nonzero;fill:#e00713;fill-opacity:1;" d="M 73.359375 6.214844 C 73.738281 6.40625 74.089844 6.621094 74.429688 6.875 L 74.535156 6.957031 C 75.382812 7.621094 76.046875 8.476562 76.449219 9.476562 C 76.578125 9.800781 76.683594 10.121094 76.757812 10.464844 L 76.792969 10.613281 C 76.960938 11.402344 76.949219 12.324219 76.757812 13.105469 L 76.734375 13.203125 C 76.464844 14.300781 75.9375 15.253906 75.160156 16.078125 C 74.398438 16.867188 73.453125 17.425781 72.398438 17.730469 C 71.957031 17.847656 71.496094 17.9375 71.039062 17.953125 L 70.90625 17.960938 C 69.824219 17.988281 68.730469 17.726562 67.78125 17.207031 C 67.511719 17.054688 67.261719 16.882812 67.015625 16.691406 L 66.914062 16.613281 C 66.046875 15.925781 65.429688 15.066406 65.011719 14.042969 C 64.617188 13.03125 64.5 11.9375 64.648438 10.855469 C 64.699219 10.523438 64.78125 10.195312 64.886719 9.871094 L 64.914062 9.796875 C 65.175781 9.027344 65.582031 8.359375 66.109375 7.742188 L 66.210938 7.625 C 66.476562 7.320312 66.769531 7.070312 67.097656 6.835938 C 67.121094 6.820312 67.144531 6.800781 67.167969 6.785156 C 68.03125 6.167969 69.019531 5.789062 70.074219 5.671875 C 71.1875 5.566406 72.347656 5.726562 73.359375 6.214844 M 70.488281 6.914062 L 70.527344 6.992188 L 70.613281 6.992188 C 71.503906 6.976562 72.277344 7.042969 73.074219 7.457031 C 73.742188 7.84375 74.277344 8.324219 74.667969 9 C 75.085938 9.738281 75.195312 10.460938 75.1875 11.304688 C 75.179688 11.601562 75.144531 11.871094 75.0625 12.160156 L 75.039062 12.238281 C 74.832031 12.933594 74.476562 13.507812 73.957031 14.011719 L 73.863281 14.105469 C 73.453125 14.488281 72.917969 14.792969 72.378906 14.957031 L 72.417969 14.878906 C 72.46875 14.851562 72.523438 14.820312 72.574219 14.796875 C 72.792969 14.675781 72.976562 14.527344 73.167969 14.367188 L 73.257812 14.296875 C 73.742188 13.898438 74.074219 13.328125 74.304688 12.75 C 74.574219 12.035156 74.640625 11.246094 74.519531 10.488281 C 74.488281 10.320312 74.441406 10.15625 74.390625 9.992188 L 74.351562 9.855469 C 74.171875 9.339844 73.84375 8.859375 73.484375 8.453125 L 73.421875 8.382812 C 72.933594 7.855469 72.242188 7.484375 71.5625 7.269531 C 71.003906 7.125 70.425781 7.078125 69.855469 7.152344 L 69.769531 7.164062 C 69.058594 7.25 68.429688 7.433594 67.804688 7.78125 L 67.6875 7.847656 C 67.09375 8.203125 66.671875 8.710938 66.335938 9.308594 L 66.269531 9.4375 L 66.226562 9.511719 C 65.960938 10.007812 65.75 10.523438 65.75 11.097656 L 65.75 11.214844 C 65.753906 11.332031 65.753906 11.332031 65.777344 11.4375 C 65.796875 11.527344 65.796875 11.527344 65.773438 11.648438 C 65.746094 11.902344 65.785156 12.148438 65.875 12.386719 C 65.910156 12.46875 65.949219 12.550781 65.992188 12.632812 L 66.109375 12.632812 L 66.085938 12.699219 C 66.066406 12.8125 66.089844 12.886719 66.121094 13 C 66.167969 13.175781 66.207031 13.351562 66.242188 13.53125 C 66.386719 14.214844 66.722656 14.824219 67.175781 15.351562 L 67.230469 15.425781 C 67.484375 15.753906 67.878906 16.015625 68.238281 16.21875 L 68.324219 16.238281 L 68.398438 16.257812 L 68.4375 16.339844 L 68.59375 16.300781 L 68.554688 16.21875 C 68.492188 16.1875 68.429688 16.152344 68.367188 16.121094 C 67.761719 15.796875 67.273438 15.328125 66.910156 14.75 C 66.542969 14.148438 66.320312 13.496094 66.300781 12.789062 C 66.285156 11.996094 66.417969 11.304688 66.792969 10.601562 C 66.949219 10.324219 67.125 10.074219 67.332031 9.832031 L 67.414062 9.726562 C 67.492188 9.636719 67.492188 9.636719 67.570312 9.597656 L 67.570312 9.515625 L 67.636719 9.484375 C 67.734375 9.433594 67.824219 9.375 67.914062 9.308594 C 68.214844 9.09375 68.503906 8.925781 68.851562 8.796875 L 68.960938 8.753906 C 69.046875 8.71875 69.136719 8.683594 69.226562 8.648438 L 69.226562 8.730469 L 69.140625 8.742188 C 68.808594 8.820312 68.527344 9.089844 68.285156 9.316406 L 68.199219 9.398438 L 68.09375 9.5 L 68.003906 9.597656 L 67.941406 9.65625 C 67.484375 10.148438 67.183594 10.804688 67.015625 11.449219 C 66.863281 12.136719 66.902344 12.871094 67.109375 13.542969 C 67.351562 14.289062 67.722656 14.902344 68.289062 15.453125 C 68.832031 15.9375 69.5 16.261719 70.210938 16.417969 C 70.53125 16.480469 70.835938 16.511719 71.164062 16.507812 L 71.292969 16.507812 C 71.664062 16.503906 72.015625 16.460938 72.378906 16.378906 L 72.484375 16.355469 C 73.289062 16.144531 73.964844 15.683594 74.558594 15.117188 C 75.070312 14.589844 75.390625 13.925781 75.578125 13.21875 C 75.609375 13.082031 75.621094 12.96875 75.617188 12.828125 L 75.617188 12.714844 L 75.613281 12.632812 L 75.574219 12.632812 L 75.558594 12.75 C 75.457031 13.476562 75.175781 14.125 74.742188 14.71875 C 74.28125 15.304688 73.703125 15.722656 73.015625 16.003906 C 72.351562 16.257812 71.605469 16.335938 70.902344 16.238281 C 70.75 16.214844 70.597656 16.179688 70.449219 16.140625 L 70.3125 16.109375 C 69.875 15.984375 69.464844 15.78125 69.09375 15.511719 L 69.027344 15.472656 L 68.949219 15.472656 L 68.949219 15.390625 C 68.890625 15.335938 68.890625 15.335938 68.816406 15.277344 C 68.308594 14.839844 67.953125 14.308594 67.6875 13.695312 C 67.660156 13.582031 67.660156 13.582031 67.648438 13.5 L 67.570312 13.5 L 67.570312 13.421875 L 67.6875 13.421875 L 67.71875 13.523438 C 67.886719 13.976562 68.320312 14.398438 68.683594 14.707031 C 69.265625 15.164062 69.9375 15.488281 70.671875 15.601562 C 71.421875 15.699219 72.167969 15.605469 72.875 15.335938 C 73.359375 15.117188 73.765625 14.84375 74.152344 14.484375 L 74.242188 14.40625 C 74.773438 13.910156 75.082031 13.257812 75.296875 12.578125 C 75.4375 12.074219 75.480469 11.492188 75.394531 10.972656 C 75.390625 10.945312 75.382812 10.921875 75.375 10.898438 L 75.457031 10.898438 L 75.335938 10.34375 L 75.257812 10.34375 L 75.296875 10.1875 L 75.21875 10.1875 L 75.207031 10.113281 C 75.136719 9.75 75.136719 9.75 75.019531 9.398438 L 74.941406 9.359375 C 74.914062 9.28125 74.890625 9.203125 74.863281 9.121094 C 74.777344 8.894531 74.660156 8.722656 74.507812 8.53125 L 74.441406 8.441406 C 74.371094 8.351562 74.304688 8.265625 74.234375 8.175781 L 74.171875 8.097656 C 74.058594 7.957031 73.957031 7.867188 73.792969 7.78125 C 73.714844 7.738281 73.644531 7.6875 73.574219 7.632812 C 73.042969 7.226562 72.410156 6.964844 71.75 6.875 C 71.328125 6.832031 70.898438 6.796875 70.488281 6.914062 "/><path style=" stroke:none;fill-rule:nonzero;fill:#373637;fill-opacity:1;" d="M 87.59375 24.839844 L 87.742188 24.839844 C 87.878906 24.839844 88.011719 24.839844 88.148438 24.839844 C 88.292969 24.839844 88.433594 24.839844 88.578125 24.839844 C 88.816406 24.839844 89.054688 24.839844 89.296875 24.839844 C 89.570312 24.84375 89.847656 24.84375 90.121094 24.84375 C 90.386719 24.84375 90.65625 24.84375 90.921875 24.84375 C 91.035156 24.84375 91.144531 24.84375 91.257812 24.84375 C 92.351562 24.84375 93.367188 24.863281 94.339844 25.40625 C 94.699219 25.648438 95.046875 25.972656 95.253906 26.359375 C 95.460938 26.808594 95.46875 27.285156 95.445312 27.773438 C 95.414062 28.117188 95.320312 28.429688 95.132812 28.71875 C 94.835938 29.128906 94.53125 29.390625 94.078125 29.605469 C 93.929688 29.671875 93.785156 29.730469 93.632812 29.785156 L 93.6875 29.871094 C 93.738281 29.957031 93.785156 30.046875 93.828125 30.136719 L 93.90625 30.136719 L 93.90625 30.21875 L 94.027344 30.257812 L 94.027344 30.335938 L 94.105469 30.335938 L 94.105469 30.414062 L 94.183594 30.414062 C 94.242188 30.480469 94.300781 30.546875 94.355469 30.617188 L 94.539062 30.847656 C 94.578125 30.894531 94.617188 30.941406 94.660156 30.988281 L 94.734375 31.085938 L 94.734375 31.164062 L 94.804688 31.191406 C 94.917969 31.257812 94.976562 31.335938 95.054688 31.441406 C 95.152344 31.582031 95.152344 31.582031 95.289062 31.675781 L 95.289062 31.753906 C 94.988281 31.757812 94.6875 31.761719 94.386719 31.761719 C 94.25 31.761719 94.109375 31.761719 93.96875 31.765625 C 93.808594 31.765625 93.648438 31.765625 93.488281 31.765625 C 93.441406 31.765625 93.390625 31.769531 93.339844 31.769531 L 93.074219 31.769531 C 92.945312 31.753906 92.871094 31.710938 92.765625 31.636719 C 92.527344 31.433594 92.332031 31.191406 92.144531 30.945312 C 91.996094 30.753906 91.84375 30.570312 91.683594 30.390625 C 91.609375 30.300781 91.542969 30.222656 91.496094 30.113281 L 91.421875 30.019531 C 91.320312 29.996094 91.242188 29.988281 91.140625 29.988281 L 91.046875 29.984375 C 90.542969 29.972656 90.039062 29.984375 89.53125 29.996094 C 89.390625 30 89.246094 30 89.105469 30.003906 C 88.824219 30.007812 88.546875 30.015625 88.269531 30.019531 L 88.269531 30.132812 C 88.265625 30.269531 88.261719 30.40625 88.257812 30.542969 C 88.257812 30.601562 88.257812 30.664062 88.253906 30.722656 C 88.253906 30.808594 88.253906 30.894531 88.25 30.980469 L 88.246094 31.132812 C 88.226562 31.300781 88.183594 31.410156 88.113281 31.558594 L 88.03125 31.558594 L 88.03125 31.636719 C 87.777344 31.753906 87.574219 31.800781 87.289062 31.796875 L 86.976562 31.796875 C 86.921875 31.796875 86.867188 31.796875 86.8125 31.796875 C 86.679688 31.796875 86.546875 31.796875 86.417969 31.792969 C 86.414062 30.984375 86.410156 30.171875 86.410156 29.359375 C 86.410156 28.984375 86.410156 28.605469 86.40625 28.230469 C 86.40625 27.902344 86.40625 27.574219 86.40625 27.246094 C 86.40625 27.070312 86.40625 26.898438 86.402344 26.722656 C 86.402344 26.558594 86.402344 26.394531 86.402344 26.234375 C 86.402344 26.171875 86.402344 26.113281 86.402344 26.050781 C 86.398438 25.445312 86.398438 25.445312 86.535156 25.171875 C 86.613281 25.0625 86.679688 24.996094 86.800781 24.941406 C 87.066406 24.84375 87.3125 24.839844 87.59375 24.839844 M 69.464844 24.847656 L 69.652344 24.847656 C 69.820312 24.847656 69.988281 24.847656 70.15625 24.847656 C 70.261719 24.847656 70.367188 24.847656 70.472656 24.847656 C 70.804688 24.847656 71.132812 24.847656 71.464844 24.84375 C 71.84375 24.84375 72.222656 24.84375 72.601562 24.84375 C 72.898438 24.84375 73.191406 24.84375 73.484375 24.84375 C 73.660156 24.84375 73.835938 24.84375 74.011719 24.839844 C 74.175781 24.839844 74.34375 24.839844 74.507812 24.839844 C 74.566406 24.839844 74.628906 24.839844 74.6875 24.839844 C 75.003906 24.839844 75.28125 24.847656 75.574219 24.972656 C 75.664062 25.039062 75.664062 25.039062 75.730469 25.105469 C 75.75 25.128906 75.773438 25.152344 75.792969 25.171875 C 75.859375 25.261719 75.894531 25.339844 75.929688 25.445312 C 75.9375 25.578125 75.9375 25.578125 75.9375 25.722656 L 75.9375 25.804688 C 75.933594 25.886719 75.933594 25.96875 75.933594 26.050781 C 75.933594 26.105469 75.933594 26.164062 75.933594 26.21875 C 75.929688 26.355469 75.929688 26.492188 75.929688 26.628906 C 75.371094 26.640625 74.8125 26.648438 74.253906 26.660156 L 73.664062 26.671875 C 72.679688 26.691406 71.699219 26.707031 70.714844 26.71875 L 70.511719 26.722656 C 70.234375 26.726562 69.957031 26.726562 69.675781 26.730469 C 69.59375 26.730469 69.507812 26.730469 69.425781 26.730469 C 69.324219 26.734375 69.222656 26.734375 69.125 26.734375 L 68.992188 26.734375 L 68.878906 26.738281 L 68.792969 26.746094 L 68.710938 26.828125 C 68.699219 26.945312 68.699219 26.945312 68.703125 27.082031 L 68.703125 27.222656 L 68.710938 27.339844 L 68.792969 27.417969 C 68.886719 27.429688 68.886719 27.429688 68.996094 27.425781 L 69.511719 27.425781 C 69.59375 27.421875 69.679688 27.421875 69.761719 27.421875 C 69.9375 27.421875 70.113281 27.421875 70.289062 27.421875 C 70.757812 27.417969 71.222656 27.417969 71.691406 27.414062 C 72 27.410156 72.304688 27.410156 72.613281 27.410156 C 72.757812 27.410156 72.902344 27.410156 73.046875 27.40625 C 74.613281 27.394531 74.613281 27.394531 75.128906 27.625 C 75.398438 27.785156 75.617188 27.976562 75.773438 28.25 C 75.960938 28.625 75.9375 29.058594 75.9375 29.46875 C 75.9375 29.554688 75.9375 29.640625 75.9375 29.726562 C 75.9375 30.183594 75.929688 30.632812 75.703125 31.042969 C 75.578125 31.246094 75.445312 31.375 75.242188 31.5 C 74.933594 31.667969 74.617188 31.734375 74.273438 31.753906 L 74.152344 31.765625 C 73.554688 31.808594 72.957031 31.800781 72.359375 31.800781 C 72.261719 31.800781 72.167969 31.800781 72.070312 31.800781 C 71.734375 31.800781 71.398438 31.800781 71.0625 31.800781 C 70.75 31.800781 70.4375 31.800781 70.125 31.800781 C 69.851562 31.804688 69.582031 31.804688 69.3125 31.804688 C 69.152344 31.804688 68.992188 31.804688 68.832031 31.804688 C 68.679688 31.804688 68.53125 31.804688 68.378906 31.804688 C 68.324219 31.804688 68.269531 31.804688 68.214844 31.804688 C 67.546875 31.808594 67.546875 31.808594 67.242188 31.648438 C 67.121094 31.546875 67.054688 31.457031 66.976562 31.320312 C 66.835938 30.898438 66.898438 30.429688 66.898438 29.980469 L 73.996094 29.941406 L 73.996094 29.191406 L 73.957031 29.152344 C 73.886719 29.148438 73.820312 29.148438 73.75 29.148438 L 73.226562 29.148438 C 73.140625 29.148438 73.054688 29.152344 72.964844 29.152344 C 72.789062 29.152344 72.609375 29.152344 72.429688 29.152344 C 71.917969 29.152344 71.40625 29.15625 70.898438 29.15625 C 70.613281 29.15625 70.332031 29.15625 70.050781 29.160156 C 69.875 29.160156 69.695312 29.160156 69.515625 29.160156 C 69.40625 29.160156 69.292969 29.160156 69.183594 29.160156 C 69.105469 29.160156 69.03125 29.160156 68.957031 29.160156 C 68.503906 29.160156 68.0625 29.109375 67.648438 28.917969 C 67.449219 28.800781 67.28125 28.652344 67.148438 28.460938 C 66.988281 28.160156 66.910156 27.796875 66.898438 27.457031 L 66.894531 27.339844 C 66.882812 26.800781 66.886719 26.152344 67.148438 25.667969 C 67.292969 25.429688 67.460938 25.257812 67.703125 25.113281 C 68.25 24.824219 68.859375 24.847656 69.464844 24.847656 M 78.113281 24.84375 L 78.199219 24.84375 C 78.289062 24.84375 78.382812 24.84375 78.476562 24.84375 L 78.679688 24.84375 C 78.859375 24.84375 79.042969 24.84375 79.226562 24.84375 C 79.414062 24.84375 79.605469 24.84375 79.796875 24.84375 C 80.117188 24.84375 80.4375 24.84375 80.757812 24.84375 C 81.128906 24.84375 81.496094 24.84375 81.867188 24.84375 C 82.183594 24.84375 82.503906 24.84375 82.820312 24.84375 C 83.011719 24.84375 83.199219 24.84375 83.390625 24.84375 C 83.570312 24.84375 83.746094 24.84375 83.925781 24.84375 C 83.992188 24.84375 84.054688 24.84375 84.121094 24.84375 C 84.210938 24.84375 84.300781 24.84375 84.390625 24.84375 L 84.542969 24.84375 C 84.734375 24.859375 84.898438 24.898438 85.0625 24.996094 C 85.15625 25.089844 85.15625 25.089844 85.3125 25.40625 L 85.3125 26.589844 L 79.042969 26.589844 L 79.042969 27.574219 L 79.433594 27.574219 C 79.855469 27.574219 80.277344 27.574219 80.703125 27.574219 C 80.960938 27.574219 81.214844 27.574219 81.472656 27.574219 C 81.722656 27.570312 81.96875 27.570312 82.214844 27.570312 C 82.3125 27.570312 82.40625 27.570312 82.5 27.570312 C 82.632812 27.570312 82.765625 27.570312 82.898438 27.570312 L 83.21875 27.570312 C 83.300781 27.574219 83.300781 27.574219 83.417969 27.613281 L 83.417969 29.074219 L 79.042969 29.074219 L 79.042969 30.136719 L 79.28125 30.136719 C 80.011719 30.136719 80.746094 30.136719 81.476562 30.136719 C 81.855469 30.136719 82.230469 30.136719 82.609375 30.136719 C 82.9375 30.136719 83.265625 30.132812 83.59375 30.132812 C 83.765625 30.132812 83.941406 30.132812 84.113281 30.132812 C 84.277344 30.132812 84.441406 30.132812 84.605469 30.132812 C 84.664062 30.132812 84.726562 30.132812 84.785156 30.132812 C 84.867188 30.132812 84.949219 30.132812 85.03125 30.132812 L 85.171875 30.132812 L 85.273438 30.136719 L 85.3125 30.179688 C 85.324219 30.347656 85.324219 30.519531 85.324219 30.691406 L 85.328125 30.839844 C 85.332031 31.238281 85.332031 31.238281 85.238281 31.429688 C 85.148438 31.566406 85.097656 31.636719 84.957031 31.714844 C 84.601562 31.816406 84.234375 31.804688 83.867188 31.804688 L 83.671875 31.804688 C 83.496094 31.804688 83.320312 31.804688 83.144531 31.804688 C 83 31.804688 82.851562 31.804688 82.703125 31.804688 C 82.359375 31.808594 82.011719 31.808594 81.664062 31.808594 C 81.304688 31.804688 80.949219 31.808594 80.589844 31.808594 C 80.285156 31.808594 79.976562 31.808594 79.667969 31.808594 C 79.484375 31.808594 79.300781 31.808594 79.117188 31.808594 C 78.945312 31.808594 78.773438 31.808594 78.601562 31.808594 C 78.539062 31.808594 78.476562 31.808594 78.414062 31.808594 C 77.769531 31.8125 77.769531 31.8125 77.503906 31.675781 C 77.382812 31.582031 77.320312 31.511719 77.265625 31.371094 C 77.226562 31.238281 77.21875 31.128906 77.21875 30.996094 L 77.21875 30.683594 C 77.21875 30.628906 77.21875 30.570312 77.21875 30.511719 C 77.21875 30.359375 77.21875 30.203125 77.21875 30.050781 C 77.21875 29.917969 77.21875 29.789062 77.21875 29.660156 C 77.214844 29.355469 77.214844 29.050781 77.21875 28.746094 C 77.21875 28.433594 77.214844 28.117188 77.214844 27.804688 C 77.214844 27.535156 77.214844 27.261719 77.214844 26.992188 C 77.214844 26.832031 77.214844 26.671875 77.214844 26.507812 C 77.214844 26.359375 77.214844 26.207031 77.214844 26.054688 C 77.214844 26 77.214844 25.945312 77.214844 25.886719 C 77.210938 25.417969 77.210938 25.417969 77.285156 25.242188 C 77.359375 25.113281 77.429688 25.027344 77.542969 24.933594 C 77.738281 24.867188 77.90625 24.84375 78.113281 24.84375 M 57.722656 24.84375 L 57.878906 24.839844 C 58.300781 24.835938 58.300781 24.835938 58.496094 24.933594 L 58.621094 25.011719 L 58.621094 25.089844 L 58.683594 25.121094 C 58.800781 25.183594 58.894531 25.261719 58.992188 25.34375 C 59.144531 25.472656 59.144531 25.472656 59.304688 25.589844 L 59.367188 25.644531 L 59.367188 25.722656 L 59.441406 25.757812 C 59.527344 25.800781 59.527344 25.800781 59.644531 25.878906 L 59.644531 25.957031 L 59.722656 25.957031 L 59.722656 26.039062 L 59.792969 26.070312 C 59.878906 26.113281 59.941406 26.160156 60.011719 26.222656 L 60.082031 26.285156 L 60.15625 26.351562 C 60.207031 26.394531 60.253906 26.433594 60.300781 26.476562 L 60.371094 26.539062 C 60.421875 26.582031 60.476562 26.621094 60.527344 26.660156 L 60.589844 26.707031 L 60.589844 26.785156 L 60.65625 26.8125 C 60.777344 26.882812 60.875 26.976562 60.976562 27.074219 C 61.136719 27.226562 61.300781 27.367188 61.484375 27.492188 L 61.535156 27.535156 L 61.535156 27.613281 L 61.617188 27.613281 L 61.617188 27.695312 L 61.691406 27.730469 L 61.851562 27.8125 L 61.851562 27.890625 L 61.921875 27.921875 C 62.007812 27.96875 62.066406 28.015625 62.136719 28.085938 C 62.171875 28.117188 62.171875 28.117188 62.207031 28.152344 L 62.28125 28.222656 C 62.476562 28.410156 62.476562 28.410156 62.699219 28.574219 L 62.796875 28.640625 L 62.796875 28.71875 L 62.917969 28.757812 L 62.917969 28.835938 L 62.996094 28.835938 L 62.996094 28.917969 L 63.082031 28.945312 C 63.207031 29.003906 63.273438 29.066406 63.367188 29.167969 C 63.496094 29.304688 63.625 29.40625 63.785156 29.507812 L 63.785156 29.4375 C 63.789062 28.859375 63.792969 28.28125 63.796875 27.707031 C 63.800781 27.425781 63.800781 27.148438 63.804688 26.867188 C 63.804688 26.597656 63.808594 26.332031 63.808594 26.0625 C 63.8125 25.957031 63.8125 25.855469 63.8125 25.753906 C 63.8125 25.609375 63.8125 25.464844 63.816406 25.324219 L 63.816406 24.972656 C 63.820312 24.945312 63.820312 24.921875 63.824219 24.894531 L 63.863281 24.855469 C 64.019531 24.84375 64.179688 24.847656 64.335938 24.84375 C 64.417969 24.84375 64.496094 24.84375 64.574219 24.84375 C 64.851562 24.839844 65.070312 24.847656 65.320312 24.972656 C 65.425781 25.054688 65.496094 25.121094 65.554688 25.238281 C 65.65625 25.515625 65.652344 25.78125 65.652344 26.070312 C 65.652344 26.125 65.652344 26.179688 65.652344 26.234375 C 65.652344 26.378906 65.652344 26.527344 65.652344 26.671875 C 65.652344 26.828125 65.652344 26.980469 65.652344 27.136719 C 65.652344 27.394531 65.652344 27.652344 65.652344 27.910156 C 65.648438 28.207031 65.648438 28.507812 65.648438 28.804688 C 65.648438 29.089844 65.648438 29.378906 65.648438 29.667969 C 65.648438 29.789062 65.648438 29.910156 65.648438 30.03125 C 65.648438 30.175781 65.648438 30.320312 65.648438 30.464844 C 65.648438 30.542969 65.648438 30.617188 65.648438 30.695312 C 65.648438 31 65.632812 31.257812 65.488281 31.53125 C 65.386719 31.652344 65.3125 31.699219 65.164062 31.753906 C 64.90625 31.804688 64.644531 31.808594 64.378906 31.8125 L 64.246094 31.816406 C 64.070312 31.820312 63.921875 31.820312 63.761719 31.75 C 63.671875 31.691406 63.589844 31.628906 63.507812 31.558594 L 63.429688 31.496094 C 63.359375 31.433594 63.285156 31.371094 63.214844 31.308594 C 63.058594 31.160156 63.058594 31.160156 62.878906 31.046875 L 62.878906 30.964844 C 62.855469 30.957031 62.835938 30.949219 62.8125 30.941406 C 62.6875 30.867188 62.582031 30.773438 62.472656 30.679688 L 62.398438 30.613281 C 62.347656 30.570312 62.296875 30.527344 62.246094 30.480469 C 62.167969 30.414062 62.089844 30.347656 62.011719 30.28125 C 61.800781 30.097656 61.59375 29.917969 61.386719 29.730469 C 61.230469 29.59375 61.066406 29.464844 60.902344 29.335938 L 60.828125 29.269531 L 60.828125 29.191406 L 60.761719 29.164062 C 60.648438 29.101562 60.5625 29.023438 60.46875 28.933594 C 60.320312 28.792969 60.167969 28.660156 60.007812 28.535156 C 59.863281 28.414062 59.730469 28.292969 59.597656 28.15625 C 59.476562 28.039062 59.34375 27.941406 59.207031 27.839844 L 59.132812 27.773438 L 59.132812 27.695312 L 59.0625 27.660156 C 58.921875 27.585938 58.808594 27.480469 58.6875 27.378906 L 58.609375 27.3125 L 58.539062 27.25 C 58.503906 27.222656 58.503906 27.222656 58.46875 27.191406 L 58.421875 27.140625 L 58.421875 27.0625 L 58.34375 27.0625 L 58.34375 31.792969 C 57.070312 31.792969 57.070312 31.792969 56.824219 31.652344 C 56.722656 31.574219 56.683594 31.507812 56.625 31.390625 C 56.539062 31.148438 56.550781 30.898438 56.554688 30.644531 C 56.554688 30.585938 56.554688 30.53125 56.554688 30.476562 C 56.550781 30.324219 56.550781 30.171875 56.554688 30.019531 C 56.554688 29.859375 56.554688 29.699219 56.554688 29.539062 C 56.550781 29.273438 56.554688 29.003906 56.554688 28.738281 C 56.554688 28.429688 56.554688 28.117188 56.554688 27.808594 C 56.550781 27.542969 56.550781 27.277344 56.554688 27.011719 C 56.554688 26.851562 56.554688 26.695312 56.554688 26.535156 C 56.550781 26.386719 56.550781 26.238281 56.554688 26.089844 C 56.554688 26.035156 56.554688 25.980469 56.554688 25.925781 C 56.550781 25.632812 56.558594 25.394531 56.6875 25.132812 C 56.761719 25.050781 56.761719 25.050781 56.84375 24.996094 L 56.921875 24.9375 C 57.164062 24.804688 57.457031 24.84375 57.722656 24.84375 M 50.339844 24.847656 L 50.445312 24.847656 C 50.515625 24.847656 50.585938 24.847656 50.660156 24.847656 C 50.765625 24.847656 50.875 24.847656 50.984375 24.847656 C 51.054688 24.847656 51.125 24.847656 51.195312 24.847656 L 51.292969 24.84375 C 51.53125 24.847656 51.753906 24.871094 51.96875 24.980469 C 52.171875 25.136719 52.300781 25.304688 52.429688 25.523438 L 52.496094 25.636719 C 52.632812 25.863281 52.757812 26.09375 52.882812 26.328125 C 52.941406 26.429688 53 26.527344 53.058594 26.625 C 53.148438 26.769531 53.222656 26.914062 53.296875 27.066406 C 53.367188 27.210938 53.441406 27.34375 53.53125 27.476562 C 53.652344 27.648438 53.738281 27.824219 53.828125 28.011719 C 53.898438 28.148438 53.976562 28.28125 54.058594 28.414062 C 54.152344 28.566406 54.238281 28.71875 54.324219 28.871094 C 54.402344 29.007812 54.480469 29.140625 54.5625 29.277344 C 54.648438 29.417969 54.722656 29.558594 54.792969 29.707031 C 54.882812 29.882812 54.976562 30.042969 55.089844 30.207031 C 55.199219 30.375 55.292969 30.550781 55.386719 30.730469 C 55.417969 30.785156 55.445312 30.839844 55.476562 30.894531 L 55.523438 30.980469 C 55.574219 31.066406 55.625 31.15625 55.675781 31.246094 L 55.722656 31.332031 C 55.757812 31.386719 55.789062 31.445312 55.820312 31.503906 C 55.9375 31.707031 55.9375 31.707031 55.9375 31.792969 C 55.746094 31.796875 55.550781 31.796875 55.359375 31.796875 C 55.292969 31.800781 55.226562 31.800781 55.160156 31.800781 C 54.214844 31.808594 54.214844 31.808594 53.894531 31.652344 C 53.558594 31.398438 53.367188 30.980469 53.179688 30.613281 L 53.179688 30.53125 L 49.351562 30.53125 C 49.71875 29.800781 49.71875 29.800781 49.921875 29.46875 L 49.980469 29.367188 C 50.09375 29.179688 50.09375 29.179688 50.140625 29.113281 C 50.242188 29.0625 50.308594 29.070312 50.421875 29.070312 L 50.824219 29.070312 C 50.972656 29.070312 51.121094 29.070312 51.269531 29.070312 C 51.371094 29.070312 51.472656 29.070312 51.570312 29.070312 C 51.816406 29.074219 52.0625 29.074219 52.3125 29.074219 L 52.261719 28.988281 C 51.910156 28.386719 51.566406 27.78125 51.230469 27.171875 C 51.121094 26.984375 51.015625 26.792969 50.910156 26.605469 L 50.8125 26.433594 L 50.695312 26.472656 C 50.636719 26.5625 50.636719 26.5625 50.589844 26.679688 C 50.480469 26.90625 50.351562 27.117188 50.21875 27.332031 C 50.128906 27.480469 50.042969 27.632812 49.960938 27.789062 C 49.90625 27.890625 49.847656 27.988281 49.789062 28.089844 C 49.683594 28.257812 49.589844 28.429688 49.496094 28.601562 C 49.445312 28.699219 49.390625 28.792969 49.339844 28.886719 C 49.273438 29.007812 49.203125 29.128906 49.140625 29.25 C 48.925781 29.644531 48.699219 30.035156 48.46875 30.421875 C 48.34375 30.632812 48.222656 30.847656 48.105469 31.0625 C 47.988281 31.28125 47.875 31.488281 47.671875 31.636719 C 47.410156 31.792969 47.125 31.789062 46.828125 31.796875 C 46.628906 31.800781 46.425781 31.796875 46.226562 31.796875 C 46.164062 31.796875 46.105469 31.796875 46.046875 31.796875 C 45.898438 31.796875 45.753906 31.796875 45.609375 31.792969 C 45.667969 31.605469 45.75 31.441406 45.855469 31.273438 C 45.902344 31.195312 45.949219 31.117188 46 31.039062 C 46.074219 30.910156 46.144531 30.78125 46.214844 30.652344 C 46.445312 30.21875 46.6875 29.792969 46.9375 29.371094 C 47.164062 28.984375 47.382812 28.59375 47.601562 28.199219 C 47.804688 27.832031 48.011719 27.464844 48.222656 27.097656 C 48.339844 26.894531 48.457031 26.691406 48.574219 26.488281 C 48.664062 26.328125 48.753906 26.171875 48.84375 26.015625 C 48.898438 25.921875 48.949219 25.824219 49.003906 25.730469 L 49.046875 25.65625 C 49.085938 25.585938 49.125 25.515625 49.164062 25.449219 C 49.289062 25.238281 49.421875 25.066406 49.632812 24.9375 C 49.867188 24.851562 50.097656 24.847656 50.339844 24.847656 "/><path style=" stroke:none;fill-rule:nonzero;fill:#fefefe;fill-opacity:1;" d="M 70.730469 9.503906 L 70.839844 9.503906 C 71.144531 9.507812 71.390625 9.558594 71.671875 9.675781 L 71.753906 9.707031 C 72.066406 9.839844 72.351562 10.085938 72.5625 10.351562 C 72.742188 10.59375 72.882812 10.84375 72.972656 11.132812 L 72.996094 11.21875 C 73.101562 11.605469 73.070312 12.003906 72.96875 12.390625 C 72.839844 12.8125 72.625 13.207031 72.300781 13.511719 C 71.957031 13.800781 71.558594 13.988281 71.117188 14.074219 C 70.671875 14.132812 70.253906 14.082031 69.835938 13.917969 C 69.441406 13.738281 69.132812 13.496094 68.863281 13.152344 C 68.578125 12.730469 68.464844 12.277344 68.425781 11.773438 C 68.441406 11.332031 68.558594 10.917969 68.792969 10.542969 C 69.015625 10.214844 69.28125 9.953125 69.628906 9.761719 C 70 9.585938 70.324219 9.5 70.730469 9.503906 M 88.308594 26.628906 C 88.382812 26.621094 88.382812 26.621094 88.476562 26.621094 L 88.578125 26.617188 L 88.816406 26.617188 C 88.953125 26.617188 89.085938 26.617188 89.21875 26.617188 L 89.496094 26.617188 C 89.691406 26.617188 89.886719 26.617188 90.082031 26.617188 C 90.332031 26.621094 90.578125 26.617188 90.828125 26.617188 C 91.019531 26.617188 91.210938 26.617188 91.402344 26.617188 C 91.496094 26.617188 91.585938 26.617188 91.679688 26.617188 C 91.808594 26.617188 91.9375 26.617188 92.066406 26.617188 L 92.179688 26.617188 C 92.457031 26.621094 92.71875 26.644531 92.96875 26.773438 C 93.101562 26.882812 93.214844 27 93.316406 27.140625 C 93.367188 27.289062 93.371094 27.421875 93.355469 27.574219 C 93.316406 27.71875 93.269531 27.816406 93.167969 27.925781 C 93.027344 28.054688 92.90625 28.144531 92.726562 28.207031 C 92.632812 28.214844 92.632812 28.214844 92.53125 28.214844 L 92.160156 28.214844 C 92.019531 28.214844 91.875 28.214844 91.730469 28.214844 L 91.433594 28.214844 C 91.195312 28.214844 90.960938 28.210938 90.726562 28.210938 C 90.457031 28.210938 90.191406 28.210938 89.921875 28.210938 C 89.371094 28.210938 88.820312 28.207031 88.269531 28.207031 C 88.222656 28.0625 88.222656 27.929688 88.222656 27.777344 L 88.222656 27.6875 C 88.222656 27.621094 88.222656 27.558594 88.222656 27.492188 C 88.222656 27.394531 88.222656 27.296875 88.222656 27.199219 C 88.222656 27.136719 88.222656 27.074219 88.222656 27.011719 L 88.21875 26.925781 C 88.21875 26.851562 88.226562 26.78125 88.230469 26.707031 Z M 88.308594 26.628906 "/><path style=" stroke:none;fill-rule:nonzero;fill:#fefefe;fill-opacity:1;" d="M 75.375 10.898438 L 75.457031 10.898438 C 75.472656 10.976562 75.492188 11.054688 75.511719 11.132812 L 75.542969 11.265625 C 75.6875 11.949219 75.679688 12.730469 75.464844 13.398438 C 75.246094 14.019531 74.945312 14.542969 74.507812 15.039062 L 74.445312 15.109375 C 74.027344 15.5625 73.457031 15.902344 72.875 16.09375 C 72.125 16.316406 71.359375 16.382812 70.589844 16.214844 L 70.449219 16.179688 L 70.3125 16.148438 C 69.832031 16.011719 69.347656 15.777344 68.949219 15.472656 L 68.949219 15.390625 L 68.882812 15.363281 C 68.5 15.148438 68.234375 14.726562 68.003906 14.367188 L 67.921875 14.246094 C 67.851562 14.136719 67.792969 14.03125 67.738281 13.910156 L 67.6875 13.800781 C 67.648438 13.695312 67.640625 13.613281 67.648438 13.5 L 67.570312 13.5 L 67.570312 13.421875 L 67.6875 13.421875 C 67.746094 13.507812 67.746094 13.507812 67.804688 13.625 C 68.101562 14.15625 68.53125 14.605469 69.046875 14.929688 C 69.75 15.34375 70.46875 15.59375 71.289062 15.605469 C 72.03125 15.601562 72.761719 15.394531 73.410156 15.027344 C 73.683594 14.863281 73.917969 14.664062 74.152344 14.445312 L 74.234375 14.375 C 74.75 13.898438 75.050781 13.238281 75.257812 12.574219 C 75.414062 12.023438 75.382812 11.464844 75.375 10.898438 M 71.515625 7.59375 C 71.59375 7.628906 71.671875 7.664062 71.75 7.703125 L 71.820312 7.738281 C 72.492188 8.078125 73.042969 8.558594 73.460938 9.1875 C 73.671875 9.511719 73.839844 9.859375 73.957031 10.226562 L 73.957031 10.382812 L 73.878906 10.382812 L 73.832031 10.285156 C 73.539062 9.660156 73.128906 9.167969 72.5625 8.773438 C 72.003906 8.394531 71.394531 8.148438 70.722656 8.058594 C 70.558594 8.046875 70.394531 8.042969 70.226562 8.042969 L 70.09375 8.042969 C 69.378906 8.054688 68.703125 8.253906 68.082031 8.609375 C 67.460938 8.996094 66.964844 9.507812 66.613281 10.148438 C 66.210938 10.910156 66.078125 11.699219 66.109375 12.554688 L 66.03125 12.554688 C 65.933594 12.167969 65.894531 11.816406 65.894531 11.417969 L 65.898438 11.261719 C 65.910156 10.558594 66.074219 9.953125 66.429688 9.34375 C 66.851562 8.648438 67.425781 8.160156 68.121094 7.753906 C 69.132812 7.210938 70.453125 7.183594 71.515625 7.59375 "/><path style=" stroke:none;fill-rule:nonzero;fill:#fdfdfd;fill-opacity:1;" d="M 72.96875 7.363281 C 73.621094 7.699219 74.179688 8.175781 74.585938 8.789062 C 74.921875 9.339844 75.195312 9.960938 75.222656 10.613281 C 75.25 11.65625 75.25 11.65625 75.101562 12.160156 L 75.078125 12.238281 C 74.875 12.933594 74.515625 13.507812 73.996094 14.011719 L 73.894531 14.113281 C 73.523438 14.460938 73.082031 14.722656 72.617188 14.917969 C 72.480469 14.945312 72.480469 14.945312 72.378906 14.957031 L 72.417969 14.839844 C 72.488281 14.796875 72.488281 14.796875 72.574219 14.753906 C 72.796875 14.636719 72.976562 14.488281 73.167969 14.328125 L 73.25 14.265625 C 73.722656 13.890625 74.042969 13.308594 74.265625 12.75 C 74.535156 12.035156 74.601562 11.246094 74.480469 10.488281 C 74.449219 10.320312 74.402344 10.15625 74.351562 9.992188 L 74.3125 9.855469 C 74.089844 9.207031 73.640625 8.605469 73.132812 8.15625 C 72.566406 7.699219 71.894531 7.351562 71.175781 7.230469 C 70.742188 7.164062 70.332031 7.132812 69.894531 7.191406 L 69.933594 7.113281 C 70.019531 7.078125 70.019531 7.078125 70.132812 7.050781 C 70.167969 7.039062 70.203125 7.03125 70.242188 7.019531 C 71.175781 6.824219 72.113281 6.964844 72.96875 7.363281 M 69.226562 8.648438 L 69.226562 8.730469 L 69.136719 8.769531 C 68.800781 8.925781 68.507812 9.121094 68.253906 9.390625 L 68.199219 9.4375 L 68.121094 9.4375 L 68.089844 9.507812 C 68.042969 9.597656 67.992188 9.65625 67.921875 9.726562 C 67.46875 10.234375 67.175781 10.910156 67.03125 11.570312 C 66.890625 12.347656 66.992188 13.113281 67.253906 13.855469 C 67.484375 14.496094 67.886719 15.058594 68.398438 15.511719 C 68.941406 15.9375 69.539062 16.214844 70.210938 16.378906 L 70.324219 16.40625 C 70.75 16.496094 71.199219 16.464844 71.628906 16.457031 L 71.628906 16.535156 C 70.804688 16.707031 69.917969 16.761719 69.105469 16.496094 L 68.972656 16.453125 C 68.449219 16.269531 67.980469 15.960938 67.570312 15.589844 L 67.46875 15.5 C 66.984375 15.046875 66.636719 14.445312 66.4375 13.816406 C 66.238281 13.15625 66.195312 12.429688 66.3125 11.746094 C 66.488281 11.035156 66.8125 10.386719 67.292969 9.832031 C 67.332031 9.785156 67.367188 9.738281 67.40625 9.691406 L 67.492188 9.597656 L 67.570312 9.597656 L 67.570312 9.515625 C 67.652344 9.449219 67.738281 9.386719 67.824219 9.328125 L 67.902344 9.273438 C 67.953125 9.238281 68.003906 9.203125 68.054688 9.167969 C 68.105469 9.132812 68.15625 9.097656 68.203125 9.0625 C 68.46875 8.882812 68.90625 8.648438 69.226562 8.648438 "/><path style=" stroke:none;fill-rule:nonzero;fill:#ad0c16;fill-opacity:1;" d="M 73.359375 6.214844 C 73.738281 6.40625 74.089844 6.621094 74.429688 6.875 L 74.535156 6.957031 C 75.382812 7.621094 76.046875 8.476562 76.449219 9.476562 C 76.578125 9.800781 76.683594 10.121094 76.757812 10.464844 L 76.792969 10.613281 C 76.960938 11.402344 76.949219 12.324219 76.757812 13.105469 L 76.734375 13.203125 C 76.464844 14.300781 75.9375 15.253906 75.160156 16.078125 C 74.398438 16.867188 73.453125 17.425781 72.398438 17.730469 C 71.957031 17.847656 71.496094 17.9375 71.039062 17.953125 L 70.90625 17.960938 C 69.824219 17.988281 68.730469 17.726562 67.78125 17.207031 C 67.511719 17.054688 67.261719 16.882812 67.015625 16.691406 L 66.914062 16.613281 C 66.046875 15.925781 65.429688 15.066406 65.011719 14.042969 C 64.617188 13.03125 64.5 11.9375 64.648438 10.855469 C 64.699219 10.523438 64.78125 10.195312 64.886719 9.871094 L 64.914062 9.796875 C 65.175781 9.027344 65.582031 8.359375 66.109375 7.742188 L 66.210938 7.625 C 66.476562 7.320312 66.769531 7.070312 67.097656 6.835938 C 67.121094 6.820312 67.144531 6.800781 67.167969 6.785156 C 68.03125 6.167969 69.019531 5.789062 70.074219 5.671875 C 71.1875 5.566406 72.347656 5.726562 73.359375 6.214844 M 69.382812 5.851562 L 69.289062 5.871094 C 68.570312 6.050781 67.890625 6.359375 67.292969 6.796875 L 67.175781 6.875 L 67.175781 6.953125 L 67.109375 6.964844 C 66.984375 7.003906 66.917969 7.074219 66.824219 7.164062 C 66.722656 7.257812 66.625 7.347656 66.511719 7.433594 L 66.425781 7.507812 L 66.425781 7.625 L 66.355469 7.65625 C 65.96875 7.867188 65.703125 8.402344 65.480469 8.769531 C 65.246094 9.167969 65.027344 9.585938 64.886719 10.03125 L 64.863281 10.113281 C 64.699219 10.625 64.671875 11.125 64.671875 11.660156 L 64.671875 11.753906 C 64.667969 12.257812 64.6875 12.792969 64.886719 13.261719 C 64.898438 13.320312 64.910156 13.375 64.917969 13.433594 C 65.050781 14.109375 65.410156 14.847656 65.835938 15.390625 L 65.914062 15.390625 L 65.941406 15.476562 C 66.003906 15.617188 66.097656 15.714844 66.203125 15.824219 L 66.257812 15.886719 C 66.496094 16.140625 66.742188 16.363281 67.015625 16.574219 L 67.101562 16.640625 C 67.164062 16.6875 67.226562 16.730469 67.292969 16.773438 L 67.410156 16.773438 L 67.410156 16.851562 L 67.609375 16.890625 L 67.609375 16.96875 C 67.800781 17.066406 67.992188 17.15625 68.1875 17.242188 C 68.28125 17.285156 68.367188 17.332031 68.457031 17.378906 C 69.226562 17.769531 70.226562 17.886719 71.078125 17.835938 C 72.199219 17.734375 73.28125 17.367188 74.207031 16.722656 C 74.40625 16.578125 74.585938 16.410156 74.761719 16.238281 C 74.863281 16.140625 74.863281 16.140625 74.980469 16.0625 L 74.980469 15.984375 L 75.046875 15.957031 C 75.171875 15.886719 75.253906 15.785156 75.34375 15.675781 L 75.402344 15.605469 C 75.992188 14.886719 76.46875 13.992188 76.636719 13.066406 L 76.636719 12.96875 C 76.636719 12.867188 76.636719 12.867188 76.675781 12.777344 C 76.878906 12.257812 76.84375 11.507812 76.769531 10.960938 C 76.59375 9.859375 76.195312 8.886719 75.496094 8.019531 L 75.398438 7.898438 C 75.175781 7.628906 74.949219 7.363281 74.667969 7.152344 L 74.585938 7.152344 L 74.585938 7.074219 C 74.492188 7 74.394531 6.933594 74.296875 6.867188 L 74.207031 6.804688 C 74.125 6.75 74.039062 6.695312 73.957031 6.640625 L 73.851562 6.570312 C 73.355469 6.253906 72.789062 6.039062 72.222656 5.890625 L 72.140625 5.867188 C 71.28125 5.632812 70.246094 5.640625 69.382812 5.851562 "/><path style=" stroke:none;fill-rule:nonzero;fill:#bb0d17;fill-opacity:1;" d="M 68.398438 8.414062 L 68.515625 8.453125 L 68.121094 8.6875 C 68.15625 8.832031 68.199219 8.921875 68.277344 9.042969 C 68.175781 9.125 68.074219 9.203125 67.96875 9.28125 L 67.878906 9.347656 L 67.792969 9.414062 L 67.714844 9.472656 L 67.648438 9.515625 L 67.570312 9.515625 L 67.570312 9.597656 C 67.523438 9.640625 67.480469 9.6875 67.433594 9.734375 L 67.371094 9.792969 L 67.3125 9.851562 C 66.910156 10.277344 66.65625 10.828125 66.464844 11.371094 L 66.421875 11.492188 C 66.230469 12.113281 66.25 12.863281 66.386719 13.496094 C 66.550781 14.183594 66.859375 14.78125 67.332031 15.3125 L 67.410156 15.402344 C 67.746094 15.757812 68.160156 16.042969 68.59375 16.257812 L 68.554688 16.339844 L 68.4375 16.339844 L 68.398438 16.257812 C 68.332031 16.230469 68.261719 16.203125 68.195312 16.175781 C 67.796875 15.996094 67.355469 15.625 67.089844 15.277344 C 67.054688 15.226562 67.015625 15.171875 66.976562 15.117188 L 66.921875 15.039062 C 66.472656 14.40625 66.257812 13.714844 66.128906 12.957031 C 66.113281 12.867188 66.113281 12.867188 66.085938 12.785156 L 66.070312 12.710938 L 66.109375 12.632812 L 66.039062 12.625 L 65.953125 12.59375 C 65.808594 12.292969 65.753906 11.9375 65.753906 11.605469 C 65.761719 11.578125 65.769531 11.550781 65.777344 11.523438 L 65.796875 11.449219 L 65.753906 11.332031 C 65.703125 10.8125 65.863281 10.261719 66.070312 9.792969 C 66.128906 9.683594 66.1875 9.574219 66.269531 9.476562 L 66.347656 9.476562 C 66.308594 9.660156 66.234375 9.828125 66.164062 10 C 65.984375 10.460938 65.933594 10.917969 65.941406 11.410156 L 65.941406 11.558594 C 65.941406 11.898438 65.976562 12.21875 66.03125 12.554688 L 66.109375 12.554688 L 66.089844 12.4375 C 66.003906 11.824219 66.132812 11.148438 66.359375 10.578125 C 66.632812 9.9375 67.082031 9.292969 67.640625 8.871094 C 67.878906 8.699219 68.128906 8.527344 68.398438 8.414062 "/><path style=" stroke:none;fill-rule:nonzero;fill:#bb0e18;fill-opacity:1;" d="M 72.871094 7.203125 C 73.210938 7.363281 73.515625 7.566406 73.808594 7.808594 C 73.878906 7.867188 73.878906 7.867188 73.996094 7.902344 C 74.207031 8.09375 74.371094 8.347656 74.535156 8.582031 C 74.601562 8.675781 74.664062 8.765625 74.746094 8.847656 C 74.78125 8.917969 74.816406 8.992188 74.847656 9.0625 L 74.902344 9.179688 C 74.941406 9.28125 74.941406 9.28125 74.941406 9.359375 L 75.019531 9.398438 C 75.121094 9.648438 75.171875 9.921875 75.21875 10.1875 L 75.296875 10.1875 L 75.257812 10.34375 L 75.335938 10.34375 C 75.421875 10.714844 75.421875 10.714844 75.457031 10.898438 L 75.375 10.898438 L 75.394531 10.972656 C 75.5 11.609375 75.417969 12.292969 75.191406 12.894531 C 74.902344 13.625 74.488281 14.222656 73.890625 14.734375 C 73.582031 14.976562 73.25 15.148438 72.890625 15.3125 L 72.8125 15.234375 L 72.890625 15.203125 L 72.972656 15.15625 L 73.011719 15.039062 C 72.972656 14.984375 72.933594 14.929688 72.890625 14.878906 L 72.890625 14.761719 C 72.976562 14.703125 72.976562 14.703125 73.097656 14.640625 C 73.683594 14.3125 74.1875 13.871094 74.546875 13.300781 L 74.617188 13.195312 C 74.824219 12.867188 74.949219 12.527344 75.0625 12.160156 L 75.101562 12.023438 C 75.253906 11.402344 75.253906 10.660156 75.097656 10.039062 L 75.0625 9.910156 L 75.023438 9.777344 C 74.84375 9.21875 74.546875 8.726562 74.152344 8.296875 L 74.078125 8.207031 C 73.617188 7.703125 72.960938 7.351562 72.316406 7.140625 C 71.890625 7.011719 71.472656 6.984375 71.03125 6.988281 L 70.882812 6.988281 C 70.761719 6.992188 70.644531 6.992188 70.527344 6.992188 L 70.488281 6.914062 C 71.261719 6.695312 72.144531 6.898438 72.871094 7.203125 "/><path style=" stroke:none;fill-rule:nonzero;fill:#b20e19;fill-opacity:1;" d="M 75.574219 12.632812 L 75.613281 12.632812 C 75.640625 13.136719 75.503906 13.558594 75.296875 14.011719 L 75.242188 14.132812 C 75.117188 14.398438 74.976562 14.621094 74.785156 14.839844 L 74.703125 14.9375 C 74.136719 15.585938 73.46875 16.003906 72.664062 16.296875 C 72.246094 16.433594 71.832031 16.480469 71.394531 16.496094 L 71.3125 16.5 C 70.550781 16.535156 69.816406 16.378906 69.136719 16.039062 C 68.707031 15.796875 68.222656 15.496094 67.964844 15.0625 L 67.925781 14.957031 L 67.964844 14.878906 C 68.078125 14.8125 68.078125 14.8125 68.199219 14.761719 L 68.277344 14.800781 L 68.277344 14.878906 L 68.34375 14.886719 C 68.480469 14.933594 68.5625 15.03125 68.660156 15.136719 C 68.789062 15.28125 68.789062 15.28125 68.949219 15.390625 L 68.949219 15.472656 L 69.03125 15.5 C 69.140625 15.546875 69.234375 15.605469 69.332031 15.667969 C 69.84375 16 70.46875 16.222656 71.078125 16.257812 C 71.925781 16.300781 72.6875 16.179688 73.449219 15.792969 C 73.6875 15.667969 73.90625 15.523438 74.113281 15.351562 L 74.214844 15.273438 C 74.691406 14.871094 75.007812 14.382812 75.257812 13.816406 L 75.316406 13.683594 C 75.460938 13.34375 75.519531 12.996094 75.574219 12.632812 "/><path style=" stroke:none;fill-rule:nonzero;fill:#b20f1a;fill-opacity:1;" d="M 76.597656 10.1875 L 76.675781 10.1875 C 76.695312 10.253906 76.714844 10.324219 76.730469 10.390625 L 76.761719 10.507812 C 76.855469 10.929688 76.890625 11.339844 76.886719 11.773438 L 76.886719 11.851562 C 76.882812 12.28125 76.859375 12.6875 76.757812 13.105469 L 76.734375 13.203125 C 76.464844 14.300781 75.9375 15.253906 75.160156 16.078125 C 74.398438 16.867188 73.453125 17.425781 72.398438 17.730469 C 71.777344 17.894531 71.164062 17.964844 70.527344 17.953125 L 70.488281 17.835938 L 70.5625 17.832031 C 71.820312 17.761719 72.996094 17.476562 74.0625 16.78125 C 74.296875 16.625 74.5 16.449219 74.703125 16.253906 C 74.796875 16.160156 74.855469 16.105469 74.980469 16.0625 L 74.980469 15.984375 C 75.023438 15.9375 75.070312 15.894531 75.113281 15.851562 C 75.847656 15.125 76.273438 14.234375 76.558594 13.25 C 76.582031 13.148438 76.597656 13.070312 76.597656 12.96875 C 76.597656 12.867188 76.597656 12.867188 76.636719 12.777344 C 76.828125 12.289062 76.8125 11.574219 76.742188 11.058594 C 76.703125 10.832031 76.660156 10.609375 76.613281 10.386719 C 76.597656 10.304688 76.597656 10.304688 76.597656 10.1875 "/><path style=" stroke:none;fill-rule:nonzero;fill:#a90c14;fill-opacity:1;" d="M 70.527344 3.761719 L 70.527344 3.839844 C 70.421875 3.875 70.347656 3.886719 70.242188 3.894531 C 69.117188 3.972656 68.039062 4.242188 67.046875 4.789062 C 66.980469 4.824219 66.910156 4.859375 66.84375 4.894531 C 65.667969 5.53125 64.691406 6.511719 63.992188 7.640625 C 63.617188 8.261719 63.34375 8.90625 63.113281 9.597656 L 64.453125 9.636719 C 64.375 10.03125 64.375 10.03125 64.296875 10.1875 L 64.257812 10.148438 C 64.273438 9.992188 64.289062 9.859375 64.335938 9.714844 L 64.261719 9.714844 C 63.382812 9.722656 63.382812 9.722656 63.035156 9.675781 C 63.011719 9.605469 63.011719 9.605469 62.996094 9.515625 C 63.023438 9.410156 63.054688 9.304688 63.089844 9.199219 L 63.121094 9.105469 C 63.476562 8.097656 64.050781 7.175781 64.757812 6.378906 C 64.824219 6.308594 64.886719 6.234375 64.949219 6.160156 C 65.410156 5.632812 66.007812 5.15625 66.625 4.824219 L 66.699219 4.78125 C 67.847656 4.144531 69.199219 3.726562 70.527344 3.761719 "/><path style=" stroke:none;fill-rule:nonzero;fill:#b20f1a;fill-opacity:1;" d="M 70.449219 9.4375 L 70.488281 9.515625 L 70.375 9.542969 C 69.898438 9.65625 69.472656 9.832031 69.109375 10.175781 C 68.828125 10.488281 68.632812 10.835938 68.527344 11.242188 C 68.4375 11.671875 68.460938 12.148438 68.59375 12.566406 C 68.757812 12.976562 69.015625 13.34375 69.363281 13.617188 C 69.699219 13.84375 70.085938 14 70.488281 14.050781 C 70.957031 14.082031 71.367188 14.007812 71.792969 13.8125 C 72.128906 13.636719 72.410156 13.402344 72.632812 13.089844 C 72.886719 12.671875 73.007812 12.242188 73.023438 11.753906 C 73.015625 11.355469 72.914062 10.988281 72.71875 10.640625 C 72.527344 10.335938 72.324219 10.117188 72.023438 9.910156 L 72.0625 9.832031 C 72.414062 10.046875 72.632812 10.277344 72.835938 10.632812 C 72.933594 10.820312 72.992188 11.011719 73.050781 11.210938 L 73.078125 11.3125 C 73.183594 11.738281 73.097656 12.15625 72.980469 12.570312 C 72.847656 12.953125 72.625 13.304688 72.332031 13.582031 C 72.015625 13.847656 71.648438 14.054688 71.246094 14.152344 C 70.746094 14.222656 70.25 14.195312 69.777344 14.011719 C 69.375 13.820312 69.0625 13.578125 68.804688 13.214844 C 68.589844 12.898438 68.386719 12.53125 68.347656 12.144531 C 68.324219 11.582031 68.371094 11.140625 68.621094 10.632812 C 68.835938 10.261719 69.164062 9.914062 69.53125 9.6875 C 69.84375 9.511719 70.085938 9.425781 70.449219 9.4375 "/><path style=" stroke:none;fill-rule:nonzero;fill:#a10711;fill-opacity:1;" d="M 66.269531 9.476562 L 66.347656 9.476562 C 66.308594 9.660156 66.234375 9.828125 66.164062 10 C 65.984375 10.460938 65.933594 10.917969 65.941406 11.410156 L 65.941406 11.558594 C 65.941406 11.898438 65.976562 12.21875 66.03125 12.554688 L 66.109375 12.554688 L 66.089844 12.4375 C 66.066406 12.265625 66.066406 12.09375 66.070312 11.921875 L 66.148438 11.960938 L 66.148438 11.882812 L 66.308594 11.921875 L 66.304688 12.007812 C 66.289062 12.882812 66.324219 13.703125 66.746094 14.488281 C 66.914062 14.78125 67.105469 15.058594 67.332031 15.3125 L 67.410156 15.402344 C 67.746094 15.757812 68.160156 16.042969 68.59375 16.257812 L 68.554688 16.339844 L 68.4375 16.339844 L 68.398438 16.257812 C 68.332031 16.230469 68.261719 16.203125 68.195312 16.175781 C 67.796875 15.996094 67.355469 15.625 67.089844 15.277344 C 67.054688 15.226562 67.015625 15.171875 66.976562 15.117188 L 66.921875 15.039062 C 66.472656 14.40625 66.257812 13.714844 66.128906 12.957031 C 66.113281 12.867188 66.113281 12.867188 66.085938 12.785156 L 66.070312 12.710938 L 66.109375 12.632812 L 66.039062 12.625 L 65.953125 12.59375 C 65.808594 12.292969 65.753906 11.9375 65.753906 11.605469 L 65.777344 11.523438 L 65.796875 11.449219 L 65.753906 11.332031 C 65.703125 10.8125 65.863281 10.261719 66.070312 9.792969 C 66.128906 9.683594 66.1875 9.574219 66.269531 9.476562 "/><path style=" stroke:none;fill-rule:nonzero;fill:#a0070f;fill-opacity:1;" d="M 68.292969 1.882812 L 68.359375 1.90625 L 68.238281 1.945312 C 67.113281 2.328125 66.050781 2.875 65.085938 3.5625 L 64.992188 3.628906 C 64.578125 3.925781 64.1875 4.230469 63.824219 4.589844 L 63.746094 4.664062 C 63.421875 4.976562 63.113281 5.292969 62.839844 5.652344 L 62.742188 5.773438 C 62.273438 6.367188 61.898438 7.015625 61.558594 7.6875 L 61.507812 7.792969 L 61.457031 7.890625 L 61.414062 7.976562 C 61.378906 8.054688 61.359375 8.132812 61.339844 8.214844 L 61.261719 8.214844 L 61.242188 8.296875 C 61.191406 8.480469 61.144531 8.65625 61.0625 8.828125 C 60.964844 9.035156 60.867188 9.285156 60.867188 9.515625 L 60.789062 9.515625 L 60.773438 9.589844 C 60.734375 9.8125 60.695312 10.03125 60.652344 10.25 C 60.589844 10.585938 60.53125 10.917969 60.472656 11.253906 L 60.433594 11.253906 C 60.421875 10.96875 60.457031 10.710938 60.515625 10.433594 L 60.542969 10.304688 C 60.910156 8.574219 61.65625 6.992188 62.757812 5.613281 L 62.839844 5.507812 C 63.410156 4.789062 64.074219 4.152344 64.808594 3.601562 L 64.875 3.554688 C 65.398438 3.164062 65.953125 2.816406 66.542969 2.539062 L 66.683594 2.472656 C 68.011719 1.835938 68.011719 1.835938 68.292969 1.882812 "/><path style=" stroke:none;fill-rule:nonzero;fill:#b10e19;fill-opacity:1;" d="M 70.777344 7.144531 L 70.890625 7.152344 C 71.082031 7.171875 71.253906 7.199219 71.433594 7.269531 L 71.40625 7.359375 L 71.394531 7.46875 C 71.449219 7.53125 71.449219 7.53125 71.511719 7.585938 L 71.371094 7.554688 L 71.269531 7.53125 C 71.195312 7.515625 71.117188 7.496094 71.042969 7.476562 C 70.386719 7.3125 69.589844 7.292969 68.933594 7.472656 C 68.859375 7.496094 68.785156 7.519531 68.710938 7.546875 L 68.636719 7.570312 C 67.996094 7.785156 67.421875 8.183594 66.957031 8.675781 C 66.738281 8.921875 66.5625 9.199219 66.386719 9.476562 L 66.269531 9.398438 C 66.707031 8.71875 67.15625 8.113281 67.886719 7.730469 C 68.015625 7.664062 68.148438 7.601562 68.277344 7.546875 L 68.414062 7.488281 C 68.886719 7.292969 69.386719 7.210938 69.894531 7.152344 L 69.992188 7.140625 C 70.257812 7.109375 70.507812 7.117188 70.777344 7.144531 "/><path style=" stroke:none;fill-rule:nonzero;fill:#a0070f;fill-opacity:1;" d="M 78.332031 3.089844 L 78.414062 3.128906 C 78.347656 3.292969 78.230469 3.40625 78.105469 3.527344 L 78.035156 3.597656 C 77.960938 3.675781 77.882812 3.753906 77.804688 3.832031 L 77.648438 3.992188 C 77.535156 4.105469 77.421875 4.21875 77.3125 4.328125 C 77.167969 4.472656 77.023438 4.617188 76.882812 4.761719 C 76.769531 4.875 76.660156 4.984375 76.550781 5.097656 C 76.496094 5.148438 76.445312 5.203125 76.390625 5.257812 C 76.320312 5.332031 76.246094 5.40625 76.171875 5.480469 L 76.105469 5.546875 C 76.042969 5.605469 76.042969 5.605469 75.929688 5.691406 C 75.820312 5.691406 75.820312 5.691406 75.730469 5.652344 C 75.644531 5.59375 75.644531 5.59375 75.554688 5.515625 C 75.3125 5.3125 75.054688 5.144531 74.785156 4.984375 L 74.707031 4.933594 C 73.859375 4.421875 72.886719 4.089844 71.90625 3.957031 L 71.945312 3.878906 C 73.117188 3.964844 74.265625 4.46875 75.230469 5.113281 C 75.429688 5.25 75.621094 5.386719 75.808594 5.535156 C 75.945312 5.476562 76.03125 5.402344 76.132812 5.296875 L 76.421875 5.007812 C 76.589844 4.839844 76.589844 4.839844 76.742188 4.65625 L 76.796875 4.589844 L 76.875 4.589844 L 76.875 4.511719 L 76.953125 4.511719 L 76.953125 4.429688 L 77.03125 4.429688 L 77.070312 4.3125 L 77.152344 4.3125 L 77.183594 4.242188 C 77.230469 4.15625 77.273438 4.097656 77.347656 4.035156 L 77.425781 4.035156 L 77.457031 3.964844 C 77.503906 3.878906 77.546875 3.824219 77.625 3.761719 L 77.703125 3.761719 L 77.703125 3.683594 C 77.761719 3.632812 77.816406 3.585938 77.875 3.539062 C 77.945312 3.480469 77.945312 3.480469 78.019531 3.386719 C 78.113281 3.269531 78.214844 3.183594 78.332031 3.089844 "/><path style=" stroke:none;fill-rule:nonzero;fill:#b20f1a;fill-opacity:1;" d="M 74.113281 9.476562 L 74.195312 9.476562 C 74.507812 10.316406 74.664062 11.117188 74.519531 12.015625 C 74.488281 12.183594 74.441406 12.347656 74.390625 12.515625 L 74.347656 12.652344 C 74.109375 13.324219 73.6875 13.949219 73.144531 14.414062 C 73.011719 14.515625 72.878906 14.601562 72.734375 14.683594 L 72.695312 14.605469 C 72.804688 14.457031 72.914062 14.351562 73.058594 14.242188 C 73.582031 13.820312 73.9375 13.226562 74.183594 12.601562 C 74.441406 11.921875 74.46875 11.183594 74.359375 10.464844 C 74.3125 10.214844 74.257812 9.976562 74.167969 9.738281 C 74.113281 9.597656 74.113281 9.597656 74.113281 9.476562 M 67.648438 13.34375 C 67.769531 13.457031 67.875 13.570312 67.972656 13.703125 C 68.507812 14.398438 69.132812 14.878906 69.933594 15.234375 C 70.609375 15.492188 71.277344 15.480469 71.984375 15.472656 L 72.023438 15.550781 C 71.785156 15.613281 71.5625 15.644531 71.316406 15.640625 L 71.21875 15.640625 C 70.480469 15.625 69.785156 15.40625 69.148438 15.039062 C 68.566406 14.660156 68.078125 14.175781 67.726562 13.578125 C 67.6875 13.5 67.6875 13.5 67.6875 13.421875 L 67.609375 13.382812 Z M 67.648438 13.34375 "/><path style=" stroke:none;fill-rule:nonzero;fill:#a50715;fill-opacity:1;" d="M 70.488281 5.652344 C 71.601562 5.625 72.660156 5.839844 73.648438 6.367188 C 73.921875 6.519531 74.183594 6.6875 74.429688 6.875 L 74.535156 6.957031 C 75.390625 7.625 76.050781 8.484375 76.457031 9.492188 C 76.546875 9.722656 76.621094 9.945312 76.675781 10.1875 L 76.558594 10.148438 C 76.519531 10.042969 76.484375 9.9375 76.453125 9.832031 C 76.28125 9.28125 76.027344 8.800781 75.691406 8.335938 L 75.632812 8.253906 C 75.1875 7.621094 75.1875 7.621094 74.585938 7.152344 L 74.585938 7.074219 C 74.566406 7.0625 74.546875 7.054688 74.527344 7.042969 C 74.425781 6.992188 74.332031 6.929688 74.238281 6.863281 C 73.933594 6.652344 73.617188 6.476562 73.28125 6.320312 C 73.214844 6.285156 73.148438 6.253906 73.078125 6.21875 C 72.515625 5.953125 71.828125 5.78125 71.203125 5.757812 L 71.078125 5.753906 L 70.8125 5.746094 C 70.703125 5.738281 70.59375 5.734375 70.488281 5.730469 Z M 70.488281 5.652344 "/><path style=" stroke:none;fill-rule:nonzero;fill:#a90c14;fill-opacity:1;" d="M 72.871094 7.203125 C 73.210938 7.363281 73.515625 7.566406 73.808594 7.808594 C 73.878906 7.867188 73.878906 7.867188 73.996094 7.902344 C 74.207031 8.09375 74.371094 8.347656 74.535156 8.582031 C 74.601562 8.675781 74.664062 8.765625 74.746094 8.847656 C 74.78125 8.917969 74.816406 8.992188 74.847656 9.0625 L 74.902344 9.179688 C 74.941406 9.28125 74.941406 9.28125 74.941406 9.359375 L 75.019531 9.398438 C 75.113281 9.621094 75.15625 9.832031 75.140625 10.070312 C 75.070312 9.9375 75.023438 9.804688 74.980469 9.664062 C 74.796875 9.152344 74.519531 8.699219 74.152344 8.296875 L 74.078125 8.207031 C 73.617188 7.703125 72.960938 7.351562 72.316406 7.140625 C 71.890625 7.011719 71.472656 6.984375 71.03125 6.988281 L 70.882812 6.988281 C 70.761719 6.992188 70.644531 6.992188 70.527344 6.992188 L 70.488281 6.914062 C 71.261719 6.695312 72.144531 6.898438 72.871094 7.203125 "/><path style=" stroke:none;fill-rule:nonzero;fill:#b21b23;fill-opacity:1;" d="M 74.390625 16.535156 L 74.46875 16.691406 C 73.703125 17.320312 72.71875 17.707031 71.75 17.875 C 71.339844 17.941406 70.9375 17.96875 70.527344 17.953125 L 70.488281 17.835938 L 70.5625 17.832031 C 71.796875 17.761719 72.96875 17.492188 74.011719 16.808594 C 74.210938 16.683594 74.210938 16.683594 74.390625 16.535156 "/><path style=" stroke:none;fill-rule:nonzero;fill:#bb0d17;fill-opacity:1;" d="M 68.832031 8.886719 L 68.910156 8.925781 L 68.832031 8.984375 C 68.117188 9.554688 67.632812 10.164062 67.292969 11.015625 L 67.25 11.117188 C 67.0625 11.613281 67.035156 12.203125 67.109375 12.726562 C 67.132812 12.859375 67.164062 12.992188 67.195312 13.128906 C 67.21875 13.292969 67.191406 13.382812 67.136719 13.539062 C 66.914062 13.125 66.921875 12.605469 66.929688 12.148438 C 66.9375 11.867188 66.992188 11.601562 67.058594 11.332031 L 67.078125 11.226562 C 67.246094 10.578125 67.671875 9.921875 68.121094 9.4375 C 68.34375 9.238281 68.582031 9.058594 68.832031 8.886719 "/><path style=" stroke:none;fill-rule:nonzero;fill:#97040b;fill-opacity:1;" d="M 64.21875 10.1875 L 64.296875 10.1875 C 64.277344 10.390625 64.25 10.59375 64.21875 10.796875 C 64.171875 11.121094 64.152344 11.441406 64.140625 11.765625 C 64.007812 11.828125 63.867188 11.808594 63.722656 11.808594 L 63.617188 11.808594 C 63.5 11.808594 63.386719 11.8125 63.269531 11.8125 L 63.03125 11.8125 C 62.863281 11.8125 62.695312 11.8125 62.527344 11.8125 C 62.308594 11.8125 62.09375 11.8125 61.878906 11.8125 C 61.710938 11.8125 61.546875 11.8125 61.382812 11.8125 C 61.300781 11.8125 61.222656 11.8125 61.144531 11.8125 C 61.03125 11.8125 60.921875 11.8125 60.808594 11.8125 C 60.777344 11.8125 60.742188 11.8125 60.707031 11.8125 C 60.628906 11.8125 60.550781 11.808594 60.472656 11.804688 L 60.394531 11.726562 C 60.386719 11.621094 60.386719 11.621094 60.386719 11.503906 L 60.390625 11.382812 L 60.394531 11.292969 L 60.472656 11.292969 L 60.472656 11.726562 L 60.652344 11.722656 C 62.65625 11.683594 62.65625 11.683594 63.3125 11.679688 L 63.4375 11.679688 C 63.636719 11.679688 63.824219 11.691406 64.019531 11.726562 L 64.015625 11.582031 C 64.015625 11.332031 64.058594 11.089844 64.097656 10.84375 L 64.117188 10.707031 C 64.175781 10.339844 64.175781 10.339844 64.21875 10.1875 "/><path style=" stroke:none;fill-rule:nonzero;fill:#a0070f;fill-opacity:1;" d="M 70.527344 3.761719 L 70.527344 3.839844 C 70.421875 3.875 70.347656 3.886719 70.242188 3.894531 C 69.078125 3.976562 68.003906 4.273438 66.976562 4.824219 C 66.898438 4.863281 66.820312 4.90625 66.742188 4.945312 L 66.648438 4.992188 L 66.582031 5.023438 L 66.582031 4.863281 C 66.640625 4.8125 66.640625 4.8125 66.71875 4.765625 L 66.808594 4.714844 C 67.941406 4.109375 69.230469 3.742188 70.527344 3.761719 "/><path style=" stroke:none;fill-rule:nonzero;fill:#ac0a16;fill-opacity:1;" d="M 68.292969 1.882812 L 68.359375 1.90625 L 68.238281 1.945312 C 67.113281 2.328125 66.050781 2.875 65.085938 3.5625 L 64.992188 3.628906 C 64.53125 3.957031 64.105469 4.304688 63.707031 4.707031 L 63.585938 4.667969 C 63.777344 4.472656 63.972656 4.289062 64.179688 4.117188 L 64.28125 4.027344 C 64.972656 3.441406 65.722656 2.917969 66.542969 2.539062 L 66.683594 2.472656 C 68.011719 1.835938 68.011719 1.835938 68.292969 1.882812 "/><path style=" stroke:none;fill-rule:nonzero;fill:#bc0e18;fill-opacity:1;" d="M 78.332031 1.355469 L 80.1875 1.355469 C 80.113281 1.5 80.058594 1.570312 79.945312 1.683594 L 79.847656 1.785156 L 79.738281 1.890625 L 79.625 2 C 79.53125 2.097656 79.433594 2.195312 79.335938 2.292969 C 79.234375 2.390625 79.136719 2.488281 79.035156 2.589844 C 78.839844 2.78125 78.648438 2.976562 78.453125 3.167969 L 78.371094 3.128906 L 78.453125 2.933594 L 78.53125 2.933594 L 78.570312 2.8125 L 78.648438 2.8125 L 78.648438 2.734375 C 78.703125 2.679688 78.703125 2.679688 78.78125 2.617188 C 79.132812 2.335938 79.132812 2.335938 79.398438 1.988281 L 79.476562 1.988281 L 79.507812 1.917969 C 79.558594 1.820312 79.617188 1.761719 79.695312 1.6875 C 79.796875 1.589844 79.796875 1.589844 79.871094 1.472656 L 79.757812 1.472656 C 79.621094 1.46875 79.484375 1.464844 79.347656 1.460938 C 79.289062 1.457031 79.230469 1.457031 79.167969 1.453125 C 79.082031 1.453125 79 1.449219 78.914062 1.445312 L 78.757812 1.441406 C 78.613281 1.433594 78.476562 1.417969 78.332031 1.394531 Z M 78.332031 1.355469 "/><path style=" stroke:none;fill-rule:nonzero;fill:#b20f1a;fill-opacity:1;" d="M 66.269531 9.476562 L 66.347656 9.476562 C 66.308594 9.660156 66.234375 9.828125 66.164062 10 C 65.984375 10.460938 65.933594 10.917969 65.941406 11.410156 L 65.941406 11.558594 C 65.941406 11.890625 65.953125 12.226562 66.03125 12.554688 L 66.109375 12.59375 L 65.953125 12.59375 C 65.839844 12.265625 65.753906 11.953125 65.753906 11.605469 L 65.777344 11.523438 L 65.796875 11.449219 L 65.753906 11.332031 C 65.703125 10.8125 65.863281 10.261719 66.070312 9.792969 C 66.128906 9.683594 66.1875 9.574219 66.269531 9.476562 "/><path style=" stroke:none;fill-rule:nonzero;fill:#a90c14;fill-opacity:1;" d="M 66.542969 14.210938 L 66.625 14.210938 L 66.660156 14.292969 C 66.976562 14.964844 67.429688 15.503906 68.039062 15.929688 C 68.21875 16.050781 68.402344 16.164062 68.59375 16.257812 L 68.554688 16.339844 L 68.4375 16.339844 L 68.398438 16.257812 C 68.332031 16.230469 68.261719 16.203125 68.195312 16.175781 C 67.796875 15.996094 67.355469 15.625 67.089844 15.277344 C 67.054688 15.226562 67.015625 15.171875 66.976562 15.117188 L 66.917969 15.03125 C 66.816406 14.882812 66.71875 14.730469 66.628906 14.574219 L 66.578125 14.492188 C 66.539062 14.390625 66.539062 14.316406 66.542969 14.210938 M 70.488281 5.652344 L 70.488281 5.730469 L 70.398438 5.742188 C 69.300781 5.878906 68.289062 6.121094 67.378906 6.777344 C 67.292969 6.835938 67.292969 6.835938 67.175781 6.875 L 67.175781 6.953125 C 67.109375 6.996094 67.042969 7.035156 66.976562 7.074219 C 66.882812 7.152344 66.792969 7.238281 66.703125 7.324219 L 66.625 7.386719 L 66.542969 7.386719 L 66.542969 7.269531 C 66.621094 7.199219 66.699219 7.132812 66.785156 7.070312 L 66.859375 7.011719 C 67.777344 6.316406 68.78125 5.839844 69.9375 5.691406 C 70.121094 5.671875 70.300781 5.652344 70.488281 5.652344 "/><path style=" stroke:none;fill-rule:nonzero;fill:#8d0208;fill-opacity:1;" d="M 74.429688 6.953125 C 74.496094 6.960938 74.496094 6.960938 74.585938 6.992188 C 74.664062 7.054688 74.738281 7.121094 74.808594 7.1875 L 74.871094 7.25 C 74.914062 7.289062 74.957031 7.328125 75 7.371094 C 75.054688 7.421875 75.105469 7.46875 75.160156 7.519531 C 75.835938 8.152344 76.304688 9.003906 76.597656 9.871094 C 76.628906 9.976562 76.652344 10.082031 76.675781 10.1875 L 76.558594 10.148438 C 76.519531 10.042969 76.484375 9.9375 76.453125 9.832031 C 76.28125 9.28125 76.027344 8.800781 75.691406 8.335938 L 75.632812 8.253906 C 75.1875 7.621094 75.1875 7.621094 74.585938 7.152344 L 74.585938 7.074219 L 74.429688 6.992188 Z M 74.429688 6.953125 "/><path style=" stroke:none;fill-rule:nonzero;fill:#a50715;fill-opacity:1;" d="M 78.332031 3.089844 L 78.414062 3.128906 C 78.355469 3.257812 78.289062 3.339844 78.191406 3.4375 L 77.910156 3.71875 C 77.804688 3.820312 77.703125 3.925781 77.597656 4.027344 L 77.390625 4.234375 C 77.21875 4.40625 77.046875 4.578125 76.875 4.746094 L 76.71875 4.667969 L 76.875 4.589844 L 76.875 4.511719 L 76.953125 4.511719 L 76.953125 4.429688 L 77.03125 4.429688 L 77.070312 4.3125 L 77.152344 4.3125 L 77.183594 4.242188 C 77.230469 4.15625 77.273438 4.097656 77.347656 4.035156 L 77.425781 4.035156 L 77.457031 3.964844 C 77.503906 3.878906 77.546875 3.824219 77.625 3.761719 L 77.703125 3.761719 L 77.703125 3.683594 C 77.761719 3.632812 77.816406 3.585938 77.875 3.539062 C 77.945312 3.480469 77.945312 3.480469 78.019531 3.386719 C 78.113281 3.269531 78.214844 3.183594 78.332031 3.089844 "/><path style=" stroke:none;fill-rule:nonzero;fill:#a90c14;fill-opacity:1;" d="M 71.941406 1.351562 L 72.160156 1.351562 C 72.351562 1.351562 72.542969 1.351562 72.734375 1.351562 C 72.929688 1.351562 73.125 1.351562 73.320312 1.355469 C 73.703125 1.355469 74.085938 1.355469 74.46875 1.355469 L 74.46875 1.394531 L 74.359375 1.394531 C 74.003906 1.398438 73.652344 1.402344 73.300781 1.402344 C 73.121094 1.40625 72.9375 1.40625 72.757812 1.410156 C 71.480469 1.417969 70.214844 1.457031 68.96875 1.765625 L 68.859375 1.792969 L 68.761719 1.816406 C 68.667969 1.828125 68.605469 1.820312 68.515625 1.789062 C 69.628906 1.4375 70.78125 1.347656 71.941406 1.351562 M 74.113281 9.476562 L 74.195312 9.476562 C 74.496094 10.285156 74.660156 11.066406 74.527344 11.9375 L 74.507812 12.039062 L 74.429688 12.039062 L 74.429688 11.929688 C 74.429688 10.816406 74.429688 10.816406 74.167969 9.742188 C 74.113281 9.597656 74.113281 9.597656 74.113281 9.476562 "/><path style=" stroke:none;fill-rule:nonzero;fill:#a1070f;fill-opacity:1;" d="M 71.695312 8.265625 C 71.753906 8.289062 71.808594 8.3125 71.867188 8.335938 L 71.867188 8.414062 C 71.671875 8.390625 71.496094 8.347656 71.308594 8.289062 C 70.65625 8.082031 70.050781 8.046875 69.378906 8.195312 C 69.046875 8.269531 69.046875 8.269531 68.722656 8.382812 L 68.632812 8.414062 L 68.515625 8.375 C 69.5 7.882812 70.675781 7.902344 71.695312 8.265625 "/><path style=" stroke:none;fill-rule:nonzero;fill:#b10e19;fill-opacity:1;" d="M 63.3125 8.648438 L 63.429688 8.648438 L 63.113281 9.597656 L 64.453125 9.636719 C 64.375 10.03125 64.375 10.03125 64.296875 10.1875 L 64.257812 10.148438 C 64.273438 9.992188 64.289062 9.859375 64.335938 9.714844 L 64.261719 9.714844 C 63.382812 9.722656 63.382812 9.722656 63.035156 9.675781 C 63.007812 9.585938 62.992188 9.527344 63.011719 9.4375 L 63.039062 9.351562 L 63.074219 9.257812 L 63.105469 9.164062 L 63.140625 9.066406 C 63.1875 8.921875 63.242188 8.785156 63.3125 8.648438 "/><path style=" stroke:none;fill-rule:nonzero;fill:#b20f1a;fill-opacity:1;" d="M 72.222656 8.570312 C 72.609375 8.710938 72.964844 9.023438 73.246094 9.320312 C 73.480469 9.601562 73.679688 9.894531 73.839844 10.226562 L 73.71875 10.1875 C 73.652344 10.101562 73.652344 10.101562 73.574219 9.992188 C 73.222656 9.496094 72.851562 9.078125 72.335938 8.746094 L 72.261719 8.6875 Z M 72.222656 8.570312 "/><path style=" stroke:none;fill-rule:nonzero;fill:#8d0207;fill-opacity:1;" d="M 71.945312 3.878906 C 72.234375 3.898438 72.507812 3.949219 72.789062 4.019531 L 72.914062 4.050781 C 73.453125 4.191406 73.980469 4.398438 74.46875 4.667969 L 74.429688 4.746094 C 74.3125 4.699219 74.199219 4.652344 74.082031 4.601562 C 73.386719 4.289062 72.660156 4.074219 71.90625 3.957031 Z M 71.945312 3.878906 "/><path style=" stroke:none;fill-rule:nonzero;fill:#a90c14;fill-opacity:1;" d="M 72.023438 9.832031 C 72.335938 9.980469 72.523438 10.15625 72.71875 10.4375 C 72.878906 10.679688 72.972656 10.933594 73.050781 11.210938 L 73.078125 11.3125 C 73.183594 11.746094 73.089844 12.171875 72.972656 12.59375 L 72.890625 12.59375 L 72.917969 12.480469 C 73.027344 11.976562 73.050781 11.546875 72.90625 11.042969 C 72.785156 10.710938 72.597656 10.390625 72.339844 10.148438 C 72.257812 10.082031 72.171875 10.019531 72.085938 9.960938 L 72.023438 9.910156 Z M 72.023438 9.832031 "/><path style=" stroke:none;fill-rule:nonzero;fill:#bc0e18;fill-opacity:1;" d="M 68.59375 16.300781 C 68.8125 16.335938 69.015625 16.414062 69.222656 16.484375 C 69.5625 16.597656 69.898438 16.628906 70.253906 16.640625 L 70.382812 16.644531 C 70.480469 16.648438 70.582031 16.652344 70.683594 16.652344 L 70.683594 16.734375 C 70.183594 16.8125 69.628906 16.777344 69.148438 16.613281 C 68.957031 16.53125 68.773438 16.4375 68.59375 16.339844 Z M 68.59375 16.300781 "/><path style=" stroke:none;fill-rule:nonzero;fill:#a90c14;fill-opacity:1;" d="M 70.488281 15.429688 L 70.566406 15.441406 C 71.039062 15.484375 71.511719 15.472656 71.984375 15.472656 L 72.023438 15.550781 C 71.78125 15.613281 71.550781 15.640625 71.296875 15.636719 L 71.199219 15.636719 C 70.964844 15.636719 70.753906 15.609375 70.527344 15.550781 Z M 70.488281 15.429688 "/><path style=" stroke:none;fill-rule:nonzero;fill:#a1070f;fill-opacity:1;" d="M 68.832031 8.886719 L 68.910156 8.925781 L 68.832031 8.984375 C 68.386719 9.339844 67.992188 9.707031 67.695312 10.195312 C 67.65625 10.261719 67.613281 10.324219 67.570312 10.382812 L 67.449219 10.425781 C 67.507812 10.257812 67.597656 10.117188 67.699219 9.976562 L 67.746094 9.90625 C 68.046875 9.484375 68.40625 9.179688 68.832031 8.886719 "/><path style=" stroke:none;fill-rule:nonzero;fill:#8d0207;fill-opacity:1;" d="M 61.023438 8.648438 L 61.101562 8.6875 L 61.082031 8.753906 C 61.050781 8.847656 61.015625 8.941406 60.984375 9.035156 L 60.949219 9.136719 L 60.917969 9.230469 L 60.886719 9.320312 C 60.863281 9.40625 60.863281 9.40625 60.867188 9.515625 L 60.789062 9.515625 L 60.773438 9.589844 C 60.734375 9.8125 60.695312 10.03125 60.652344 10.25 C 60.589844 10.585938 60.53125 10.917969 60.472656 11.253906 L 60.433594 11.253906 C 60.421875 10.96875 60.457031 10.710938 60.515625 10.433594 L 60.542969 10.304688 C 60.660156 9.742188 60.8125 9.183594 61.023438 8.648438 "/><path style=" stroke:none;fill-rule:nonzero;fill:#a0070f;fill-opacity:1;" d="M 68.292969 1.882812 L 68.359375 1.90625 L 68.238281 1.945312 C 67.734375 2.117188 67.238281 2.320312 66.765625 2.570312 C 66.664062 2.617188 66.664062 2.617188 66.542969 2.617188 L 66.582031 2.5 C 66.671875 2.449219 66.671875 2.449219 66.792969 2.398438 L 66.921875 2.34375 L 67.0625 2.285156 L 67.203125 2.230469 C 68.113281 1.855469 68.113281 1.855469 68.292969 1.882812 "/><path style=" stroke:none;fill-rule:nonzero;fill:#b20f1a;fill-opacity:1;" d="M 70.488281 8.019531 C 70.960938 8.039062 71.429688 8.152344 71.867188 8.335938 L 71.867188 8.414062 C 71.589844 8.382812 71.332031 8.300781 71.066406 8.222656 C 70.875 8.164062 70.6875 8.121094 70.488281 8.097656 Z M 74.113281 9.476562 L 74.195312 9.476562 C 74.5 10.292969 74.5 10.292969 74.453125 10.625 L 74.429688 10.699219 L 74.390625 10.699219 C 74.386719 10.679688 74.382812 10.65625 74.378906 10.632812 C 74.359375 10.53125 74.339844 10.429688 74.320312 10.324219 L 74.300781 10.21875 C 74.265625 10.050781 74.230469 9.894531 74.167969 9.734375 C 74.113281 9.597656 74.113281 9.597656 74.113281 9.476562 "/><path style=" stroke:none;fill-rule:nonzero;fill:#8d0207;fill-opacity:1;" d="M 63.546875 4.707031 L 63.667969 4.746094 L 63.574219 4.835938 C 63.308594 5.09375 63.070312 5.359375 62.839844 5.652344 C 62.796875 5.703125 62.757812 5.75 62.71875 5.796875 L 62.640625 5.890625 L 62.640625 5.773438 C 62.703125 5.679688 62.769531 5.589844 62.839844 5.503906 L 62.902344 5.429688 C 63.023438 5.277344 63.148438 5.136719 63.292969 5 C 63.386719 4.910156 63.464844 4.808594 63.546875 4.707031 "/><path style=" stroke:none;fill-rule:nonzero;fill:#7e020c;fill-opacity:1;" d="M 70.527344 3.761719 L 70.527344 3.839844 C 70.207031 3.945312 69.835938 3.925781 69.5 3.917969 L 69.582031 3.839844 C 69.65625 3.824219 69.65625 3.824219 69.746094 3.816406 L 69.84375 3.804688 L 69.949219 3.796875 L 70.050781 3.785156 C 70.210938 3.769531 70.367188 3.757812 70.527344 3.761719 "/><path style=" stroke:none;fill-rule:nonzero;fill:#a90c14;fill-opacity:1;" d="M 68.59375 16.300781 C 68.742188 16.324219 68.878906 16.367188 69.019531 16.417969 L 69.136719 16.464844 L 69.226562 16.496094 L 69.226562 16.535156 C 69.125 16.546875 69.046875 16.550781 68.949219 16.535156 C 68.824219 16.480469 68.710938 16.410156 68.59375 16.339844 Z M 68.59375 16.300781 "/><path style=" stroke:none;fill-rule:nonzero;fill:#e7dcd7;fill-opacity:1;" d="M 75.375 10.898438 L 75.457031 10.898438 L 75.496094 11.253906 L 75.414062 11.253906 Z M 75.375 10.898438 "/><path style=" stroke:none;fill-rule:nonzero;fill:#a90c14;fill-opacity:1;" d="M 76.597656 10.1875 L 76.675781 10.1875 L 76.757812 10.503906 L 76.636719 10.464844 Z M 76.597656 10.1875 "/></g></svg>