<svg xmlns="http://www.w3.org/2000/svg" xmlns:xlink="http://www.w3.org/1999/xlink" width="1280" zoomAndPan="magnify" viewBox="0 0 960 959.999988" height="1280" preserveAspectRatio="xMidYMid meet" version="1.2"><g id="995c2103b0"><rect x="0" width="960" y="0" height="959.999988" style="fill:#fefefe;fill-opacity:1;stroke:none;"/><path style=" stroke:none;fill-rule:nonzero;fill:#e00713;fill-opacity:1;" d="M 532.050781 260.226562 C 538.929688 263.695312 545.378906 267.554688 551.53125 272.207031 L 553.472656 273.667969 C 568.890625 285.761719 580.902344 301.332031 588.28125 319.492188 C 590.597656 325.394531 592.488281 331.257812 593.839844 337.460938 L 594.484375 340.214844 C 597.550781 354.550781 597.367188 371.285156 593.839844 385.507812 L 593.417969 387.269531 C 588.53125 407.28125 578.929688 424.613281 564.792969 439.59375 C 550.941406 453.953125 533.746094 464.113281 514.554688 469.660156 C 506.5625 471.773438 498.136719 473.417969 489.859375 473.707031 L 487.421875 473.820312 C 467.789062 474.300781 447.886719 469.535156 430.628906 460.132812 C 425.730469 457.363281 421.164062 454.210938 416.71875 450.761719 L 414.804688 449.292969 C 399.039062 436.828125 387.84375 421.152344 380.214844 402.59375 C 373.078125 384.136719 370.929688 364.269531 373.601562 344.621094 C 374.574219 338.53125 376.039062 332.558594 377.996094 326.707031 L 378.453125 325.339844 C 383.191406 311.363281 390.585938 299.160156 400.226562 287.984375 L 402.035156 285.855469 C 406.855469 280.308594 412.199219 275.78125 418.152344 271.492188 C 418.585938 271.179688 419.019531 270.867188 419.464844 270.542969 C 435.167969 259.347656 453.097656 252.476562 472.285156 250.347656 C 492.550781 248.421875 513.644531 251.289062 532.050781 260.226562 "/><path style=" stroke:none;fill-rule:nonzero;fill:#e00612;fill-opacity:1;" d="M 508.308594 171.734375 L 513.164062 171.734375 C 517.53125 171.734375 521.898438 171.738281 526.261719 171.742188 C 530.835938 171.75 535.410156 171.75 539.984375 171.75 C 547.648438 171.75 555.316406 171.757812 562.984375 171.761719 C 570.875 171.769531 578.765625 171.773438 586.65625 171.777344 L 588.132812 171.777344 L 595.472656 171.78125 C 615.726562 171.789062 635.976562 171.800781 656.222656 171.816406 C 655.144531 174.339844 653.683594 175.980469 651.757812 177.921875 L 649.828125 179.875 L 647.707031 182 L 645.476562 184.25 C 643.460938 186.285156 641.4375 188.320312 639.414062 190.347656 L 635.625 194.152344 C 631.675781 198.121094 627.722656 202.089844 623.769531 206.050781 C 619.199219 210.625 614.636719 215.210938 610.085938 219.804688 C 606.566406 223.355469 603.042969 226.894531 599.507812 230.429688 C 597.398438 232.542969 595.292969 234.660156 593.191406 236.78125 C 591.21875 238.777344 589.238281 240.765625 587.246094 242.742188 C 586.515625 243.46875 585.792969 244.203125 585.070312 244.9375 C 584.082031 245.9375 583.089844 246.929688 582.085938 247.914062 L 580.402344 249.605469 L 578.777344 250.695312 C 576.878906 250.578125 576.878906 250.578125 575.195312 249.980469 C 573.628906 248.878906 573.628906 248.878906 572.011719 247.46875 C 567.585938 243.804688 562.882812 240.761719 557.984375 237.789062 L 556.550781 236.90625 C 536.949219 225 514.152344 218.820312 491.316406 217.859375 C 489.144531 217.710938 489.144531 217.710938 487.710938 216.992188 C 486.53125 216.925781 485.351562 216.898438 484.167969 216.902344 L 482.265625 216.898438 C 480.433594 216.921875 480.433594 216.921875 478.386719 217.710938 C 477.371094 217.820312 476.351562 217.90625 475.332031 217.96875 C 454.917969 219.410156 435.285156 224.335938 417.253906 234.234375 C 416.027344 234.90625 414.789062 235.550781 413.554688 236.199219 C 392.203125 247.757812 374.429688 265.574219 361.726562 286.136719 C 354.878906 297.441406 349.902344 309.164062 345.726562 321.6875 L 370.109375 322.402344 C 368.675781 329.574219 368.675781 329.574219 367.957031 332.625 C 366.179688 340.191406 365.304688 347.617188 364.863281 355.378906 L 364.722656 357.613281 L 364.621094 359.617188 L 364.371094 361.125 C 362.015625 362.304688 359.398438 361.949219 356.808594 361.949219 L 354.886719 361.953125 C 352.78125 361.960938 350.675781 361.964844 348.574219 361.964844 L 344.199219 361.972656 C 341.144531 361.976562 338.085938 361.976562 335.027344 361.976562 C 331.101562 361.976562 327.175781 361.988281 323.25 362 C 320.238281 362.003906 317.230469 362.007812 314.21875 362.007812 C 312.769531 362.007812 311.324219 362.011719 309.875 362.015625 C 307.855469 362.023438 305.832031 362.023438 303.8125 362.015625 C 303.210938 362.023438 302.609375 362.027344 301.988281 362.03125 C 300.550781 362.023438 299.117188 361.941406 297.683594 361.84375 L 296.25 360.410156 C 293.976562 338.402344 303.351562 312.664062 312.1875 292.894531 C 318.746094 278.6875 326.664062 265.109375 336.40625 252.847656 L 337.402344 251.570312 C 348.847656 236.9375 361.695312 223.839844 376.5625 212.691406 L 377.773438 211.777344 C 387.269531 204.679688 397.363281 198.351562 408.113281 193.328125 L 410.652344 192.109375 C 420.550781 187.371094 430.574219 183.511719 441.097656 180.421875 L 442.621094 179.964844 C 455.230469 176.191406 468.132812 173.652344 481.257812 172.535156 L 483.347656 172.351562 C 491.667969 171.714844 499.964844 171.71875 508.308594 171.734375 "/><path style=" stroke:none;fill-rule:nonzero;fill:#373637;fill-opacity:1;" d="M 605.3125 362.5625 C 607.382812 362.488281 609.433594 362.464844 611.503906 362.46875 L 613.472656 362.464844 C 615.628906 362.460938 617.785156 362.460938 619.945312 362.464844 C 621.4375 362.464844 622.929688 362.464844 624.421875 362.464844 C 627.554688 362.460938 630.6875 362.464844 633.816406 362.46875 C 637.84375 362.46875 641.867188 362.46875 645.894531 362.464844 C 648.976562 362.460938 652.058594 362.460938 655.140625 362.464844 C 656.625 362.464844 658.109375 362.464844 659.59375 362.464844 C 661.667969 362.460938 663.738281 362.464844 665.808594 362.46875 L 667.6875 362.464844 C 669.125 362.46875 670.5625 362.511719 672 362.5625 L 672.71875 363.277344 C 672.789062 364.546875 672.808594 365.816406 672.808594 367.085938 L 672.8125 369.183594 C 672.71875 371.164062 672.71875 371.164062 672.371094 372.460938 C 671.914062 374.398438 671.832031 376.257812 671.726562 378.242188 C 671.351562 383.441406 670.375 388.375 669.175781 393.441406 L 668.851562 394.832031 C 666.402344 405.15625 662.976562 415.074219 659.09375 424.945312 L 658.234375 427.132812 C 655.410156 434.21875 652.390625 440.890625 648.214844 447.292969 C 646.949219 449.257812 645.839844 451.25 644.75 453.316406 C 642.417969 457.683594 639.660156 461.738281 636.863281 465.820312 L 635.429688 467.972656 L 633.996094 467.972656 L 633.523438 469.46875 C 632.285156 472.15625 630.566406 474.101562 628.617188 476.308594 C 625.78125 479.554688 625.78125 479.554688 623.238281 483.03125 L 621.804688 483.03125 L 621.3125 484.195312 C 620.042969 486.492188 618.550781 488.257812 616.785156 490.203125 L 615.351562 490.203125 L 615.351562 491.636719 L 613.917969 491.636719 L 613.917969 493.070312 C 612.929688 494.234375 612.929688 494.234375 611.765625 495.222656 L 610.332031 495.222656 L 610.332031 496.65625 C 609.234375 497.65625 608.089844 498.601562 606.925781 499.523438 L 604.726562 501.277344 L 603.574219 502.195312 C 601.804688 503.625 600.089844 505.121094 598.363281 506.605469 C 593.71875 510.480469 588.800781 513.890625 583.761719 517.238281 C 582.480469 518.09375 581.203125 518.957031 579.929688 519.824219 C 553.03125 537.722656 520.59375 548.554688 488.425781 551.152344 C 477.417969 551.855469 466.410156 551.972656 455.382812 551.953125 L 450.648438 551.953125 C 446.421875 551.953125 442.195312 551.949219 437.96875 551.941406 C 433.535156 551.941406 429.097656 551.9375 424.65625 551.9375 C 416.28125 551.933594 407.902344 551.929688 399.523438 551.921875 C 389.976562 551.914062 380.429688 551.910156 370.878906 551.90625 C 351.261719 551.898438 331.644531 551.886719 312.023438 551.871094 L 390.902344 472.992188 C 392.8125 473.929688 394.519531 474.894531 396.226562 476.164062 L 397.601562 477.179688 L 399.015625 478.234375 C 400.851562 479.597656 402.6875 480.957031 404.527344 482.3125 L 405.84375 483.292969 C 408.375 485.140625 410.882812 486.6875 413.714844 488.050781 L 415.96875 489.144531 L 418.152344 490.203125 C 419.363281 490.8125 420.574219 491.425781 421.785156 492.039062 C 429.464844 495.875 436.964844 499.140625 445.324219 501.136719 C 446.726562 501.476562 448.125 501.832031 449.511719 502.210938 C 473.382812 508.6875 499.085938 507.449219 522.921875 501.507812 C 533.714844 498.621094 543.832031 493.96875 553.679688 488.765625 L 554.976562 488.089844 C 565.046875 482.78125 574.183594 475.871094 582.363281 467.972656 L 583.78125 466.621094 C 598.09375 452.941406 609.019531 437.699219 617.1875 419.570312 L 617.808594 418.195312 C 620.066406 412.921875 621.511719 407.523438 623.238281 402 L 598.140625 402 L 601.007812 390.527344 C 602.589844 383.117188 603.546875 375.910156 604.132812 368.367188 L 604.285156 366.394531 L 604.414062 364.625 L 604.59375 363.277344 Z M 605.3125 362.5625 "/><path style=" stroke:none;fill-rule:nonzero;fill:#e00713;fill-opacity:1;" d="M 532.050781 260.226562 C 538.929688 263.695312 545.378906 267.554688 551.53125 272.207031 L 553.472656 273.667969 C 568.890625 285.761719 580.902344 301.332031 588.28125 319.492188 C 590.597656 325.394531 592.488281 331.257812 593.839844 337.460938 L 594.484375 340.214844 C 597.550781 354.550781 597.367188 371.285156 593.839844 385.507812 L 593.417969 387.269531 C 588.53125 407.28125 578.929688 424.613281 564.792969 439.59375 C 550.941406 453.953125 533.746094 464.113281 514.554688 469.660156 C 506.5625 471.773438 498.136719 473.417969 489.859375 473.707031 L 487.421875 473.820312 C 467.789062 474.300781 447.886719 469.535156 430.628906 460.132812 C 425.730469 457.363281 421.164062 454.210938 416.71875 450.761719 L 414.804688 449.292969 C 399.039062 436.828125 387.84375 421.152344 380.214844 402.59375 C 373.078125 384.136719 370.929688 364.269531 373.601562 344.621094 C 374.574219 338.53125 376.039062 332.558594 377.996094 326.707031 L 378.453125 325.339844 C 383.191406 311.363281 390.585938 299.160156 400.226562 287.984375 L 402.035156 285.855469 C 406.855469 280.308594 412.199219 275.78125 418.152344 271.492188 C 418.585938 271.179688 419.019531 270.867188 419.464844 270.542969 C 435.167969 259.347656 453.097656 252.476562 472.285156 250.347656 C 492.550781 248.421875 513.644531 251.289062 532.050781 260.226562 M 479.820312 272.925781 L 480.539062 274.359375 L 482.132812 274.324219 C 498.304688 274.023438 512.347656 275.273438 526.878906 282.785156 C 539.023438 289.804688 548.78125 298.589844 555.890625 310.832031 C 563.4375 324.28125 565.457031 337.433594 565.304688 352.738281 C 565.183594 358.171875 564.558594 363.070312 563.003906 368.296875 L 562.59375 369.722656 C 558.875 382.398438 552.390625 392.835938 542.925781 402 L 541.222656 403.671875 C 533.761719 410.640625 523.996094 416.1875 514.242188 419.210938 L 514.957031 417.777344 C 515.882812 417.238281 516.824219 416.730469 517.78125 416.253906 C 521.773438 414.09375 525.125 411.371094 528.582031 408.453125 L 530.195312 407.1875 C 539.03125 399.941406 545.054688 389.574219 549.226562 379.0625 C 554.144531 366.011719 555.355469 351.71875 553.164062 337.917969 C 552.566406 334.835938 551.753906 331.847656 550.8125 328.859375 L 550.078125 326.40625 C 546.855469 317 540.851562 308.3125 534.320312 300.890625 L 533.226562 299.621094 C 524.328125 289.996094 511.75 283.269531 499.355469 279.402344 C 489.234375 276.75 478.71875 275.894531 468.347656 277.226562 L 466.738281 277.425781 C 453.859375 279.039062 442.40625 282.351562 431.058594 288.699219 L 428.890625 289.910156 C 418.113281 296.347656 410.453125 305.617188 404.355469 316.480469 L 403.09375 318.820312 L 402.367188 320.152344 C 397.488281 329.195312 393.65625 338.519531 393.683594 348.980469 L 393.675781 351.15625 C 393.71875 353.226562 393.71875 353.226562 394.160156 355.160156 C 394.488281 356.824219 394.488281 356.824219 394.085938 359.019531 C 393.574219 363.632812 394.332031 368.089844 395.941406 372.4375 C 396.613281 373.949219 397.3125 375.433594 398.074219 376.902344 L 400.226562 376.902344 L 399.8125 378.09375 C 399.429688 380.207031 399.828125 381.5625 400.40625 383.625 C 401.261719 386.808594 401.992188 390.019531 402.601562 393.261719 C 405.257812 405.703125 411.359375 416.765625 419.585938 426.382812 L 420.574219 427.683594 C 425.234375 433.679688 432.390625 438.460938 438.949219 442.15625 L 440.492188 442.511719 L 441.816406 442.875 L 442.535156 444.308594 L 445.402344 443.589844 L 444.683594 442.15625 C 443.566406 441.53125 442.429688 440.933594 441.277344 440.363281 C 430.269531 434.480469 421.382812 425.953125 414.75 415.425781 C 408.066406 404.511719 404.066406 392.625 403.679688 379.78125 C 403.414062 365.324219 405.796875 352.78125 412.632812 339.957031 C 415.449219 334.898438 418.667969 330.375 422.457031 325.988281 L 423.964844 324.046875 C 425.324219 322.402344 425.324219 322.402344 426.757812 321.6875 L 426.757812 320.253906 L 427.980469 319.683594 C 429.785156 318.734375 431.375 317.632812 433.03125 316.441406 C 438.5 312.519531 443.769531 309.53125 450.0625 307.121094 L 452.058594 306.339844 C 453.660156 305.714844 455.265625 305.09375 456.875 304.476562 L 456.875 305.910156 L 455.316406 306.136719 C 449.277344 307.605469 444.199219 312.488281 439.769531 316.625 L 438.230469 318.101562 L 436.304688 319.9375 L 434.644531 321.6875 L 433.542969 322.796875 C 425.179688 331.699219 419.722656 343.6875 416.71875 355.390625 C 413.914062 367.894531 414.605469 381.277344 418.378906 393.484375 C 422.785156 407.070312 429.5625 418.214844 439.847656 428.214844 C 449.75 437.019531 461.902344 442.890625 474.800781 445.742188 C 480.59375 446.925781 486.195312 447.433594 492.101562 447.402344 L 494.449219 447.394531 C 501.222656 447.304688 507.644531 446.507812 514.242188 445.023438 L 516.171875 444.605469 C 530.773438 440.800781 543.097656 432.394531 553.859375 422.125 C 563.164062 412.484375 568.984375 400.433594 572.441406 387.582031 C 572.976562 385.097656 573.195312 383.011719 573.132812 380.488281 L 573.09375 378.425781 L 573.042969 376.902344 L 572.324219 376.902344 L 572.054688 379.066406 C 570.191406 392.277344 565.070312 404.085938 557.183594 414.824219 C 548.820312 425.503906 538.285156 433.128906 525.789062 438.210938 C 513.707031 442.824219 500.195312 444.265625 487.375 442.492188 C 484.585938 442.03125 481.847656 441.40625 479.105469 440.722656 L 476.679688 440.117188 C 468.652344 437.875 461.246094 434.164062 454.488281 429.296875 L 453.289062 428.53125 L 451.855469 428.53125 L 451.855469 427.097656 C 450.8125 426.074219 450.8125 426.074219 449.433594 424.992188 C 440.167969 417.070312 433.757812 407.359375 428.910156 396.261719 C 428.410156 394.175781 428.410156 394.175781 428.191406 392.679688 L 426.757812 392.679688 L 426.757812 391.242188 L 428.910156 391.242188 L 429.445312 393.136719 C 432.511719 401.359375 440.40625 409.035156 447.015625 414.640625 C 457.578125 422.917969 469.839844 428.816406 483.1875 430.917969 C 496.824219 432.703125 510.417969 431.007812 523.257812 426.042969 C 532.070312 422.113281 539.4375 417.136719 546.511719 410.605469 L 548.109375 409.183594 C 557.75 400.175781 563.410156 388.296875 567.304688 375.894531 C 569.855469 366.730469 570.636719 356.136719 569.089844 346.695312 C 568.976562 346.25 568.859375 345.808594 568.738281 345.351562 L 570.175781 345.351562 L 568.023438 335.3125 L 566.589844 335.3125 L 567.304688 332.441406 L 565.871094 332.441406 L 565.632812 331.125 C 564.382812 324.496094 564.382812 324.496094 562.285156 318.101562 L 560.851562 317.382812 C 560.34375 315.960938 559.871094 314.523438 559.417969 313.082031 C 557.871094 308.902344 555.726562 305.804688 552.964844 302.324219 L 551.722656 300.703125 C 550.472656 299.082031 549.214844 297.472656 547.945312 295.871094 L 546.847656 294.449219 C 544.785156 291.882812 542.914062 290.246094 539.9375 288.710938 C 538.496094 287.914062 537.273438 286.984375 535.976562 285.96875 C 526.304688 278.625 514.816406 273.847656 502.769531 272.207031 C 495.09375 271.445312 487.332031 270.796875 479.820312 272.925781 "/><path style=" stroke:none;fill-rule:nonzero;fill:#373637;fill-opacity:1;" d="M 790.917969 598.929688 L 793.652344 598.921875 C 796.113281 598.917969 798.574219 598.921875 801.03125 598.933594 C 803.625 598.941406 806.21875 598.9375 808.8125 598.9375 C 813.171875 598.9375 817.53125 598.945312 821.894531 598.957031 C 826.898438 598.972656 831.902344 598.976562 836.910156 598.96875 C 841.757812 598.96875 846.609375 598.96875 851.457031 598.976562 C 853.503906 598.980469 855.550781 598.980469 857.597656 598.980469 C 877.496094 598.972656 895.921875 599.375 913.65625 609.238281 C 920.195312 613.640625 926.476562 619.523438 930.238281 626.535156 C 934.046875 634.710938 934.144531 643.410156 933.734375 652.261719 C 933.132812 658.507812 931.453125 664.191406 928.039062 669.480469 C 922.667969 676.9375 917.140625 681.703125 908.875 685.625 C 906.195312 686.8125 903.527344 687.890625 900.75 688.832031 L 901.734375 690.445312 C 902.671875 692.023438 903.539062 693.636719 904.335938 695.289062 L 905.769531 695.289062 L 905.769531 696.722656 L 907.921875 697.4375 L 907.921875 698.871094 L 909.355469 698.871094 L 909.355469 700.308594 L 910.789062 700.308594 C 911.859375 701.5 912.890625 702.722656 913.882812 703.980469 L 917.242188 708.195312 C 917.972656 709.050781 918.703125 709.902344 919.4375 710.75 L 920.828125 712.496094 L 920.828125 713.929688 L 922.078125 714.421875 C 924.148438 715.628906 925.210938 717.089844 926.65625 718.996094 C 928.4375 721.511719 928.4375 721.511719 930.867188 723.253906 L 930.867188 724.6875 C 925.414062 724.738281 919.957031 724.777344 914.503906 724.800781 C 911.972656 724.808594 909.4375 724.824219 906.90625 724.851562 C 903.992188 724.878906 901.078125 724.886719 898.164062 724.898438 C 897.257812 724.910156 896.351562 724.917969 895.417969 724.933594 L 892.851562 724.933594 L 890.597656 724.945312 C 888.230469 724.644531 886.910156 723.902344 884.972656 722.535156 C 880.644531 718.835938 877.132812 714.449219 873.675781 709.957031 C 871.007812 706.484375 868.214844 703.140625 865.335938 699.839844 C 863.9375 698.21875 862.78125 696.800781 861.886719 694.839844 L 860.59375 693.136719 C 858.730469 692.703125 857.328125 692.554688 855.445312 692.535156 L 853.769531 692.480469 C 844.582031 692.25 835.375 692.515625 826.191406 692.703125 C 823.59375 692.753906 820.996094 692.800781 818.398438 692.847656 C 813.34375 692.9375 808.285156 693.035156 803.226562 693.136719 L 803.195312 695.164062 C 803.148438 697.664062 803.097656 700.164062 803.039062 702.664062 C 803.015625 703.742188 802.996094 704.820312 802.976562 705.898438 C 802.953125 707.457031 802.917969 709.015625 802.875 710.574219 L 802.820312 713.40625 C 802.46875 716.417969 801.671875 718.398438 800.359375 721.101562 L 798.925781 721.101562 L 798.925781 722.535156 C 794.273438 724.632812 790.582031 725.5 785.417969 725.476562 L 782.613281 725.46875 L 779.699219 725.449219 C 778.710938 725.445312 777.726562 725.441406 776.738281 725.441406 C 774.335938 725.433594 771.929688 725.421875 769.523438 725.40625 C 769.472656 710.652344 769.4375 695.894531 769.414062 681.140625 C 769.402344 674.289062 769.386719 667.441406 769.363281 660.589844 C 769.339844 654.617188 769.324219 648.640625 769.320312 642.671875 C 769.320312 639.507812 769.3125 636.347656 769.296875 633.1875 C 769.28125 630.207031 769.277344 627.230469 769.28125 624.25 C 769.28125 623.160156 769.273438 622.070312 769.265625 620.980469 C 769.1875 609.902344 769.1875 609.902344 771.675781 604.933594 C 773.128906 602.964844 774.332031 601.789062 776.550781 600.738281 C 781.351562 598.988281 785.84375 598.898438 790.917969 598.933594 M 461.242188 599.082031 L 464.648438 599.070312 C 467.707031 599.0625 470.765625 599.058594 473.820312 599.054688 C 475.734375 599.054688 477.652344 599.050781 479.566406 599.046875 C 485.566406 599.035156 491.566406 599.03125 497.570312 599.027344 C 504.476562 599.023438 511.382812 599.011719 518.292969 598.992188 C 523.648438 598.976562 529.003906 598.96875 534.359375 598.964844 C 537.554688 598.964844 540.746094 598.960938 543.9375 598.949219 C 546.9375 598.9375 549.9375 598.933594 552.9375 598.941406 C 554.035156 598.941406 555.132812 598.9375 556.230469 598.933594 C 561.96875 598.898438 566.984375 599.046875 572.324219 601.347656 C 574.003906 602.53125 574.003906 602.53125 575.148438 603.769531 C 575.539062 604.175781 575.929688 604.578125 576.335938 604.996094 C 577.539062 606.628906 578.144531 608.019531 578.777344 609.953125 C 578.941406 612.335938 578.941406 612.335938 578.917969 615.011719 L 578.914062 616.441406 C 578.902344 617.9375 578.890625 619.4375 578.867188 620.933594 C 578.859375 621.953125 578.855469 622.976562 578.847656 623.996094 C 578.832031 626.484375 578.808594 628.976562 578.777344 631.46875 C 568.625 631.660156 558.46875 631.847656 548.3125 632.039062 L 537.566406 632.238281 C 519.707031 632.578125 501.84375 632.910156 483.980469 633.105469 L 480.28125 633.148438 C 475.214844 633.207031 470.152344 633.257812 465.085938 633.296875 C 463.558594 633.308594 462.027344 633.324219 460.5 633.339844 C 458.675781 633.359375 456.851562 633.375 455.023438 633.382812 L 452.648438 633.410156 L 450.59375 633.429688 L 448.988281 633.617188 L 447.554688 635.050781 C 447.324219 637.246094 447.324219 637.246094 447.375 639.714844 L 447.363281 642.246094 L 447.554688 644.375 L 448.988281 645.808594 C 450.707031 646.015625 450.707031 646.015625 452.738281 645.964844 L 455.148438 645.964844 L 457.808594 645.9375 L 462.050781 645.921875 C 463.578125 645.914062 465.105469 645.90625 466.628906 645.894531 C 469.820312 645.871094 473.011719 645.859375 476.203125 645.851562 C 484.710938 645.824219 493.21875 645.785156 501.726562 645.734375 C 507.304688 645.703125 512.878906 645.675781 518.457031 645.664062 C 521.105469 645.65625 523.75 645.644531 526.394531 645.625 C 554.851562 645.394531 554.851562 645.394531 564.257812 649.574219 C 569.15625 652.46875 573.105469 655.976562 575.941406 660.941406 C 579.402344 667.785156 578.914062 675.65625 578.910156 683.144531 C 578.914062 684.699219 578.925781 686.25 578.941406 687.804688 C 578.976562 696.121094 578.820312 704.292969 574.671875 711.722656 C 572.398438 715.433594 569.972656 717.753906 566.316406 720.082031 C 560.710938 723.125 554.957031 724.316406 548.660156 724.6875 L 546.480469 724.863281 C 535.625 725.648438 524.746094 725.523438 513.875 725.523438 C 512.121094 725.523438 510.371094 725.527344 508.621094 725.527344 C 502.5 725.535156 496.378906 725.539062 490.257812 725.539062 C 484.570312 725.539062 478.886719 725.542969 473.199219 725.554688 C 468.292969 725.566406 463.386719 725.570312 458.480469 725.570312 C 455.5625 725.566406 452.644531 725.570312 449.722656 725.578125 C 446.980469 725.585938 444.242188 725.585938 441.5 725.582031 C 440.5 725.578125 439.5 725.582031 438.5 725.585938 C 426.324219 725.632812 426.324219 725.632812 420.796875 722.714844 C 418.640625 720.910156 417.375 719.253906 416 716.800781 C 413.425781 709.078125 414.566406 700.558594 414.566406 692.417969 L 543.640625 691.703125 L 543.640625 678.078125 L 542.925781 677.359375 C 541.671875 677.300781 540.421875 677.273438 539.167969 677.285156 L 536.699219 677.285156 L 533.960938 677.300781 L 529.613281 677.3125 C 528.046875 677.316406 526.484375 677.320312 524.917969 677.328125 C 521.65625 677.339844 518.390625 677.347656 515.125 677.355469 C 505.839844 677.371094 496.550781 677.394531 487.265625 677.429688 C 482.144531 677.445312 477.019531 677.457031 471.894531 677.464844 C 468.65625 677.472656 465.417969 677.480469 462.183594 677.496094 C 460.152344 677.503906 458.125 677.507812 456.097656 677.507812 C 454.726562 677.511719 453.355469 677.519531 451.980469 677.53125 C 443.71875 677.519531 435.746094 676.597656 428.191406 673.058594 C 424.550781 670.9375 421.527344 668.238281 419.097656 664.785156 C 416.167969 659.300781 414.800781 652.71875 414.566406 646.523438 L 414.480469 644.378906 C 414.285156 634.554688 414.328125 622.808594 419.070312 613.984375 C 421.746094 609.671875 424.8125 606.527344 429.160156 603.925781 C 439.109375 598.628906 450.238281 599.089844 461.242188 599.082031 M 618.503906 599.015625 L 620.050781 599.007812 C 621.75 599.003906 623.445312 599.007812 625.144531 599.011719 L 628.808594 599.003906 C 632.117188 599 635.429688 599 638.738281 599.003906 C 642.207031 599.007812 645.675781 599.003906 649.140625 599.003906 C 654.964844 599 660.789062 599.003906 666.609375 599.011719 C 673.339844 599.019531 680.066406 599.015625 686.792969 599.007812 C 692.574219 599.003906 698.355469 599 704.136719 599.003906 C 707.585938 599.007812 711.035156 599.007812 714.488281 599.003906 C 717.730469 599 720.976562 599 724.21875 599.007812 C 725.410156 599.011719 726.597656 599.011719 727.785156 599.007812 C 729.414062 599.003906 731.039062 599.007812 732.664062 599.015625 L 735.417969 599.015625 C 738.925781 599.265625 741.902344 599.972656 744.917969 601.796875 C 746.578125 603.5 746.578125 603.5 749.445312 609.238281 L 749.445312 630.75 L 635.429688 630.75 L 635.429688 648.675781 L 642.503906 648.664062 C 650.207031 648.65625 657.90625 648.644531 665.609375 648.640625 C 670.28125 648.636719 674.953125 648.628906 679.625 648.625 C 684.128906 648.617188 688.632812 648.609375 693.140625 648.609375 C 694.859375 648.605469 696.582031 648.605469 698.304688 648.601562 C 700.710938 648.597656 703.113281 648.59375 705.519531 648.59375 L 707.691406 648.589844 L 711.398438 648.589844 C 712.875 648.675781 712.875 648.675781 715.023438 649.394531 L 715.023438 675.925781 L 635.429688 675.925781 L 635.429688 695.289062 L 639.726562 695.28125 C 653.054688 695.269531 666.382812 695.257812 679.707031 695.25 C 686.5625 695.246094 693.414062 695.242188 700.269531 695.234375 C 706.238281 695.226562 712.207031 695.222656 718.179688 695.21875 C 721.34375 695.21875 724.507812 695.21875 727.667969 695.210938 C 730.644531 695.207031 733.617188 695.207031 736.589844 695.207031 C 737.6875 695.207031 738.78125 695.203125 739.875 695.203125 C 741.363281 695.199219 742.851562 695.199219 744.339844 695.203125 L 746.871094 695.199219 L 748.726562 695.289062 L 749.445312 696.003906 C 749.667969 699.121094 749.644531 702.246094 749.667969 705.371094 L 749.730469 708.015625 C 749.785156 715.285156 749.785156 715.285156 748.089844 718.753906 C 746.488281 721.238281 745.574219 722.539062 742.992188 723.96875 C 736.511719 725.773438 729.847656 725.613281 723.183594 725.601562 L 719.632812 725.613281 C 716.4375 725.621094 713.238281 725.621094 710.042969 725.621094 C 707.371094 725.621094 704.695312 725.625 702.019531 725.628906 C 695.707031 725.636719 689.398438 725.636719 683.085938 725.632812 C 676.585938 725.628906 670.089844 725.636719 663.589844 725.652344 C 657.996094 725.664062 652.402344 725.667969 646.804688 725.664062 C 643.472656 725.664062 640.136719 725.664062 636.800781 725.675781 C 633.664062 725.683594 630.53125 725.683594 627.398438 725.675781 C 626.25 725.671875 625.101562 725.675781 623.957031 725.679688 C 612.265625 725.738281 612.265625 725.738281 607.460938 723.253906 C 605.246094 721.507812 604.128906 720.292969 603.078125 717.679688 C 602.421875 715.289062 602.261719 713.324219 602.253906 710.851562 L 602.242188 708.152344 L 602.246094 705.214844 C 602.242188 704.175781 602.238281 703.140625 602.234375 702.101562 C 602.226562 699.289062 602.226562 696.476562 602.226562 693.664062 C 602.226562 691.3125 602.222656 688.964844 602.21875 686.613281 C 602.214844 681.066406 602.210938 675.519531 602.214844 669.972656 C 602.21875 664.257812 602.210938 658.542969 602.195312 652.828125 C 602.183594 647.914062 602.179688 643 602.183594 638.085938 C 602.183594 635.15625 602.183594 632.222656 602.171875 629.292969 C 602.164062 626.535156 602.164062 623.777344 602.171875 621.019531 C 602.175781 620.007812 602.171875 619 602.167969 617.988281 C 602.121094 609.425781 602.121094 609.425781 603.433594 606.214844 C 604.792969 603.875 606.058594 602.320312 608.179688 600.632812 C 611.703125 599.402344 614.785156 599.019531 618.503906 599.015625 M 247.667969 598.972656 L 250.488281 598.910156 C 258.195312 598.859375 258.195312 598.859375 261.773438 600.648438 L 263.980469 602.066406 L 263.980469 603.5 L 265.167969 604.019531 C 267.265625 605.164062 268.960938 606.585938 270.792969 608.117188 C 273.546875 610.421875 273.546875 610.421875 276.417969 612.578125 L 277.605469 613.539062 L 277.605469 614.972656 L 278.90625 615.601562 C 280.472656 616.410156 280.472656 616.410156 282.625 617.84375 L 282.625 619.277344 L 284.058594 619.277344 L 284.058594 620.710938 L 285.34375 621.304688 C 286.867188 622.113281 288.007812 622.960938 289.300781 624.089844 L 290.605469 625.226562 L 291.945312 626.402344 C 292.828125 627.171875 293.707031 627.941406 294.589844 628.707031 L 295.835938 629.792969 C 296.757812 630.574219 297.730469 631.300781 298.714844 632.007812 L 299.832031 632.902344 L 299.832031 634.335938 L 301.011719 634.816406 C 303.246094 636.078125 304.980469 637.773438 306.824219 639.535156 C 309.777344 642.308594 312.742188 644.863281 316.089844 647.15625 L 317.042969 647.960938 L 317.042969 649.394531 L 318.476562 649.394531 L 318.476562 650.828125 L 319.824219 651.5 L 322.78125 652.980469 L 322.78125 654.414062 L 324.070312 655 C 325.636719 655.839844 326.699219 656.699219 327.972656 657.925781 C 328.609375 658.53125 328.609375 658.53125 329.257812 659.148438 L 330.578125 660.417969 C 334.15625 663.878906 334.15625 663.878906 338.160156 666.8125 L 339.992188 668.039062 L 339.992188 669.472656 L 342.140625 670.191406 L 342.140625 671.625 L 343.574219 671.625 L 343.574219 673.058594 L 345.171875 673.578125 C 347.441406 674.621094 348.648438 675.808594 350.34375 677.628906 C 352.679688 680.128906 355.050781 681.945312 357.917969 683.8125 L 357.925781 682.507812 C 358 672.015625 358.078125 661.523438 358.160156 651.035156 C 358.203125 645.960938 358.238281 640.886719 358.273438 635.816406 C 358.308594 630.925781 358.347656 626.03125 358.386719 621.140625 C 358.402344 619.269531 358.414062 617.398438 358.425781 615.527344 C 358.445312 612.917969 358.464844 610.308594 358.488281 607.699219 L 358.5 605.328125 L 358.523438 603.1875 L 358.535156 601.3125 C 358.566406 600.851562 358.601562 600.390625 358.636719 599.914062 L 359.351562 599.199219 C 362.222656 599.023438 365.097656 599.035156 367.976562 599.027344 C 369.414062 599.019531 370.851562 598.996094 372.285156 598.972656 C 377.332031 598.953125 381.335938 599.082031 385.882812 601.347656 C 387.796875 602.796875 389.03125 604.03125 390.082031 606.199219 C 391.933594 611.214844 391.917969 616.011719 391.886719 621.3125 C 391.890625 622.300781 391.890625 623.289062 391.894531 624.273438 C 391.902344 626.941406 391.894531 629.605469 391.886719 632.269531 C 391.878906 635.070312 391.882812 637.867188 391.882812 640.667969 C 391.882812 645.363281 391.875 650.058594 391.863281 654.757812 C 391.847656 660.179688 391.84375 665.597656 391.847656 671.019531 C 391.851562 676.25 391.847656 681.476562 391.839844 686.707031 C 391.835938 688.925781 391.835938 691.144531 391.839844 693.363281 C 391.839844 695.976562 391.832031 698.59375 391.820312 701.207031 C 391.816406 702.617188 391.820312 704.027344 391.824219 705.4375 C 391.789062 710.976562 391.5625 715.628906 388.929688 720.609375 C 387.074219 722.828125 385.71875 723.679688 383.015625 724.6875 C 378.296875 725.578125 373.554688 725.640625 368.761719 725.71875 L 366.300781 725.816406 C 363.148438 725.859375 360.425781 725.882812 357.511719 724.585938 C 355.867188 723.515625 354.390625 722.375 352.898438 721.101562 L 351.484375 719.953125 C 350.160156 718.851562 348.851562 717.722656 347.566406 716.574219 C 344.6875 713.902344 344.6875 713.902344 341.425781 711.78125 L 341.425781 710.347656 C 341.042969 710.1875 340.664062 710.03125 340.273438 709.867188 C 337.941406 708.570312 336.027344 706.855469 334.03125 705.101562 L 332.710938 703.957031 C 331.785156 703.152344 330.859375 702.351562 329.9375 701.542969 C 328.527344 700.316406 327.109375 699.089844 325.695312 697.867188 C 321.875 694.570312 318.0625 691.265625 314.308594 687.890625 C 311.480469 685.347656 308.503906 683.015625 305.476562 680.703125 L 304.136719 679.511719 L 304.136719 678.078125 L 302.929688 677.566406 C 300.863281 676.417969 299.359375 674.992188 297.636719 673.371094 C 294.914062 670.847656 292.15625 668.4375 289.257812 666.113281 C 286.589844 663.960938 284.15625 661.738281 281.789062 659.265625 C 279.582031 657.144531 277.132812 655.328125 274.695312 653.480469 L 273.300781 652.261719 L 273.300781 650.828125 L 272.023438 650.234375 C 269.464844 648.882812 267.417969 646.972656 265.234375 645.089844 L 263.824219 643.902344 L 262.488281 642.761719 C 261.886719 642.246094 261.886719 642.246094 261.269531 641.71875 L 260.394531 640.789062 L 260.394531 639.355469 L 258.960938 639.355469 L 258.960938 725.40625 C 235.839844 725.40625 235.839844 725.40625 231.351562 722.851562 C 229.453125 721.429688 228.761719 720.21875 227.710938 718.058594 C 226.125 713.660156 226.390625 709.09375 226.414062 704.476562 C 226.410156 703.453125 226.40625 702.429688 226.402344 701.410156 C 226.390625 698.644531 226.394531 695.878906 226.402344 693.117188 C 226.40625 690.214844 226.402344 687.3125 226.398438 684.410156 C 226.394531 679.542969 226.398438 674.671875 226.410156 669.800781 C 226.421875 664.179688 226.417969 658.558594 226.40625 652.9375 C 226.398438 648.101562 226.394531 643.261719 226.402344 638.425781 C 226.40625 635.542969 226.402344 632.660156 226.398438 629.773438 C 226.390625 627.0625 226.394531 624.351562 226.410156 621.636719 C 226.410156 620.644531 226.410156 619.652344 226.40625 618.660156 C 226.382812 613.371094 226.484375 609.011719 228.84375 604.21875 C 230.207031 602.742188 230.207031 602.742188 231.667969 601.753906 L 233.121094 600.726562 C 237.492188 598.300781 242.824219 599.007812 247.664062 598.972656 M 113.433594 599.078125 L 115.300781 599.070312 C 116.601562 599.066406 117.902344 599.066406 119.203125 599.066406 C 121.179688 599.0625 123.15625 599.050781 125.132812 599.035156 C 126.402344 599.035156 127.667969 599.035156 128.9375 599.035156 L 130.710938 599.015625 C 135.039062 599.035156 139.105469 599.476562 143.023438 601.488281 C 146.734375 604.308594 149.046875 607.386719 151.398438 611.386719 L 152.628906 613.441406 C 155.074219 617.570312 157.390625 621.761719 159.667969 625.984375 C 160.691406 627.828125 161.769531 629.625 162.871094 631.421875 C 164.457031 634.019531 165.84375 636.664062 167.171875 639.398438 C 168.460938 642.03125 169.804688 644.476562 171.476562 646.882812 C 173.617188 649.96875 175.21875 653.21875 176.859375 656.589844 C 178.136719 659.128906 179.574219 661.535156 181.0625 663.953125 C 182.710938 666.675781 184.273438 669.445312 185.84375 672.214844 C 187.257812 674.703125 188.710938 677.160156 190.210938 679.601562 C 191.761719 682.15625 193.113281 684.757812 194.421875 687.445312 C 196 690.664062 197.757812 693.578125 199.796875 696.523438 C 201.8125 699.570312 203.460938 702.824219 205.179688 706.042969 C 205.730469 707.046875 206.28125 708.046875 206.835938 709.046875 L 207.6875 710.582031 C 208.59375 712.191406 209.503906 713.796875 210.421875 715.398438 L 211.316406 716.96875 C 211.910156 718.011719 212.507812 719.054688 213.105469 720.09375 C 215.21875 723.808594 215.21875 723.808594 215.21875 725.40625 C 211.699219 725.441406 208.179688 725.464844 204.660156 725.484375 C 203.46875 725.492188 202.273438 725.5 201.082031 725.511719 C 183.886719 725.6875 183.886719 725.6875 178.019531 722.804688 C 171.941406 718.1875 168.460938 710.570312 165.023438 703.890625 L 165.023438 702.457031 L 95.464844 702.457031 C 102.132812 689.121094 102.132812 689.121094 105.773438 683.140625 L 106.902344 681.242188 C 108.9375 677.867188 108.9375 677.867188 109.808594 676.644531 C 111.617188 675.738281 112.863281 675.839844 114.890625 675.84375 L 117.199219 675.84375 L 119.695312 675.855469 L 122.246094 675.859375 C 124.941406 675.863281 127.636719 675.871094 130.332031 675.882812 C 132.15625 675.886719 133.984375 675.886719 135.808594 675.890625 C 140.285156 675.898438 144.765625 675.910156 149.246094 675.925781 L 148.328125 674.34375 C 141.980469 663.402344 135.726562 652.40625 129.570312 641.355469 C 127.648438 637.917969 125.71875 634.480469 123.78125 631.046875 L 121.996094 627.882812 L 119.847656 628.597656 C 118.828125 630.277344 118.828125 630.277344 117.917969 632.363281 C 115.933594 636.515625 113.648438 640.363281 111.203125 644.257812 C 109.535156 646.964844 108.03125 649.738281 106.53125 652.539062 C 105.515625 654.390625 104.449219 656.195312 103.351562 658 C 101.488281 661.074219 99.742188 664.203125 98.039062 667.367188 C 97.101562 669.09375 96.15625 670.816406 95.199219 672.53125 C 93.976562 674.726562 92.765625 676.929688 91.566406 679.140625 C 87.660156 686.332031 83.601562 693.445312 79.398438 700.46875 C 77.105469 704.304688 74.902344 708.191406 72.792969 712.128906 C 70.613281 716.089844 68.546875 719.820312 64.855469 722.535156 C 60.113281 725.398438 54.972656 725.308594 49.539062 725.441406 C 45.886719 725.492188 42.242188 725.472656 38.59375 725.449219 C 37.492188 725.445312 36.394531 725.441406 35.300781 725.441406 C 32.648438 725.433594 29.996094 725.421875 27.34375 725.40625 C 28.4375 721.9375 29.902344 719.019531 31.824219 715.949219 C 32.703125 714.515625 33.574219 713.082031 34.449219 711.648438 C 35.828125 709.347656 37.09375 706.988281 38.363281 704.625 C 42.59375 696.78125 46.984375 689.035156 51.5 681.347656 C 55.632812 674.304688 59.628906 667.195312 63.582031 660.046875 C 67.296875 653.328125 71.089844 646.652344 74.914062 639.992188 C 77.039062 636.292969 79.15625 632.585938 81.269531 628.878906 C 82.90625 626.015625 84.539062 623.15625 86.175781 620.296875 C 87.160156 618.574219 88.136719 616.847656 89.109375 615.121094 L 89.878906 613.753906 C 90.585938 612.5 91.292969 611.242188 92 609.984375 C 94.304688 606.160156 96.742188 603.074219 100.527344 600.675781 C 104.785156 599.140625 108.964844 599.082031 113.429688 599.078125 "/><path style=" stroke:none;fill-rule:nonzero;fill:#fefefe;fill-opacity:1;" d="M 484.257812 319.984375 L 486.261719 319.988281 C 491.742188 320.085938 496.257812 320.972656 501.335938 323.121094 L 502.867188 323.699219 C 508.550781 326.125 513.75 330.613281 517.5625 335.449219 C 520.8125 339.855469 523.398438 344.410156 525 349.652344 L 525.484375 351.203125 C 527.367188 358.261719 526.789062 365.496094 524.980469 372.503906 C 522.59375 380.160156 518.695312 387.363281 512.824219 392.902344 C 506.546875 398.136719 499.285156 401.53125 491.265625 403.160156 C 483.152344 404.207031 475.597656 403.273438 467.984375 400.300781 C 460.808594 397.011719 455.175781 392.625 450.308594 386.390625 C 445.113281 378.675781 443.0625 370.4375 442.308594 361.261719 C 442.59375 353.242188 444.765625 345.703125 448.988281 338.898438 C 453.027344 332.929688 457.863281 328.171875 464.222656 324.730469 C 470.957031 321.503906 476.832031 319.96875 484.257812 319.984375 M 803.945312 631.46875 C 805.289062 631.285156 805.289062 631.285156 806.957031 631.285156 L 808.875 631.273438 L 810.980469 631.28125 L 813.199219 631.273438 C 815.625 631.265625 818.054688 631.273438 820.484375 631.277344 L 825.542969 631.273438 C 829.085938 631.269531 832.628906 631.273438 836.171875 631.28125 C 840.703125 631.289062 845.234375 631.285156 849.765625 631.273438 C 853.253906 631.269531 856.742188 631.269531 860.230469 631.273438 C 861.898438 631.277344 863.570312 631.273438 865.238281 631.269531 C 867.582031 631.269531 869.925781 631.273438 872.265625 631.28125 L 874.34375 631.273438 C 879.414062 631.304688 884.160156 631.710938 888.695312 634.109375 C 891.109375 636.097656 893.195312 638.238281 895.011719 640.789062 C 895.90625 643.46875 895.996094 645.890625 895.730469 648.675781 C 894.992188 651.300781 894.15625 653.082031 892.285156 655.074219 C 889.734375 657.40625 887.542969 659.015625 884.257812 660.148438 C 882.550781 660.328125 882.550781 660.328125 880.75 660.324219 L 878.667969 660.328125 L 876.410156 660.3125 L 874.015625 660.3125 C 871.402344 660.3125 868.792969 660.300781 866.179688 660.289062 L 860.746094 660.285156 C 856.46875 660.277344 852.1875 660.269531 847.910156 660.253906 C 843.035156 660.238281 838.164062 660.230469 833.289062 660.222656 C 823.269531 660.207031 813.246094 660.183594 803.226562 660.152344 C 802.351562 657.519531 802.394531 655.085938 802.390625 652.347656 L 802.382812 650.679688 C 802.378906 649.519531 802.375 648.355469 802.375 647.191406 C 802.375 645.410156 802.363281 643.625 802.347656 641.84375 C 802.34375 640.714844 802.34375 639.585938 802.34375 638.457031 L 802.328125 636.835938 C 802.335938 635.523438 802.414062 634.210938 802.507812 632.902344 Z M 803.945312 631.46875 "/><path style=" stroke:none;fill-rule:nonzero;fill:#fefefe;fill-opacity:1;" d="M 568.738281 345.351562 L 570.175781 345.351562 C 570.519531 346.785156 570.863281 348.21875 571.207031 349.652344 L 571.785156 352.074219 C 574.371094 364.515625 574.265625 378.707031 570.320312 390.855469 C 566.375 402.136719 560.894531 411.652344 552.964844 420.644531 L 551.820312 421.972656 C 544.195312 430.203125 533.839844 436.414062 523.222656 439.867188 C 509.609375 443.9375 495.679688 445.136719 481.710938 442.089844 L 479.105469 441.441406 L 476.679688 440.835938 C 467.921875 438.386719 459.070312 434.113281 451.855469 428.53125 L 451.855469 427.097656 L 450.652344 426.597656 C 443.691406 422.699219 438.871094 414.972656 434.644531 408.453125 L 433.152344 406.273438 C 431.859375 404.277344 430.800781 402.320312 429.804688 400.164062 L 428.875 398.1875 C 428.171875 396.210938 428.054688 394.757812 428.191406 392.679688 L 426.757812 392.679688 L 426.757812 391.242188 L 428.910156 391.242188 C 429.941406 392.796875 429.941406 392.796875 431.058594 394.964844 C 436.46875 404.617188 444.285156 412.785156 453.648438 418.671875 C 466.398438 426.1875 479.515625 430.789062 494.386719 430.996094 C 507.929688 430.917969 521.207031 427.109375 532.953125 420.445312 C 537.953125 417.46875 542.242188 413.824219 546.511719 409.886719 L 547.949219 408.625 C 557.355469 399.9375 562.835938 387.894531 566.589844 375.878906 C 569.398438 365.832031 568.890625 355.707031 568.738281 345.351562 M 498.554688 285.25 C 499.972656 285.894531 501.375 286.570312 502.769531 287.265625 L 504.082031 287.917969 C 516.320312 294.085938 526.328125 302.828125 533.9375 314.25 C 537.726562 320.179688 540.796875 326.441406 542.925781 333.160156 L 542.925781 336.027344 L 541.492188 336.027344 L 540.667969 334.1875 C 535.34375 322.835938 527.855469 313.933594 517.550781 306.71875 C 507.40625 299.816406 496.3125 295.382812 484.125 293.722656 C 481.117188 293.5 478.128906 293.449219 475.117188 293.453125 L 472.652344 293.457031 C 459.65625 293.644531 447.363281 297.296875 436.078125 303.761719 C 424.804688 310.792969 415.753906 320.082031 409.359375 331.746094 C 402.078125 345.574219 399.632812 359.917969 400.226562 375.46875 L 398.792969 375.46875 C 397.03125 368.488281 396.269531 362.058594 396.328125 354.851562 L 396.339844 352.007812 C 396.550781 339.1875 399.585938 328.175781 406.050781 317.070312 C 413.699219 304.429688 424.109375 295.539062 436.773438 288.183594 C 455.21875 278.289062 479.199219 277.835938 498.554688 285.25 "/><path style=" stroke:none;fill-rule:nonzero;fill:#fdfdfd;fill-opacity:1;" d="M 524.96875 281.078125 C 536.804688 287.199219 547 295.855469 554.332031 307.007812 C 560.496094 317.039062 565.445312 328.296875 565.960938 340.214844 C 566.433594 359.183594 566.433594 359.183594 563.71875 368.296875 L 563.3125 369.722656 C 559.589844 382.402344 553.101562 392.832031 543.640625 402 L 541.777344 403.832031 C 535.058594 410.160156 527.027344 414.898438 518.542969 418.492188 C 516.09375 418.992188 516.09375 418.992188 514.242188 419.210938 L 514.957031 417.058594 C 516.1875 416.265625 516.1875 416.265625 517.78125 415.492188 C 521.792969 413.371094 525.117188 410.644531 528.582031 407.738281 L 530.035156 406.628906 C 538.679688 399.765625 544.496094 389.171875 548.511719 379.0625 C 553.425781 366.011719 554.636719 351.71875 552.445312 337.917969 C 551.847656 334.835938 551.035156 331.847656 550.097656 328.859375 L 549.359375 326.40625 C 545.320312 314.605469 537.1875 303.65625 527.902344 295.476562 C 517.609375 287.214844 505.402344 280.886719 492.339844 278.652344 C 484.457031 277.449219 476.992188 276.90625 469.066406 277.945312 L 469.78125 276.511719 C 471.351562 275.925781 471.351562 275.925781 473.367188 275.390625 C 474.019531 275.210938 474.667969 275.035156 475.339844 274.851562 C 492.324219 271.277344 509.371094 273.847656 524.96875 281.078125 M 456.875 304.476562 L 456.875 305.910156 L 455.269531 306.625 C 449.167969 309.488281 443.84375 313.027344 439.175781 317.9375 L 438.230469 318.820312 L 436.796875 318.820312 L 436.214844 320.105469 C 435.347656 321.714844 434.4375 322.757812 433.167969 324.0625 C 424.894531 333.320312 419.628906 345.617188 416.941406 357.601562 C 414.390625 371.761719 416.226562 385.679688 421.019531 399.132812 C 425.234375 410.78125 432.507812 421.066406 441.816406 429.25 C 451.722656 437.046875 462.59375 442.050781 474.800781 445.023438 L 476.878906 445.558594 C 484.597656 447.199219 492.769531 446.582031 500.617188 446.460938 L 500.617188 447.894531 C 485.578125 451.003906 469.472656 452.035156 454.722656 447.175781 L 452.296875 446.414062 C 442.730469 443.089844 434.246094 437.425781 426.757812 430.683594 L 424.929688 429.0625 C 416.144531 420.808594 409.804688 409.890625 406.140625 398.460938 C 402.515625 386.425781 401.78125 373.246094 403.902344 360.824219 C 407.0625 347.890625 413.015625 336.046875 421.738281 325.988281 C 422.425781 325.125 423.113281 324.257812 423.800781 323.390625 L 425.324219 321.6875 L 426.757812 321.6875 L 426.757812 320.253906 C 428.273438 319.050781 429.828125 317.902344 431.417969 316.800781 L 432.828125 315.816406 C 433.75 315.179688 434.671875 314.542969 435.59375 313.910156 C 436.507812 313.28125 437.414062 312.640625 438.3125 311.988281 C 443.121094 308.695312 451.046875 304.476562 456.875 304.476562 "/><path style=" stroke:none;fill-rule:nonzero;fill:#ad0c16;fill-opacity:1;" d="M 532.050781 260.226562 C 538.929688 263.695312 545.378906 267.554688 551.53125 272.207031 L 553.472656 273.667969 C 568.890625 285.761719 580.902344 301.332031 588.28125 319.492188 C 590.597656 325.394531 592.488281 331.257812 593.839844 337.460938 L 594.484375 340.214844 C 597.550781 354.550781 597.367188 371.285156 593.839844 385.507812 L 593.417969 387.269531 C 588.53125 407.28125 578.929688 424.613281 564.792969 439.59375 C 550.941406 453.953125 533.746094 464.113281 514.554688 469.660156 C 506.5625 471.773438 498.136719 473.417969 489.859375 473.707031 L 487.421875 473.820312 C 467.789062 474.300781 447.886719 469.535156 430.628906 460.132812 C 425.730469 457.363281 421.164062 454.210938 416.71875 450.761719 L 414.804688 449.292969 C 399.039062 436.828125 387.84375 421.152344 380.214844 402.59375 C 373.078125 384.136719 370.929688 364.269531 373.601562 344.621094 C 374.574219 338.53125 376.039062 332.558594 377.996094 326.707031 L 378.453125 325.339844 C 383.191406 311.363281 390.585938 299.160156 400.226562 287.984375 L 402.035156 285.855469 C 406.855469 280.308594 412.199219 275.78125 418.152344 271.492188 C 418.585938 271.179688 419.019531 270.867188 419.464844 270.542969 C 435.167969 259.347656 453.097656 252.476562 472.285156 250.347656 C 492.550781 248.421875 513.644531 251.289062 532.050781 260.226562 M 459.742188 253.5625 L 458.035156 253.972656 C 444.964844 257.222656 432.621094 262.816406 421.738281 270.773438 L 419.585938 272.207031 L 419.585938 273.640625 L 418.375 273.808594 C 416.128906 274.554688 414.894531 275.835938 413.179688 277.453125 C 411.335938 279.175781 409.550781 280.8125 407.527344 282.324219 L 405.960938 283.679688 L 405.960938 285.832031 L 404.683594 286.394531 C 397.671875 290.246094 392.804688 299.96875 388.753906 306.628906 C 384.507812 313.933594 380.496094 321.480469 377.996094 329.574219 L 377.503906 331.066406 C 374.546875 340.371094 374.066406 349.519531 374.050781 359.199219 L 374.042969 360.933594 C 374.019531 370.09375 374.328125 379.847656 377.996094 388.375 C 378.199219 389.402344 378.378906 390.433594 378.535156 391.46875 C 380.917969 403.765625 387.507812 417.226562 395.207031 427.097656 L 396.640625 427.097656 L 397.121094 428.621094 C 398.296875 431.164062 399.972656 432.984375 401.882812 434.984375 L 402.914062 436.089844 C 407.222656 440.691406 411.730469 444.75 416.71875 448.609375 L 418.222656 449.777344 C 419.363281 450.628906 420.546875 451.417969 421.738281 452.195312 L 423.890625 452.195312 L 423.890625 453.628906 L 427.476562 454.347656 L 427.476562 455.78125 C 430.933594 457.546875 434.441406 459.207031 438 460.757812 C 439.675781 461.523438 441.273438 462.386719 442.890625 463.265625 C 456.929688 470.304688 475.078125 472.445312 490.578125 471.558594 C 510.992188 469.707031 530.632812 463.042969 547.492188 451.289062 C 551.109375 448.652344 554.335938 445.601562 557.546875 442.492188 C 559.417969 440.722656 559.417969 440.722656 561.570312 439.289062 L 561.570312 437.855469 L 562.769531 437.398438 C 565.027344 436.074219 566.515625 434.246094 568.15625 432.25 L 569.203125 430.992188 C 579.945312 417.875 588.585938 401.628906 591.6875 384.789062 L 591.644531 383.015625 C 591.6875 381.203125 591.6875 381.203125 592.355469 379.574219 C 596.078125 370.089844 595.457031 356.460938 594.0625 346.511719 C 590.867188 326.503906 583.667969 308.816406 570.890625 293.003906 L 569.128906 290.8125 C 565.089844 285.882812 560.9375 281.09375 555.832031 277.226562 L 554.398438 277.226562 L 554.398438 275.792969 C 552.671875 274.484375 550.910156 273.230469 549.109375 272.027344 L 547.503906 270.945312 C 545.980469 269.925781 544.457031 268.914062 542.925781 267.90625 L 541.019531 266.632812 C 532 260.898438 521.671875 257.007812 511.375 254.28125 L 509.859375 253.855469 C 494.277344 249.578125 475.425781 249.730469 459.742188 253.5625 "/><path style=" stroke:none;fill-rule:nonzero;fill:#bb0d17;fill-opacity:1;" d="M 441.816406 300.175781 L 443.96875 300.890625 L 436.796875 305.195312 C 437.453125 307.816406 438.234375 309.410156 439.664062 311.648438 C 437.785156 313.085938 435.902344 314.519531 434.019531 315.949219 L 432.394531 317.195312 L 430.839844 318.371094 L 429.40625 319.460938 L 428.191406 320.253906 L 426.757812 320.253906 L 426.757812 321.6875 C 425.941406 322.53125 425.113281 323.367188 424.277344 324.191406 L 422.066406 326.355469 C 414.792969 334.042969 410.171875 344.078125 406.679688 353.957031 L 405.902344 356.140625 C 402.394531 367.46875 402.734375 381.078125 405.222656 392.59375 C 408.234375 405.132812 413.867188 416.007812 422.457031 425.664062 L 423.894531 427.285156 C 429.96875 433.71875 437.507812 438.90625 445.402344 442.875 L 444.683594 444.308594 L 442.535156 444.308594 L 441.816406 442.875 C 440.597656 442.347656 439.378906 441.824219 438.148438 441.324219 C 430.917969 438.117188 422.859375 431.324219 418.0625 425.035156 C 417.367188 424.054688 416.683594 423.070312 416 422.078125 L 414.980469 420.683594 C 406.8125 409.132812 402.917969 396.566406 400.523438 382.789062 C 400.25 381.199219 400.25 381.199219 399.785156 379.652344 L 399.507812 378.335938 L 400.226562 376.902344 L 398.890625 376.804688 L 397.355469 376.183594 C 394.699219 370.742188 393.726562 364.28125 393.773438 358.257812 C 393.902344 357.75 394.03125 357.238281 394.167969 356.714844 L 394.488281 355.390625 L 393.773438 353.238281 C 392.820312 343.835938 395.710938 333.824219 399.507812 325.273438 C 400.566406 323.265625 401.628906 321.277344 403.09375 319.535156 L 404.527344 319.535156 C 403.839844 322.84375 402.464844 325.941406 401.191406 329.054688 C 397.933594 337.425781 397.019531 345.75 397.132812 354.671875 L 397.125 357.390625 C 397.160156 363.546875 397.769531 369.402344 398.792969 375.46875 L 400.226562 375.46875 L 399.867188 373.363281 C 398.300781 362.210938 400.601562 349.9375 404.726562 339.5625 C 409.691406 327.902344 417.902344 316.171875 428.085938 308.496094 C 432.414062 305.40625 436.90625 302.25 441.816406 300.175781 "/><path style=" stroke:none;fill-rule:nonzero;fill:#bb0e18;fill-opacity:1;" d="M 523.15625 278.160156 C 529.335938 281.101562 534.933594 284.808594 540.195312 289.167969 C 541.539062 290.277344 541.539062 290.277344 543.640625 290.851562 C 547.496094 294.398438 550.425781 298.949219 553.410156 303.222656 C 554.621094 304.949219 555.773438 306.566406 557.265625 308.0625 C 557.929688 309.359375 558.550781 310.675781 559.148438 312.007812 L 560.117188 314.136719 C 560.851562 315.949219 560.851562 315.949219 560.851562 317.382812 L 562.285156 318.101562 C 564.128906 322.664062 565 327.621094 565.871094 332.441406 L 567.304688 332.441406 L 566.589844 335.3125 L 568.023438 335.3125 C 569.539062 342.058594 569.539062 342.058594 570.175781 345.351562 L 568.738281 345.351562 L 569.085938 346.707031 C 571.015625 358.335938 569.472656 370.738281 565.359375 381.703125 C 560.136719 394.925781 552.589844 405.847656 541.726562 415.105469 C 536.09375 419.558594 530.046875 422.644531 523.5625 425.664062 L 522.128906 424.230469 L 523.519531 423.648438 L 525 422.796875 L 525.714844 420.644531 C 525.015625 419.675781 524.300781 418.71875 523.5625 417.777344 L 523.5625 415.625 C 525.117188 414.570312 525.117188 414.570312 527.285156 413.429688 C 537.933594 407.457031 547.121094 399.464844 553.679688 389.09375 L 554.953125 387.15625 C 558.671875 381.203125 561.003906 374.988281 563.003906 368.296875 L 563.75 365.808594 C 566.523438 354.507812 566.484375 341.050781 563.695312 329.757812 L 563.003906 327.421875 L 562.289062 324.953125 C 559.023438 314.847656 553.636719 305.867188 546.511719 298.023438 L 545.125 296.410156 C 536.722656 287.238281 524.8125 280.871094 513.121094 277.046875 C 505.371094 274.652344 497.75 274.15625 489.683594 274.269531 L 487 274.289062 C 484.847656 274.304688 482.691406 274.328125 480.539062 274.359375 L 479.820312 272.925781 C 493.941406 268.925781 509.957031 272.597656 523.15625 278.160156 "/><path style=" stroke:none;fill-rule:nonzero;fill:#b20e19;fill-opacity:1;" d="M 572.324219 376.902344 L 573.042969 376.902344 C 573.53125 386.066406 571.089844 393.734375 567.304688 402 L 566.292969 404.226562 C 564.023438 409.003906 561.433594 413.054688 557.984375 417.058594 L 556.480469 418.824219 C 546.1875 430.605469 534.027344 438.222656 519.40625 443.570312 C 511.808594 446.007812 504.261719 446.910156 496.316406 447.175781 L 494.8125 447.246094 C 481 447.867188 467.644531 445.058594 455.273438 438.839844 C 447.457031 434.464844 438.652344 428.960938 433.929688 421.136719 L 433.210938 419.210938 L 433.929688 417.777344 C 436.035156 416.566406 436.035156 416.566406 438.230469 415.625 L 439.664062 416.34375 L 439.664062 417.777344 L 440.847656 417.886719 C 443.316406 418.773438 444.808594 420.570312 446.566406 422.4375 C 448.957031 425.09375 448.957031 425.09375 451.855469 427.097656 L 451.855469 428.53125 L 453.355469 429.0625 C 455.328125 429.917969 457.023438 430.953125 458.816406 432.132812 C 468.089844 438.160156 479.503906 442.203125 490.578125 442.875 C 506.015625 443.625 519.8125 441.433594 533.699219 434.414062 C 538.050781 432.132812 541.980469 429.484375 545.792969 426.382812 L 547.59375 424.9375 C 556.261719 417.589844 562.042969 408.726562 566.589844 398.414062 L 567.660156 396.046875 C 570.269531 389.835938 571.351562 383.523438 572.324219 376.902344 "/><path style=" stroke:none;fill-rule:nonzero;fill:#b20f1a;fill-opacity:1;" d="M 590.96875 332.441406 L 592.402344 332.441406 C 592.738281 333.683594 593.066406 334.921875 593.390625 336.164062 L 593.945312 338.253906 C 595.625 345.949219 596.246094 353.390625 596.214844 361.261719 L 596.207031 362.738281 C 596.167969 370.523438 595.714844 377.941406 593.839844 385.507812 L 593.417969 387.269531 C 588.53125 407.28125 578.929688 424.613281 564.792969 439.59375 C 550.941406 453.953125 533.746094 464.113281 514.554688 469.660156 C 503.316406 472.632812 492.144531 473.875 480.539062 473.707031 L 479.820312 471.558594 L 481.207031 471.484375 C 504.101562 470.160156 525.46875 464.984375 544.851562 452.375 C 549.082031 449.550781 552.828125 446.316406 556.460938 442.765625 C 558.167969 441.097656 559.273438 440.054688 561.570312 439.289062 L 561.570312 437.855469 C 562.351562 437.042969 563.144531 436.242188 563.953125 435.457031 C 577.335938 422.230469 585.050781 406.015625 590.207031 388.105469 C 590.699219 386.300781 590.972656 384.886719 590.925781 383.015625 C 590.96875 381.203125 590.96875 381.203125 591.636719 379.574219 C 595.128906 370.683594 594.835938 357.640625 593.550781 348.269531 C 592.882812 344.183594 592.097656 340.121094 591.234375 336.070312 C 590.96875 334.59375 590.96875 334.59375 590.96875 332.441406 "/><path style=" stroke:none;fill-rule:nonzero;fill:#a90c14;fill-opacity:1;" d="M 480.539062 215.558594 L 480.539062 216.992188 C 478.636719 217.628906 477.300781 217.84375 475.332031 217.96875 C 454.917969 219.410156 435.285156 224.335938 417.253906 234.234375 C 416.027344 234.90625 414.789062 235.550781 413.554688 236.199219 C 392.203125 247.757812 374.429688 265.574219 361.726562 286.136719 C 354.878906 297.441406 349.902344 309.164062 345.726562 321.6875 L 370.109375 322.402344 C 368.675781 329.574219 368.675781 329.574219 367.238281 332.441406 L 366.523438 331.726562 C 366.792969 328.925781 367.066406 326.503906 367.957031 323.839844 L 366.632812 323.851562 C 350.625 323.96875 350.625 323.96875 344.292969 323.121094 C 343.894531 321.851562 343.894531 321.851562 343.574219 320.253906 C 344.050781 318.300781 344.621094 316.371094 345.277344 314.472656 L 345.863281 312.757812 C 352.335938 294.40625 362.730469 277.683594 375.644531 263.207031 C 376.816406 261.882812 377.9375 260.523438 379.070312 259.164062 C 387.507812 249.640625 398.34375 240.941406 409.546875 234.917969 L 410.964844 234.132812 C 431.851562 222.546875 456.375 214.933594 480.539062 215.558594 "/><path style=" stroke:none;fill-rule:nonzero;fill:#b20f1a;fill-opacity:1;" d="M 479.105469 318.820312 L 479.820312 320.253906 L 477.796875 320.703125 C 469.128906 322.796875 461.34375 325.984375 454.769531 332.234375 C 449.683594 337.890625 446.097656 344.269531 444.171875 351.609375 C 442.5625 359.410156 442.980469 368.101562 445.355469 375.722656 C 448.359375 383.195312 453.078125 389.824219 459.40625 394.828125 C 465.472656 398.964844 472.523438 401.773438 479.820312 402.71875 C 488.34375 403.300781 495.820312 401.957031 503.574219 398.371094 C 509.683594 395.140625 514.785156 390.878906 518.8125 385.238281 C 523.441406 377.640625 525.648438 369.792969 525.984375 360.949219 C 525.835938 353.703125 523.980469 347 520.425781 340.691406 C 516.90625 335.113281 513.210938 331.179688 507.789062 327.421875 L 508.503906 325.988281 C 514.875 329.851562 518.84375 334.082031 522.570312 340.519531 C 524.289062 343.917969 525.414062 347.429688 526.433594 351.085938 L 526.949219 352.898438 C 528.839844 360.617188 527.308594 368.253906 525.160156 375.769531 C 522.761719 382.765625 518.726562 389.113281 513.347656 394.203125 C 507.632812 399.03125 500.921875 402.769531 493.613281 404.53125 C 484.53125 405.859375 475.511719 405.324219 466.914062 402 C 459.582031 398.507812 453.890625 394.117188 449.210938 387.480469 C 445.289062 381.710938 441.589844 375.070312 440.941406 368.003906 C 440.496094 357.839844 441.3125 349.746094 445.894531 340.554688 C 449.820312 333.765625 455.730469 327.480469 462.421875 323.34375 C 468.148438 320.128906 472.535156 318.554688 479.105469 318.820312 "/><path style=" stroke:none;fill-rule:nonzero;fill:#a10711;fill-opacity:1;" d="M 403.09375 319.535156 L 404.527344 319.535156 C 403.839844 322.84375 402.464844 325.941406 401.191406 329.054688 C 397.933594 337.425781 397.019531 345.75 397.132812 354.671875 L 397.125 357.390625 C 397.160156 363.546875 397.769531 369.402344 398.792969 375.46875 L 400.226562 375.46875 L 399.867188 373.363281 C 399.414062 370.238281 399.445312 367.144531 399.507812 363.996094 L 400.941406 364.710938 L 400.941406 363.277344 L 403.8125 363.996094 L 403.777344 365.578125 C 403.480469 381.460938 404.078125 396.371094 411.777344 410.640625 C 414.839844 416.019531 418.339844 421.035156 422.457031 425.664062 L 423.894531 427.28125 C 429.96875 433.71875 437.507812 438.90625 445.402344 442.875 L 444.683594 444.308594 L 442.535156 444.308594 L 441.816406 442.875 C 440.597656 442.347656 439.378906 441.824219 438.148438 441.320312 C 430.917969 438.117188 422.859375 431.324219 418.0625 425.035156 C 417.367188 424.054688 416.683594 423.070312 416 422.078125 L 414.980469 420.683594 C 406.8125 409.132812 402.917969 396.566406 400.523438 382.789062 C 400.25 381.199219 400.25 381.199219 399.785156 379.652344 L 399.507812 378.335938 L 400.226562 376.902344 L 398.890625 376.804688 L 397.355469 376.183594 C 394.699219 370.742188 393.726562 364.28125 393.773438 358.257812 L 394.167969 356.714844 L 394.488281 355.390625 L 393.773438 353.238281 C 392.820312 343.835938 395.710938 333.824219 399.507812 325.273438 C 400.566406 323.265625 401.628906 321.277344 403.09375 319.535156 "/><path style=" stroke:none;fill-rule:nonzero;fill:#a0070f;fill-opacity:1;" d="M 439.902344 181.425781 L 441.097656 181.855469 L 438.9375 182.570312 C 418.492188 189.472656 399.128906 199.453125 381.582031 211.972656 L 379.894531 213.167969 C 372.332031 218.546875 365.246094 224.109375 358.632812 230.617188 L 357.230469 231.980469 C 351.335938 237.707031 345.71875 243.453125 340.707031 249.980469 L 338.953125 252.179688 C 330.425781 262.949219 323.617188 274.746094 317.449219 287 L 316.496094 288.878906 L 315.613281 290.65625 L 314.824219 292.238281 C 314.191406 293.679688 313.792969 295.054688 313.457031 296.589844 L 312.023438 296.589844 L 311.65625 298.085938 C 310.796875 301.417969 309.910156 304.589844 308.4375 307.703125 C 306.65625 311.496094 304.851562 316.015625 304.851562 320.253906 L 303.417969 320.253906 L 303.179688 321.574219 C 302.453125 325.589844 301.710938 329.601562 300.953125 333.609375 C 299.8125 339.664062 298.742188 345.734375 297.683594 351.804688 L 296.964844 351.804688 C 296.785156 346.640625 297.4375 341.976562 298.488281 336.925781 L 298.976562 334.550781 C 305.609375 303.113281 319.214844 274.339844 339.273438 249.261719 L 340.75 247.363281 C 351.132812 234.273438 363.214844 222.703125 376.5625 212.691406 L 377.773438 211.777344 C 387.269531 204.679688 397.363281 198.351562 408.113281 193.328125 L 410.652344 192.109375 C 434.808594 180.546875 434.808594 180.546875 439.902344 181.425781 "/><path style=" stroke:none;fill-rule:nonzero;fill:#b10e19;fill-opacity:1;" d="M 485.066406 277.09375 L 487.128906 277.273438 C 490.617188 277.609375 493.742188 278.074219 497.03125 279.378906 L 496.539062 281.039062 L 496.316406 282.964844 C 497.335938 284.164062 497.335938 284.164062 498.464844 285.117188 L 495.910156 284.535156 L 494.078125 284.144531 C 492.691406 283.832031 491.3125 283.488281 489.945312 283.105469 C 477.996094 280.125 463.480469 279.828125 451.554688 283.082031 C 450.210938 283.492188 448.882812 283.945312 447.554688 284.398438 L 446.175781 284.851562 C 434.496094 288.777344 424.042969 295.992188 415.597656 304.925781 C 411.652344 309.441406 408.464844 314.492188 405.246094 319.535156 L 403.09375 318.101562 C 411.039062 305.722656 419.226562 294.695312 432.515625 287.726562 C 434.871094 286.558594 437.253906 285.449219 439.664062 284.398438 L 442.109375 283.324219 C 450.742188 279.792969 459.839844 278.316406 469.066406 277.226562 L 470.839844 277.007812 C 475.675781 276.480469 480.230469 276.601562 485.066406 277.09375 "/><path style=" stroke:none;fill-rule:nonzero;fill:#a0070f;fill-opacity:1;" d="M 622.519531 203.367188 L 623.957031 204.085938 C 622.777344 207.0625 620.617188 209.082031 618.398438 211.304688 L 617.125 212.605469 C 615.730469 214.015625 614.335938 215.421875 612.9375 216.828125 L 610.027344 219.761719 C 607.996094 221.808594 605.960938 223.855469 603.921875 225.898438 C 601.308594 228.523438 598.703125 231.152344 596.109375 233.792969 C 594.109375 235.816406 592.105469 237.832031 590.09375 239.84375 C 589.132812 240.8125 588.171875 241.785156 587.214844 242.757812 C 585.878906 244.117188 584.53125 245.464844 583.179688 246.808594 L 581.984375 248.039062 C 580.863281 249.140625 580.863281 249.140625 578.78125 250.695312 C 576.808594 250.648438 576.808594 250.648438 575.195312 249.980469 C 573.628906 248.878906 573.628906 248.878906 572.011719 247.46875 C 567.585938 243.804688 562.882812 240.761719 557.984375 237.789062 L 556.550781 236.90625 C 541.167969 227.558594 523.484375 221.53125 505.636719 219.144531 L 506.355469 217.710938 C 527.621094 219.242188 548.523438 228.410156 566.097656 240.164062 C 569.683594 242.613281 573.195312 245.164062 576.628906 247.828125 C 579.066406 246.773438 580.65625 245.410156 582.523438 243.53125 L 584.230469 241.820312 L 585.996094 240.027344 L 587.765625 238.253906 C 590.84375 235.207031 590.84375 235.207031 593.574219 231.859375 L 594.554688 230.617188 L 595.988281 230.617188 L 595.988281 229.183594 L 597.421875 229.183594 L 597.421875 227.75 L 598.859375 227.75 L 599.574219 225.597656 L 601.007812 225.597656 L 601.59375 224.296875 C 602.441406 222.730469 603.230469 221.714844 604.59375 220.578125 L 606.027344 220.578125 L 606.613281 219.277344 C 607.460938 217.710938 608.25 216.695312 609.613281 215.558594 L 611.046875 215.558594 L 611.046875 214.125 C 612.09375 213.238281 613.152344 212.367188 614.21875 211.511719 C 615.484375 210.484375 615.484375 210.484375 616.785156 208.746094 C 618.503906 206.597656 620.371094 205.078125 622.519531 203.367188 "/><path style=" stroke:none;fill-rule:nonzero;fill:#b20f1a;fill-opacity:1;" d="M 545.792969 319.535156 L 547.226562 319.535156 C 552.921875 334.753906 555.75 349.328125 553.160156 365.683594 C 552.566406 368.765625 551.761719 371.761719 550.8125 374.75 L 550.027344 377.253906 C 545.699219 389.496094 537.992188 400.828125 528.132812 409.28125 C 525.753906 411.132812 523.308594 412.691406 520.695312 414.191406 L 519.976562 412.757812 C 521.941406 410.128906 523.957031 408.195312 526.566406 406.214844 C 536.125 398.496094 542.5625 387.683594 547.042969 376.359375 C 551.703125 363.988281 552.234375 350.539062 550.242188 337.480469 C 549.421875 332.957031 548.433594 328.589844 546.769531 324.296875 C 545.792969 321.6875 545.792969 321.6875 545.792969 319.535156 M 428.191406 389.808594 C 430.390625 391.875 432.28125 393.996094 434.109375 396.398438 C 443.824219 409.050781 455.175781 417.765625 469.78125 424.230469 C 482.023438 428.90625 494.167969 428.730469 507.070312 428.53125 L 507.789062 429.964844 C 503.441406 431.089844 499.371094 431.65625 494.878906 431.625 L 493.097656 431.613281 C 479.683594 431.351562 467.042969 427.359375 455.441406 420.644531 C 444.855469 413.769531 435.988281 404.996094 429.597656 394.082031 C 428.910156 392.679688 428.910156 392.679688 428.910156 391.242188 L 427.476562 390.527344 Z M 428.191406 389.808594 "/><path style=" stroke:none;fill-rule:nonzero;fill:#a50715;fill-opacity:1;" d="M 479.820312 249.980469 C 500.105469 249.433594 519.375 253.351562 537.316406 262.96875 C 542.277344 265.707031 547.015625 268.785156 551.53125 272.207031 L 553.472656 273.667969 C 569.011719 285.855469 580.976562 301.5 588.371094 319.804688 C 590.042969 323.972656 591.40625 328.0625 592.402344 332.441406 L 590.253906 331.726562 C 589.53125 329.824219 588.890625 327.898438 588.324219 325.945312 C 585.199219 315.972656 580.566406 307.242188 574.476562 298.742188 L 573.4375 297.265625 C 565.296875 285.761719 565.296875 285.761719 554.398438 277.226562 L 554.398438 275.792969 C 554.027344 275.625 553.652344 275.457031 553.265625 275.285156 C 551.425781 274.304688 549.746094 273.160156 548.039062 271.976562 C 542.476562 268.128906 536.777344 264.933594 530.648438 262.085938 C 529.417969 261.503906 528.195312 260.902344 526.976562 260.292969 C 516.730469 255.457031 504.175781 252.328125 492.847656 251.902344 L 490.535156 251.8125 L 488.15625 251.726562 L 485.730469 251.632812 C 483.761719 251.558594 481.789062 251.484375 479.820312 251.414062 Z M 479.820312 249.980469 "/><path style=" stroke:none;fill-rule:nonzero;fill:#a90c14;fill-opacity:1;" d="M 523.15625 278.160156 C 529.335938 281.101562 534.933594 284.808594 540.195312 289.167969 C 541.539062 290.277344 541.539062 290.277344 543.640625 290.851562 C 547.496094 294.398438 550.425781 298.949219 553.410156 303.222656 C 554.621094 304.949219 555.773438 306.566406 557.265625 308.0625 C 557.929688 309.359375 558.550781 310.675781 559.148438 312.007812 L 560.117188 314.136719 C 560.851562 315.949219 560.851562 315.949219 560.851562 317.382812 L 562.285156 318.101562 C 563.960938 322.113281 564.71875 325.96875 564.4375 330.292969 C 563.152344 327.917969 562.355469 325.503906 561.523438 322.941406 C 558.203125 313.582031 553.191406 305.375 546.511719 298.023438 L 545.125 296.410156 C 536.722656 287.238281 524.8125 280.871094 513.121094 277.046875 C 505.371094 274.652344 497.75 274.15625 489.683594 274.269531 L 487 274.289062 C 484.847656 274.304688 482.691406 274.328125 480.539062 274.359375 L 479.820312 272.925781 C 493.941406 268.925781 509.957031 272.597656 523.15625 278.160156 "/><path style=" stroke:none;fill-rule:nonzero;fill:#b21b23;fill-opacity:1;" d="M 550.8125 447.894531 L 552.246094 450.761719 C 538.296875 462.164062 520.421875 469.1875 502.769531 472.273438 C 495.363281 473.429688 488.035156 473.945312 480.539062 473.707031 L 479.820312 471.558594 L 481.207031 471.484375 C 503.652344 470.1875 524.925781 465.304688 543.929688 452.859375 C 547.542969 450.585938 547.542969 450.585938 550.8125 447.894531 "/><path style=" stroke:none;fill-rule:nonzero;fill:#bb0d17;fill-opacity:1;" d="M 449.703125 308.78125 L 451.136719 309.496094 L 449.738281 310.582031 C 436.710938 320.933594 427.898438 332 421.738281 347.503906 L 420.960938 349.335938 C 417.574219 358.390625 417.039062 369.09375 418.394531 378.613281 C 418.839844 381.070312 419.371094 383.480469 419.972656 385.90625 C 420.375 388.910156 419.875 390.570312 418.871094 393.394531 C 414.835938 385.882812 415.007812 376.429688 415.125 368.09375 C 415.289062 363.015625 416.269531 358.167969 417.4375 353.238281 L 417.855469 351.335938 C 420.886719 339.519531 428.59375 327.621094 436.796875 318.820312 C 440.847656 315.144531 445.203125 311.878906 449.703125 308.78125 "/><path style=" stroke:none;fill-rule:nonzero;fill:#97040b;fill-opacity:1;" d="M 365.804688 332.441406 L 367.238281 332.441406 C 366.855469 336.160156 366.378906 339.863281 365.804688 343.558594 C 364.949219 349.398438 364.640625 355.238281 364.371094 361.125 C 362.015625 362.304688 359.398438 361.949219 356.808594 361.949219 L 354.886719 361.953125 C 352.78125 361.960938 350.675781 361.964844 348.574219 361.964844 L 344.199219 361.972656 C 341.144531 361.976562 338.085938 361.976562 335.027344 361.976562 C 331.101562 361.976562 327.175781 361.988281 323.25 362 C 320.238281 362.003906 317.230469 362.007812 314.21875 362.007812 C 312.769531 362.007812 311.324219 362.011719 309.875 362.015625 C 307.855469 362.023438 305.832031 362.023438 303.8125 362.015625 C 303.210938 362.023438 302.609375 362.027344 301.988281 362.03125 C 300.550781 362.023438 299.117188 361.941406 297.683594 361.84375 L 296.25 360.410156 C 296.109375 358.542969 296.109375 358.542969 296.160156 356.375 L 296.199219 354.195312 L 296.25 352.523438 L 297.683594 352.523438 L 297.683594 360.410156 L 300.984375 360.34375 C 337.421875 359.621094 337.421875 359.621094 349.3125 359.601562 L 351.621094 359.59375 C 355.230469 359.601562 358.660156 359.785156 362.21875 360.410156 L 362.132812 357.777344 C 362.132812 353.253906 362.886719 348.867188 363.609375 344.410156 L 364.003906 341.875 C 365.054688 335.242188 365.054688 335.242188 365.804688 332.441406 "/><path style=" stroke:none;fill-rule:nonzero;fill:#a0070f;fill-opacity:1;" d="M 480.539062 215.558594 L 480.539062 216.992188 C 478.636719 217.628906 477.300781 217.84375 475.332031 217.96875 C 454.21875 219.460938 434.675781 224.894531 416 234.917969 C 414.570312 235.640625 413.136719 236.359375 411.699219 237.070312 L 408.832031 238.503906 L 408.832031 235.636719 C 409.867188 234.683594 409.867188 234.683594 411.308594 233.859375 L 412.90625 232.945312 C 433.503906 221.878906 456.996094 215.203125 480.539062 215.558594 "/><path style=" stroke:none;fill-rule:nonzero;fill:#ac0a16;fill-opacity:1;" d="M 439.902344 181.425781 L 441.097656 181.855469 L 438.9375 182.570312 C 418.492188 189.472656 399.128906 199.453125 381.582031 211.972656 L 379.894531 213.167969 C 371.488281 219.148438 363.742188 225.433594 356.484375 232.769531 L 354.332031 232.050781 C 357.757812 228.535156 361.34375 225.1875 365.089844 222.011719 L 366.988281 220.378906 C 379.496094 209.765625 393.171875 200.199219 408.113281 193.328125 L 410.644531 192.113281 C 434.792969 180.546875 434.792969 180.546875 439.902344 181.425781 "/><path style=" stroke:none;fill-rule:nonzero;fill:#bc0e18;fill-opacity:1;" d="M 622.519531 171.816406 L 656.222656 171.816406 C 654.90625 174.449219 653.902344 175.746094 651.863281 177.777344 L 650.035156 179.601562 L 648.0625 181.554688 L 646.042969 183.566406 C 644.273438 185.328125 642.503906 187.085938 640.730469 188.84375 C 638.921875 190.640625 637.113281 192.4375 635.308594 194.238281 C 631.765625 197.761719 628.222656 201.285156 624.671875 204.800781 L 623.238281 204.085938 L 624.671875 200.5 L 626.105469 200.5 L 626.824219 198.347656 L 628.257812 198.347656 L 628.257812 196.914062 C 629.261719 195.929688 629.261719 195.929688 630.679688 194.761719 C 637.054688 189.667969 637.054688 189.667969 641.882812 183.289062 L 643.316406 183.289062 L 643.875 182.019531 C 644.828125 180.28125 645.875 179.179688 647.304688 177.820312 C 649.152344 176.085938 649.152344 176.085938 650.488281 173.96875 L 648.460938 173.914062 C 645.960938 173.84375 643.460938 173.773438 640.960938 173.699219 C 639.878906 173.671875 638.800781 173.640625 637.722656 173.613281 C 636.164062 173.570312 634.609375 173.523438 633.050781 173.476562 L 630.21875 173.398438 C 627.601562 173.253906 625.105469 172.945312 622.519531 172.535156 Z M 622.519531 171.816406 "/><path style=" stroke:none;fill-rule:nonzero;fill:#b20f1a;fill-opacity:1;" d="M 403.09375 319.535156 L 404.527344 319.535156 C 403.839844 322.84375 402.464844 325.941406 401.191406 329.054688 C 397.933594 337.425781 397.019531 345.75 397.132812 354.671875 L 397.125 357.390625 C 397.160156 363.433594 397.394531 369.5625 398.792969 375.46875 L 400.226562 376.183594 L 397.355469 376.183594 C 395.304688 370.261719 393.722656 364.574219 393.773438 358.257812 L 394.167969 356.714844 L 394.488281 355.390625 L 393.773438 353.238281 C 392.820312 343.835938 395.710938 333.824219 399.507812 325.273438 C 400.566406 323.265625 401.628906 321.277344 403.09375 319.535156 "/><path style=" stroke:none;fill-rule:nonzero;fill:#a90c14;fill-opacity:1;" d="M 408.113281 405.585938 L 409.546875 405.585938 L 410.234375 407.117188 C 415.996094 419.296875 424.238281 429.117188 435.304688 436.871094 C 438.554688 439.089844 441.886719 441.105469 445.402344 442.875 L 444.683594 444.308594 L 442.535156 444.308594 L 441.816406 442.875 C 440.597656 442.347656 439.378906 441.824219 438.148438 441.324219 C 430.917969 438.117188 422.859375 431.324219 418.0625 425.035156 C 417.367188 424.058594 416.679688 423.070312 416 422.078125 L 414.90625 420.507812 C 413.058594 417.804688 411.300781 415.039062 409.636719 412.21875 L 408.746094 410.707031 C 408.003906 408.90625 408 407.515625 408.113281 405.585938 M 479.820312 249.980469 L 479.820312 251.414062 L 478.207031 251.609375 C 458.265625 254.074219 439.871094 258.484375 423.300781 270.417969 C 421.738281 271.492188 421.738281 271.492188 419.585938 272.207031 L 419.585938 273.640625 C 418.398438 274.375 417.203125 275.089844 416 275.792969 C 414.277344 277.269531 412.632812 278.804688 410.972656 280.351562 L 409.546875 281.53125 L 408.113281 281.53125 L 408.113281 279.378906 C 409.5 278.09375 410.949219 276.882812 412.460938 275.75 L 413.832031 274.699219 C 430.566406 262.023438 448.832031 253.367188 469.8125 250.707031 C 473.160156 250.3125 476.445312 249.980469 479.820312 249.980469 "/><path style=" stroke:none;fill-rule:nonzero;fill:#8d0208;fill-opacity:1;" d="M 551.53125 273.640625 C 552.710938 273.78125 552.710938 273.78125 554.398438 274.359375 C 555.792969 275.484375 557.136719 276.664062 558.433594 277.902344 L 559.582031 278.984375 C 560.359375 279.722656 561.132812 280.460938 561.90625 281.203125 C 562.871094 282.117188 563.847656 283.019531 564.832031 283.910156 C 577.089844 295.425781 585.597656 310.917969 590.96875 326.707031 C 591.503906 328.613281 591.964844 330.511719 592.402344 332.441406 L 590.253906 331.726562 C 589.53125 329.824219 588.890625 327.898438 588.324219 325.945312 C 585.199219 315.972656 580.566406 307.242188 574.476562 298.742188 L 573.4375 297.265625 C 565.296875 285.761719 565.296875 285.761719 554.398438 277.226562 L 554.398438 275.792969 L 551.53125 274.359375 Z M 551.53125 273.640625 "/><path style=" stroke:none;fill-rule:nonzero;fill:#a50715;fill-opacity:1;" d="M 622.519531 203.367188 L 623.957031 204.085938 C 622.9375 206.398438 621.710938 207.9375 619.921875 209.714844 L 618.3125 211.324219 L 616.578125 213.039062 L 614.800781 214.808594 C 612.925781 216.675781 611.046875 218.539062 609.164062 220.398438 L 605.351562 224.195312 C 602.234375 227.296875 599.113281 230.390625 595.988281 233.484375 L 593.121094 232.050781 L 595.988281 230.617188 L 595.988281 229.183594 L 597.421875 229.183594 L 597.421875 227.75 L 598.859375 227.75 L 599.574219 225.597656 L 601.007812 225.597656 L 601.59375 224.296875 C 602.441406 222.730469 603.230469 221.714844 604.59375 220.578125 L 606.027344 220.578125 L 606.613281 219.277344 C 607.460938 217.710938 608.25 216.695312 609.613281 215.558594 L 611.046875 215.558594 L 611.046875 214.125 C 612.09375 213.238281 613.152344 212.367188 614.21875 211.511719 C 615.484375 210.484375 615.484375 210.484375 616.785156 208.746094 C 618.503906 206.597656 620.371094 205.078125 622.519531 203.367188 "/><path style=" stroke:none;fill-rule:nonzero;fill:#a90c14;fill-opacity:1;" d="M 506.238281 171.746094 L 510.242188 171.75 C 513.71875 171.753906 517.195312 171.757812 520.671875 171.765625 C 524.234375 171.773438 527.796875 171.777344 531.359375 171.78125 C 538.324219 171.789062 545.285156 171.800781 552.246094 171.816406 L 552.246094 172.535156 L 550.222656 172.546875 C 543.816406 172.589844 537.40625 172.640625 530.996094 172.703125 C 527.707031 172.734375 524.414062 172.761719 521.121094 172.78125 C 497.90625 172.925781 474.886719 173.652344 452.242188 179.28125 L 450.238281 179.757812 L 448.460938 180.195312 C 446.734375 180.433594 445.609375 180.242188 443.96875 179.703125 C 464.199219 173.3125 485.140625 171.683594 506.238281 171.746094 M 545.792969 319.535156 L 547.226562 319.535156 C 552.71875 334.214844 555.707031 348.460938 553.3125 364.273438 L 552.964844 366.144531 L 551.53125 366.144531 L 551.511719 364.136719 C 551.511719 343.871094 551.511719 343.871094 546.773438 324.3125 C 545.792969 321.6875 545.792969 321.6875 545.792969 319.535156 "/><path style=" stroke:none;fill-rule:nonzero;fill:#a1070f;fill-opacity:1;" d="M 501.78125 297.484375 C 502.832031 297.894531 503.878906 298.3125 504.917969 298.742188 L 504.917969 300.175781 C 501.375 299.792969 498.191406 298.976562 494.796875 297.898438 C 482.929688 294.167969 471.894531 293.492188 459.695312 296.199219 C 453.59375 297.542969 453.59375 297.542969 447.714844 299.59375 L 446.117188 300.175781 L 443.96875 299.457031 C 461.878906 290.5 483.21875 290.898438 501.78125 297.484375 "/><path style=" stroke:none;fill-rule:nonzero;fill:#b10e19;fill-opacity:1;" d="M 349.3125 304.476562 L 351.464844 304.476562 L 345.726562 321.6875 L 370.109375 322.402344 C 368.675781 329.574219 368.675781 329.574219 367.238281 332.441406 L 366.523438 331.726562 C 366.792969 328.925781 367.066406 326.503906 367.957031 323.839844 L 366.632812 323.851562 C 350.625 323.96875 350.625 323.96875 344.292969 323.121094 C 343.765625 321.511719 343.535156 320.464844 343.867188 318.789062 L 344.398438 317.25 L 344.972656 315.550781 L 345.59375 313.800781 L 346.1875 312.046875 C 347.089844 309.425781 348.03125 306.941406 349.3125 304.476562 "/><path style=" stroke:none;fill-rule:nonzero;fill:#b20f1a;fill-opacity:1;" d="M 511.375 303.042969 C 518.4375 305.566406 524.898438 311.285156 530.019531 316.667969 C 534.292969 321.816406 537.902344 327.113281 540.773438 333.160156 L 538.621094 332.441406 C 537.359375 330.898438 537.359375 330.898438 535.980469 328.902344 C 529.5625 319.875 522.855469 312.289062 513.453125 306.25 L 512.089844 305.195312 Z M 511.375 303.042969 "/><path style=" stroke:none;fill-rule:nonzero;fill:#8d0207;fill-opacity:1;" d="M 506.355469 217.710938 C 511.601562 218.085938 516.582031 218.984375 521.679688 220.265625 L 523.9375 220.828125 C 533.769531 223.402344 543.324219 227.167969 552.246094 232.050781 L 551.53125 233.484375 C 549.402344 232.65625 547.300781 231.773438 545.21875 230.832031 C 532.546875 225.203125 519.347656 221.261719 505.636719 219.144531 Z M 506.355469 217.710938 "/><path style=" stroke:none;fill-rule:nonzero;fill:#a90c14;fill-opacity:1;" d="M 507.789062 325.988281 C 513.445312 328.65625 516.859375 331.886719 520.425781 336.972656 C 523.285156 341.425781 525.015625 346.003906 526.433594 351.085938 L 526.949219 352.898438 C 528.878906 360.777344 527.191406 368.535156 525 376.183594 L 523.5625 376.183594 L 524.035156 374.160156 C 526.035156 364.996094 526.476562 357.132812 523.800781 347.96875 C 521.613281 341.972656 518.207031 336.136719 513.523438 331.726562 C 512.015625 330.542969 510.472656 329.410156 508.890625 328.328125 L 507.789062 327.421875 Z M 507.789062 325.988281 "/><path style=" stroke:none;fill-rule:nonzero;fill:#bc0e18;fill-opacity:1;" d="M 445.402344 443.589844 C 449.359375 444.261719 453.039062 445.667969 456.816406 446.996094 C 463.019531 448.996094 469.117188 449.578125 475.609375 449.777344 L 477.894531 449.859375 C 479.730469 449.925781 481.570312 449.988281 483.40625 450.042969 L 483.40625 451.480469 C 474.28125 452.90625 464.214844 452.28125 455.441406 449.328125 C 451.996094 447.847656 448.691406 446.105469 445.402344 444.308594 Z M 445.402344 443.589844 "/><path style=" stroke:none;fill-rule:nonzero;fill:#a90c14;fill-opacity:1;" d="M 479.820312 427.816406 L 481.230469 427.972656 C 489.828125 428.785156 498.445312 428.597656 507.070312 428.53125 L 507.789062 429.964844 C 503.328125 431.136719 499.171875 431.632812 494.566406 431.578125 L 492.773438 431.570312 C 488.539062 431.511719 484.644531 431.042969 480.539062 429.964844 Z M 479.820312 427.816406 "/><path style=" stroke:none;fill-rule:nonzero;fill:#a1070f;fill-opacity:1;" d="M 449.703125 308.78125 L 451.136719 309.496094 L 449.738281 310.582031 C 441.632812 317.023438 434.460938 323.730469 429.023438 332.613281 C 428.304688 333.777344 427.535156 334.90625 426.757812 336.027344 L 424.605469 336.746094 C 425.667969 333.707031 427.242188 331.199219 429.089844 328.589844 L 429.972656 327.335938 C 435.425781 319.667969 441.957031 314.117188 449.703125 308.78125 "/><path style=" stroke:none;fill-rule:nonzero;fill:#8d0207;fill-opacity:1;" d="M 307.722656 304.476562 L 309.15625 305.195312 L 308.761719 306.34375 C 308.171875 308.066406 307.589844 309.789062 307.003906 311.511719 L 306.382812 313.324219 L 305.796875 315.066406 L 305.25 316.671875 C 304.757812 318.199219 304.757812 318.199219 304.851562 320.253906 L 303.417969 320.253906 L 303.179688 321.574219 C 302.453125 325.589844 301.710938 329.601562 300.953125 333.609375 C 299.8125 339.664062 298.742188 345.734375 297.683594 351.804688 L 296.964844 351.804688 C 296.785156 346.640625 297.4375 341.976562 298.488281 336.925781 L 298.972656 334.5625 C 301.121094 324.34375 303.855469 314.191406 307.722656 304.476562 "/><path style=" stroke:none;fill-rule:nonzero;fill:#a0070f;fill-opacity:1;" d="M 439.941406 181.417969 L 441.097656 181.855469 L 438.9375 182.570312 C 429.734375 185.679688 420.753906 189.386719 412.132812 193.882812 C 410.265625 194.761719 410.265625 194.761719 408.113281 194.761719 L 408.832031 192.613281 C 410.453125 191.699219 410.453125 191.699219 412.601562 190.804688 L 414.980469 189.796875 L 417.523438 188.757812 L 420.089844 187.695312 C 436.683594 180.886719 436.683594 180.886719 439.941406 181.417969 "/><path style=" stroke:none;fill-rule:nonzero;fill:#b20f1a;fill-opacity:1;" d="M 479.820312 293.003906 C 488.425781 293.367188 496.972656 295.429688 504.917969 298.742188 L 504.917969 300.175781 C 499.894531 299.621094 495.21875 298.160156 490.390625 296.710938 C 486.863281 295.671875 483.480469 294.839844 479.820312 294.4375 Z M 545.792969 319.535156 L 547.226562 319.535156 C 552.792969 334.359375 552.792969 334.359375 551.933594 340.375 L 551.53125 341.765625 L 550.8125 341.765625 C 550.738281 341.359375 550.664062 340.957031 550.582031 340.539062 C 550.230469 338.675781 549.871094 336.816406 549.515625 334.953125 L 549.152344 333.027344 C 548.5625 329.984375 547.898438 327.109375 546.769531 324.21875 C 545.792969 321.6875 545.792969 321.6875 545.792969 319.535156 "/><path style=" stroke:none;fill-rule:nonzero;fill:#8d0207;fill-opacity:1;" d="M 353.613281 232.769531 L 355.765625 233.484375 L 354.109375 235.089844 C 349.28125 239.820312 344.898438 244.667969 340.707031 249.980469 C 339.980469 250.863281 339.246094 251.746094 338.511719 252.625 L 337.121094 254.28125 L 337.121094 252.128906 C 338.273438 250.472656 339.484375 248.859375 340.753906 247.289062 L 341.84375 245.921875 C 344.070312 243.15625 346.375 240.5625 348.953125 238.121094 C 350.660156 236.457031 352.121094 234.625 353.613281 232.769531 "/><path style=" stroke:none;fill-rule:nonzero;fill:#7e020c;fill-opacity:1;" d="M 480.539062 215.558594 L 480.539062 216.992188 C 474.742188 218.925781 467.960938 218.550781 461.894531 218.425781 L 463.328125 216.992188 C 464.6875 216.699219 464.6875 216.699219 466.324219 216.539062 L 468.125 216.355469 L 470.007812 216.1875 L 471.863281 216 C 474.765625 215.714844 477.621094 215.476562 480.539062 215.558594 "/><path style=" stroke:none;fill-rule:nonzero;fill:#a90c14;fill-opacity:1;" d="M 445.402344 443.589844 C 448.113281 444.0625 450.578125 444.824219 453.15625 445.789062 L 455.277344 446.574219 L 456.875 447.175781 L 456.875 447.894531 C 455.039062 448.089844 453.664062 448.171875 451.855469 447.894531 C 449.589844 446.871094 447.496094 445.640625 445.402344 444.308594 Z M 445.402344 443.589844 "/><path style=" stroke:none;fill-rule:nonzero;fill:#e7dcd7;fill-opacity:1;" d="M 568.738281 345.351562 L 570.175781 345.351562 L 570.890625 351.804688 L 569.457031 351.804688 Z M 568.738281 345.351562 "/><path style=" stroke:none;fill-rule:nonzero;fill:#a90c14;fill-opacity:1;" d="M 590.96875 332.441406 L 592.402344 332.441406 L 593.839844 338.179688 L 591.6875 337.460938 Z M 590.96875 332.441406 "/></g></svg>