<svg xmlns="http://www.w3.org/2000/svg" xmlns:xlink="http://www.w3.org/1999/xlink" width="200" zoomAndPan="magnify" viewBox="0 0 150 45.749998" height="61" preserveAspectRatio="xMidYMid meet" version="1.2"><g id="e39a0355a0"><path style=" stroke:none;fill-rule:nonzero;fill:#f40205;fill-opacity:1;" d="M 93.625 15.917969 C 94.703125 16.398438 95.609375 16.984375 96.375 17.894531 L 96.515625 18.171875 L 96.65625 17.828125 L 96.84375 17.375 L 97.027344 16.925781 C 97.171875 16.597656 97.324219 16.273438 97.484375 15.953125 C 98.082031 15.949219 98.683594 15.945312 99.28125 15.945312 L 99.796875 15.941406 L 100.289062 15.941406 L 100.746094 15.9375 L 101.09375 15.953125 L 101.230469 16.09375 C 101.246094 16.335938 101.25 16.582031 101.25 16.828125 L 101.253906 17.3125 L 101.253906 18.40625 C 101.257812 18.917969 101.257812 19.425781 101.257812 19.9375 C 101.257812 20.253906 101.261719 20.574219 101.261719 20.890625 C 101.261719 21.890625 101.265625 22.890625 101.265625 23.890625 C 101.265625 25.039062 101.265625 26.1875 101.269531 27.339844 C 101.273438 28.230469 101.277344 29.121094 101.277344 30.007812 C 101.277344 30.539062 101.277344 31.070312 101.28125 31.601562 C 101.28125 32.101562 101.28125 32.605469 101.28125 33.105469 C 101.28125 33.375 101.28125 33.640625 101.285156 33.910156 C 101.277344 35.871094 100.839844 37.644531 99.910156 39.375 C 99.042969 40.832031 97.90625 41.90625 96.445312 42.761719 C 95.617188 43.175781 94.769531 43.449219 93.878906 43.695312 L 93.53125 43.800781 C 91.234375 44.378906 88.757812 43.898438 86.523438 43.28125 C 85.378906 42.925781 84.320312 42.441406 83.332031 41.753906 C 83.417969 41.226562 83.574219 40.796875 83.804688 40.316406 L 84.007812 39.894531 L 84.21875 39.457031 L 84.425781 39.019531 C 84.71875 38.410156 84.992188 37.847656 85.414062 37.316406 C 85.980469 37.5 86.527344 37.707031 87.078125 37.933594 C 88.71875 38.558594 90.316406 38.84375 92.074219 38.703125 C 92.960938 38.558594 93.699219 38.21875 94.425781 37.695312 C 94.988281 37.222656 95.382812 36.710938 95.675781 36.039062 C 96.019531 35.019531 96.117188 33.941406 96.238281 32.878906 L 95.960938 33.125 C 94.976562 33.976562 94 34.601562 92.714844 34.894531 C 91.089844 35.179688 89.269531 35.082031 87.699219 34.585938 C 86.210938 34.019531 85.007812 33.335938 83.886719 32.183594 L 83.65625 31.964844 C 83.140625 31.4375 82.8125 30.804688 82.476562 30.15625 L 82.335938 29.890625 C 81.621094 28.457031 81.453125 26.925781 81.46875 25.34375 L 81.472656 24.847656 C 81.511719 22.9375 81.894531 21.289062 82.871094 19.636719 C 83.6875 18.347656 84.714844 17.363281 86.042969 16.605469 C 88.339844 15.488281 91.171875 15.023438 93.625 15.917969 M 88.144531 21.449219 C 87.394531 22.058594 86.980469 22.878906 86.613281 23.757812 C 86.425781 24.863281 86.390625 25.960938 86.75 27.035156 C 87.042969 27.722656 87.375 28.328125 87.910156 28.855469 C 88.574219 29.351562 89.285156 29.769531 90.105469 29.929688 C 91.285156 30.0625 92.359375 30.011719 93.460938 29.546875 C 94.210938 29.1875 94.800781 28.707031 95.328125 28.0625 C 95.820312 27.335938 96.054688 26.609375 96.152344 25.742188 C 96.1875 24.648438 96.042969 23.730469 95.542969 22.75 C 95.1875 22.136719 94.785156 21.65625 94.199219 21.25 C 93.25 20.71875 92.253906 20.507812 91.171875 20.46875 C 90.042969 20.5 89.085938 20.824219 88.144531 21.449219 M 70.128906 15.902344 C 70.5 16.054688 70.5 16.054688 70.847656 16.230469 L 71.226562 16.417969 C 72.007812 16.847656 72.527344 17.324219 73.066406 18.035156 C 73.296875 17.59375 73.472656 17.148438 73.640625 16.683594 L 73.789062 16.269531 L 73.898438 15.953125 C 74.488281 15.949219 75.078125 15.949219 75.667969 15.945312 C 75.871094 15.945312 76.070312 15.945312 76.273438 15.941406 C 76.5625 15.941406 76.847656 15.941406 77.136719 15.941406 L 77.664062 15.9375 L 78.0625 15.953125 L 78.199219 16.09375 C 78.210938 16.328125 78.21875 16.566406 78.21875 16.804688 L 78.21875 18.328125 C 78.21875 18.816406 78.21875 19.308594 78.21875 19.800781 C 78.21875 20.3125 78.21875 20.824219 78.21875 21.335938 C 78.21875 22.195312 78.21875 23.058594 78.21875 23.917969 C 78.21875 24.914062 78.21875 25.910156 78.21875 26.90625 C 78.21875 27.761719 78.21875 28.617188 78.21875 29.46875 C 78.21875 29.980469 78.21875 30.492188 78.21875 31 C 78.21875 31.570312 78.21875 32.140625 78.21875 32.707031 L 78.21875 34.101562 L 78.199219 34.402344 L 78.0625 34.542969 C 77.753906 34.554688 77.445312 34.554688 77.136719 34.554688 L 76.859375 34.554688 C 76.5625 34.554688 76.265625 34.550781 75.972656 34.550781 C 75.773438 34.550781 75.570312 34.550781 75.371094 34.546875 C 74.882812 34.546875 74.390625 34.542969 73.898438 34.542969 L 73.789062 34.257812 L 73.640625 33.882812 L 73.492188 33.511719 C 73.363281 33.203125 73.222656 32.898438 73.066406 32.601562 L 72.863281 32.816406 C 72.011719 33.703125 71.21875 34.292969 70.066406 34.722656 C 68.398438 35.199219 66.480469 35.148438 64.804688 34.742188 C 63.257812 34.289062 61.957031 33.558594 60.796875 32.441406 C 59.570312 31.074219 58.84375 29.53125 58.394531 27.75 C 57.980469 25.671875 58.132812 23.476562 58.785156 21.464844 C 59.363281 19.988281 60.183594 18.636719 61.414062 17.617188 C 63.785156 15.839844 67.230469 14.996094 70.128906 15.902344 M 64.960938 21.453125 C 64.230469 22.039062 63.820312 22.644531 63.472656 23.507812 C 63.335938 23.910156 63.242188 24.265625 63.214844 24.691406 L 63.191406 24.957031 C 63.132812 25.941406 63.367188 26.851562 63.769531 27.746094 C 64.300781 28.539062 64.90625 29.117188 65.757812 29.554688 C 66.796875 30.027344 67.773438 30.03125 68.90625 29.964844 C 69.660156 29.84375 70.265625 29.601562 70.890625 29.15625 C 71.566406 28.601562 72.054688 28.03125 72.40625 27.222656 C 72.765625 26.25 72.851562 25.363281 72.703125 24.335938 C 72.492188 23.351562 72.058594 22.566406 71.394531 21.8125 C 70.742188 21.21875 70.035156 20.878906 69.183594 20.667969 C 67.652344 20.476562 66.253906 20.570312 64.960938 21.453125 "/><path style=" stroke:none;fill-rule:nonzero;fill:#f40104;fill-opacity:1;" d="M 39.90625 7.492188 C 40.117188 7.480469 40.324219 7.472656 40.535156 7.476562 L 40.945312 7.472656 L 41.402344 7.476562 L 41.875 7.476562 C 42.398438 7.476562 42.917969 7.476562 43.441406 7.476562 L 44.523438 7.480469 C 45.378906 7.480469 46.230469 7.480469 47.085938 7.480469 C 48.058594 7.484375 49.03125 7.484375 50 7.484375 C 52 7.484375 54 7.488281 56 7.492188 L 56 12.484375 L 45.179688 12.625 L 45.179688 18.171875 L 54.199219 18.3125 L 54.199219 23.167969 L 45.179688 23.167969 L 45.039062 34.542969 L 39.769531 34.542969 C 39.765625 31.035156 39.761719 27.527344 39.761719 24.023438 C 39.761719 22.394531 39.761719 20.765625 39.757812 19.136719 C 39.757812 17.71875 39.757812 16.300781 39.753906 14.882812 C 39.753906 14.132812 39.753906 13.378906 39.753906 12.628906 C 39.753906 11.921875 39.753906 11.214844 39.753906 10.507812 C 39.753906 10.25 39.753906 9.988281 39.753906 9.730469 C 39.75 9.375 39.75 9.023438 39.753906 8.667969 L 39.75 8.351562 C 39.75 8.113281 39.757812 7.871094 39.769531 7.628906 Z M 39.90625 7.492188 "/><path style=" stroke:none;fill-rule:nonzero;fill:#f40205;fill-opacity:1;" d="M 132.289062 15.917969 C 133.984375 16.59375 135.425781 17.5 136.617188 18.902344 C 137.683594 20.402344 138.355469 22.140625 138.535156 23.976562 C 138.664062 26.179688 138.40625 28.246094 137.441406 30.242188 C 137.152344 30.734375 136.832031 31.183594 136.472656 31.628906 L 136.167969 32.054688 C 135.234375 33.125 133.980469 33.855469 132.671875 34.371094 C 130.621094 35.0625 128.480469 35.175781 126.351562 34.792969 C 124.816406 34.4375 123.5625 33.839844 122.320312 32.878906 L 122.050781 32.679688 C 120.960938 31.820312 120.203125 30.546875 119.683594 29.269531 C 118.964844 27.097656 118.761719 24.957031 119.210938 22.714844 C 119.566406 21.105469 120.296875 19.664062 121.347656 18.394531 C 122.574219 17.082031 124.054688 16.332031 125.746094 15.800781 C 127.765625 15.246094 130.292969 15.265625 132.289062 15.917969 M 126.203125 21.085938 C 125.496094 21.566406 124.988281 22.136719 124.542969 22.863281 C 124.0625 23.902344 124.035156 24.964844 124.097656 26.085938 C 124.175781 26.875 124.457031 27.527344 124.875 28.195312 C 125.429688 28.917969 126.113281 29.285156 126.929688 29.667969 C 127.792969 30.019531 128.609375 30.027344 129.535156 29.964844 C 130.417969 29.8125 131.160156 29.476562 131.886719 28.957031 C 132.507812 28.429688 132.949219 27.808594 133.261719 27.058594 C 133.585938 25.9375 133.578125 24.648438 133.300781 23.515625 C 132.992188 22.6875 132.574219 22.042969 131.917969 21.449219 C 131.292969 20.984375 130.578125 20.679688 129.8125 20.53125 C 128.53125 20.4375 127.355469 20.460938 126.203125 21.085938 "/><path style=" stroke:none;fill-rule:nonzero;fill:#f40104;fill-opacity:1;" d="M 117.742188 16.09375 C 117.644531 17.160156 117.375 18.175781 117.109375 19.214844 C 117.0625 19.394531 117.015625 19.578125 116.96875 19.757812 C 116.859375 20.203125 116.746094 20.644531 116.632812 21.085938 C 116.28125 21.1875 116.105469 21.230469 115.742188 21.148438 L 115.375 21.023438 C 114.578125 20.792969 113.851562 20.714844 113.023438 20.808594 C 112.234375 21.046875 111.65625 21.476562 111.082031 22.058594 C 110.765625 22.460938 110.765625 22.460938 110.765625 22.976562 C 110.765625 23.1875 110.761719 23.402344 110.761719 23.613281 L 110.757812 23.964844 C 110.753906 24.351562 110.753906 24.734375 110.75 25.117188 C 110.75 25.386719 110.746094 25.652344 110.746094 25.917969 C 110.738281 26.621094 110.734375 27.320312 110.730469 28.023438 C 110.722656 29.148438 110.714844 30.273438 110.703125 31.398438 C 110.699219 31.792969 110.699219 32.183594 110.695312 32.578125 L 110.691406 33.300781 L 110.6875 33.632812 C 110.6875 33.890625 110.675781 34.148438 110.664062 34.402344 L 110.527344 34.542969 C 110.167969 34.554688 109.8125 34.5625 109.457031 34.558594 L 109.132812 34.5625 C 108.902344 34.5625 108.675781 34.558594 108.449219 34.558594 C 108.101562 34.558594 107.75 34.558594 107.402344 34.5625 C 107.183594 34.5625 106.960938 34.5625 106.742188 34.558594 L 106.421875 34.5625 C 106.171875 34.558594 105.921875 34.550781 105.671875 34.542969 L 105.53125 34.402344 C 105.519531 34.167969 105.515625 33.929688 105.515625 33.691406 L 105.511719 33.226562 L 105.515625 32.707031 L 105.511719 32.167969 C 105.511719 31.675781 105.511719 31.1875 105.511719 30.695312 C 105.515625 30.183594 105.511719 29.671875 105.511719 29.160156 C 105.511719 28.296875 105.511719 27.4375 105.515625 26.578125 C 105.515625 25.582031 105.515625 24.585938 105.515625 23.585938 C 105.511719 22.734375 105.511719 21.878906 105.511719 21.027344 C 105.515625 20.515625 105.515625 20.003906 105.511719 19.492188 C 105.511719 18.925781 105.511719 18.355469 105.515625 17.785156 L 105.511719 17.269531 L 105.515625 16.804688 L 105.515625 16.394531 L 105.53125 16.09375 L 105.671875 15.953125 C 105.9375 15.941406 106.207031 15.9375 106.472656 15.941406 L 106.964844 15.941406 L 107.484375 15.945312 L 108.003906 15.945312 C 108.429688 15.949219 108.851562 15.949219 109.277344 15.953125 L 109.832031 17.203125 C 110.257812 16.988281 110.640625 16.769531 111.039062 16.515625 C 113.1875 15.21875 115.421875 15.363281 117.742188 16.09375 "/><path style=" stroke:none;fill-rule:nonzero;fill:#018801;fill-opacity:1;" d="M 9.011719 19.105469 L 9.316406 19.105469 C 9.652344 19.101562 9.988281 19.101562 10.324219 19.105469 C 10.566406 19.101562 10.808594 19.101562 11.050781 19.101562 C 11.707031 19.097656 12.363281 19.097656 13.015625 19.097656 C 13.425781 19.097656 13.835938 19.097656 14.246094 19.097656 C 15.679688 19.09375 17.109375 19.09375 18.539062 19.09375 C 19.871094 19.09375 21.203125 19.089844 22.539062 19.085938 C 23.683594 19.082031 24.828125 19.082031 25.972656 19.082031 C 26.65625 19.082031 27.339844 19.078125 28.023438 19.078125 C 28.667969 19.074219 29.308594 19.074219 29.953125 19.074219 C 30.1875 19.078125 30.421875 19.074219 30.660156 19.074219 C 32.65625 19.0625 32.65625 19.0625 33.378906 19.40625 C 33.804688 19.699219 33.804688 19.699219 34.082031 20.003906 C 34.277344 20.558594 34.296875 21.058594 34.21875 21.640625 C 34.015625 22.089844 33.765625 22.433594 33.386719 22.75 C 32.902344 22.910156 32.46875 22.910156 31.96875 22.910156 L 31.65625 22.910156 C 31.308594 22.914062 30.964844 22.914062 30.617188 22.914062 L 29.875 22.917969 C 29.203125 22.917969 28.53125 22.921875 27.855469 22.921875 L 26.59375 22.925781 C 25.28125 22.925781 23.964844 22.929688 22.648438 22.929688 C 21.132812 22.929688 19.613281 22.933594 18.09375 22.941406 C 16.921875 22.945312 15.746094 22.945312 14.574219 22.945312 C 13.875 22.949219 13.171875 22.949219 12.472656 22.953125 C 11.8125 22.957031 11.152344 22.957031 10.492188 22.953125 C 10.25 22.953125 10.007812 22.957031 9.765625 22.957031 C 9.4375 22.960938 9.105469 22.957031 8.773438 22.957031 L 8.484375 22.960938 C 7.976562 22.953125 7.699219 22.878906 7.25 22.621094 C 6.855469 22.308594 6.644531 22.066406 6.421875 21.621094 C 6.332031 21.363281 6.332031 21.363281 6.316406 20.878906 C 6.484375 20.347656 6.699219 20.039062 7.058594 19.625 C 7.652344 19.128906 8.257812 19.109375 9.011719 19.105469 "/><path style=" stroke:none;fill-rule:nonzero;fill:#02ab03;fill-opacity:1;" d="M 11.785156 25.089844 L 12.253906 25.085938 L 13.324219 25.085938 C 13.816406 25.082031 14.3125 25.082031 14.808594 25.082031 C 15.117188 25.082031 15.425781 25.082031 15.738281 25.078125 C 16.703125 25.078125 17.671875 25.078125 18.640625 25.074219 C 19.757812 25.074219 20.875 25.074219 21.992188 25.070312 C 22.859375 25.066406 23.722656 25.0625 24.585938 25.0625 C 25.101562 25.0625 25.617188 25.0625 26.132812 25.0625 C 26.707031 25.058594 27.285156 25.058594 27.859375 25.058594 L 28.378906 25.054688 C 28.535156 25.054688 28.691406 25.058594 28.851562 25.058594 L 29.265625 25.058594 C 29.710938 25.117188 29.972656 25.265625 30.335938 25.523438 C 30.605469 25.867188 30.761719 26.21875 30.890625 26.636719 C 30.925781 27.039062 30.886719 27.363281 30.75 27.746094 C 30.550781 28.09375 30.355469 28.289062 30.058594 28.578125 C 29.558594 28.824219 29.15625 28.890625 28.601562 28.890625 L 28.144531 28.894531 L 27.644531 28.894531 L 27.117188 28.898438 C 26.636719 28.898438 26.160156 28.902344 25.683594 28.902344 C 25.382812 28.902344 25.085938 28.902344 24.785156 28.902344 C 23.742188 28.90625 22.699219 28.90625 21.65625 28.90625 C 20.6875 28.90625 19.714844 28.910156 18.746094 28.914062 C 17.910156 28.917969 17.078125 28.917969 16.242188 28.917969 C 15.742188 28.917969 15.246094 28.917969 14.75 28.921875 C 14.191406 28.925781 13.636719 28.921875 13.082031 28.921875 L 12.585938 28.925781 C 11.339844 28.917969 11.339844 28.917969 10.75 28.589844 C 10.355469 28.300781 10.355469 28.300781 10.085938 28.003906 C 9.902344 27.511719 9.855469 27.09375 9.871094 26.566406 C 9.949219 26.164062 10.074219 25.964844 10.339844 25.65625 C 10.8125 25.167969 11.105469 25.089844 11.785156 25.089844 M 12.953125 13.25 L 13.492188 13.246094 C 13.976562 13.242188 14.460938 13.246094 14.949219 13.246094 C 15.457031 13.25 15.964844 13.25 16.472656 13.25 C 17.328125 13.25 18.183594 13.25 19.035156 13.253906 C 20.023438 13.257812 21.011719 13.257812 22 13.253906 C 22.949219 13.253906 23.898438 13.253906 24.851562 13.257812 C 25.253906 13.257812 25.65625 13.257812 26.0625 13.257812 C 26.625 13.257812 27.191406 13.257812 27.753906 13.261719 L 28.261719 13.261719 L 28.730469 13.265625 L 29.132812 13.265625 C 29.574219 13.328125 29.832031 13.480469 30.195312 13.734375 C 30.503906 14.03125 30.703125 14.277344 30.832031 14.691406 C 30.917969 15.195312 30.902344 15.496094 30.734375 15.988281 C 30.398438 16.476562 30.03125 16.796875 29.5 17.0625 C 29.261719 17.078125 29.023438 17.082031 28.785156 17.082031 L 28.324219 17.085938 L 27.28125 17.085938 C 26.796875 17.089844 26.316406 17.089844 25.832031 17.089844 L 24.925781 17.09375 C 23.980469 17.09375 23.035156 17.097656 22.085938 17.097656 C 20.996094 17.097656 19.90625 17.097656 18.8125 17.101562 C 17.96875 17.105469 17.125 17.109375 16.285156 17.109375 C 15.78125 17.109375 15.277344 17.109375 14.773438 17.113281 C 14.210938 17.113281 13.648438 17.113281 13.085938 17.113281 L 12.582031 17.117188 C 11.933594 17.113281 11.429688 17.101562 10.820312 16.875 C 10.378906 16.566406 10.175781 16.304688 9.9375 15.816406 C 9.871094 15.386719 9.875 14.996094 9.9375 14.566406 C 10.121094 14.117188 10.320312 13.90625 10.675781 13.582031 C 11.359375 13.140625 12.171875 13.242188 12.953125 13.25 "/><path style=" stroke:none;fill-rule:nonzero;fill:#08d95a;fill-opacity:1;" d="M 15.847656 7.332031 L 16.171875 7.328125 C 16.527344 7.328125 16.878906 7.324219 17.234375 7.324219 L 17.972656 7.324219 C 18.488281 7.320312 19.007812 7.320312 19.523438 7.320312 C 20.183594 7.320312 20.84375 7.316406 21.507812 7.3125 C 22.015625 7.308594 22.523438 7.308594 23.03125 7.308594 C 23.277344 7.308594 23.519531 7.304688 23.765625 7.304688 C 24.105469 7.300781 24.445312 7.300781 24.789062 7.304688 L 25.089844 7.300781 C 25.570312 7.304688 25.914062 7.359375 26.359375 7.542969 C 26.773438 7.796875 27.003906 8.0625 27.28125 8.460938 C 27.464844 8.824219 27.464844 9.160156 27.460938 9.558594 C 27.421875 9.851562 27.421875 9.851562 27.179688 10.308594 C 26.898438 10.644531 26.6875 10.882812 26.3125 11.097656 C 25.738281 11.246094 25.191406 11.257812 24.601562 11.257812 L 24.300781 11.261719 C 23.972656 11.261719 23.644531 11.265625 23.316406 11.265625 L 22.976562 11.265625 C 22.378906 11.269531 21.785156 11.269531 21.1875 11.269531 C 20.574219 11.269531 19.960938 11.273438 19.347656 11.277344 C 18.875 11.28125 18.402344 11.28125 17.925781 11.28125 C 17.699219 11.28125 17.476562 11.285156 17.25 11.285156 C 15.007812 11.300781 15.007812 11.300781 13.960938 10.820312 C 13.570312 10.390625 13.429688 10.070312 13.277344 9.511719 C 13.269531 9.015625 13.269531 9.015625 13.425781 8.507812 C 13.695312 8.027344 13.921875 7.789062 14.378906 7.492188 C 14.875 7.324219 15.332031 7.332031 15.847656 7.332031 "/><path style=" stroke:none;fill-rule:nonzero;fill:#02d856;fill-opacity:1;" d="M 15.75 30.894531 L 16.082031 30.890625 C 16.445312 30.890625 16.808594 30.890625 17.171875 30.886719 L 17.925781 30.886719 C 18.457031 30.882812 18.984375 30.882812 19.511719 30.882812 C 20.191406 30.882812 20.867188 30.878906 21.542969 30.875 C 22.066406 30.871094 22.585938 30.871094 23.105469 30.871094 C 23.355469 30.871094 23.605469 30.871094 23.855469 30.867188 C 24.203125 30.863281 24.554688 30.867188 24.902344 30.867188 L 25.214844 30.863281 C 25.742188 30.871094 26.039062 30.9375 26.503906 31.203125 C 27.074219 31.65625 27.074219 31.65625 27.28125 31.90625 C 27.453125 32.421875 27.492188 32.894531 27.421875 33.433594 C 27.1875 33.890625 26.976562 34.179688 26.570312 34.492188 C 26.054688 34.734375 25.59375 34.742188 25.039062 34.742188 L 24.699219 34.746094 C 24.328125 34.75 23.957031 34.75 23.589844 34.75 L 22.816406 34.753906 C 22.273438 34.757812 21.734375 34.757812 21.195312 34.757812 C 20.503906 34.757812 19.8125 34.761719 19.121094 34.769531 C 18.585938 34.773438 18.054688 34.777344 17.523438 34.777344 C 17.265625 34.777344 17.011719 34.777344 16.757812 34.78125 C 16.398438 34.785156 16.042969 34.785156 15.6875 34.78125 L 15.371094 34.789062 C 15.066406 34.785156 14.8125 34.761719 14.519531 34.679688 C 14.027344 34.367188 13.648438 34.011719 13.339844 33.519531 C 13.238281 33.003906 13.253906 32.542969 13.40625 32.042969 C 13.648438 31.636719 13.941406 31.320312 14.332031 31.054688 C 14.800781 30.882812 15.257812 30.894531 15.75 30.894531 "/><path style=" stroke:none;fill-rule:nonzero;fill:#f4090c;fill-opacity:1;" d="M 66.566406 3.019531 C 67.195312 3.257812 67.714844 3.5625 68.210938 4.023438 C 67.980469 4.570312 67.625 4.964844 67.238281 5.410156 L 67 5.257812 C 66.296875 4.855469 65.730469 4.664062 64.914062 4.648438 C 64.417969 4.671875 64.039062 4.71875 63.5625 4.875 C 62.984375 5.304688 62.617188 5.742188 62.332031 6.40625 C 62.199219 7.210938 62.226562 7.976562 62.476562 8.757812 C 62.648438 9.105469 62.863281 9.371094 63.164062 9.617188 C 63.726562 9.953125 64.25 10.03125 64.898438 10.058594 C 65.414062 10.039062 65.710938 9.988281 66.191406 9.78125 C 66.648438 9.335938 66.925781 8.878906 67.238281 8.324219 L 64.882812 8.324219 L 64.882812 6.9375 L 68.90625 6.9375 C 68.90625 8.082031 68.824219 9.046875 68.304688 10.074219 C 67.992188 10.570312 67.695312 10.925781 67.238281 11.296875 C 66.269531 11.804688 65.382812 11.851562 64.3125 11.824219 C 63.640625 11.785156 63.109375 11.710938 62.523438 11.375 C 61.796875 10.875 61.269531 10.335938 60.855469 9.554688 C 60.4375 8.601562 60.378906 7.691406 60.441406 6.660156 C 60.554688 5.867188 60.824219 5.105469 61.273438 4.441406 C 61.851562 3.785156 62.527344 3.300781 63.351562 3.003906 C 64.394531 2.777344 65.523438 2.765625 66.566406 3.019531 "/><path style=" stroke:none;fill-rule:nonzero;fill:#f40508;fill-opacity:1;" d="M 86.542969 5.773438 C 86.996094 5.972656 87.253906 6.136719 87.625 6.476562 C 88.066406 7.1875 88.34375 7.898438 88.378906 8.738281 C 88.34375 9.539062 88.085938 10.253906 87.679688 10.933594 C 87.175781 11.410156 86.636719 11.679688 85.972656 11.871094 C 85.414062 11.976562 84.992188 11.914062 84.453125 11.738281 C 83.917969 11.542969 83.917969 11.542969 83.75 11.375 L 83.609375 14.566406 L 81.945312 14.566406 L 81.945312 5.6875 L 83.195312 5.6875 L 83.472656 6.242188 L 83.855469 5.972656 C 84.734375 5.414062 85.5625 5.421875 86.542969 5.773438 M 84.019531 7.542969 C 83.753906 7.882812 83.753906 7.882812 83.609375 8.183594 C 83.570312 8.59375 83.542969 8.898438 83.609375 9.296875 C 83.804688 9.648438 84.007812 9.84375 84.304688 10.128906 C 84.8125 10.296875 85.160156 10.320312 85.691406 10.265625 C 86.027344 10.066406 86.246094 9.851562 86.523438 9.574219 C 86.726562 9.171875 86.707031 8.804688 86.703125 8.359375 C 86.679688 8.011719 86.679688 8.011719 86.402344 7.628906 C 86.132812 7.347656 86.132812 7.347656 85.832031 7.214844 C 85.109375 7.125 84.609375 7.085938 84.019531 7.542969 "/><path style=" stroke:none;fill-rule:nonzero;fill:#90e991;fill-opacity:1;" d="M 20.398438 36.726562 L 20.902344 36.71875 C 22.285156 36.710938 22.285156 36.710938 22.867188 36.949219 C 23.25 37.171875 23.558594 37.394531 23.832031 37.75 C 24.035156 38.1875 24.027344 38.597656 24 39.074219 C 23.953125 39.398438 23.953125 39.398438 23.8125 39.796875 C 23.40625 40.226562 22.984375 40.46875 22.425781 40.644531 C 21.820312 40.710938 21.21875 40.71875 20.609375 40.710938 C 20.328125 40.707031 20.042969 40.707031 19.761719 40.710938 C 18.394531 40.699219 18.394531 40.699219 17.808594 40.457031 C 17.382812 40.203125 17.15625 39.9375 16.875 39.535156 C 16.738281 39.257812 16.738281 39.257812 16.703125 38.808594 C 16.742188 38.234375 16.84375 37.933594 17.152344 37.453125 C 17.484375 37.136719 17.71875 36.933594 18.164062 36.816406 C 18.902344 36.707031 19.652344 36.730469 20.398438 36.726562 "/><path style=" stroke:none;fill-rule:nonzero;fill:#f4080b;fill-opacity:1;" d="M 93.503906 5.722656 C 93.976562 5.929688 94.347656 6.148438 94.710938 6.519531 C 95.125 7.195312 95.375 7.835938 95.4375 8.628906 C 95.390625 9.386719 95.222656 10.039062 94.808594 10.683594 C 94.488281 11.09375 94.175781 11.363281 93.738281 11.644531 C 92.949219 11.925781 92.066406 11.875 91.242188 11.792969 C 90.601562 11.617188 90.21875 11.320312 89.742188 10.863281 C 89.371094 10.304688 89.140625 9.816406 89.023438 9.15625 C 88.996094 8.417969 89.085938 7.71875 89.367188 7.03125 C 89.679688 6.476562 90.125 6.179688 90.65625 5.84375 C 91.523438 5.402344 92.59375 5.40625 93.503906 5.722656 M 91.09375 7.542969 C 90.828125 7.882812 90.828125 7.882812 90.6875 8.183594 C 90.644531 8.59375 90.625 8.898438 90.6875 9.296875 C 90.929688 9.792969 90.929688 9.792969 91.378906 10.128906 C 91.804688 10.265625 92.183594 10.300781 92.628906 10.265625 C 93.035156 10.097656 93.257812 9.910156 93.574219 9.617188 C 93.773438 9.230469 93.804688 8.898438 93.789062 8.46875 C 93.707031 8.007812 93.476562 7.707031 93.183594 7.351562 C 92.753906 7.136719 92.339844 7.160156 91.863281 7.164062 C 91.476562 7.191406 91.476562 7.191406 91.09375 7.542969 "/><path style=" stroke:none;fill-rule:nonzero;fill:#8ee98f;fill-opacity:1;" d="M 19.054688 1.464844 L 19.363281 1.464844 C 19.578125 1.464844 19.792969 1.464844 20.007812 1.464844 C 20.335938 1.464844 20.660156 1.460938 20.988281 1.457031 C 21.195312 1.457031 21.40625 1.457031 21.613281 1.457031 L 21.90625 1.453125 C 22.425781 1.460938 22.71875 1.535156 23.171875 1.789062 C 23.570312 2.109375 23.761719 2.300781 23.953125 2.773438 C 24.015625 3.203125 24.019531 3.59375 23.953125 4.023438 C 23.71875 4.492188 23.511719 4.769531 23.09375 5.082031 C 22.609375 5.316406 22.1875 5.332031 21.660156 5.328125 L 21.359375 5.328125 C 21.148438 5.328125 20.941406 5.328125 20.734375 5.328125 C 20.414062 5.324219 20.097656 5.328125 19.78125 5.328125 C 19.578125 5.328125 19.371094 5.328125 19.167969 5.328125 L 18.882812 5.328125 C 18.4375 5.324219 18.132812 5.277344 17.730469 5.078125 C 17.410156 4.839844 17.140625 4.601562 16.875 4.300781 C 16.707031 3.796875 16.691406 3.445312 16.738281 2.914062 C 16.882812 2.53125 17.050781 2.285156 17.292969 1.941406 C 17.855469 1.503906 18.363281 1.464844 19.054688 1.464844 "/><path style=" stroke:none;fill-rule:nonzero;fill:#f40d10;fill-opacity:1;" d="M 74.730469 5.6875 L 76.398438 5.6875 L 76.402344 6.515625 L 76.421875 7.585938 L 76.425781 8.128906 L 76.4375 8.65625 L 76.445312 9.136719 C 76.507812 9.597656 76.507812 9.597656 76.855469 9.976562 L 77.230469 10.265625 C 77.730469 10.324219 77.730469 10.324219 78.199219 10.128906 C 78.484375 9.832031 78.609375 9.671875 78.753906 9.296875 C 78.839844 8.675781 78.851562 8.0625 78.859375 7.441406 L 78.871094 6.929688 C 78.882812 6.515625 78.886719 6.101562 78.894531 5.6875 L 80.558594 5.6875 L 80.558594 11.652344 C 80.113281 11.875 79.664062 11.800781 79.171875 11.792969 L 79.03125 11.238281 L 78.824219 11.351562 L 78.476562 11.515625 L 78.238281 11.628906 C 77.726562 11.851562 77.292969 11.96875 76.734375 11.9375 C 76.253906 11.863281 75.953125 11.714844 75.574219 11.410156 C 75.308594 11.152344 75.140625 10.945312 74.957031 10.621094 C 74.699219 9.558594 74.714844 8.519531 74.722656 7.429688 L 74.726562 6.921875 C 74.726562 6.511719 74.730469 6.101562 74.730469 5.6875 "/><path style=" stroke:none;fill-rule:nonzero;fill:#f4090c;fill-opacity:1;" d="M 140.863281 7.621094 C 141.550781 7.933594 142.089844 8.289062 142.550781 8.898438 C 142.984375 9.582031 143.15625 10.207031 143.191406 11.019531 C 143.167969 11.792969 142.96875 12.378906 142.578125 13.039062 C 142.214844 13.59375 141.832031 13.941406 141.265625 14.273438 C 140.519531 14.617188 139.832031 14.65625 139.015625 14.625 C 138.355469 14.542969 137.847656 14.398438 137.304688 14.011719 C 136.792969 13.550781 136.421875 13.046875 136.0625 12.460938 C 135.816406 11.570312 135.792969 10.675781 136 9.773438 C 136.28125 9.023438 136.757812 8.503906 137.375 8 C 138.460938 7.273438 139.644531 7.1875 140.863281 7.621094 M 137.996094 8.601562 C 137.527344 8.882812 137.257812 9.183594 136.984375 9.652344 C 136.710938 10.246094 136.675781 10.792969 136.707031 11.441406 C 136.765625 11.929688 136.871094 12.222656 137.164062 12.625 C 137.84375 13.308594 137.84375 13.308594 138.691406 13.734375 C 139.421875 13.804688 140.132812 13.824219 140.816406 13.527344 C 141.417969 13.179688 141.808594 12.660156 142.160156 12.070312 C 142.351562 11.5 142.367188 11 142.300781 10.40625 C 142.109375 9.777344 141.78125 9.285156 141.320312 8.828125 C 140.910156 8.507812 140.53125 8.363281 140.027344 8.246094 C 139.261719 8.140625 138.683594 8.257812 137.996094 8.601562 "/><path style=" stroke:none;fill-rule:nonzero;fill:#f4070a;fill-opacity:1;" d="M 74.039062 5.6875 L 73.761719 7.351562 L 72.730469 7.296875 C 72.359375 7.324219 72.359375 7.324219 72.078125 7.578125 C 71.789062 7.894531 71.789062 7.894531 71.742188 8.316406 L 71.734375 8.78125 L 71.71875 9.289062 L 71.714844 9.816406 L 71.703125 10.347656 C 71.691406 10.785156 71.683594 11.21875 71.679688 11.652344 C 71.449219 11.679688 71.222656 11.707031 70.996094 11.730469 L 70.609375 11.773438 L 70.292969 11.792969 L 70.152344 11.652344 C 70.140625 11.464844 70.136719 11.277344 70.136719 11.089844 L 70.136719 10.726562 L 70.140625 10.335938 L 70.140625 9.933594 C 70.140625 9.511719 70.144531 9.085938 70.144531 8.664062 C 70.144531 8.375 70.144531 8.089844 70.144531 7.800781 C 70.148438 7.097656 70.148438 6.394531 70.152344 5.6875 L 70.683594 5.671875 L 70.980469 5.660156 C 71.261719 5.6875 71.261719 5.6875 71.679688 5.964844 C 71.90625 5.859375 72.132812 5.753906 72.355469 5.644531 C 72.917969 5.464844 73.464844 5.601562 74.039062 5.6875 "/><path style=" stroke:none;fill-rule:nonzero;fill:#f4080b;fill-opacity:1;" d="M 138.136719 9.296875 C 138.472656 9.273438 138.808594 9.261719 139.140625 9.261719 L 139.421875 9.25 C 139.886719 9.246094 140.203125 9.289062 140.625 9.488281 C 140.910156 9.710938 140.910156 9.710938 141.050781 9.988281 C 141.09375 10.386719 141.09375 10.386719 141.050781 10.820312 C 140.773438 11.148438 140.773438 11.148438 140.496094 11.375 C 140.65625 11.71875 140.78125 11.9375 141.050781 12.207031 L 141.050781 12.625 C 140.675781 12.683594 140.675781 12.683594 140.21875 12.625 C 140.007812 12.394531 139.855469 12.160156 139.699219 11.894531 C 139.507812 11.59375 139.507812 11.59375 138.96875 11.375 L 138.832031 12.625 L 138.136719 12.625 C 138.019531 12.222656 137.980469 11.863281 137.980469 11.445312 L 137.980469 9.683594 L 137.996094 9.433594 Z M 138.832031 9.988281 L 138.832031 10.683594 C 139.136719 10.863281 139.136719 10.863281 139.523438 10.960938 C 139.921875 10.8125 139.921875 10.8125 140.21875 10.542969 L 140.21875 10.128906 C 139.902344 9.96875 139.71875 9.972656 139.367188 9.980469 Z M 138.832031 9.988281 "/></g></svg>