<svg xmlns="http://www.w3.org/2000/svg" xmlns:xlink="http://www.w3.org/1999/xlink" width="200" zoomAndPan="magnify" viewBox="0 0 150 45.749998" height="61" preserveAspectRatio="xMidYMid meet" version="1.2"><g id="dc46eb9eaa"><path style=" stroke:none;fill-rule:nonzero;fill:#f12430;fill-opacity:1;" d="M 2.832031 13.703125 C 3.207031 13.679688 3.582031 13.667969 3.960938 13.664062 L 4.703125 13.652344 L 5.527344 13.648438 L 6.386719 13.636719 C 9.007812 13.609375 11.628906 13.59375 14.25 13.585938 C 16.1875 13.574219 18.125 13.5625 20.0625 13.539062 C 21.425781 13.523438 22.789062 13.515625 24.152344 13.511719 C 24.964844 13.507812 25.777344 13.503906 26.589844 13.492188 C 27.5 13.476562 28.410156 13.476562 29.316406 13.476562 L 30.132812 13.457031 C 30.859375 13.46875 31.460938 13.492188 32.152344 13.703125 C 32.765625 14.277344 33.101562 14.898438 33.457031 15.648438 C 33.640625 15.957031 33.832031 16.265625 34.023438 16.570312 C 34.21875 16.898438 34.414062 17.226562 34.609375 17.554688 C 35.410156 18.890625 36.214844 20.226562 37.03125 21.554688 L 37.28125 21.964844 C 37.613281 22.507812 37.945312 23.046875 38.277344 23.589844 C 38.511719 23.96875 38.742188 24.347656 38.976562 24.726562 L 39.382812 25.390625 C 39.753906 26.019531 40.082031 26.671875 40.40625 27.324219 L 2.613281 27.324219 L 2.613281 13.917969 Z M 2.832031 13.703125 "/><path style=" stroke:none;fill-rule:nonzero;fill:#f12531;fill-opacity:1;" d="M 77.539062 12.839844 C 78.191406 13.152344 78.605469 13.589844 79.070312 14.136719 C 79.285156 14.351562 79.503906 14.570312 79.722656 14.785156 L 80.007812 14.476562 C 80.933594 13.511719 81.742188 12.859375 83.046875 12.472656 C 84.449219 12.3125 85.738281 12.308594 87.074219 12.800781 C 87.933594 13.269531 88.527344 13.976562 89.0625 14.785156 C 89.429688 15.566406 89.550781 16.175781 89.546875 17.039062 L 89.546875 17.734375 L 89.539062 18.476562 L 89.535156 19.242188 C 89.535156 20.050781 89.527344 20.855469 89.523438 21.660156 C 89.519531 22.210938 89.519531 22.757812 89.519531 23.304688 C 89.511719 24.644531 89.503906 25.984375 89.496094 27.324219 L 84.5 27.324219 L 84.476562 25.34375 C 84.464844 24.707031 84.453125 24.070312 84.445312 23.433594 C 84.4375 22.996094 84.429688 22.554688 84.425781 22.113281 C 84.417969 21.476562 84.40625 20.84375 84.394531 20.207031 L 84.390625 19.617188 C 84.363281 18.425781 84.207031 17.566406 83.632812 16.511719 C 82.941406 16.167969 82.214844 16.265625 81.460938 16.296875 C 80.957031 16.304688 80.957031 16.304688 80.589844 16.511719 C 79.867188 17.84375 79.902344 19.390625 79.871094 20.863281 L 79.855469 21.425781 C 79.84375 22.011719 79.828125 22.601562 79.816406 23.1875 L 79.789062 24.390625 C 79.765625 25.367188 79.742188 26.347656 79.722656 27.324219 L 74.726562 27.324219 L 74.703125 25.234375 C 74.691406 24.566406 74.679688 23.894531 74.667969 23.226562 C 74.660156 22.761719 74.65625 22.296875 74.652344 21.832031 C 74.644531 21.164062 74.632812 20.496094 74.621094 19.828125 L 74.617188 19.199219 C 74.597656 18.335938 74.566406 17.722656 74.203125 16.929688 C 73.886719 16.492188 73.886719 16.492188 73.421875 16.296875 C 72.800781 16.246094 72.292969 16.214844 71.683594 16.296875 C 71.039062 16.617188 71.039062 16.617188 70.597656 17.160156 C 70.113281 18.28125 70.089844 19.328125 70.074219 20.523438 L 70.0625 21.117188 C 70.050781 21.734375 70.039062 22.355469 70.027344 22.972656 L 70.003906 24.234375 C 69.984375 25.265625 69.964844 26.292969 69.949219 27.324219 L 64.953125 27.324219 L 64.953125 12.835938 L 69.949219 12.835938 L 70.164062 15 L 70.707031 14.296875 C 71.429688 13.457031 72.175781 13.011719 73.207031 12.621094 C 74.683594 12.179688 76.113281 12.324219 77.539062 12.839844 "/><path style=" stroke:none;fill-rule:nonzero;fill:#f1222e;fill-opacity:1;" d="M 31.285156 4.40625 C 33.429688 4.066406 35.691406 3.769531 37.800781 4.40625 C 39.335938 5.589844 40.125 7.417969 40.941406 9.128906 C 41.386719 10.035156 41.925781 10.855469 42.496094 11.6875 C 42.6875 11.976562 42.871094 12.261719 43.058594 12.550781 L 43.347656 12.996094 C 44.117188 14.183594 44.875 15.375 45.632812 16.566406 C 45.988281 17.128906 46.347656 17.6875 46.707031 18.242188 L 47.070312 18.808594 L 47.421875 19.34375 L 47.734375 19.820312 C 47.988281 20.21875 47.988281 20.21875 48.445312 20.40625 L 48.445312 4.40625 L 52.789062 4.40625 L 52.789062 27.324219 L 45.402344 27.324219 C 44.433594 25.941406 43.515625 24.59375 42.660156 23.148438 C 41.761719 21.640625 40.847656 20.140625 39.917969 18.648438 L 39.566406 18.085938 L 38.835938 16.914062 C 36.933594 13.855469 35.042969 10.792969 33.164062 7.722656 C 32.996094 7.449219 32.832031 7.175781 32.664062 6.902344 C 32.433594 6.527344 32.199219 6.148438 31.96875 5.769531 L 31.566406 5.113281 C 31.285156 4.621094 31.285156 4.621094 31.285156 4.40625 "/><path style=" stroke:none;fill-rule:nonzero;fill:#f12632;fill-opacity:1;" d="M 124.03125 5.054688 L 129.027344 5.054688 L 129.027344 27.324219 L 124.25 27.324219 L 124.03125 25.378906 L 123.476562 26.082031 C 122.792969 26.875 122.15625 27.300781 121.207031 27.757812 C 120.078125 28.109375 118.902344 28.074219 117.734375 27.972656 C 116.449219 27.65625 115.339844 27.09375 114.375 26.191406 C 113.394531 25.070312 112.859375 23.789062 112.519531 22.351562 C 112.3125 20.324219 112.3125 18.132812 113.074219 16.222656 C 113.75 14.992188 114.648438 13.953125 115.820312 13.167969 C 117.042969 12.523438 118.226562 12.335938 119.601562 12.359375 C 120.5 12.4375 121.273438 12.648438 122.078125 13.054688 C 122.710938 13.507812 123.296875 13.984375 123.816406 14.566406 L 123.816406 15 L 124.25 15 L 124.140625 14.585938 C 123.992188 13.679688 124.007812 12.792969 124.011719 11.875 L 124.011719 11.28125 C 124.011719 10.660156 124.015625 10.039062 124.019531 9.417969 C 124.019531 8.996094 124.019531 8.574219 124.023438 8.152344 C 124.023438 7.121094 124.027344 6.085938 124.03125 5.054688 M 118.601562 17.160156 C 118.164062 17.71875 117.828125 18.21875 117.570312 18.878906 C 117.421875 20.109375 117.5 21.171875 117.929688 22.332031 C 118.179688 22.808594 118.40625 23.097656 118.820312 23.445312 C 119.507812 23.863281 120.097656 23.945312 120.898438 23.972656 C 121.613281 23.933594 122.136719 23.84375 122.824219 23.621094 C 123.496094 23.132812 123.84375 22.636719 124.25 21.917969 C 124.566406 20.972656 124.570312 20.097656 124.46875 19.109375 C 124.183594 18.15625 123.753906 17.527344 123.042969 16.835938 C 122.140625 16.445312 121.449219 16.402344 120.476562 16.445312 C 119.714844 16.535156 119.222656 16.710938 118.601562 17.160156 M 101.847656 12.824219 C 102.898438 13.34375 103.664062 14.183594 104.484375 15 L 104.484375 12.835938 L 109.046875 12.835938 L 109.046875 27.324219 L 104.484375 27.324219 L 104.265625 25.378906 L 103.804688 25.972656 C 103.066406 26.851562 102.269531 27.382812 101.199219 27.808594 C 99.890625 28.0625 98.554688 28.15625 97.242188 27.855469 C 96.304688 27.53125 95.476562 27.089844 94.710938 26.460938 C 93.484375 24.980469 92.859375 23.359375 92.539062 21.484375 C 92.378906 19.382812 92.714844 17.527344 93.554688 15.59375 C 94.09375 14.601562 94.878906 13.914062 95.796875 13.269531 C 97.679688 12.21875 99.832031 12.089844 101.847656 12.824219 M 99.195312 16.773438 C 98.535156 17.324219 98.0625 17.867188 97.75 18.675781 C 97.625 19.769531 97.582031 20.910156 97.890625 21.976562 C 98.242188 22.664062 98.691406 23.058594 99.296875 23.527344 C 100.117188 23.933594 100.890625 23.988281 101.796875 23.949219 C 102.375 23.882812 102.375 23.882812 103.058594 23.472656 L 103.613281 23 L 103.996094 22.703125 C 104.402344 22.175781 104.542969 21.699219 104.699219 21.054688 C 104.792969 19.917969 104.703125 19.03125 104.265625 17.976562 C 103.941406 17.402344 103.515625 17.082031 102.964844 16.730469 C 102.171875 16.335938 101.289062 16.417969 100.417969 16.421875 C 99.71875 16.472656 99.71875 16.472656 99.195312 16.773438 "/><path style=" stroke:none;fill-rule:nonzero;fill:#f1222e;fill-opacity:1;" d="M 4.066406 3.488281 C 4.785156 3.757812 4.785156 3.757812 5.21875 4.191406 C 5.878906 4.214844 6.519531 4.214844 7.179688 4.191406 L 8.445312 4.167969 L 9.128906 4.148438 C 10.316406 4.125 11.507812 4.113281 12.695312 4.105469 C 14.210938 4.089844 15.726562 4.070312 17.238281 4.027344 C 18.460938 3.992188 19.683594 3.976562 20.90625 3.976562 C 21.371094 3.972656 21.835938 3.964844 22.300781 3.945312 C 25.257812 3.828125 25.257812 3.828125 26.507812 4.40625 C 27.609375 5.398438 28.261719 6.703125 28.882812 8.03125 C 29.183594 8.664062 29.542969 9.234375 29.925781 9.824219 C 30.101562 10.101562 30.261719 10.386719 30.414062 10.675781 L 30.414062 11.109375 L 2.613281 11.109375 L 2.613281 5.054688 L 1.746094 4.621094 C 1.894531 4.214844 1.894531 4.214844 2.179688 3.757812 C 2.90625 3.304688 3.214844 3.316406 4.066406 3.488281 "/><path style=" stroke:none;fill-rule:nonzero;fill:#f1232e;fill-opacity:1;" d="M 143.796875 13.054688 C 145.28125 13.71875 146.367188 14.597656 147.339844 15.898438 C 148.140625 17.234375 148.59375 18.753906 148.6875 20.308594 C 148.597656 21.796875 148.121094 23.203125 147.332031 24.464844 C 146.277344 25.859375 145.117188 26.835938 143.515625 27.546875 C 141.804688 28.152344 139.972656 28.167969 138.195312 27.871094 C 136.65625 27.472656 135.402344 26.703125 134.246094 25.625 C 133.1875 24.5 132.578125 23.292969 132.125 21.824219 C 131.953125 20.089844 132.03125 18.566406 132.722656 16.945312 C 133.429688 15.625 134.304688 14.558594 135.542969 13.703125 C 138.097656 12.125 141.015625 12.011719 143.796875 13.054688 M 138.585938 16.945312 C 138.035156 17.445312 137.617188 18.007812 137.28125 18.675781 C 137.25 19.164062 137.234375 19.65625 137.226562 20.148438 L 137.210938 20.949219 C 137.238281 21.703125 137.238281 21.703125 137.582031 22.308594 C 138.019531 22.898438 138.394531 23.261719 139.019531 23.648438 C 139.671875 23.804688 140.105469 23.894531 140.757812 23.863281 C 141.578125 23.652344 141.578125 23.652344 142.277344 23.214844 C 142.734375 22.726562 143.066406 22.296875 143.363281 21.703125 C 143.46875 20.382812 143.550781 19.125 143.039062 17.890625 C 142.355469 17.246094 141.648438 16.824219 140.757812 16.511719 C 139.9375 16.511719 139.355469 16.65625 138.585938 16.945312 "/><path style=" stroke:none;fill-rule:nonzero;fill:#333f9e;fill-opacity:1;" d="M 54.089844 30.132812 C 54.972656 30.101562 55.855469 30.144531 56.738281 30.175781 L 57.488281 30.1875 C 59.273438 30.246094 59.273438 30.246094 59.972656 30.539062 C 60.605469 30.949219 61.082031 31.441406 61.476562 32.082031 C 61.738281 32.863281 61.765625 33.417969 61.695312 34.242188 C 61.316406 34.9375 60.957031 35.425781 60.363281 35.945312 L 59.957031 36.1875 L 59.523438 36.1875 C 60.207031 37.492188 60.9375 38.75 61.910156 39.863281 L 62.34375 40.082031 L 62.523438 39.328125 C 62.761719 38.382812 63.0625 37.464844 63.386719 36.542969 L 63.554688 36.042969 C 63.675781 35.699219 63.792969 35.355469 63.914062 35.011719 C 64.097656 34.484375 64.28125 33.953125 64.460938 33.425781 L 64.808594 32.421875 L 64.976562 31.941406 C 65.359375 30.832031 65.359375 30.832031 65.601562 30.351562 L 69.296875 30.351562 C 69.761719 31.664062 70.226562 32.976562 70.6875 34.289062 C 70.847656 34.734375 71.003906 35.179688 71.160156 35.625 C 71.390625 36.269531 71.617188 36.910156 71.839844 37.550781 L 72.058594 38.15625 L 72.253906 38.722656 L 72.429688 39.21875 C 72.554688 39.648438 72.554688 39.648438 72.554688 40.296875 L 69.949219 40.296875 C 69.511719 39.214844 69.511719 39.214844 69.511719 38.566406 L 65.386719 38.78125 L 64.953125 40.296875 C 60.75 40.738281 60.75 40.738281 58.871094 40.296875 C 58.011719 39.714844 57.605469 38.980469 57.160156 38.066406 C 56.988281 37.664062 56.839844 37.25 56.699219 36.835938 L 56.480469 40.296875 L 53.875 40.296875 C 53.867188 38.882812 53.863281 37.472656 53.863281 36.058594 C 53.859375 35.578125 53.859375 35.097656 53.859375 34.617188 C 53.855469 33.925781 53.855469 33.238281 53.851562 32.546875 L 53.851562 31.289062 L 53.847656 30.753906 L 53.875 30.351562 Z M 56.480469 32.296875 L 56.480469 35.109375 C 57.195312 35.199219 57.195312 35.199219 58 35.109375 C 58.640625 34.597656 58.640625 34.597656 59.085938 34.027344 C 58.957031 33.519531 58.8125 33.011719 58.652344 32.511719 C 58.15625 32.265625 57.871094 32.273438 57.324219 32.285156 Z M 67.125 32.511719 C 66.941406 33.074219 66.761719 33.640625 66.582031 34.203125 L 66.425781 34.6875 C 66.210938 35.351562 66.039062 35.917969 66.039062 36.621094 L 68.863281 36.621094 C 68.523438 35.1875 68.195312 33.84375 67.558594 32.511719 Z M 67.125 32.511719 "/><path style=" stroke:none;fill-rule:nonzero;fill:#f12e39;fill-opacity:1;" d="M 55.828125 12.835938 L 60.824219 12.835938 L 60.824219 27.324219 L 55.613281 27.324219 C 55.605469 25.46875 55.601562 23.609375 55.601562 21.753906 C 55.597656 20.890625 55.597656 20.027344 55.59375 19.167969 C 55.59375 18.335938 55.59375 17.503906 55.589844 16.671875 C 55.589844 16.355469 55.589844 16.039062 55.589844 15.71875 C 55.585938 15.277344 55.585938 14.832031 55.585938 14.386719 L 55.585938 13.621094 L 55.613281 13.054688 Z M 55.828125 12.835938 "/><path style=" stroke:none;fill-rule:nonzero;fill:#313e9e;fill-opacity:1;" d="M 73.859375 30.351562 L 76.679688 30.351562 C 77.371094 30.988281 77.714844 31.386719 78.175781 32.160156 L 78.503906 32.667969 C 78.84375 33.191406 79.175781 33.714844 79.503906 34.242188 L 81.023438 36.40625 L 81.242188 30.351562 L 83.847656 30.351562 L 83.847656 40.296875 L 81.023438 40.296875 C 80.304688 39.636719 79.917969 39.191406 79.421875 38.390625 L 79.0625 37.859375 C 78.691406 37.308594 78.339844 36.75 77.984375 36.1875 L 76.464844 33.808594 L 76.464844 40.296875 L 73.859375 40.296875 Z M 73.859375 30.351562 "/><path style=" stroke:none;fill-rule:nonzero;fill:#34419f;fill-opacity:1;" d="M 110.230469 30.074219 C 111.382812 30.5 112.320312 30.960938 113.171875 31.863281 C 113.816406 32.773438 114.203125 33.625 114.355469 34.730469 C 114.390625 35.800781 114.363281 36.789062 113.933594 37.78125 C 113.355469 38.738281 112.578125 39.464844 111.652344 40.082031 C 110.628906 40.582031 109.5625 40.855469 108.417969 40.804688 C 107.179688 40.601562 106.113281 40.074219 105.066406 39.40625 C 104.269531 38.554688 103.761719 37.730469 103.398438 36.621094 C 103.238281 35.550781 103.234375 34.554688 103.558594 33.515625 C 104.109375 32.320312 104.933594 31.535156 105.976562 30.742188 C 107.320312 29.96875 108.714844 29.628906 110.230469 30.074219 M 107.238281 32.632812 C 106.625 33.140625 106.625 33.140625 106.234375 33.851562 C 105.996094 34.707031 105.960938 35.289062 106.097656 36.15625 C 106.289062 36.871094 106.613281 37.359375 107.089844 37.917969 C 107.703125 38.289062 108.195312 38.425781 108.910156 38.445312 C 109.460938 38.433594 109.824219 38.394531 110.316406 38.144531 C 110.824219 37.75 111.1875 37.320312 111.515625 36.769531 C 111.699219 35.984375 111.773438 35.257812 111.652344 34.457031 C 111.359375 33.667969 110.941406 33.082031 110.292969 32.527344 C 109.648438 32.277344 109.085938 32.191406 108.390625 32.222656 C 107.894531 32.289062 107.894531 32.289062 107.238281 32.632812 "/><path style=" stroke:none;fill-rule:nonzero;fill:#313e9e;fill-opacity:1;" d="M 116.214844 30.351562 L 118.957031 30.296875 L 119.8125 30.273438 C 121.617188 30.253906 121.617188 30.253906 122.320312 30.53125 C 122.8125 30.851562 123.183594 31.238281 123.570312 31.675781 C 123.9375 32.609375 123.957031 33.46875 123.816406 34.457031 C 123.460938 35.214844 123.460938 35.214844 122.945312 35.757812 C 122.515625 35.914062 122.082031 36.058594 121.644531 36.1875 L 121.839844 36.496094 C 122.132812 36.957031 122.425781 37.417969 122.714844 37.878906 C 122.816406 38.035156 122.917969 38.195312 123.023438 38.359375 L 123.320312 38.828125 L 123.589844 39.257812 C 123.816406 39.648438 123.816406 39.648438 124.03125 40.296875 C 123.066406 40.410156 122.171875 40.464844 121.207031 40.296875 C 120.5625 39.75 120.257812 39.109375 119.90625 38.351562 C 119.625 37.839844 119.332031 37.339844 119.035156 36.835938 L 118.601562 36.621094 L 118.71875 36.960938 C 118.851562 37.644531 118.789062 38.253906 118.722656 38.945312 L 118.65625 39.710938 L 118.601562 40.296875 L 116.214844 40.296875 Z M 118.820312 32.296875 C 118.777344 32.722656 118.738281 33.152344 118.699219 33.582031 L 118.628906 34.300781 L 118.601562 34.890625 L 118.820312 35.109375 C 119.550781 35.199219 119.550781 35.199219 120.339844 35.109375 C 120.914062 34.804688 120.914062 34.804688 121.207031 34.242188 C 121.226562 33.457031 121.226562 33.457031 120.992188 32.730469 L 120.339844 32.296875 C 119.832031 32.277344 119.328125 32.277344 118.820312 32.296875 "/><path style=" stroke:none;fill-rule:nonzero;fill:#33409f;fill-opacity:1;" d="M 133.589844 30.351562 L 139.890625 30.351562 L 139.890625 32.296875 L 136.195312 32.296875 L 136.195312 34.242188 L 139.671875 34.242188 L 139.671875 36.40625 L 136.195312 36.40625 L 136.195312 38.132812 L 136.949219 38.125 L 137.921875 38.121094 L 138.417969 38.117188 C 138.835938 38.113281 139.253906 38.125 139.671875 38.132812 L 139.890625 38.351562 L 139.890625 40.296875 L 133.589844 40.296875 Z M 133.589844 30.351562 "/><path style=" stroke:none;fill-rule:nonzero;fill:#313e9e;fill-opacity:1;" d="M 94.710938 30.351562 L 97.34375 30.296875 L 98.167969 30.273438 C 99.90625 30.253906 99.90625 30.253906 100.589844 30.535156 C 101.226562 30.949219 101.75 31.410156 102.09375 32.082031 C 102.316406 32.921875 102.371094 33.695312 102.21875 34.554688 C 101.976562 35.378906 101.742188 35.886719 101.144531 36.511719 C 100.382812 36.945312 99.734375 37.046875 98.859375 37.074219 L 97.097656 37.054688 L 97.097656 40.296875 L 94.710938 40.296875 Z M 97.316406 32.296875 C 97.058594 32.8125 97.070312 33.144531 97.070312 33.714844 L 97.070312 34.242188 L 97.097656 34.675781 L 97.316406 34.890625 C 97.765625 34.894531 97.765625 34.894531 98.28125 34.835938 L 98.808594 34.792969 L 99.269531 34.675781 L 99.707031 34.027344 C 99.707031 33.359375 99.707031 33.359375 99.488281 32.730469 C 99.128906 32.398438 99.128906 32.398438 98.621094 32.296875 C 97.929688 32.261719 97.929688 32.261719 97.316406 32.296875 "/><path style=" stroke:none;fill-rule:nonzero;fill:#fc2531;fill-opacity:1;" d="M 143.796875 13.054688 C 145.28125 13.71875 146.367188 14.597656 147.339844 15.898438 C 148.140625 17.234375 148.59375 18.753906 148.6875 20.308594 C 148.597656 21.796875 148.121094 23.203125 147.332031 24.464844 C 146.277344 25.859375 145.117188 26.835938 143.515625 27.546875 C 141.804688 28.152344 139.972656 28.167969 138.195312 27.871094 C 136.65625 27.472656 135.402344 26.703125 134.246094 25.625 C 133.1875 24.5 132.578125 23.292969 132.125 21.824219 C 131.953125 20.089844 132.03125 18.566406 132.722656 16.945312 C 133.429688 15.625 134.304688 14.558594 135.542969 13.703125 C 138.097656 12.125 141.015625 12.011719 143.796875 13.054688 M 136.386719 14.296875 C 135.261719 15.171875 134.332031 15.984375 133.726562 17.296875 C 133.207031 18.605469 132.988281 19.863281 133.15625 21.269531 C 133.386719 22.019531 133.6875 22.722656 134.023438 23.433594 L 134.226562 23.882812 C 134.695312 24.714844 135.425781 25.261719 136.195312 25.808594 C 137.503906 26.546875 138.929688 27.292969 140.453125 27.375 C 141.785156 27.242188 143.160156 26.84375 144.308594 26.152344 L 144.667969 25.808594 C 144.84375 25.03125 144.84375 25.03125 144.882812 24.296875 L 145.589844 24.296875 L 146.40625 24.082031 C 146.960938 23.394531 147.207031 22.597656 147.4375 21.757812 L 147.492188 21.054688 L 147.546875 20.488281 C 147.621094 19.210938 147.488281 18.257812 146.933594 17.09375 C 146.230469 15.835938 145.460938 14.84375 144.222656 14.074219 C 142.753906 13.300781 141.382812 13.207031 139.734375 13.222656 C 138.464844 13.308594 137.488281 13.683594 136.386719 14.296875 "/><path style=" stroke:none;fill-rule:nonzero;fill:#35419f;fill-opacity:1;" d="M 145.972656 29.917969 C 146.648438 30.160156 147.285156 30.453125 147.925781 30.785156 C 147.765625 31.460938 147.542969 32.085938 147.273438 32.730469 L 146.839844 32.511719 C 146 32.234375 145.332031 32.265625 144.449219 32.296875 L 144.234375 33.378906 L 144.871094 33.648438 L 145.289062 33.828125 C 145.613281 33.964844 145.9375 34.101562 146.265625 34.230469 C 147.601562 34.78125 147.601562 34.78125 148.144531 35.335938 C 148.460938 35.949219 148.578125 36.433594 148.632812 37.121094 C 148.570312 38.007812 148.398438 38.46875 147.925781 39.214844 C 147.394531 39.84375 146.980469 40.230469 146.230469 40.582031 C 145.152344 40.8125 144.28125 40.867188 143.226562 40.566406 C 141.761719 40.027344 141.761719 40.027344 141.238281 39.402344 L 140.976562 39 L 142.0625 37.269531 L 142.808594 37.808594 C 143.34375 38.148438 143.714844 38.339844 144.347656 38.421875 C 144.820312 38.417969 145.285156 38.398438 145.753906 38.351562 L 145.753906 36.835938 L 145.117188 36.566406 L 144.699219 36.386719 C 144.375 36.25 144.046875 36.113281 143.71875 35.984375 C 142.410156 35.445312 142.410156 35.445312 141.84375 34.933594 C 141.535156 34.257812 141.449219 33.683594 141.410156 32.945312 C 141.570312 32.210938 141.808594 31.703125 142.210938 31.066406 C 143.242188 30.039062 144.535156 29.667969 145.96875 29.917969 "/><path style=" stroke:none;fill-rule:nonzero;fill:#34419f;fill-opacity:1;" d="M 91.707031 30.339844 L 92.101562 30.566406 C 92.289062 30.980469 92.289062 30.980469 92.320312 31.433594 C 92.007812 32.132812 92.007812 32.132812 91.667969 32.730469 L 91.234375 32.511719 C 90.394531 32.234375 89.726562 32.265625 88.84375 32.296875 L 88.628906 33.378906 L 89.265625 33.648438 L 89.683594 33.828125 C 90.007812 33.964844 90.332031 34.101562 90.660156 34.230469 C 91.996094 34.78125 91.996094 34.78125 92.539062 35.335938 C 92.855469 35.949219 92.972656 36.433594 93.027344 37.121094 C 92.964844 38.011719 92.808594 38.46875 92.320312 39.214844 C 91.585938 39.914062 90.921875 40.476562 89.929688 40.730469 C 89.015625 40.863281 88.253906 40.824219 87.375 40.523438 C 86.28125 40.027344 86.28125 40.027344 85.804688 39.648438 C 85.609375 39.113281 85.609375 39.113281 85.585938 38.566406 C 86.007812 37.851562 86.007812 37.851562 86.457031 37.269531 L 86.765625 37.507812 C 87.417969 37.960938 87.945312 38.316406 88.742188 38.421875 C 89.214844 38.417969 89.679688 38.398438 90.148438 38.351562 L 90.148438 36.835938 L 89.511719 36.566406 L 89.09375 36.386719 C 88.769531 36.25 88.441406 36.113281 88.113281 35.984375 C 86.804688 35.445312 86.804688 35.445312 86.238281 34.933594 C 85.929688 34.257812 85.84375 33.683594 85.804688 32.945312 C 85.972656 32.121094 86.246094 31.640625 86.726562 30.945312 C 87.324219 30.351562 87.324219 30.351562 87.949219 30.054688 C 89.316406 29.78125 90.394531 29.941406 91.707031 30.339844 "/><path style=" stroke:none;fill-rule:nonzero;fill:#3b47a2;fill-opacity:1;" d="M 50.832031 30.109375 L 51.285156 30.105469 C 51.640625 30.105469 51.996094 30.117188 52.355469 30.132812 L 52.570312 30.351562 C 52.601562 31.070312 52.582031 31.789062 52.570312 32.511719 L 50.183594 32.511719 L 50.183594 40.296875 L 47.359375 40.296875 L 47.359375 32.511719 L 45.1875 32.511719 L 45.1875 30.351562 C 47.066406 30.222656 48.945312 30.113281 50.832031 30.109375 "/><path style=" stroke:none;fill-rule:nonzero;fill:#323e9e;fill-opacity:1;" d="M 124.683594 30.132812 L 132.070312 30.351562 L 132.070312 32.511719 L 129.898438 32.730469 L 129.90625 33.175781 C 129.925781 35.554688 129.800781 37.921875 129.679688 40.296875 L 127.074219 40.296875 L 127.074219 32.511719 L 124.683594 32.511719 Z M 124.683594 30.132812 "/><path style=" stroke:none;fill-rule:nonzero;fill:#f12632;fill-opacity:1;" d="M 59.085938 5.488281 C 59.941406 5.945312 60.527344 6.402344 61.042969 7.214844 C 61.203125 7.957031 61.1875 8.636719 61.042969 9.378906 C 60.695312 9.984375 60.289062 10.457031 59.738281 10.890625 C 58.960938 11.148438 58.382812 11.164062 57.566406 11.109375 C 56.921875 10.824219 56.503906 10.480469 55.980469 10.015625 C 55.605469 9.371094 55.523438 9.050781 55.476562 8.324219 C 55.5 7.6875 55.5625 7.300781 55.882812 6.746094 C 56.207031 6.355469 56.515625 6.019531 56.914062 5.703125 C 57.703125 5.441406 58.261719 5.417969 59.085938 5.488281 "/><path style=" stroke:none;fill-rule:nonzero;fill:#db2834;fill-opacity:1;" d="M 4.785156 7.433594 L 21.945312 7.433594 L 21.945312 7.648438 C 19.996094 7.867188 18.050781 7.910156 16.089844 7.933594 L 15.109375 7.945312 C 14.253906 7.957031 13.398438 7.96875 12.542969 7.980469 C 11.667969 7.992188 10.792969 8.003906 9.917969 8.015625 C 8.207031 8.039062 6.496094 8.058594 4.785156 8.082031 Z M 4.785156 7.433594 "/><path style=" stroke:none;fill-rule:nonzero;fill:#fefefe;fill-opacity:1;" d="M 4.066406 3.472656 L 4.785156 3.757812 L 5.21875 4.40625 L 4.703125 4.4375 L 4.039062 4.488281 C 3.820312 4.5 3.601562 4.515625 3.375 4.53125 L 2.832031 4.621094 L 2.613281 5.054688 L 1.746094 4.621094 C 1.894531 4.214844 1.894531 4.214844 2.179688 3.757812 C 2.898438 3.304688 3.21875 3.316406 4.066406 3.472656 "/><path style=" stroke:none;fill-rule:nonzero;fill:#db2834;fill-opacity:1;" d="M 58 7.433594 C 58.542969 7.378906 58.542969 7.378906 59.085938 7.433594 L 59.523438 7.863281 C 59.480469 8.40625 59.480469 8.40625 59.304688 8.945312 L 58.652344 9.378906 C 58.179688 9.296875 58.179688 9.296875 57.785156 9.164062 C 57.648438 8.539062 57.648438 8.539062 57.566406 7.863281 Z M 34.542969 6.136719 C 35.070312 6.3125 35.070312 6.3125 35.628906 6.566406 L 35.847656 7.214844 L 35.410156 7.214844 L 35.195312 7.863281 L 34.542969 7.433594 C 34.378906 6.878906 34.378906 6.878906 34.324219 6.351562 Z M 34.542969 6.136719 "/></g></svg>