<svg xmlns="http://www.w3.org/2000/svg" xmlns:xlink="http://www.w3.org/1999/xlink" width="200" zoomAndPan="magnify" viewBox="0 0 150 45.749998" height="61" preserveAspectRatio="xMidYMid meet" version="1.2"><defs><clipPath id="880aee0b43"><path d="M 26 9.050781 L 57 9.050781 L 57 31 L 26 31 Z M 26 9.050781 "/></clipPath><clipPath id="980b4f93d7"><path d="M 69 9.050781 L 89 9.050781 L 89 36 L 69 36 Z M 69 9.050781 "/></clipPath><clipPath id="e781cd49e2"><path d="M 88 9.050781 L 107 9.050781 L 107 31 L 88 31 Z M 88 9.050781 "/></clipPath><clipPath id="877dcc1324"><path d="M 124 9.050781 L 143 9.050781 L 143 31 L 124 31 Z M 124 9.050781 "/></clipPath><clipPath id="f88b8a920c"><path d="M 108 9.050781 L 126 9.050781 L 126 31 L 108 31 Z M 108 9.050781 "/></clipPath><clipPath id="b4a5a64ddf"><path d="M 3 16 L 18 16 L 18 36.652344 L 3 36.652344 Z M 3 16 "/></clipPath><clipPath id="9554e16115"><path d="M 55 9.050781 L 63 9.050781 L 63 19 L 55 19 Z M 55 9.050781 "/></clipPath><clipPath id="5b8509cc90"><path d="M 12 9.050781 L 19 9.050781 L 19 16 L 12 16 Z M 12 9.050781 "/></clipPath><clipPath id="bc85bc469a"><path d="M 21 9.050781 L 28 9.050781 L 28 15 L 21 15 Z M 21 9.050781 "/></clipPath><clipPath id="cfc3deffe4"><path d="M 65 9.050781 L 72 9.050781 L 72 15 L 65 15 Z M 65 9.050781 "/></clipPath><clipPath id="48b192f6ca"><path d="M 3 34 L 5 34 L 5 36.652344 L 3 36.652344 Z M 3 34 "/></clipPath><clipPath id="a45ab28370"><path d="M 103 9.050781 L 107 9.050781 L 107 11 L 103 11 Z M 103 9.050781 "/></clipPath></defs><g id="2e1fb510dd"><g clip-rule="nonzero" clip-path="url(#880aee0b43)"><path style=" stroke:none;fill-rule:nonzero;fill:#0766b1;fill-opacity:1;" d="M 29.613281 9.878906 C 30.703125 9.871094 31.792969 9.863281 32.878906 9.859375 C 33.386719 9.855469 33.890625 9.855469 34.394531 9.847656 C 34.882812 9.84375 35.371094 9.84375 35.859375 9.839844 C 36.046875 9.839844 36.234375 9.839844 36.417969 9.835938 C 38.054688 9.816406 38.054688 9.816406 38.671875 10.078125 C 38.992188 10.261719 39.277344 10.4375 39.558594 10.683594 L 39.785156 10.875 C 40.441406 11.625 40.574219 12.566406 40.769531 13.511719 L 40.984375 14.515625 L 41.105469 15.074219 C 41.34375 16.210938 41.59375 17.351562 41.839844 18.488281 L 41.917969 18.855469 C 42.289062 20.566406 42.679688 22.273438 43.089844 23.972656 C 43.34375 25.003906 43.578125 26.039062 43.804688 27.078125 L 43.882812 27.453125 C 44.066406 28.308594 44.226562 29.167969 44.375 30.027344 C 44.96875 29.511719 45.3125 28.855469 45.699219 28.183594 C 45.847656 27.933594 45.992188 27.679688 46.140625 27.429688 L 46.359375 27.058594 C 46.628906 26.605469 46.90625 26.160156 47.195312 25.714844 C 47.691406 24.945312 48.179688 24.167969 48.65625 23.382812 C 48.921875 22.945312 49.195312 22.519531 49.492188 22.101562 L 49.800781 21.671875 L 50.074219 21.300781 C 50.285156 20.921875 50.285156 20.921875 50.253906 20.46875 C 50.078125 19.808594 49.777344 19.296875 49.433594 18.710938 C 49.269531 18.417969 49.105469 18.121094 48.945312 17.828125 L 48.679688 17.339844 C 47.328125 14.878906 46.027344 12.398438 44.785156 9.878906 C 45.722656 9.84375 46.664062 9.820312 47.601562 9.804688 C 47.921875 9.796875 48.242188 9.789062 48.558594 9.777344 C 49.019531 9.757812 49.476562 9.753906 49.9375 9.746094 L 50.367188 9.722656 C 50.78125 9.722656 51.09375 9.738281 51.484375 9.878906 C 51.859375 10.296875 52.078125 10.746094 52.300781 11.261719 L 52.523438 11.667969 L 52.695312 11.996094 L 52.886719 12.375 L 53.089844 12.769531 L 53.523438 13.613281 L 53.738281 14.035156 C 53.980469 14.503906 54.222656 14.976562 54.46875 15.445312 C 54.578125 15.65625 54.6875 15.867188 54.796875 16.078125 C 55.105469 16.667969 55.417969 17.253906 55.738281 17.839844 L 55.953125 18.238281 C 56.089844 18.492188 56.230469 18.746094 56.371094 18.996094 L 56.558594 19.34375 L 56.726562 19.652344 L 56.8125 19.953125 C 56.675781 20.433594 56.441406 20.839844 56.1875 21.261719 L 55.980469 21.609375 L 55.761719 21.972656 L 55.539062 22.347656 C 55.089844 23.09375 54.632812 23.835938 54.164062 24.570312 C 53.914062 24.96875 53.664062 25.371094 53.421875 25.777344 C 53 26.46875 52.582031 27.15625 52.15625 27.847656 L 51.996094 28.109375 C 51.890625 28.28125 51.78125 28.449219 51.671875 28.617188 C 51.472656 28.921875 51.472656 28.921875 51.328125 29.273438 C 51.101562 29.714844 50.90625 29.988281 50.527344 30.304688 C 49.675781 30.507812 48.835938 30.476562 47.964844 30.457031 C 47.714844 30.457031 47.460938 30.457031 47.210938 30.457031 C 46.683594 30.453125 46.15625 30.449219 45.628906 30.4375 C 44.953125 30.425781 44.277344 30.421875 43.601562 30.421875 C 43.082031 30.417969 42.5625 30.414062 42.042969 30.410156 C 41.796875 30.40625 41.546875 30.40625 41.296875 30.40625 C 40.949219 30.402344 40.601562 30.394531 40.253906 30.386719 L 39.941406 30.386719 C 39.65625 30.378906 39.65625 30.378906 39.183594 30.304688 C 38.9375 30.023438 38.9375 30.023438 38.773438 29.753906 C 38.320312 29.707031 38.320312 29.707031 37.800781 29.773438 L 37.507812 29.800781 C 37.304688 29.816406 37.101562 29.835938 36.894531 29.859375 C 36.59375 29.890625 36.296875 29.917969 35.996094 29.941406 C 35.300781 30.003906 34.609375 30.066406 33.917969 30.132812 C 29.863281 30.523438 29.863281 30.523438 28.03125 29.738281 C 27.589844 29.480469 27.296875 29.207031 26.957031 28.820312 C 26.6875 28.25 26.625 27.757812 26.609375 27.128906 C 26.652344 26.671875 26.738281 26.226562 26.832031 25.777344 C 26.882812 25.511719 26.933594 25.246094 26.984375 24.980469 L 27.070312 24.550781 C 27.160156 24.058594 27.246094 23.566406 27.328125 23.070312 L 27.417969 22.546875 C 27.476562 22.210938 27.53125 21.875 27.585938 21.535156 C 27.902344 19.691406 27.902344 19.691406 28.480469 18.976562 L 28.734375 18.753906 L 28.984375 18.53125 C 30.136719 17.785156 31.453125 17.554688 32.773438 17.292969 C 33.09375 17.226562 33.414062 17.164062 33.734375 17.097656 C 33.9375 17.054688 34.140625 17.011719 34.347656 16.972656 L 34.636719 16.914062 C 35.019531 16.835938 35.371094 16.78125 35.765625 16.78125 C 35.8125 15.90625 35.667969 15.25 35.355469 14.433594 C 34.15625 14.5 32.960938 14.589844 31.769531 14.71875 C 30.773438 14.824219 29.796875 14.886719 28.796875 14.847656 C 28.960938 13.695312 29.152344 12.546875 29.351562 11.398438 L 29.429688 10.957031 Z M 33.714844 21.058594 L 33.320312 21.238281 C 32.933594 21.550781 32.808594 21.835938 32.621094 22.300781 C 32.589844 22.671875 32.574219 23.003906 32.585938 23.371094 L 32.59375 23.664062 C 32.601562 23.945312 32.609375 24.226562 32.621094 24.507812 L 32.640625 24.9375 C 32.671875 25.410156 32.703125 25.769531 32.902344 26.199219 L 33.167969 26.441406 C 34 26.53125 34.714844 26.359375 35.507812 26.128906 L 35.828125 26.042969 C 36.617188 25.820312 37.203125 25.519531 37.808594 24.949219 L 37.953125 24.644531 C 37.878906 23.855469 37.683594 23.101562 37.480469 22.335938 L 37.390625 21.980469 L 37.304688 21.636719 L 37.222656 21.332031 C 37.132812 21.019531 37.132812 21.019531 36.859375 20.644531 C 35.773438 20.496094 34.710938 20.59375 33.714844 21.058594 "/></g><g clip-rule="nonzero" clip-path="url(#980b4f93d7)"><path style=" stroke:none;fill-rule:nonzero;fill:#0565b0;fill-opacity:1;" d="M 76.597656 9.703125 L 76.921875 9.703125 C 77.273438 9.699219 77.621094 9.699219 77.972656 9.703125 L 78.707031 9.699219 C 79.222656 9.699219 79.734375 9.699219 80.25 9.699219 C 80.902344 9.699219 81.558594 9.699219 82.214844 9.695312 C 82.722656 9.691406 83.226562 9.691406 83.734375 9.691406 C 83.976562 9.691406 84.21875 9.691406 84.457031 9.691406 C 84.796875 9.6875 85.136719 9.691406 85.476562 9.691406 L 85.773438 9.6875 C 86.476562 9.695312 87.066406 9.84375 87.699219 10.15625 C 88.023438 10.363281 88.246094 10.570312 88.519531 10.847656 C 88.878906 11.578125 88.839844 12.257812 88.792969 13.054688 C 88.738281 13.527344 88.65625 13.992188 88.570312 14.460938 L 88.496094 14.859375 C 88.417969 15.289062 88.335938 15.71875 88.257812 16.152344 C 88.144531 16.765625 88.03125 17.382812 87.917969 18 L 87.828125 18.480469 C 87.621094 19.636719 87.417969 20.792969 87.226562 21.949219 L 87.144531 22.441406 C 87.039062 23.074219 86.933594 23.707031 86.832031 24.34375 C 86.761719 24.78125 86.6875 25.21875 86.613281 25.65625 L 86.550781 26.039062 C 86.398438 26.941406 86.183594 27.824219 85.789062 28.648438 C 85.332031 29.179688 84.828125 29.574219 84.199219 29.871094 C 83.328125 30.164062 82.519531 30.179688 81.617188 30.164062 L 80.851562 30.15625 C 80.453125 30.152344 80.054688 30.148438 79.65625 30.140625 C 79.269531 30.136719 78.882812 30.132812 78.496094 30.128906 L 78.140625 30.121094 C 77.390625 30.121094 76.882812 30.222656 76.21875 30.578125 C 75.785156 30.960938 75.488281 31.289062 75.265625 31.820312 C 75.207031 32.070312 75.160156 32.324219 75.121094 32.574219 L 75.050781 33.015625 L 74.980469 33.46875 L 74.839844 34.359375 L 74.777344 34.761719 C 74.71875 35.117188 74.652344 35.46875 74.582031 35.824219 L 69.25 35.824219 C 69.804688 32.433594 70.378906 29.050781 70.96875 25.667969 C 71.042969 25.242188 71.117188 24.8125 71.191406 24.386719 C 71.960938 19.980469 71.960938 19.980469 72.273438 18.242188 C 72.410156 17.457031 72.550781 16.671875 72.679688 15.886719 C 72.75 15.472656 72.820312 15.0625 72.890625 14.648438 C 72.921875 14.453125 72.957031 14.253906 72.988281 14.054688 C 73.171875 12.910156 73.382812 11.828125 74.035156 10.847656 C 74.816406 10.015625 75.453125 9.699219 76.597656 9.703125 M 76.21875 15.953125 L 76.367188 16.296875 L 76.554688 16.746094 L 76.742188 17.191406 C 77.140625 18.214844 77.152344 19.285156 77.039062 20.367188 C 76.796875 21.683594 76.21875 22.777344 75.402344 23.816406 L 75.128906 24.230469 C 75.765625 24.109375 76.296875 23.773438 76.867188 23.46875 C 77.753906 23.066406 78.59375 22.9375 79.5625 22.945312 L 79.871094 22.949219 C 81.054688 22.972656 81.902344 23.332031 82.910156 23.945312 C 83.1875 24.09375 83.433594 24.167969 83.738281 24.230469 L 83.597656 23.929688 C 83.097656 22.792969 82.734375 21.726562 82.808594 20.46875 C 83.003906 18.957031 83.449219 17.726562 84.355469 16.503906 C 84.5625 16.238281 84.5625 16.238281 84.695312 15.953125 C 84.261719 16.039062 83.941406 16.199219 83.558594 16.417969 C 82.390625 17.015625 81.113281 17.25 79.808594 17.1875 C 78.605469 17.046875 77.613281 16.648438 76.628906 15.953125 Z M 76.21875 15.953125 "/></g><g clip-rule="nonzero" clip-path="url(#e781cd49e2)"><path style=" stroke:none;fill-rule:nonzero;fill:#0767b1;fill-opacity:1;" d="M 96.507812 9.808594 C 96.738281 9.808594 96.972656 9.804688 97.203125 9.804688 C 97.6875 9.804688 98.171875 9.804688 98.652344 9.808594 C 99.269531 9.8125 99.886719 9.808594 100.507812 9.804688 C 100.984375 9.804688 101.460938 9.804688 101.9375 9.804688 C 102.167969 9.808594 102.394531 9.804688 102.621094 9.804688 C 104.613281 9.796875 104.613281 9.796875 105.324219 10.144531 C 105.675781 10.386719 105.949219 10.589844 106.210938 10.925781 L 106.40625 11.167969 C 106.613281 11.476562 106.691406 11.757812 106.730469 12.128906 C 106.761719 13.609375 106.511719 15.046875 106.269531 16.503906 C 106.195312 16.953125 106.125 17.402344 106.054688 17.855469 C 106.007812 18.144531 105.957031 18.433594 105.910156 18.722656 L 105.847656 19.125 C 105.699219 19.988281 105.460938 20.769531 104.921875 21.472656 L 104.511719 21.609375 L 104.511719 21.886719 L 103.855469 22.152344 L 103.484375 22.304688 C 102.964844 22.507812 102.570312 22.59375 102.015625 22.601562 L 101.570312 22.605469 L 101.089844 22.609375 L 100.089844 22.625 C 99.5625 22.628906 99.035156 22.636719 98.507812 22.640625 C 97.996094 22.648438 97.488281 22.65625 96.980469 22.660156 L 96.5 22.664062 L 96.058594 22.671875 L 95.664062 22.675781 L 95.355469 22.714844 L 95.082031 22.988281 C 95.011719 23.320312 95.011719 23.320312 94.988281 23.6875 L 94.953125 24.066406 L 94.945312 24.371094 L 95.082031 24.507812 C 95.378906 24.523438 95.675781 24.53125 95.976562 24.535156 L 96.257812 24.539062 C 96.566406 24.542969 96.878906 24.546875 97.1875 24.550781 L 97.832031 24.558594 C 98.394531 24.566406 98.960938 24.574219 99.527344 24.582031 C 100.101562 24.589844 100.679688 24.597656 101.253906 24.605469 C 102.386719 24.617188 103.515625 24.632812 104.648438 24.644531 C 104.550781 25.8125 104.394531 26.945312 104.1875 28.097656 L 104.101562 28.601562 L 104.011719 29.089844 L 103.9375 29.523438 C 103.828125 29.890625 103.828125 29.890625 103.652344 30.117188 C 103.417969 30.304688 103.417969 30.304688 103.160156 30.355469 L 102.867188 30.355469 L 102.527344 30.359375 L 101.761719 30.359375 C 101.335938 30.363281 100.90625 30.359375 100.476562 30.359375 C 100.179688 30.359375 99.882812 30.359375 99.585938 30.359375 C 98.960938 30.359375 98.335938 30.359375 97.710938 30.359375 C 96.910156 30.355469 96.109375 30.355469 95.308594 30.359375 C 94.695312 30.359375 94.078125 30.359375 93.464844 30.359375 C 93.167969 30.359375 92.875 30.359375 92.578125 30.359375 C 92.167969 30.363281 91.753906 30.359375 91.339844 30.359375 L 90.972656 30.359375 C 90.429688 30.355469 90.058594 30.316406 89.546875 30.113281 C 89.203125 29.890625 89.203125 29.890625 88.949219 29.5625 C 88.417969 27.832031 89 25.832031 89.308594 24.101562 C 89.355469 23.824219 89.402344 23.546875 89.453125 23.265625 C 89.707031 21.796875 89.96875 20.324219 90.234375 18.855469 C 90.390625 18.007812 90.535156 17.160156 90.679688 16.3125 C 90.738281 15.96875 90.796875 15.621094 90.855469 15.277344 C 90.894531 15.046875 90.933594 14.8125 90.972656 14.582031 C 91.027344 14.234375 91.089844 13.886719 91.148438 13.542969 L 91.199219 13.230469 C 91.34375 12.40625 91.625 11.644531 92.15625 10.992188 C 93.519531 9.863281 94.804688 9.796875 96.507812 9.808594 M 96.402344 14.890625 C 96.136719 15.128906 96.136719 15.128906 96.03125 15.582031 L 95.9375 16.125 L 95.835938 16.660156 C 95.769531 17.167969 95.757812 17.648438 95.765625 18.160156 C 96.421875 18.171875 97.078125 18.179688 97.734375 18.183594 C 97.957031 18.183594 98.183594 18.1875 98.40625 18.191406 C 98.726562 18.195312 99.046875 18.199219 99.367188 18.199219 L 99.671875 18.207031 C 99.984375 18.210938 99.984375 18.210938 100.410156 18.160156 C 100.734375 17.675781 100.8125 17.222656 100.914062 16.660156 L 100.976562 16.363281 C 101.074219 15.820312 101.113281 15.382812 100.957031 14.847656 C 100.21875 14.597656 99.417969 14.679688 98.644531 14.675781 L 98.109375 14.667969 L 97.597656 14.664062 L 97.128906 14.660156 C 96.71875 14.683594 96.71875 14.683594 96.402344 14.890625 "/></g><g clip-rule="nonzero" clip-path="url(#877dcc1324)"><path style=" stroke:none;fill-rule:nonzero;fill:#0a68b2;fill-opacity:1;" d="M 127.609375 9.878906 C 128.714844 9.871094 129.820312 9.863281 130.929688 9.859375 C 131.441406 9.855469 131.957031 9.855469 132.46875 9.847656 C 132.964844 9.84375 133.460938 9.84375 133.957031 9.839844 C 134.148438 9.839844 134.335938 9.839844 134.523438 9.835938 C 136.1875 9.816406 136.1875 9.816406 136.804688 10.078125 C 137.324219 10.378906 137.746094 10.652344 138.132812 11.121094 C 138.621094 12 138.777344 13.039062 138.992188 14.011719 L 139.082031 14.414062 L 139.269531 15.257812 C 139.359375 15.660156 139.449219 16.0625 139.539062 16.464844 C 139.722656 17.273438 139.902344 18.085938 140.082031 18.894531 L 140.179688 19.328125 C 140.53125 20.910156 140.878906 22.492188 141.222656 24.078125 C 141.382812 24.8125 141.542969 25.546875 141.699219 26.28125 L 141.839844 26.933594 L 141.90625 27.242188 C 142.066406 27.972656 142.242188 28.703125 142.4375 29.425781 C 142.507812 29.753906 142.507812 29.753906 142.507812 30.304688 C 141.753906 30.316406 141.003906 30.328125 140.253906 30.335938 C 139.996094 30.335938 139.742188 30.339844 139.484375 30.34375 C 139.117188 30.351562 138.75 30.355469 138.382812 30.359375 L 138.035156 30.367188 C 137.710938 30.367188 137.710938 30.367188 137.175781 30.304688 C 137.035156 30.125 136.898438 29.941406 136.765625 29.753906 C 136.3125 29.707031 136.3125 29.707031 135.796875 29.773438 L 135.503906 29.800781 C 135.300781 29.816406 135.09375 29.835938 134.890625 29.859375 C 134.589844 29.890625 134.289062 29.917969 133.988281 29.941406 C 133.296875 30.003906 132.605469 30.066406 131.910156 30.132812 C 127.808594 30.527344 127.808594 30.527344 126.046875 29.726562 C 125.535156 29.441406 125.191406 29.144531 124.855469 28.667969 C 124.585938 27.976562 124.578125 27.292969 124.679688 26.570312 C 124.722656 26.308594 124.769531 26.050781 124.8125 25.789062 L 124.886719 25.367188 C 124.933594 25.074219 124.984375 24.78125 125.035156 24.488281 C 125.113281 24.046875 125.191406 23.601562 125.265625 23.15625 C 125.3125 22.867188 125.363281 22.582031 125.414062 22.296875 L 125.480469 21.898438 C 125.863281 19.730469 125.863281 19.730469 126.324219 19.109375 C 126.847656 18.527344 127.445312 18.191406 128.15625 17.882812 C 128.5625 17.761719 128.96875 17.675781 129.382812 17.59375 L 129.726562 17.523438 C 130.082031 17.449219 130.4375 17.378906 130.796875 17.304688 C 131.15625 17.234375 131.511719 17.160156 131.871094 17.085938 C 132.09375 17.039062 132.316406 16.996094 132.539062 16.949219 C 132.957031 16.867188 133.355469 16.777344 133.761719 16.640625 C 133.8125 15.824219 133.636719 15.199219 133.351562 14.433594 C 132.148438 14.5 130.957031 14.589844 129.761719 14.71875 C 128.769531 14.824219 127.789062 14.886719 126.789062 14.847656 C 126.929688 13.640625 127.117188 12.449219 127.347656 11.253906 L 127.421875 10.851562 C 127.484375 10.527344 127.546875 10.203125 127.609375 9.878906 M 131.164062 21.480469 C 130.867188 21.753906 130.867188 21.753906 130.617188 22.164062 C 130.59375 22.503906 130.585938 22.847656 130.589844 23.1875 L 130.59375 23.484375 C 130.601562 23.78125 130.609375 24.074219 130.617188 24.371094 L 130.628906 24.871094 L 130.652344 25.308594 L 130.667969 25.699219 C 130.730469 26.039062 130.730469 26.039062 130.972656 26.277344 C 131.304688 26.464844 131.304688 26.464844 131.734375 26.484375 C 132.347656 26.433594 132.902344 26.300781 133.496094 26.128906 L 133.816406 26.042969 C 134.476562 25.859375 134.992188 25.632812 135.535156 25.199219 C 135.804688 24.941406 135.804688 24.941406 135.945312 24.644531 C 135.957031 24.355469 135.957031 24.355469 135.871094 24.050781 C 135.839844 23.933594 135.8125 23.8125 135.785156 23.6875 L 135.671875 23.265625 L 135.546875 22.734375 C 135.324219 21.773438 135.324219 21.773438 134.957031 20.863281 L 134.714844 20.644531 C 133.417969 20.394531 132.230469 20.738281 131.164062 21.480469 "/></g><g clip-rule="nonzero" clip-path="url(#f88b8a920c)"><path style=" stroke:none;fill-rule:nonzero;fill:#0666b0;fill-opacity:1;" d="M 112.089844 9.820312 L 112.484375 9.800781 C 112.851562 9.796875 113.175781 9.800781 113.53125 9.878906 C 113.902344 10.289062 114.042969 10.601562 114.214844 11.121094 L 114.898438 11.261719 L 115 10.949219 C 115.1875 10.535156 115.378906 10.3125 115.71875 10.019531 C 116.183594 9.863281 116.539062 9.863281 117.027344 9.863281 L 117.304688 9.863281 C 117.601562 9.863281 117.902344 9.867188 118.203125 9.867188 L 118.824219 9.867188 C 119.371094 9.867188 119.917969 9.871094 120.464844 9.871094 C 121.023438 9.871094 121.582031 9.875 122.140625 9.875 C 123.234375 9.875 124.328125 9.878906 125.421875 9.878906 C 125.199219 11.550781 124.957031 13.203125 124.601562 14.847656 L 124.128906 14.855469 C 123.546875 14.867188 122.960938 14.878906 122.378906 14.890625 C 122.125 14.898438 121.875 14.902344 121.621094 14.90625 C 121.257812 14.914062 120.894531 14.921875 120.53125 14.929688 L 120.195312 14.933594 C 119.519531 14.953125 118.953125 15.035156 118.316406 15.261719 C 117.921875 15.492188 117.921875 15.492188 117.632812 15.8125 C 117.238281 16.789062 117.15625 17.964844 116.972656 19 L 116.898438 19.398438 C 116.640625 20.84375 116.382812 22.289062 116.128906 23.730469 L 116.058594 24.136719 C 115.703125 26.144531 115.363281 28.15625 115.035156 30.164062 L 109.707031 30.164062 C 110.011719 27.535156 110.011719 27.535156 110.175781 26.644531 L 110.28125 26.058594 L 110.335938 25.765625 C 110.421875 25.289062 110.503906 24.8125 110.585938 24.335938 L 110.632812 24.046875 C 110.789062 23.125 110.945312 22.199219 111.101562 21.273438 C 111.171875 20.859375 111.242188 20.445312 111.3125 20.03125 C 111.394531 19.554688 111.476562 19.074219 111.554688 18.59375 C 111.601562 18.332031 111.644531 18.066406 111.691406 17.804688 L 111.773438 17.320312 L 111.84375 16.902344 C 111.894531 16.484375 111.917969 16.09375 111.890625 15.675781 C 111.675781 15.34375 111.675781 15.34375 111.34375 15.125 C 110.6875 14.9375 110 14.941406 109.320312 14.910156 L 108.957031 14.890625 C 108.660156 14.875 108.363281 14.863281 108.066406 14.847656 C 108.199219 13.40625 108.339844 12.105469 109.140625 10.863281 C 110.054688 9.941406 110.863281 9.84375 112.089844 9.820312 "/></g><g clip-rule="nonzero" clip-path="url(#b4a5a64ddf)"><path style=" stroke:none;fill-rule:nonzero;fill:#0a68b1;fill-opacity:1;" d="M 11.984375 16.917969 C 12.398438 16.90625 12.808594 16.902344 13.222656 16.90625 L 13.601562 16.90625 C 13.996094 16.90625 14.394531 16.90625 14.792969 16.910156 C 15.0625 16.910156 15.332031 16.910156 15.601562 16.910156 C 16.265625 16.914062 16.925781 16.914062 17.585938 16.917969 L 17.722656 17.195312 C 17.6875 17.523438 17.640625 17.84375 17.585938 18.167969 L 17.539062 18.46875 C 17.484375 18.800781 17.429688 19.132812 17.375 19.460938 L 17.261719 20.15625 C 17.125 20.980469 16.988281 21.804688 16.847656 22.628906 C 16.644531 23.84375 16.4375 25.058594 16.230469 26.273438 C 16.121094 26.921875 16.011719 27.570312 15.90625 28.21875 C 15.65625 29.738281 15.398438 31.257812 15.066406 32.761719 L 14.996094 33.105469 C 14.808594 33.925781 14.457031 34.511719 13.898438 35.132812 C 13.5625 35.460938 13.242188 35.65625 12.804688 35.824219 C 10.945312 36.21875 9.023438 36.132812 7.132812 36.117188 C 6.820312 36.117188 6.507812 36.113281 6.195312 36.113281 C 5.4375 36.109375 4.679688 36.105469 3.921875 36.101562 C 3.742188 35.472656 3.832031 34.925781 3.945312 34.296875 L 4 33.976562 C 4.039062 33.753906 4.078125 33.53125 4.117188 33.308594 C 4.175781 32.96875 4.234375 32.628906 4.292969 32.289062 C 4.332031 32.070312 4.367188 31.855469 4.40625 31.640625 L 4.460938 31.328125 C 4.585938 30.613281 4.585938 30.613281 4.742188 30.304688 L 5.023438 30.296875 C 5.453125 30.289062 5.882812 30.273438 6.3125 30.261719 L 6.757812 30.25 C 7.851562 30.214844 7.851562 30.214844 8.886719 29.898438 C 9.234375 29.675781 9.445312 29.417969 9.664062 29.066406 C 9.910156 28.546875 10.019531 28.015625 10.121094 27.449219 L 10.203125 27.035156 C 10.566406 25.105469 10.855469 23.160156 11.15625 21.21875 C 11.316406 20.160156 11.484375 19.105469 11.664062 18.050781 L 11.714844 17.75 C 11.753906 17.519531 11.800781 17.289062 11.847656 17.054688 Z M 11.984375 16.917969 "/></g><path style=" stroke:none;fill-rule:nonzero;fill:#0967b1;fill-opacity:1;" d="M 20.730469 17.054688 L 25.925781 17.054688 C 26.082031 17.535156 26.035156 17.757812 25.949219 18.25 L 25.867188 18.734375 L 25.769531 19.253906 L 25.675781 19.800781 C 25.59375 20.265625 25.511719 20.734375 25.425781 21.203125 C 25.351562 21.613281 25.28125 22.023438 25.207031 22.433594 C 25.097656 23.054688 24.988281 23.679688 24.875 24.304688 C 24.742188 25.074219 24.605469 25.84375 24.472656 26.613281 L 24.304688 27.585938 L 24.195312 28.222656 C 24.144531 28.519531 24.09375 28.816406 24.042969 29.109375 L 23.953125 29.628906 C 23.875 30.027344 23.875 30.027344 23.738281 30.304688 L 18.40625 30.304688 C 18.496094 29.3125 18.601562 28.355469 18.769531 27.378906 L 18.835938 26.984375 C 18.90625 26.570312 18.976562 26.152344 19.046875 25.734375 L 19.195312 24.863281 C 19.34375 24.007812 19.488281 23.15625 19.636719 22.300781 L 19.703125 21.921875 C 19.816406 21.265625 19.929688 20.609375 20.046875 19.953125 C 20.082031 19.757812 20.117188 19.566406 20.148438 19.375 C 20.195312 19.109375 20.242188 18.847656 20.289062 18.582031 L 20.367188 18.140625 C 20.457031 17.746094 20.457031 17.746094 20.730469 17.054688 "/><path style=" stroke:none;fill-rule:nonzero;fill:#0766b0;fill-opacity:1;" d="M 64.601562 17.195312 L 69.933594 17.195312 C 69.84375 18.109375 69.738281 18.996094 69.574219 19.898438 L 69.507812 20.269531 C 69.4375 20.667969 69.363281 21.066406 69.292969 21.464844 C 69.167969 22.160156 69.042969 22.855469 68.921875 23.554688 C 68.761719 24.449219 68.609375 25.34375 68.457031 26.242188 L 68.402344 26.582031 C 68.316406 27.105469 68.230469 27.628906 68.144531 28.152344 L 68.050781 28.707031 L 67.972656 29.191406 C 67.882812 29.613281 67.882812 29.613281 67.609375 30.304688 L 62.417969 30.304688 C 62.570312 28.597656 62.570312 28.597656 62.683594 27.988281 L 62.757812 27.558594 L 62.84375 27.105469 C 62.90625 26.765625 62.964844 26.425781 63.027344 26.085938 L 63.078125 25.8125 C 63.214844 25.050781 63.347656 24.285156 63.480469 23.519531 L 63.542969 23.152344 C 63.625 22.671875 63.710938 22.191406 63.792969 21.707031 C 63.851562 21.367188 63.910156 21.027344 63.96875 20.691406 L 64.019531 20.394531 C 64.203125 19.328125 64.40625 18.261719 64.601562 17.195312 "/><path style=" stroke:none;fill-rule:nonzero;fill:#0766af;fill-opacity:1;" d="M 57.90625 22.4375 C 58.359375 22.855469 58.621094 23.261719 58.898438 23.8125 L 59.019531 24.054688 C 59.152344 24.316406 59.28125 24.574219 59.410156 24.835938 C 59.589844 25.199219 59.773438 25.558594 59.957031 25.917969 L 60.09375 26.195312 C 60.597656 27.183594 61.125 28.15625 61.664062 29.128906 L 61.855469 29.476562 L 62.023438 29.78125 C 62.144531 30.027344 62.144531 30.027344 62.144531 30.304688 L 55.582031 30.304688 C 54.488281 28.234375 54.488281 28.234375 54.488281 27.542969 C 54.675781 27.238281 54.878906 26.941406 55.097656 26.65625 C 55.222656 26.484375 55.347656 26.3125 55.472656 26.140625 L 55.667969 25.875 C 55.964844 25.460938 56.234375 25.035156 56.503906 24.601562 L 56.65625 24.359375 L 56.804688 24.125 C 57.164062 23.558594 57.535156 22.996094 57.90625 22.4375 "/><g clip-rule="nonzero" clip-path="url(#9554e16115)"><path style=" stroke:none;fill-rule:nonzero;fill:#0b69b1;fill-opacity:1;" d="M 58.910156 9.679688 C 60.265625 9.675781 61.617188 9.757812 62.964844 9.878906 C 62.859375 10.328125 62.714844 10.652344 62.472656 11.042969 L 62.253906 11.398438 L 62.015625 11.777344 L 61.769531 12.171875 C 61.53125 12.558594 61.289062 12.945312 61.050781 13.332031 C 60.816406 13.707031 60.582031 14.082031 60.347656 14.460938 L 60.1875 14.722656 C 59.507812 15.816406 58.84375 16.917969 58.179688 18.023438 C 57.882812 17.742188 57.679688 17.484375 57.492188 17.121094 L 57.34375 16.835938 L 57.1875 16.53125 L 57.027344 16.214844 C 56.535156 15.261719 56.054688 14.296875 55.582031 13.332031 L 55.425781 13.074219 C 55.308594 12.777344 55.308594 12.777344 55.347656 12.449219 C 55.628906 11.582031 55.996094 10.8125 56.628906 10.15625 C 57.359375 9.714844 58.074219 9.703125 58.910156 9.679688 "/></g><g clip-rule="nonzero" clip-path="url(#5b8509cc90)"><path style=" stroke:none;fill-rule:nonzero;fill:#12a75b;fill-opacity:1;" d="M 13.078125 9.878906 L 18.816406 9.878906 C 18.507812 12.53125 18.507812 12.53125 18.332031 13.453125 L 18.277344 13.726562 C 18.207031 14.113281 18.121094 14.476562 17.996094 14.847656 C 17.378906 14.96875 16.789062 15.003906 16.160156 15.003906 L 15.875 15.003906 C 15.675781 15.003906 15.476562 15.003906 15.277344 15.003906 C 14.972656 15.003906 14.671875 15.003906 14.367188 15.003906 C 14.171875 15.003906 13.980469 15.003906 13.785156 15.003906 L 13.253906 15.003906 C 12.890625 14.988281 12.601562 14.957031 12.257812 14.847656 C 12.339844 13.746094 12.53125 12.671875 12.746094 11.589844 Z M 13.078125 9.878906 "/></g><g clip-rule="nonzero" clip-path="url(#bc85bc469a)"><path style=" stroke:none;fill-rule:nonzero;fill:#0e6ab2;fill-opacity:1;" d="M 21.960938 9.878906 C 22.355469 9.867188 22.746094 9.863281 23.140625 9.867188 L 23.5 9.867188 C 23.878906 9.867188 24.257812 9.871094 24.636719 9.871094 C 24.890625 9.871094 25.148438 9.875 25.402344 9.875 C 26.03125 9.875 26.664062 9.878906 27.292969 9.878906 L 27.160156 10.859375 C 27.125 11.105469 27.089844 11.355469 27.058594 11.601562 C 26.90625 12.699219 26.6875 13.753906 26.472656 14.847656 L 21.003906 14.847656 C 21.386719 12.53125 21.386719 12.53125 21.558594 11.511719 L 21.632812 11.078125 L 21.703125 10.667969 L 21.761719 10.300781 L 21.824219 10.019531 Z M 21.960938 9.878906 "/></g><g clip-rule="nonzero" clip-path="url(#cfc3deffe4)"><path style=" stroke:none;fill-rule:nonzero;fill:#0b69b1;fill-opacity:1;" d="M 65.96875 9.878906 L 71.164062 9.878906 C 71.058594 10.945312 70.921875 12.007812 70.753906 13.0625 L 70.679688 13.539062 L 70.609375 13.992188 L 70.542969 14.398438 L 70.480469 14.710938 L 70.34375 14.847656 C 69.960938 14.859375 69.578125 14.863281 69.195312 14.863281 L 68.84375 14.859375 C 68.476562 14.859375 68.105469 14.859375 67.738281 14.855469 C 67.488281 14.855469 67.238281 14.855469 66.988281 14.855469 C 66.375 14.855469 65.761719 14.851562 65.148438 14.847656 C 65.21875 13.683594 65.386719 12.570312 65.636719 11.433594 Z M 65.96875 9.878906 "/></g><path style=" stroke:none;fill-rule:nonzero;fill:#1d608f;fill-opacity:1;" d="M 55.171875 29.339844 L 55.71875 29.613281 L 55.71875 29.890625 C 56.09375 29.996094 56.425781 30.046875 56.816406 30.042969 L 57.484375 30.042969 L 57.84375 30.039062 C 58.214844 30.039062 58.589844 30.039062 58.964844 30.035156 C 59.21875 30.035156 59.472656 30.035156 59.726562 30.035156 C 60.351562 30.03125 60.972656 30.03125 61.597656 30.027344 L 61.597656 29.476562 L 61.871094 29.476562 L 62.144531 30.304688 C 61.214844 30.320312 60.289062 30.332031 59.363281 30.34375 C 59.046875 30.34375 58.730469 30.351562 58.417969 30.355469 C 57.964844 30.363281 57.511719 30.367188 57.058594 30.371094 L 56.628906 30.382812 C 56.269531 30.382812 55.9375 30.378906 55.582031 30.304688 C 55.285156 29.972656 55.285156 29.972656 55.171875 29.613281 Z M 55.171875 29.339844 "/><path style=" stroke:none;fill-rule:nonzero;fill:#1e6092;fill-opacity:1;" d="M 103.691406 28.785156 L 103.964844 28.785156 L 103.691406 30.164062 C 103.269531 30.273438 103 30.320312 102.582031 30.320312 L 102.25 30.320312 L 101.894531 30.316406 L 101.53125 30.316406 C 101.144531 30.316406 100.761719 30.3125 100.378906 30.3125 C 100.117188 30.3125 99.855469 30.3125 99.59375 30.3125 C 98.957031 30.308594 98.316406 30.308594 97.679688 30.304688 L 97.816406 30.027344 L 103.554688 29.890625 Z M 103.691406 28.785156 "/><path style=" stroke:none;fill-rule:nonzero;fill:#2c6c9c;fill-opacity:1;" d="M 67.746094 28.785156 L 67.882812 28.785156 C 67.863281 29.011719 67.84375 29.242188 67.824219 29.46875 L 67.789062 29.851562 L 67.746094 30.164062 L 67.609375 30.304688 C 67.226562 30.316406 66.84375 30.320312 66.460938 30.316406 L 66.113281 30.316406 C 65.742188 30.316406 65.375 30.3125 65.003906 30.3125 C 64.753906 30.3125 64.503906 30.3125 64.257812 30.3125 C 63.644531 30.308594 63.03125 30.308594 62.417969 30.304688 L 62.417969 29.753906 L 62.648438 29.8125 C 63.683594 30.0625 64.65625 30.035156 65.714844 29.976562 L 66.226562 29.953125 C 66.644531 29.933594 67.058594 29.914062 67.472656 29.890625 Z M 67.746094 28.785156 "/><path style=" stroke:none;fill-rule:nonzero;fill:#8bafca;fill-opacity:1;" d="M 20.730469 17.054688 C 21.117188 17.042969 21.496094 17.039062 21.878906 17.042969 L 22.230469 17.042969 C 22.597656 17.042969 22.96875 17.046875 23.335938 17.046875 C 23.585938 17.046875 23.835938 17.050781 24.085938 17.050781 C 24.699219 17.050781 25.3125 17.054688 25.925781 17.054688 L 26.0625 17.46875 L 25.621094 17.460938 C 25.078125 17.445312 24.539062 17.4375 23.996094 17.433594 C 23.761719 17.429688 23.527344 17.425781 23.296875 17.417969 C 22.957031 17.410156 22.621094 17.40625 22.285156 17.402344 L 21.96875 17.390625 C 21.628906 17.382812 21.628906 17.382812 21.140625 17.46875 C 20.730469 17.796875 20.730469 17.796875 20.457031 18.160156 C 20.5 17.835938 20.542969 17.515625 20.59375 17.195312 Z M 20.730469 17.054688 "/><path style=" stroke:none;fill-rule:nonzero;fill:#1e6092;fill-opacity:1;" d="M 102.871094 22.300781 L 102.734375 22.578125 L 97.679688 22.578125 L 97.816406 22.300781 C 98.242188 22.277344 98.667969 22.253906 99.097656 22.230469 L 99.457031 22.210938 C 100.605469 22.152344 101.734375 22.101562 102.871094 22.300781 "/><path style=" stroke:none;fill-rule:nonzero;fill:#1f6193;fill-opacity:1;" d="M 97.679688 24.785156 L 104.648438 24.785156 L 104.375 27.128906 L 104.101562 27.269531 L 104.238281 25.058594 L 97.679688 24.921875 Z M 97.679688 24.785156 "/><path style=" stroke:none;fill-rule:nonzero;fill:#1d608f;fill-opacity:1;" d="M 124.464844 13.882812 L 124.738281 13.882812 L 124.601562 14.847656 L 124.128906 14.855469 C 123.546875 14.867188 122.960938 14.878906 122.378906 14.890625 C 122.125 14.898438 121.875 14.902344 121.621094 14.90625 C 121.257812 14.914062 120.894531 14.921875 120.53125 14.929688 L 120.195312 14.933594 C 119.527344 14.953125 118.949219 15.035156 118.316406 15.261719 C 117.925781 15.535156 117.925781 15.535156 117.632812 15.8125 L 117.359375 15.675781 C 117.683594 15.308594 117.949219 15.027344 118.398438 14.828125 C 118.976562 14.679688 119.515625 14.660156 120.109375 14.652344 L 120.464844 14.644531 C 120.835938 14.636719 121.207031 14.628906 121.578125 14.625 C 121.832031 14.617188 122.085938 14.613281 122.339844 14.609375 C 122.957031 14.59375 123.574219 14.582031 124.191406 14.574219 Z M 124.464844 13.882812 "/><path style=" stroke:none;fill-rule:nonzero;fill:#1d6090;fill-opacity:1;" d="M 109.84375 29.753906 L 110.277344 29.820312 C 111.097656 29.921875 111.917969 29.910156 112.746094 29.90625 L 113.230469 29.910156 L 113.695312 29.910156 L 114.117188 29.90625 C 114.445312 29.890625 114.722656 29.847656 115.035156 29.753906 L 115.035156 30.164062 L 109.707031 30.164062 Z M 109.84375 29.753906 "/><path style=" stroke:none;fill-rule:nonzero;fill:#296999;fill-opacity:1;" d="M 108.476562 12.089844 L 108.75 12.226562 L 108.6875 12.53125 L 108.613281 12.933594 L 108.535156 13.332031 C 108.457031 13.8125 108.457031 13.8125 108.476562 14.574219 L 110.253906 14.710938 L 110.253906 14.847656 L 108.066406 14.847656 L 108.195312 13.777344 L 108.234375 13.445312 C 108.289062 12.984375 108.355469 12.539062 108.476562 12.089844 "/><path style=" stroke:none;fill-rule:nonzero;fill:#3a749d;fill-opacity:1;" d="M 45.195312 28.925781 L 45.46875 29.0625 L 45.058594 30.027344 L 45.742188 30.164062 L 45.742188 30.304688 L 44.238281 30.304688 L 44.238281 29.890625 L 44.648438 29.890625 Z M 45.195312 28.925781 "/><path style=" stroke:none;fill-rule:nonzero;fill:#467da7;fill-opacity:1;" d="M 136.492188 10.019531 C 137.074219 10.195312 137.488281 10.5 137.933594 10.902344 C 138.132812 11.121094 138.132812 11.121094 138.261719 11.519531 L 138.269531 11.8125 C 137.96875 11.507812 137.667969 11.199219 137.375 10.890625 C 137.058594 10.542969 137.058594 10.542969 136.628906 10.433594 Z M 136.492188 10.019531 "/><path style=" stroke:none;fill-rule:nonzero;fill:#206292;fill-opacity:1;" d="M 26.335938 13.882812 L 26.609375 13.882812 L 26.472656 14.847656 L 24.148438 14.847656 L 24.148438 14.710938 L 26.0625 14.574219 Z M 26.335938 13.882812 "/><path style=" stroke:none;fill-rule:nonzero;fill:#2c6c9c;fill-opacity:1;" d="M 119.410156 14.847656 L 119.160156 14.953125 C 118.347656 15.304688 118.347656 15.304688 117.632812 15.8125 L 117.359375 15.675781 C 117.707031 15.285156 117.980469 15.015625 118.460938 14.796875 C 118.863281 14.710938 119.027344 14.734375 119.410156 14.847656 "/><path style=" stroke:none;fill-rule:nonzero;fill:#7ca4c2;fill-opacity:1;" d="M 19.226562 25.335938 L 19.363281 25.335938 C 19.394531 26.085938 19.378906 26.699219 19.089844 27.40625 L 18.816406 27.40625 C 18.859375 27.136719 18.902344 26.871094 18.945312 26.605469 L 19.019531 26.152344 C 19.089844 25.75 19.089844 25.75 19.226562 25.335938 "/><g clip-rule="nonzero" clip-path="url(#48b192f6ca)"><path style=" stroke:none;fill-rule:nonzero;fill:#9ebbcf;fill-opacity:1;" d="M 4.058594 34.03125 L 4.195312 34.03125 L 4.183594 34.382812 L 4.167969 35.296875 L 4.195312 35.6875 L 4.46875 35.960938 L 3.921875 36.101562 C 3.785156 35.574219 3.792969 35.203125 3.910156 34.675781 L 3.992188 34.308594 Z M 4.058594 34.03125 "/></g><path style=" stroke:none;fill-rule:nonzero;fill:#1e6194;fill-opacity:1;" d="M 62.417969 29.753906 L 63.921875 30.164062 L 63.921875 30.304688 L 62.417969 30.304688 Z M 62.417969 29.753906 "/><path style=" stroke:none;fill-rule:nonzero;fill:#adc5d8;fill-opacity:1;" d="M 127.0625 12.777344 L 127.199219 12.777344 L 127.199219 14.710938 L 127.746094 14.847656 L 126.789062 14.847656 Z M 127.0625 12.777344 "/><path style=" stroke:none;fill-rule:nonzero;fill:#246697;fill-opacity:1;" d="M 142.097656 29.0625 L 142.371094 29.0625 L 142.507812 30.304688 L 141.824219 30.304688 L 141.6875 30.027344 L 142.097656 29.890625 Z M 142.097656 29.0625 "/><g clip-rule="nonzero" clip-path="url(#a45ab28370)"><path style=" stroke:none;fill-rule:nonzero;fill:#457da7;fill-opacity:1;" d="M 103.964844 10.019531 C 104.359375 9.984375 104.671875 9.960938 105.058594 10.019531 C 105.421875 10.214844 105.695312 10.441406 106.015625 10.707031 C 105.542969 10.707031 105.207031 10.589844 104.757812 10.433594 L 104.308594 10.277344 L 103.964844 10.15625 Z M 103.964844 10.019531 "/></g><path style=" stroke:none;fill-rule:nonzero;fill:#236594;fill-opacity:1;" d="M 55.171875 29.339844 L 55.71875 29.613281 L 55.71875 29.890625 L 56.265625 30.164062 L 56.265625 30.304688 C 55.949219 30.347656 55.949219 30.347656 55.582031 30.304688 C 55.335938 29.976562 55.335938 29.976562 55.171875 29.613281 Z M 55.171875 29.339844 "/><path style=" stroke:none;fill-rule:nonzero;fill:#599ed4;fill-opacity:1;" d="M 84.832031 15.539062 L 85.242188 15.539062 C 85.128906 15.84375 85 16.058594 84.765625 16.28125 C 84.5625 16.449219 84.355469 16.617188 84.148438 16.78125 C 84.351562 16.351562 84.5625 15.929688 84.832031 15.539062 "/><path style=" stroke:none;fill-rule:nonzero;fill:#2c6c9c;fill-opacity:1;" d="M 26.746094 11.398438 L 27.019531 11.398438 L 26.882812 12.777344 L 26.609375 12.777344 Z M 26.746094 11.398438 "/><path style=" stroke:none;fill-rule:nonzero;fill:#5d8bad;fill-opacity:1;" d="M 57.90625 22.4375 L 58.453125 22.988281 L 58.316406 23.265625 L 57.769531 23.128906 L 57.632812 23.402344 L 57.359375 23.265625 Z M 57.90625 22.4375 "/><path style=" stroke:none;fill-rule:nonzero;fill:#246697;fill-opacity:1;" d="M 112.4375 10.019531 L 113.667969 10.019531 L 114.078125 10.847656 L 113.667969 10.707031 L 113.394531 10.292969 C 112.90625 10.191406 112.90625 10.191406 112.4375 10.15625 Z M 112.4375 10.019531 "/><path style=" stroke:none;fill-rule:nonzero;fill:#32709e;fill-opacity:1;" d="M 87.15625 10.019531 C 87.460938 10.054688 87.671875 10.132812 87.921875 10.320312 C 88.121094 10.492188 88.324219 10.667969 88.519531 10.847656 L 88.246094 10.984375 C 88.066406 10.851562 87.882812 10.714844 87.699219 10.578125 L 87.394531 10.351562 L 87.15625 10.15625 Z M 87.15625 10.019531 "/><path style=" stroke:none;fill-rule:nonzero;fill:#1e6092;fill-opacity:1;" d="M 24.558594 24.230469 L 24.832031 24.230469 C 24.75 25.082031 24.75 25.082031 24.695312 25.335938 L 24.421875 25.472656 C 24.40625 24.625 24.40625 24.625 24.421875 24.371094 Z M 24.558594 24.230469 "/></g></svg>