<svg xmlns="http://www.w3.org/2000/svg" xmlns:xlink="http://www.w3.org/1999/xlink" width="200" zoomAndPan="magnify" viewBox="0 0 150 45.749998" height="61" preserveAspectRatio="xMidYMid meet" version="1.2"><g id="04f8a168ef"><path style=" stroke:none;fill-rule:nonzero;fill:#ec4144;fill-opacity:1;" d="M 2.246094 5.382812 L 126.84375 5.382812 C 126.542969 5.625 126.25 5.839844 125.925781 6.046875 C 125.125 6.5625 124.261719 7.132812 123.660156 7.878906 C 123.398438 8.097656 123.398438 8.097656 123.222656 8.136719 C 123 8.152344 122.785156 8.15625 122.5625 8.152344 L 122.308594 8.152344 C 122.019531 8.15625 121.734375 8.152344 121.449219 8.152344 C 121.242188 8.152344 121.035156 8.152344 120.828125 8.152344 C 120.253906 8.15625 119.679688 8.152344 119.109375 8.152344 C 118.550781 8.148438 117.992188 8.152344 117.433594 8.152344 C 116.277344 8.152344 115.125 8.152344 113.96875 8.148438 C 112.796875 8.148438 111.625 8.148438 110.453125 8.148438 L 110.230469 8.148438 C 109.855469 8.148438 109.476562 8.148438 109.101562 8.148438 C 106.371094 8.148438 103.640625 8.144531 100.914062 8.144531 C 98.125 8.140625 95.335938 8.140625 92.546875 8.140625 L 90.25 8.136719 C 88.34375 8.136719 86.4375 8.136719 84.53125 8.136719 L 84.269531 8.136719 C 80.046875 8.136719 75.824219 8.132812 71.601562 8.128906 L 67.203125 8.125 L 66.929688 8.125 C 62.429688 8.125 57.933594 8.125 53.433594 8.121094 L 47.984375 8.117188 L 36.621094 8.113281 C 28.867188 8.113281 21.113281 8.109375 13.359375 8.101562 L 13.140625 8.101562 L 2.246094 8.097656 Z M 2.335938 28.882812 C 2.472656 28.875 2.605469 28.871094 2.742188 28.871094 L 3.617188 28.871094 C 3.90625 28.871094 4.195312 28.871094 4.488281 28.871094 C 4.800781 28.871094 5.117188 28.871094 5.433594 28.871094 C 5.988281 28.871094 6.542969 28.871094 7.097656 28.871094 C 7.925781 28.871094 8.753906 28.871094 9.585938 28.871094 C 10.992188 28.871094 12.398438 28.871094 13.804688 28.871094 C 15.222656 28.871094 16.636719 28.871094 18.054688 28.871094 L 19.410156 28.871094 C 24.46875 28.871094 29.523438 28.871094 34.582031 28.871094 C 44.144531 28.875 53.710938 28.878906 63.277344 28.882812 L 63.578125 28.882812 C 69.757812 28.882812 75.941406 28.882812 82.121094 28.878906 C 83.011719 28.878906 83.902344 28.878906 84.789062 28.878906 L 85.03125 28.878906 C 87.414062 28.875 89.792969 28.875 92.175781 28.875 L 92.398438 28.875 C 94.621094 28.875 96.84375 28.875 99.066406 28.878906 L 99.277344 28.878906 C 101.476562 28.878906 103.675781 28.875 105.878906 28.875 C 108.125 28.871094 110.375 28.871094 112.621094 28.871094 C 113.898438 28.875 115.171875 28.875 116.445312 28.871094 C 117.285156 28.867188 118.125 28.867188 118.96875 28.871094 C 119.445312 28.871094 119.921875 28.871094 120.398438 28.871094 C 120.828125 28.867188 121.261719 28.867188 121.691406 28.871094 C 121.847656 28.871094 122.003906 28.871094 122.15625 28.871094 C 122.613281 28.863281 123.042969 28.871094 123.488281 28.972656 C 123.828125 29.203125 124.054688 29.46875 124.304688 29.789062 C 124.53125 29.984375 124.769531 30.164062 125.011719 30.339844 L 125.199219 30.480469 C 125.667969 30.820312 126.148438 31.117188 126.65625 31.394531 L 126.84375 31.503906 L 126.84375 31.59375 L 2.246094 31.59375 L 2.246094 28.972656 Z M 2.335938 28.882812 "/><path style=" stroke:none;fill-rule:nonzero;fill:#0055a0;fill-opacity:1;" d="M 21.9375 9.902344 L 21.9375 27.074219 L 16.585938 27.074219 L 16.496094 22.285156 L 15.761719 23.867188 L 15.535156 24.355469 L 15.351562 24.757812 L 15.261719 24.953125 C 14.933594 25.65625 14.628906 26.367188 14.316406 27.074219 L 9.960938 27.074219 C 9.246094 25.652344 9.246094 25.652344 9.019531 25.148438 L 8.949219 24.984375 C 8.871094 24.816406 8.796875 24.648438 8.722656 24.484375 L 8.5 23.976562 C 8.429688 23.828125 8.363281 23.675781 8.296875 23.523438 C 8.097656 23.078125 7.894531 22.636719 7.691406 22.195312 L 7.601562 27.074219 L 2.246094 27.074219 L 2.246094 9.992188 L 7.417969 9.992188 C 7.929688 10.402344 7.929688 10.402344 8.097656 10.773438 L 8.21875 11.035156 C 8.257812 11.128906 8.300781 11.222656 8.34375 11.320312 L 8.480469 11.628906 C 8.644531 11.984375 8.804688 12.34375 8.960938 12.707031 L 9.15625 13.140625 C 9.503906 13.929688 9.851562 14.71875 10.199219 15.507812 C 10.617188 16.464844 11.042969 17.417969 11.46875 18.367188 L 11.578125 18.617188 C 11.648438 18.773438 11.722656 18.933594 11.792969 19.089844 L 11.894531 19.3125 L 11.984375 19.503906 C 12.046875 19.664062 12.046875 19.664062 12.046875 19.84375 L 12.230469 19.84375 L 12.261719 19.652344 C 12.324219 19.375 12.417969 19.148438 12.535156 18.890625 L 12.671875 18.585938 L 12.746094 18.425781 C 12.855469 18.195312 12.960938 17.960938 13.066406 17.730469 L 13.234375 17.355469 C 13.535156 16.695312 13.828125 16.039062 14.125 15.378906 C 14.214844 15.171875 14.304688 14.96875 14.398438 14.765625 C 14.679688 14.132812 14.960938 13.5 15.234375 12.863281 C 15.359375 12.578125 15.484375 12.292969 15.605469 12.011719 C 15.664062 11.875 15.722656 11.742188 15.78125 11.605469 C 15.859375 11.421875 15.941406 11.234375 16.023438 11.046875 L 16.160156 10.726562 C 16.339844 10.394531 16.449219 10.210938 16.765625 9.992188 C 17.152344 9.925781 17.53125 9.929688 17.917969 9.929688 L 18.257812 9.925781 C 18.554688 9.921875 18.851562 9.921875 19.148438 9.921875 C 19.449219 9.921875 19.753906 9.917969 20.054688 9.914062 C 20.683594 9.90625 21.3125 9.902344 21.9375 9.902344 M 82.140625 9.957031 L 83.285156 9.957031 C 83.65625 9.953125 84.023438 9.953125 84.394531 9.953125 C 84.699219 9.953125 85.007812 9.953125 85.316406 9.953125 C 86.042969 9.953125 86.769531 9.953125 87.496094 9.953125 C 88.246094 9.953125 88.996094 9.953125 89.746094 9.949219 C 90.390625 9.949219 91.035156 9.949219 91.679688 9.949219 C 92.0625 9.949219 92.445312 9.949219 92.832031 9.949219 C 93.191406 9.945312 93.554688 9.945312 93.914062 9.949219 C 94.046875 9.949219 94.179688 9.949219 94.3125 9.945312 C 94.492188 9.945312 94.675781 9.945312 94.855469 9.949219 L 95.164062 9.949219 C 95.515625 10.003906 95.710938 10.136719 95.992188 10.355469 C 96.171875 10.625 96.171875 10.625 96.195312 10.84375 L 96.191406 11.105469 L 96.191406 11.71875 L 96.1875 12.011719 C 96.1875 12.367188 96.1875 12.726562 96.183594 13.082031 L 96.171875 15.507812 L 90.910156 15.507812 L 90.910156 13.878906 L 86.191406 13.878906 L 86.191406 16.589844 L 87.023438 16.585938 C 87.929688 16.582031 88.839844 16.578125 89.746094 16.578125 C 90.296875 16.578125 90.847656 16.574219 91.398438 16.570312 C 91.929688 16.566406 92.460938 16.566406 92.992188 16.566406 C 93.195312 16.566406 93.398438 16.566406 93.601562 16.5625 C 93.882812 16.5625 94.167969 16.5625 94.453125 16.5625 L 94.707031 16.558594 C 95.0625 16.558594 95.328125 16.582031 95.667969 16.699219 C 95.898438 16.863281 95.898438 16.863281 96.066406 17.050781 C 96.21875 17.433594 96.210938 17.789062 96.207031 18.195312 L 96.210938 18.464844 C 96.210938 18.757812 96.210938 19.046875 96.210938 19.339844 C 96.210938 19.542969 96.210938 19.746094 96.210938 19.949219 C 96.214844 20.375 96.214844 20.800781 96.210938 21.222656 C 96.210938 21.769531 96.214844 22.3125 96.214844 22.859375 C 96.21875 23.277344 96.21875 23.695312 96.21875 24.117188 C 96.21875 24.316406 96.21875 24.519531 96.21875 24.71875 C 96.21875 25 96.21875 25.28125 96.21875 25.5625 L 96.21875 25.8125 C 96.214844 26.179688 96.203125 26.390625 96.015625 26.714844 C 95.792969 26.910156 95.636719 26.984375 95.355469 27.074219 C 95.085938 27.097656 95.085938 27.097656 94.785156 27.101562 L 94.054688 27.101562 C 93.921875 27.101562 93.785156 27.101562 93.652344 27.105469 C 93.289062 27.105469 92.925781 27.105469 92.558594 27.105469 C 92.332031 27.105469 92.105469 27.105469 91.878906 27.105469 C 91.082031 27.109375 90.289062 27.109375 89.496094 27.109375 C 88.757812 27.109375 88.015625 27.109375 87.277344 27.113281 C 86.640625 27.117188 86.007812 27.117188 85.371094 27.117188 C 84.992188 27.117188 84.613281 27.117188 84.234375 27.121094 C 83.875 27.121094 83.519531 27.121094 83.164062 27.121094 C 83.03125 27.121094 82.902344 27.121094 82.769531 27.121094 C 82.59375 27.121094 82.414062 27.121094 82.234375 27.121094 L 81.933594 27.121094 C 81.582031 27.066406 81.382812 26.929688 81.109375 26.714844 C 80.9375 26.488281 80.9375 26.488281 80.835938 26.171875 C 80.800781 25.8125 80.804688 25.453125 80.808594 25.089844 L 80.808594 24.8125 C 80.8125 24.472656 80.816406 24.128906 80.816406 23.789062 L 80.835938 21.472656 L 86.191406 21.472656 L 86.191406 23.097656 L 90.910156 23.097656 L 90.816406 20.570312 L 89.984375 20.5625 C 89.074219 20.558594 88.164062 20.554688 87.257812 20.546875 C 86.703125 20.542969 86.152344 20.539062 85.601562 20.539062 C 85.070312 20.535156 84.539062 20.53125 84.007812 20.527344 C 83.804688 20.523438 83.601562 20.523438 83.398438 20.523438 C 83.113281 20.523438 82.828125 20.519531 82.546875 20.515625 L 82.289062 20.515625 C 81.9375 20.511719 81.699219 20.5 81.378906 20.351562 C 81.183594 20.195312 81.054688 20.058594 80.925781 19.84375 C 80.851562 19.597656 80.824219 19.375 80.824219 19.113281 L 80.820312 18.894531 L 80.820312 18.402344 C 80.816406 18.125 80.816406 17.847656 80.816406 17.570312 L 80.816406 16.992188 C 80.8125 16.585938 80.8125 16.183594 80.8125 15.78125 C 80.8125 15.261719 80.8125 14.746094 80.808594 14.226562 C 80.804688 13.828125 80.804688 13.429688 80.804688 13.03125 C 80.804688 12.84375 80.804688 12.652344 80.804688 12.460938 C 80.800781 12.195312 80.800781 11.925781 80.804688 11.660156 L 80.800781 11.421875 C 80.804688 11.078125 80.828125 10.828125 80.945312 10.5 C 81.257812 10.046875 81.601562 9.960938 82.140625 9.957031 M 105.714844 9.949219 L 106.039062 9.945312 L 106.21875 9.941406 C 106.414062 9.941406 106.609375 9.941406 106.804688 9.941406 C 106.941406 9.941406 107.078125 9.941406 107.214844 9.941406 C 107.503906 9.941406 107.789062 9.941406 108.074219 9.941406 C 108.441406 9.941406 108.804688 9.941406 109.171875 9.9375 C 109.453125 9.9375 109.734375 9.9375 110.019531 9.9375 C 110.152344 9.9375 110.289062 9.9375 110.421875 9.933594 C 110.609375 9.933594 110.800781 9.933594 110.988281 9.9375 L 111.3125 9.9375 C 111.597656 9.992188 111.597656 9.992188 111.855469 10.210938 C 112.5 10.980469 112.824219 12.050781 113.203125 12.972656 C 113.335938 13.296875 113.472656 13.621094 113.605469 13.945312 L 113.816406 14.457031 C 114.167969 15.304688 114.523438 16.152344 114.882812 17 C 115.410156 18.257812 115.9375 19.519531 116.460938 20.777344 C 116.796875 21.585938 117.132812 22.390625 117.472656 23.195312 C 117.886719 24.191406 118.304688 25.191406 118.71875 26.1875 L 118.820312 26.4375 C 119.039062 26.972656 119.039062 26.972656 119.039062 27.074219 C 118.28125 27.085938 117.519531 27.089844 116.757812 27.09375 C 116.402344 27.097656 116.050781 27.097656 115.695312 27.101562 C 115.355469 27.105469 115.015625 27.109375 114.671875 27.109375 C 114.542969 27.109375 114.414062 27.113281 114.28125 27.113281 C 114.101562 27.117188 113.917969 27.117188 113.734375 27.117188 L 113.421875 27.121094 C 113.140625 27.074219 113.140625 27.074219 112.886719 26.90625 C 112.269531 26.308594 112.050781 25.203125 111.78125 24.453125 L 105.246094 24.453125 C 105.003906 25.054688 104.773438 25.65625 104.550781 26.265625 C 104.421875 26.546875 104.277344 26.753906 104.066406 26.984375 C 103.8125 27.113281 103.605469 27.085938 103.324219 27.085938 L 102.179688 27.085938 C 101.835938 27.082031 101.488281 27.082031 101.140625 27.082031 C 100.785156 27.082031 100.429688 27.082031 100.074219 27.082031 C 99.378906 27.078125 98.683594 27.078125 97.988281 27.074219 C 98.160156 26.535156 98.359375 26.003906 98.582031 25.480469 L 98.675781 25.253906 C 98.746094 25.097656 98.8125 24.9375 98.878906 24.777344 C 99.0625 24.34375 99.246094 23.910156 99.429688 23.476562 L 99.542969 23.203125 C 99.957031 22.222656 100.363281 21.242188 100.773438 20.257812 C 101.335938 18.894531 101.902344 17.535156 102.472656 16.175781 C 102.777344 15.441406 103.085938 14.707031 103.390625 13.972656 L 103.703125 13.210938 C 103.769531 13.050781 103.839844 12.886719 103.90625 12.722656 C 104.820312 10.503906 104.820312 10.503906 105.171875 10.167969 C 105.429688 9.992188 105.429688 9.992188 105.714844 9.949219 M 108.421875 15.507812 L 108.363281 15.695312 C 108.160156 16.296875 107.9375 16.835938 107.515625 17.316406 C 106.972656 17.785156 106.378906 18.078125 105.699219 18.308594 L 105.699219 18.488281 L 105.910156 18.566406 C 106.554688 18.816406 107.117188 19.078125 107.605469 19.574219 C 108.003906 20.097656 108.25 20.660156 108.421875 21.292969 L 108.605469 21.199219 C 108.660156 21.050781 108.710938 20.902344 108.757812 20.75 C 108.949219 20.210938 109.199219 19.800781 109.601562 19.394531 C 110.121094 18.964844 110.695312 18.710938 111.328125 18.488281 L 111.328125 18.308594 L 111.117188 18.230469 C 110.390625 17.949219 109.769531 17.640625 109.261719 17.035156 C 108.925781 16.5625 108.707031 16.050781 108.515625 15.507812 Z M 66.070312 9.976562 L 66.246094 9.972656 C 66.441406 9.972656 66.632812 9.96875 66.828125 9.96875 L 67.027344 9.96875 C 67.378906 9.964844 67.730469 9.964844 68.082031 9.960938 C 68.371094 9.960938 68.660156 9.957031 68.949219 9.953125 C 69.300781 9.949219 69.652344 9.949219 70 9.949219 C 70.132812 9.945312 70.269531 9.945312 70.402344 9.945312 C 71.433594 9.925781 71.433594 9.925781 71.777344 10.085938 C 72.027344 10.28125 72.199219 10.523438 72.320312 10.8125 L 72.414062 11.035156 C 72.449219 11.117188 72.480469 11.199219 72.515625 11.28125 L 72.628906 11.550781 C 72.738281 11.8125 72.847656 12.078125 72.953125 12.339844 C 73.097656 12.683594 73.242188 13.027344 73.382812 13.371094 C 73.648438 14.007812 73.914062 14.640625 74.175781 15.277344 C 74.507812 16.070312 74.839844 16.867188 75.171875 17.660156 C 76.191406 20.09375 77.207031 22.53125 78.21875 24.972656 L 78.339844 25.261719 C 78.375 25.351562 78.414062 25.441406 78.453125 25.535156 C 78.53125 25.730469 78.613281 25.921875 78.695312 26.117188 L 78.824219 26.414062 L 78.9375 26.679688 C 79.019531 26.894531 79.019531 26.894531 79.019531 27.074219 C 78.257812 27.085938 77.496094 27.09375 76.738281 27.097656 C 76.382812 27.101562 76.03125 27.105469 75.675781 27.109375 C 75.335938 27.113281 74.992188 27.117188 74.652344 27.117188 C 74.523438 27.121094 74.390625 27.121094 74.261719 27.125 C 74.078125 27.125 73.898438 27.128906 73.714844 27.128906 L 73.398438 27.128906 C 73.121094 27.074219 73.121094 27.074219 72.867188 26.859375 C 72.367188 26.265625 72.152344 25.484375 71.921875 24.757812 C 71.871094 24.550781 71.871094 24.550781 71.761719 24.453125 C 71.554688 24.445312 71.347656 24.445312 71.140625 24.445312 L 70.945312 24.445312 C 70.730469 24.445312 70.515625 24.445312 70.300781 24.445312 L 69.855469 24.445312 C 69.464844 24.445312 69.074219 24.449219 68.683594 24.449219 C 68.285156 24.449219 67.886719 24.449219 67.484375 24.449219 C 66.703125 24.453125 65.917969 24.453125 65.136719 24.453125 L 65.078125 24.660156 L 65.007812 24.929688 L 64.933594 25.199219 C 64.851562 25.492188 64.757812 25.785156 64.652344 26.070312 L 64.550781 26.359375 C 64.417969 26.609375 64.289062 26.800781 64.0625 26.980469 C 63.59375 27.203125 63.03125 27.128906 62.523438 27.121094 C 62.390625 27.121094 62.257812 27.117188 62.128906 27.117188 C 61.78125 27.117188 61.4375 27.113281 61.09375 27.105469 C 60.742188 27.101562 60.390625 27.101562 60.035156 27.097656 C 59.347656 27.09375 58.65625 27.085938 57.964844 27.074219 C 58.480469 25.785156 59 24.5 59.542969 23.222656 C 59.71875 22.808594 59.890625 22.394531 60.066406 21.976562 L 60.175781 21.71875 C 60.578125 20.757812 60.976562 19.800781 61.375 18.839844 L 61.914062 17.539062 C 62.445312 16.253906 62.980469 14.96875 63.519531 13.683594 C 63.679688 13.292969 63.84375 12.902344 64.003906 12.507812 C 64.113281 12.238281 64.226562 11.96875 64.335938 11.699219 L 64.449219 11.417969 C 64.664062 10.902344 64.902344 10.46875 65.316406 10.085938 C 65.570312 9.957031 65.785156 9.980469 66.070312 9.976562 M 68.492188 15.507812 L 68.398438 15.753906 C 68.117188 16.464844 67.839844 17.097656 67.222656 17.585938 C 66.738281 17.882812 66.21875 18.128906 65.679688 18.308594 L 65.679688 18.488281 L 65.894531 18.570312 C 66.648438 18.867188 67.265625 19.179688 67.785156 19.8125 C 68.105469 20.261719 68.296875 20.773438 68.492188 21.292969 C 68.597656 21.085938 68.699219 20.878906 68.800781 20.671875 L 68.9375 20.394531 L 69.070312 20.113281 C 69.386719 19.539062 69.765625 19.242188 70.316406 18.902344 C 70.667969 18.710938 71.011719 18.597656 71.398438 18.488281 C 71.25 18.320312 71.140625 18.226562 70.933594 18.140625 L 70.710938 18.070312 C 70.132812 17.851562 69.726562 17.492188 69.308594 17.042969 C 68.9375 16.578125 68.746094 16.074219 68.585938 15.507812 Z M 42.085938 9.980469 L 42.828125 9.980469 L 43.238281 9.976562 C 43.609375 9.976562 43.976562 9.976562 44.347656 9.976562 C 44.578125 9.976562 44.8125 9.976562 45.042969 9.976562 C 45.765625 9.972656 46.488281 9.972656 47.210938 9.972656 C 48.046875 9.972656 48.882812 9.96875 49.71875 9.96875 C 50.363281 9.964844 51.007812 9.964844 51.65625 9.964844 C 52.039062 9.964844 52.425781 9.964844 52.8125 9.960938 C 53.175781 9.960938 53.539062 9.960938 53.898438 9.960938 C 54.035156 9.960938 54.167969 9.960938 54.300781 9.960938 C 54.480469 9.960938 54.664062 9.960938 54.84375 9.960938 L 55.152344 9.960938 C 55.460938 10 55.628906 10.085938 55.878906 10.265625 C 56.078125 10.460938 56.152344 10.550781 56.242188 10.808594 C 56.292969 11.238281 56.285156 11.671875 56.277344 12.105469 C 56.277344 12.234375 56.277344 12.359375 56.277344 12.488281 C 56.273438 12.820312 56.269531 13.152344 56.265625 13.484375 C 56.261719 13.824219 56.261719 14.164062 56.261719 14.503906 C 56.257812 15.167969 56.25 15.835938 56.242188 16.5 L 50.886719 16.5 L 50.886719 14.875 L 46.167969 14.875 L 46.261719 22.105469 L 50.886719 22.195312 L 50.886719 20.570312 L 56.242188 20.570312 C 56.25 21.289062 56.253906 22.007812 56.257812 22.730469 C 56.257812 23.066406 56.261719 23.402344 56.261719 23.738281 C 56.265625 24.058594 56.265625 24.382812 56.269531 24.707031 C 56.269531 24.832031 56.269531 24.953125 56.269531 25.078125 C 56.273438 25.25 56.273438 25.421875 56.273438 25.597656 L 56.273438 25.894531 C 56.234375 26.230469 56.15625 26.429688 55.96875 26.714844 C 55.691406 26.933594 55.496094 27.0625 55.144531 27.121094 L 54.839844 27.121094 L 54.488281 27.125 L 54.105469 27.121094 C 53.972656 27.125 53.835938 27.125 53.699219 27.125 C 53.335938 27.125 52.96875 27.125 52.601562 27.125 C 52.21875 27.125 51.835938 27.125 51.453125 27.125 C 50.808594 27.125 50.164062 27.125 49.519531 27.121094 C 48.777344 27.121094 48.035156 27.121094 47.289062 27.125 C 46.648438 27.125 46.011719 27.125 45.371094 27.125 C 44.992188 27.125 44.609375 27.125 44.226562 27.125 C 43.867188 27.125 43.507812 27.125 43.152344 27.125 C 43.019531 27.121094 42.886719 27.121094 42.757812 27.125 C 42.578125 27.125 42.398438 27.125 42.21875 27.121094 L 41.914062 27.121094 C 41.5625 27.0625 41.363281 26.933594 41.085938 26.714844 C 40.90625 26.441406 40.90625 26.441406 40.882812 26.164062 L 40.882812 25.8125 L 40.878906 25.617188 C 40.878906 25.402344 40.878906 25.183594 40.878906 24.96875 C 40.878906 24.8125 40.875 24.660156 40.875 24.503906 C 40.875 24.082031 40.871094 23.660156 40.871094 23.238281 C 40.871094 22.976562 40.871094 22.714844 40.871094 22.449219 C 40.867188 21.53125 40.867188 20.613281 40.867188 19.695312 C 40.867188 18.839844 40.863281 17.984375 40.859375 17.125 C 40.855469 16.390625 40.855469 15.65625 40.855469 14.921875 C 40.855469 14.484375 40.855469 14.042969 40.851562 13.605469 C 40.851562 13.191406 40.847656 12.777344 40.851562 12.367188 C 40.851562 12.214844 40.851562 12.0625 40.847656 11.910156 C 40.847656 11.703125 40.847656 11.496094 40.851562 11.289062 L 40.847656 10.941406 C 40.902344 10.636719 40.941406 10.546875 41.125 10.320312 C 41.464844 9.980469 41.617188 9.984375 42.085938 9.980469 M 24.640625 9.96875 L 24.949219 9.96875 L 25.304688 9.964844 L 25.691406 9.964844 L 26.101562 9.960938 C 26.476562 9.960938 26.847656 9.957031 27.21875 9.957031 C 27.449219 9.957031 27.683594 9.957031 27.914062 9.957031 C 28.640625 9.953125 29.367188 9.953125 30.09375 9.949219 C 30.933594 9.949219 31.773438 9.945312 32.609375 9.941406 C 33.257812 9.9375 33.90625 9.9375 34.554688 9.933594 C 34.945312 9.933594 35.332031 9.933594 35.71875 9.929688 C 36.082031 9.929688 36.445312 9.925781 36.8125 9.929688 C 36.945312 9.929688 37.078125 9.929688 37.210938 9.925781 C 38.210938 9.914062 38.210938 9.914062 38.585938 10.109375 C 38.75 10.242188 38.878906 10.363281 39 10.535156 C 39.460938 11.910156 39.089844 13.429688 39.089844 14.875 L 29.019531 14.875 L 29.019531 16.589844 L 32.101562 16.589844 C 32.105469 17.128906 32.105469 17.667969 32.109375 18.207031 C 32.109375 18.390625 32.109375 18.574219 32.109375 18.757812 C 32.109375 19.023438 32.113281 19.285156 32.113281 19.546875 L 32.113281 19.796875 C 32.113281 19.996094 32.109375 20.191406 32.101562 20.386719 L 32.011719 20.476562 C 31.792969 20.484375 31.570312 20.488281 31.347656 20.488281 L 31.148438 20.488281 C 30.933594 20.484375 30.722656 20.484375 30.507812 20.484375 L 30.078125 20.484375 C 29.722656 20.480469 29.371094 20.480469 29.019531 20.476562 L 29.019531 22.195312 L 39.089844 22.195312 L 39.089844 26.261719 C 38.765625 26.804688 38.765625 26.804688 38.546875 26.984375 C 38.25 27.082031 38.03125 27.089844 37.722656 27.089844 L 36.984375 27.089844 L 36.582031 27.09375 C 36.136719 27.09375 35.691406 27.097656 35.25 27.097656 L 34.789062 27.097656 C 34.074219 27.101562 33.355469 27.101562 32.636719 27.101562 C 31.808594 27.101562 30.980469 27.105469 30.152344 27.109375 C 29.511719 27.113281 28.871094 27.113281 28.230469 27.113281 C 27.847656 27.113281 27.464844 27.113281 27.082031 27.117188 C 26.722656 27.117188 26.363281 27.121094 26.003906 27.117188 C 25.871094 27.117188 25.742188 27.117188 25.609375 27.121094 C 25.429688 27.121094 25.246094 27.121094 25.066406 27.121094 L 24.761719 27.121094 C 24.410156 27.066406 24.214844 26.933594 23.9375 26.714844 C 23.753906 26.441406 23.753906 26.441406 23.730469 26.164062 L 23.730469 25.617188 C 23.726562 25.402344 23.726562 25.183594 23.726562 24.96875 C 23.726562 24.8125 23.726562 24.65625 23.726562 24.503906 C 23.722656 24.082031 23.722656 23.660156 23.722656 23.238281 C 23.722656 22.882812 23.722656 22.53125 23.722656 22.179688 C 23.722656 21.351562 23.71875 20.519531 23.71875 19.691406 C 23.722656 18.832031 23.71875 17.976562 23.714844 17.121094 C 23.714844 16.382812 23.710938 15.648438 23.710938 14.914062 C 23.710938 14.472656 23.710938 14.035156 23.710938 13.59375 C 23.707031 13.183594 23.707031 12.769531 23.710938 12.355469 C 23.710938 12.203125 23.710938 12.050781 23.707031 11.902344 C 23.707031 11.695312 23.707031 11.488281 23.710938 11.28125 L 23.710938 10.929688 C 23.753906 10.625 23.753906 10.625 23.921875 10.371094 C 24.15625 10.136719 24.304688 10.003906 24.640625 9.96875 "/><path style=" stroke:none;fill-rule:nonzero;fill:#ec4245;fill-opacity:1;" d="M 148.535156 17.585938 L 148.625 17.949219 C 148.222656 18.132812 147.886719 18.246094 147.445312 18.308594 L 147.453125 18.519531 C 147.507812 20.660156 146.976562 22.765625 145.988281 24.667969 C 144.875 26.691406 143.234375 28.488281 141.253906 29.691406 C 139.164062 30.929688 136.9375 31.671875 134.496094 31.71875 C 132.140625 31.730469 129.835938 31.28125 127.75 30.140625 C 125.785156 29.011719 124.011719 27.484375 122.832031 25.535156 C 122.746094 25.386719 122.664062 25.238281 122.578125 25.085938 L 121.308594 25.179688 L 121.21875 24.816406 C 121.710938 24.625 122.214844 24.460938 122.730469 24.328125 L 122.960938 24.269531 C 123.125 24.226562 123.289062 24.183594 123.453125 24.140625 C 123.722656 24.070312 123.988281 24 124.257812 23.925781 C 124.546875 23.851562 124.832031 23.777344 125.121094 23.699219 C 126.144531 23.429688 127.167969 23.15625 128.1875 22.882812 L 129.480469 22.539062 L 130.136719 22.363281 C 131.289062 22.058594 132.4375 21.75 133.589844 21.445312 L 133.902344 21.359375 C 135.21875 21.007812 136.53125 20.65625 137.847656 20.304688 C 139.125 19.964844 140.402344 19.621094 141.679688 19.28125 C 142.152344 19.152344 142.625 19.027344 143.101562 18.902344 C 143.714844 18.734375 144.328125 18.570312 144.941406 18.410156 C 145.265625 18.324219 145.589844 18.234375 145.910156 18.148438 C 146.265625 18.054688 146.625 17.960938 146.980469 17.863281 L 147.296875 17.777344 L 147.59375 17.699219 L 147.847656 17.632812 C 148.082031 17.585938 148.292969 17.578125 148.535156 17.585938 M 146.628906 18.488281 C 146.445312 18.519531 146.445312 18.519531 146.238281 18.578125 L 145.992188 18.640625 L 145.726562 18.714844 L 145.453125 18.789062 C 145.167969 18.863281 144.878906 18.941406 144.59375 19.019531 C 144.398438 19.074219 144.203125 19.125 144.011719 19.175781 C 143.65625 19.269531 143.300781 19.367188 142.949219 19.464844 L 142.730469 19.523438 C 142.578125 19.566406 142.425781 19.613281 142.273438 19.664062 C 142.1875 19.851562 142.1875 19.851562 142.132812 20.082031 L 142.058594 20.347656 L 141.984375 20.628906 C 141.730469 21.515625 141.433594 22.25 140.910156 23.007812 L 140.757812 23.230469 C 139.941406 24.339844 138.921875 25.222656 137.660156 25.792969 C 136.1875 26.421875 134.679688 26.667969 133.078125 26.496094 C 131.699219 26.316406 130.417969 25.828125 129.296875 24.996094 C 128.722656 24.558594 128.203125 24.113281 127.753906 23.550781 C 126.785156 23.785156 125.824219 24.035156 124.867188 24.289062 L 124.679688 24.339844 C 124.503906 24.386719 124.324219 24.433594 124.148438 24.480469 L 123.835938 24.566406 C 123.65625 24.613281 123.480469 24.667969 123.304688 24.726562 C 123.453125 25.488281 124.054688 26.136719 124.546875 26.714844 C 126.074219 28.464844 127.929688 29.703125 130.128906 30.460938 C 132.074219 31.101562 134.265625 31.3125 136.289062 30.949219 C 136.53125 30.898438 136.769531 30.84375 137.007812 30.78125 L 137.226562 30.726562 C 138.3125 30.445312 139.292969 30.058594 140.277344 29.515625 L 140.527344 29.378906 C 142.472656 28.269531 144.046875 26.640625 145.175781 24.726562 C 146.148438 22.972656 146.8125 20.953125 146.816406 18.933594 L 146.808594 18.578125 Z M 140.335938 20.128906 C 140.085938 20.195312 139.835938 20.265625 139.585938 20.335938 C 139.101562 20.46875 138.621094 20.597656 138.136719 20.730469 L 137.8125 20.820312 C 136.871094 21.074219 135.929688 21.328125 134.984375 21.574219 L 134.527344 21.695312 C 133.917969 21.855469 133.308594 22.019531 132.699219 22.179688 C 132.339844 22.273438 131.976562 22.371094 131.613281 22.464844 C 131.480469 22.5 131.34375 22.535156 131.210938 22.570312 C 130.292969 22.8125 129.382812 23.082031 128.480469 23.371094 C 128.757812 23.960938 129.292969 24.347656 129.8125 24.722656 C 130.371094 25.085938 130.941406 25.390625 131.5625 25.628906 L 131.84375 25.738281 C 133.074219 26.136719 134.515625 26.144531 135.785156 25.933594 C 137.1875 25.601562 138.515625 24.824219 139.5625 23.851562 C 140.484375 22.886719 141.085938 21.726562 141.507812 20.46875 C 141.558594 20.269531 141.558594 20.269531 141.546875 19.9375 C 141.121094 19.90625 140.742188 20.015625 140.335938 20.128906 "/><path style=" stroke:none;fill-rule:nonzero;fill:#0256a0;fill-opacity:1;" d="M 146.242188 13.511719 L 146.433594 13.515625 C 146.589844 13.515625 146.746094 13.515625 146.902344 13.519531 L 146.902344 13.699219 C 146.75 13.851562 146.601562 14.003906 146.445312 14.152344 C 146.34375 14.335938 146.34375 14.335938 146.316406 14.585938 L 146.355469 14.875 C 146.539062 15.054688 146.691406 15.183594 146.902344 15.328125 L 147.0625 15.445312 C 147.296875 15.613281 147.535156 15.777344 147.777344 15.941406 L 147.972656 16.078125 L 148.144531 16.191406 C 148.261719 16.320312 148.261719 16.320312 148.3125 16.539062 L 148.261719 16.773438 C 147.75 17.207031 147.121094 17.339844 146.476562 17.464844 C 146.113281 17.515625 145.75 17.511719 145.386719 17.511719 C 144.398438 17.523438 143.617188 17.886719 142.738281 18.308594 C 142.425781 18.453125 142.136719 18.574219 141.789062 18.589844 C 141.292969 18.535156 140.964844 18.402344 140.546875 18.128906 L 140.40625 18.289062 C 139.902344 18.828125 139.429688 19.148438 138.734375 19.394531 C 138.417969 19.484375 138.152344 19.472656 137.828125 19.449219 C 137.175781 19.414062 137.175781 19.414062 136.546875 19.554688 C 136.25 19.710938 135.980469 19.898438 135.703125 20.085938 C 135.050781 20.527344 134.242188 20.773438 133.464844 20.859375 C 132.871094 20.882812 132.371094 20.726562 131.835938 20.476562 L 131.65625 20.296875 C 131.375 20.242188 131.089844 20.207031 130.804688 20.167969 L 130.566406 20.117188 L 130.476562 19.9375 C 130.636719 19.859375 130.800781 19.785156 130.960938 19.710938 L 131.238281 19.582031 C 131.472656 19.484375 131.472656 19.484375 131.65625 19.484375 L 131.679688 19.167969 C 131.804688 17.691406 132.074219 16.238281 132.824219 14.941406 C 133.046875 14.65625 133.261719 14.453125 133.558594 14.242188 C 134.023438 14.085938 134.457031 14.019531 134.9375 13.992188 L 135.128906 13.976562 C 135.390625 13.960938 135.617188 13.960938 135.867188 14.03125 C 136.011719 14.152344 136.011719 14.152344 136.089844 14.351562 C 136.125 15.054688 135.738281 15.792969 135.421875 16.410156 C 134.917969 17.367188 134.375 18.335938 133.582031 19.089844 L 133.378906 19.304688 C 133.355469 19.585938 133.355469 19.585938 133.46875 19.84375 C 133.601562 20.035156 133.601562 20.035156 133.832031 20.117188 C 134.128906 20.125 134.289062 20.117188 134.558594 20.027344 C 135.195312 19.660156 135.714844 19.109375 136.101562 18.488281 C 136.234375 18.207031 136.339844 17.914062 136.453125 17.625 C 136.628906 17.160156 136.800781 16.730469 137.191406 16.410156 C 137.542969 16.246094 137.875 16.222656 138.261719 16.242188 C 138.480469 16.261719 138.695312 16.285156 138.914062 16.320312 C 138.882812 16.644531 138.777344 16.859375 138.601562 17.128906 C 138.371094 17.484375 138.203125 17.800781 138.179688 18.230469 C 138.175781 18.410156 138.183594 18.585938 138.1875 18.761719 C 138.378906 18.84375 138.378906 18.84375 138.640625 18.851562 C 139 18.753906 139.273438 18.582031 139.539062 18.328125 C 140.019531 17.757812 140.273438 17.097656 140.546875 16.410156 C 140.789062 15.8125 140.789062 15.8125 141.019531 15.570312 C 141.417969 15.332031 141.808594 15.242188 142.273438 15.226562 L 142.453125 15.234375 C 142.523438 15.417969 142.523438 15.417969 142.542969 15.6875 C 142.46875 15.878906 142.375 16.054688 142.273438 16.234375 C 142.089844 16.585938 142.082031 16.898438 142.085938 17.292969 L 142.085938 17.5625 L 142.089844 17.765625 C 142.253906 17.832031 142.253906 17.832031 142.453125 17.855469 C 143.03125 17.636719 143.570312 17.246094 143.964844 16.773438 C 144.332031 16.246094 144.421875 15.75 144.480469 15.125 C 144.527344 14.625 144.632812 14.300781 144.902344 13.878906 C 145.039062 13.722656 145.136719 13.625 145.332031 13.546875 C 145.632812 13.503906 145.9375 13.507812 146.242188 13.511719 M 134.285156 14.964844 C 133.828125 15.554688 133.664062 16.183594 133.480469 16.898438 L 133.394531 17.222656 C 133.285156 17.628906 133.285156 17.628906 133.199219 18.039062 L 133.289062 18.21875 C 133.832031 17.394531 134.460938 16.398438 134.648438 15.417969 C 134.632812 15.152344 134.632812 15.152344 134.558594 14.964844 Z M 145.449219 16.140625 C 145.242188 16.390625 145.242188 16.390625 145.085938 16.683594 L 145.085938 16.953125 C 145.246094 16.960938 145.40625 16.964844 145.566406 16.96875 L 145.839844 16.980469 L 146.082031 16.953125 C 146.253906 16.828125 146.253906 16.828125 146.355469 16.683594 C 146.296875 16.503906 146.296875 16.503906 146.175781 16.320312 C 145.910156 16.183594 145.746094 16.140625 145.449219 16.140625 "/><path style=" stroke:none;fill-rule:nonzero;fill:#ec4245;fill-opacity:1;" d="M 134.128906 5.265625 L 134.316406 5.265625 C 135.273438 5.269531 136.167969 5.332031 137.101562 5.566406 L 137.292969 5.609375 C 139.671875 6.15625 141.605469 7.351562 143.40625 8.964844 C 143.929688 9.460938 144.402344 9.957031 144.832031 10.535156 L 144.96875 10.71875 C 145.25 11.097656 145.496094 11.480469 145.722656 11.890625 L 146.992188 11.800781 L 147.082031 12.164062 C 146.902344 12.34375 146.902344 12.34375 146.726562 12.40625 L 146.515625 12.460938 L 146.273438 12.523438 L 146.007812 12.59375 L 145.730469 12.664062 C 145.433594 12.742188 145.132812 12.820312 144.835938 12.898438 L 144.226562 13.054688 C 143.921875 13.136719 143.617188 13.214844 143.3125 13.292969 C 142.730469 13.445312 142.152344 13.597656 141.574219 13.757812 L 141.378906 13.808594 C 141.09375 13.886719 140.808594 13.964844 140.523438 14.042969 L 140.222656 14.125 L 139.972656 14.195312 C 139.707031 14.246094 139.457031 14.25 139.1875 14.242188 L 139.1875 13.789062 L 139.730469 13.609375 C 138.933594 12.636719 138.019531 11.980469 136.867188 11.480469 C 135.625 11.011719 134.347656 10.855469 133.03125 11.058594 C 131.726562 11.285156 130.546875 11.792969 129.515625 12.625 C 128.542969 13.46875 127.804688 14.371094 127.246094 15.535156 L 127.117188 15.777344 C 126.871094 15.902344 126.664062 15.875 126.390625 15.867188 C 126.773438 14.578125 127.507812 13.527344 128.429688 12.558594 C 129.519531 11.535156 130.894531 10.847656 132.347656 10.503906 C 133.757812 10.199219 135.261719 10.253906 136.640625 10.679688 C 137.898438 11.101562 138.96875 11.78125 139.914062 12.707031 L 140.046875 12.878906 C 140.203125 13.070312 140.335938 13.207031 140.546875 13.339844 C 140.90625 13.351562 141.214844 13.25 141.550781 13.140625 L 141.839844 13.058594 C 142.035156 13.003906 142.234375 12.945312 142.429688 12.886719 C 142.8125 12.769531 143.195312 12.664062 143.578125 12.5625 C 143.753906 12.515625 143.925781 12.46875 144.097656 12.417969 L 144.335938 12.351562 L 144.542969 12.292969 C 144.722656 12.253906 144.722656 12.253906 144.996094 12.253906 C 144.371094 10.8125 143.136719 9.574219 141.910156 8.636719 L 141.667969 8.453125 C 140.132812 7.296875 138.433594 6.585938 136.554688 6.199219 L 136.265625 6.136719 C 134.140625 5.757812 131.910156 6 129.878906 6.695312 C 128.429688 7.222656 127.109375 8.003906 125.9375 9 L 125.675781 9.21875 C 124.058594 10.636719 122.941406 12.402344 122.246094 14.425781 C 121.847656 15.585938 121.65625 16.695312 121.570312 17.917969 L 121.546875 18.246094 C 121.527344 18.507812 121.507812 18.769531 121.492188 19.03125 C 120.601562 19.332031 120.601562 19.332031 120.226562 19.421875 L 120.023438 19.472656 L 119.855469 19.484375 L 119.675781 19.304688 C 119.683594 19.121094 119.683594 19.121094 119.765625 18.941406 C 119.945312 18.847656 119.945312 18.847656 120.164062 18.785156 L 120.382812 18.71875 C 120.582031 18.671875 120.582031 18.671875 120.855469 18.671875 L 120.847656 18.414062 C 120.800781 16.132812 121.40625 13.980469 122.5 11.984375 C 123.664062 9.945312 125.355469 8.238281 127.375 7.042969 C 129.464844 5.859375 131.730469 5.253906 134.128906 5.265625 "/><path style=" stroke:none;fill-rule:nonzero;fill:#0155a0;fill-opacity:1;" d="M 129.648438 16.015625 L 129.945312 16.011719 C 130.519531 16.015625 130.953125 16.078125 131.472656 16.320312 L 131.5625 16.410156 C 131.5625 16.65625 131.550781 16.8125 131.472656 17.042969 C 131.289062 17.3125 131.070312 17.539062 130.839844 17.765625 L 130.675781 17.925781 C 129.054688 19.4375 126.507812 20.433594 124.394531 21.019531 L 124.121094 21.019531 L 124.089844 21.355469 L 124.042969 21.792969 L 124.023438 22.011719 C 123.976562 22.453125 123.914062 22.863281 123.757812 23.28125 C 123.609375 23.457031 123.609375 23.457031 123.441406 23.585938 L 123.273438 23.71875 C 123.125 23.820312 123.125 23.820312 122.941406 23.914062 C 122.746094 23.921875 122.550781 23.925781 122.351562 23.921875 L 122.03125 23.925781 C 121.761719 23.914062 121.761719 23.914062 121.582031 23.820312 C 121.527344 21.785156 121.691406 19.808594 122.308594 17.855469 L 122.367188 17.601562 L 122.488281 17.40625 C 122.742188 17.292969 122.960938 17.210938 123.226562 17.140625 L 123.457031 17.070312 C 123.707031 17 123.960938 16.929688 124.214844 16.863281 L 124.476562 16.789062 C 126.191406 16.320312 127.863281 16.03125 129.648438 16.015625 M 126.375 17.167969 C 126.160156 17.214844 125.945312 17.257812 125.730469 17.296875 C 125.429688 17.363281 125.203125 17.425781 124.9375 17.585938 C 124.457031 18.1875 124.242188 19.003906 124.121094 19.753906 C 124.117188 19.9375 124.117188 20.117188 124.121094 20.296875 C 124.890625 20.164062 125.585938 19.878906 126.300781 19.574219 L 126.492188 19.492188 C 127.683594 18.980469 128.785156 18.367188 129.664062 17.394531 C 129.691406 17.339844 129.71875 17.28125 129.75 17.222656 C 129.726562 16.980469 129.726562 16.980469 129.660156 16.773438 C 128.53125 16.683594 127.46875 16.917969 126.375 17.167969 "/><path style=" stroke:none;fill-rule:nonzero;fill:#0256a0;fill-opacity:1;" d="M 2.246094 34.214844 L 3.789062 34.214844 C 3.941406 34.605469 4.09375 34.992188 4.246094 35.382812 L 4.398438 35.78125 C 4.472656 35.96875 4.546875 36.160156 4.621094 36.351562 L 4.691406 36.527344 C 4.824219 36.871094 4.945312 37.210938 5.058594 37.558594 C 5.234375 37.300781 5.324219 37.089844 5.425781 36.796875 L 5.53125 36.5 L 5.636719 36.191406 C 5.875 35.519531 6.121094 34.863281 6.421875 34.214844 L 7.964844 34.214844 L 7.964844 39.007812 L 7.054688 39.007812 L 6.964844 35.300781 L 6.695312 36.089844 C 6.457031 36.773438 6.203125 37.449219 5.933594 38.121094 C 5.902344 38.199219 5.871094 38.277344 5.839844 38.355469 C 5.617188 38.902344 5.617188 38.902344 5.511719 39.007812 C 5.375 39.011719 5.238281 39.011719 5.101562 39.011719 L 4.871094 39.007812 L 4.695312 39.007812 C 4.324219 38.136719 3.957031 37.269531 3.613281 36.390625 L 3.53125 36.183594 C 3.417969 35.890625 3.320312 35.605469 3.246094 35.300781 L 3.152344 39.007812 L 2.246094 39.007812 Z M 2.246094 34.214844 "/><path style=" stroke:none;fill-rule:nonzero;fill:#0055a0;fill-opacity:1;" d="M 80.925781 34.214844 L 82.46875 34.214844 C 82.738281 34.5 82.804688 34.59375 82.921875 34.9375 C 82.984375 35.0625 83.050781 35.183594 83.117188 35.304688 C 83.179688 35.429688 83.242188 35.554688 83.304688 35.683594 L 83.394531 35.863281 C 83.503906 36.082031 83.613281 36.300781 83.722656 36.519531 L 84.464844 38.011719 L 84.554688 34.214844 L 85.371094 34.214844 L 85.464844 34.304688 C 85.472656 34.453125 85.472656 34.601562 85.472656 34.746094 L 85.472656 35.660156 C 85.472656 35.992188 85.46875 36.328125 85.46875 36.660156 C 85.46875 36.886719 85.46875 37.113281 85.46875 37.339844 C 85.46875 37.894531 85.464844 38.449219 85.464844 39.007812 L 83.828125 39.007812 C 83.585938 38.539062 83.34375 38.070312 83.101562 37.601562 L 82.855469 37.125 C 82.738281 36.894531 82.617188 36.667969 82.5 36.4375 L 82.390625 36.222656 L 82.285156 36.019531 L 82.191406 35.84375 C 82.09375 35.636719 82.007812 35.421875 81.925781 35.210938 L 81.832031 39.007812 L 80.925781 39.007812 Z M 122.578125 34.214844 L 124.121094 34.214844 C 124.667969 35.191406 125.207031 36.167969 125.6875 37.175781 L 125.792969 37.394531 C 126.027344 37.898438 126.027344 37.898438 126.027344 38.101562 L 126.210938 38.101562 L 126.210938 34.214844 L 127.027344 34.214844 L 127.027344 39.007812 L 125.484375 39.007812 C 124.867188 37.835938 124.257812 36.664062 123.667969 35.480469 L 123.488281 35.121094 L 123.488281 39.007812 L 122.578125 39.007812 Z M 22.121094 34.214844 L 23.585938 34.199219 L 24.042969 34.191406 C 24.164062 34.191406 24.285156 34.191406 24.40625 34.1875 L 24.59375 34.183594 C 24.910156 34.183594 25.128906 34.222656 25.421875 34.34375 C 25.632812 34.46875 25.78125 34.570312 25.933594 34.757812 C 26.035156 35.070312 26.042969 35.324219 26.046875 35.652344 L 26.050781 35.984375 C 26.023438 36.292969 26.023438 36.292969 25.902344 36.554688 C 25.75 36.746094 25.75 36.746094 25.507812 36.863281 L 25.296875 36.925781 L 25.296875 37.109375 L 25.507812 37.121094 L 25.75 37.199219 C 25.945312 37.5 26.019531 37.710938 26.050781 38.070312 L 26.039062 38.40625 L 26.03125 38.75 L 26.023438 39.007812 C 25.875 39.007812 25.722656 39.011719 25.574219 39.011719 L 25.324219 39.015625 L 25.117188 39.007812 L 25.023438 38.914062 C 25.003906 38.589844 24.988281 38.265625 24.976562 37.941406 L 24.933594 37.648438 C 24.691406 37.460938 24.691406 37.460938 24.480469 37.441406 L 24.277344 37.433594 L 24.058594 37.421875 L 23.828125 37.414062 L 23.59375 37.402344 C 23.40625 37.394531 23.21875 37.386719 23.027344 37.378906 L 23.03125 37.710938 C 23.03125 37.855469 23.03125 38 23.035156 38.140625 L 23.035156 38.363281 C 23.035156 38.546875 23.03125 38.730469 23.027344 38.914062 L 22.9375 39.007812 L 22.121094 39.007812 Z M 23.027344 34.9375 C 23.011719 35.207031 22.992188 35.476562 22.976562 35.746094 L 22.960938 35.980469 L 22.949219 36.199219 L 22.933594 36.40625 L 22.9375 36.566406 L 23.027344 36.65625 C 23.292969 36.671875 23.554688 36.679688 23.824219 36.683594 L 24.046875 36.691406 C 24.40625 36.695312 24.617188 36.679688 24.9375 36.503906 C 25.132812 36.308594 25.132812 36.308594 25.171875 36.054688 L 25.167969 35.796875 L 25.167969 35.539062 C 25.128906 35.296875 25.128906 35.296875 24.984375 35.089844 C 24.769531 34.929688 24.769531 34.929688 24.5625 34.910156 C 24.328125 34.902344 24.101562 34.90625 23.867188 34.917969 L 23.625 34.921875 C 23.425781 34.925781 23.226562 34.929688 23.027344 34.9375 M 95.535156 34.214844 L 96.996094 34.199219 L 97.449219 34.191406 C 97.570312 34.191406 97.691406 34.191406 97.8125 34.1875 L 98 34.183594 C 98.460938 34.183594 98.765625 34.28125 99.167969 34.488281 C 99.339844 34.683594 99.339844 34.683594 99.4375 34.9375 C 99.460938 35.191406 99.472656 35.417969 99.46875 35.667969 L 99.46875 35.859375 C 99.464844 36.125 99.449219 36.351562 99.359375 36.601562 C 99.214844 36.808594 99.027344 36.902344 98.804688 37.019531 L 99.070312 37.179688 L 99.347656 37.378906 C 99.457031 37.707031 99.449219 38.003906 99.445312 38.34375 L 99.441406 38.539062 C 99.441406 38.695312 99.441406 38.851562 99.4375 39.007812 L 98.53125 39.007812 L 98.519531 38.78125 L 98.496094 38.484375 L 98.476562 38.195312 C 98.441406 37.9375 98.398438 37.777344 98.257812 37.558594 C 98.054688 37.457031 97.929688 37.453125 97.703125 37.441406 L 97.503906 37.429688 L 97.25 37.417969 L 96.445312 37.378906 L 96.445312 39.007812 L 95.535156 39.007812 Z M 96.445312 34.9375 L 96.445312 36.65625 L 97.238281 36.667969 L 97.488281 36.671875 L 97.683594 36.671875 L 97.886719 36.675781 C 98.109375 36.652344 98.25 36.59375 98.441406 36.476562 C 98.5625 36.230469 98.554688 36.03125 98.558594 35.757812 L 98.570312 35.46875 C 98.550781 35.210938 98.550781 35.210938 98.402344 35.042969 C 98.035156 34.882812 97.679688 34.910156 97.285156 34.921875 Z M 58.875 34.214844 L 60.332031 34.199219 L 60.789062 34.191406 C 60.910156 34.191406 61.03125 34.191406 61.152344 34.1875 L 61.335938 34.183594 C 61.796875 34.183594 62.101562 34.277344 62.503906 34.488281 C 62.710938 34.78125 62.769531 34.988281 62.8125 35.34375 L 62.808594 35.667969 L 62.8125 35.992188 C 62.777344 36.292969 62.777344 36.292969 62.652344 36.550781 C 62.503906 36.746094 62.503906 36.746094 62.261719 36.863281 L 62.050781 36.925781 L 62.050781 37.109375 L 62.261719 37.113281 L 62.503906 37.199219 C 62.660156 37.433594 62.71875 37.5625 62.777344 37.832031 C 62.796875 38.222656 62.792969 38.613281 62.777344 39.007812 L 61.867188 39.007812 L 61.839844 38.714844 L 61.796875 38.339844 L 61.777344 38.148438 C 61.753906 37.980469 61.722656 37.816406 61.6875 37.648438 C 61.445312 37.460938 61.445312 37.460938 61.234375 37.441406 L 61.03125 37.433594 L 60.808594 37.421875 L 60.582031 37.414062 L 60.347656 37.402344 C 60.160156 37.394531 59.972656 37.386719 59.78125 37.378906 L 59.785156 37.710938 L 59.789062 38.140625 L 59.789062 38.363281 C 59.789062 38.546875 59.785156 38.730469 59.78125 38.914062 L 59.691406 39.007812 L 58.875 39.007812 Z M 59.78125 34.9375 L 59.78125 36.65625 L 60.570312 36.679688 L 60.816406 36.6875 C 61.171875 36.695312 61.375 36.679688 61.691406 36.503906 C 61.882812 36.308594 61.882812 36.308594 61.925781 36.054688 L 61.917969 35.796875 L 61.921875 35.539062 C 61.882812 35.296875 61.882812 35.296875 61.738281 35.089844 C 61.523438 34.929688 61.523438 34.929688 61.3125 34.910156 C 61.082031 34.902344 60.855469 34.90625 60.621094 34.917969 Z M 59.78125 34.9375 "/><path style=" stroke:none;fill-rule:nonzero;fill:#0256a0;fill-opacity:1;" d="M 120.957031 34.375 C 121.222656 34.578125 121.355469 34.726562 121.492188 35.027344 C 121.644531 35.519531 121.597656 36.039062 121.597656 36.550781 L 121.601562 36.867188 C 121.601562 37.402344 121.597656 37.875 121.398438 38.375 C 121.195312 38.621094 121.027344 38.785156 120.734375 38.925781 C 120.304688 39.066406 119.859375 39.035156 119.410156 39.035156 L 119.113281 39.039062 C 118.699219 39.039062 118.378906 39.03125 117.988281 38.882812 C 117.734375 38.710938 117.578125 38.535156 117.40625 38.28125 C 117.25 37.816406 117.296875 37.3125 117.292969 36.824219 C 117.292969 36.628906 117.289062 36.433594 117.289062 36.242188 C 117.289062 36.117188 117.285156 35.992188 117.285156 35.867188 L 117.285156 35.523438 C 117.320312 35.179688 117.40625 34.964844 117.589844 34.667969 C 117.832031 34.441406 118 34.320312 118.316406 34.214844 C 119.144531 34.097656 120.1875 33.976562 120.957031 34.375 M 118.382812 35.132812 C 118.207031 35.378906 118.207031 35.378906 118.175781 35.660156 C 118.171875 35.976562 118.171875 36.292969 118.171875 36.609375 L 118.167969 36.945312 C 118.167969 37.246094 118.175781 37.53125 118.222656 37.832031 C 118.382812 38.144531 118.382812 38.144531 118.675781 38.28125 C 118.941406 38.328125 119.140625 38.34375 119.402344 38.332031 L 119.597656 38.335938 C 119.8125 38.339844 119.8125 38.339844 120.128906 38.28125 C 120.398438 38.136719 120.398438 38.136719 120.582031 37.921875 C 120.730469 37.488281 120.695312 37.027344 120.695312 36.578125 L 120.703125 36.308594 C 120.703125 35.910156 120.691406 35.617188 120.546875 35.242188 C 120.421875 35.019531 120.421875 35.019531 120.21875 34.9375 C 119.953125 34.910156 119.683594 34.910156 119.414062 34.90625 L 119.191406 34.894531 L 118.972656 34.890625 L 118.773438 34.886719 C 118.566406 34.929688 118.566406 34.929688 118.382812 35.132812 "/><path style=" stroke:none;fill-rule:nonzero;fill:#0156a0;fill-opacity:1;" d="M 79.246094 34.328125 C 79.503906 34.507812 79.664062 34.679688 79.835938 34.9375 C 80.011719 35.460938 79.953125 36.046875 79.957031 36.589844 L 79.964844 36.945312 C 79.96875 37.917969 79.96875 37.917969 79.789062 38.34375 C 79.640625 38.582031 79.484375 38.726562 79.246094 38.867188 C 78.773438 39.066406 78.300781 39.058594 77.796875 39.050781 L 77.523438 39.054688 C 77.105469 39.054688 76.734375 39.03125 76.347656 38.867188 C 76.101562 38.722656 75.949219 38.578125 75.800781 38.339844 C 75.574219 37.804688 75.613281 37.226562 75.621094 36.65625 L 75.621094 36.320312 C 75.625 35.707031 75.65625 35.214844 75.933594 34.667969 C 76.207031 34.449219 76.421875 34.324219 76.75 34.214844 C 77.578125 34.101562 78.453125 34.046875 79.246094 34.328125 M 76.800781 35.058594 C 76.640625 35.214844 76.640625 35.214844 76.570312 35.480469 C 76.546875 35.855469 76.550781 36.226562 76.546875 36.601562 L 76.542969 36.910156 L 76.539062 37.210938 L 76.539062 37.484375 C 76.574219 37.785156 76.660156 37.953125 76.84375 38.191406 C 77.164062 38.300781 77.457031 38.300781 77.789062 38.300781 L 78.152344 38.304688 C 78.460938 38.296875 78.460938 38.296875 78.6875 38.21875 C 78.855469 38.109375 78.855469 38.109375 78.9375 37.898438 C 79.082031 37.464844 79.050781 37.019531 79.046875 36.566406 L 79.054688 36.269531 L 79.054688 35.722656 C 79.015625 35.433594 78.917969 35.265625 78.75 35.027344 C 78.453125 34.882812 78.128906 34.917969 77.804688 34.917969 L 77.59375 34.910156 C 77.28125 34.910156 77.078125 34.910156 76.800781 35.058594 M 89.785156 34.339844 C 90 34.488281 90 34.488281 90.183594 34.757812 C 90.230469 35.027344 90.25 35.296875 90.273438 35.570312 L 89.367188 35.570312 L 89.285156 35.304688 L 89.183594 35.027344 C 88.917969 34.894531 88.671875 34.917969 88.375 34.917969 L 88.03125 34.910156 C 87.738281 34.914062 87.738281 34.914062 87.558594 35.054688 C 87.433594 35.226562 87.433594 35.226562 87.4375 35.53125 C 87.4375 35.828125 87.4375 35.828125 87.550781 36.023438 C 87.796875 36.105469 87.972656 36.132812 88.226562 36.148438 L 88.464844 36.167969 C 88.628906 36.179688 88.792969 36.191406 88.957031 36.203125 C 89.347656 36.234375 89.605469 36.277344 89.957031 36.460938 C 90.183594 36.65625 90.183594 36.65625 90.304688 36.824219 C 90.4375 37.265625 90.398438 37.738281 90.363281 38.191406 C 90.261719 38.519531 90.261719 38.519531 90.089844 38.734375 C 89.832031 38.914062 89.613281 39 89.300781 39.03125 C 89.003906 39.042969 88.707031 39.042969 88.414062 39.039062 L 88.105469 39.042969 C 87.683594 39.042969 87.347656 39.03125 86.945312 38.882812 C 86.734375 38.734375 86.734375 38.734375 86.5625 38.484375 C 86.449219 38.160156 86.441406 37.902344 86.460938 37.558594 L 87.277344 37.558594 L 87.398438 37.871094 L 87.550781 38.191406 C 87.839844 38.289062 88.050781 38.296875 88.355469 38.292969 L 88.640625 38.296875 C 88.890625 38.285156 89.121094 38.25 89.367188 38.191406 C 89.367188 38.046875 89.371094 37.898438 89.371094 37.753906 L 89.375 37.503906 C 89.378906 37.289062 89.378906 37.289062 89.273438 37.109375 C 89.03125 37.027344 88.851562 37 88.597656 36.980469 L 88.359375 36.964844 C 88.195312 36.949219 88.03125 36.9375 87.867188 36.929688 C 87.484375 36.894531 87.21875 36.851562 86.867188 36.675781 C 86.644531 36.476562 86.644531 36.476562 86.519531 36.257812 C 86.417969 35.847656 86.421875 35.449219 86.460938 35.027344 C 86.5625 34.714844 86.5625 34.714844 86.734375 34.488281 C 86.988281 34.296875 87.207031 34.226562 87.519531 34.175781 C 88.277344 34.097656 89.066406 34.066406 89.785156 34.339844 "/><path style=" stroke:none;fill-rule:nonzero;fill:#0155a0;fill-opacity:1;" d="M 45.601562 34.34375 C 45.804688 34.488281 45.804688 34.488281 45.972656 34.691406 C 46.105469 34.996094 46.097656 35.242188 46.078125 35.570312 L 45.261719 35.570312 L 45.183594 35.304688 L 45.082031 35.027344 C 44.8125 34.894531 44.566406 34.921875 44.269531 34.921875 L 43.925781 34.917969 C 43.617188 34.914062 43.617188 34.914062 43.355469 35.121094 C 43.324219 35.320312 43.324219 35.320312 43.339844 35.539062 L 43.347656 35.761719 L 43.355469 35.933594 C 43.621094 36.082031 43.828125 36.140625 44.132812 36.160156 L 44.371094 36.175781 C 44.53125 36.1875 44.695312 36.199219 44.859375 36.207031 C 45.234375 36.238281 45.539062 36.265625 45.859375 36.46875 C 46.078125 36.65625 46.078125 36.65625 46.167969 36.835938 C 46.183594 37.089844 46.195312 37.335938 46.199219 37.589844 L 46.207031 37.796875 C 46.207031 37.996094 46.203125 38.175781 46.167969 38.375 C 46.015625 38.625 45.894531 38.769531 45.644531 38.925781 C 45.214844 39.097656 44.726562 39.035156 44.269531 39.035156 L 43.945312 39.039062 L 43.347656 39.039062 C 43.042969 39 42.875 38.90625 42.628906 38.734375 C 42.464844 38.589844 42.464844 38.589844 42.359375 38.375 C 42.335938 38.097656 42.34375 37.835938 42.359375 37.558594 L 43.175781 37.558594 L 43.292969 37.871094 L 43.445312 38.191406 C 43.722656 38.285156 43.917969 38.296875 44.207031 38.300781 L 44.464844 38.304688 C 44.734375 38.28125 44.929688 38.222656 45.171875 38.101562 C 45.304688 37.832031 45.273438 37.585938 45.261719 37.289062 L 45.171875 37.109375 C 44.929688 37.027344 44.746094 36.996094 44.496094 36.980469 L 44.257812 36.957031 C 44.09375 36.945312 43.929688 36.933594 43.761719 36.921875 C 43.304688 36.878906 42.925781 36.835938 42.539062 36.566406 C 42.386719 36.3125 42.359375 36.121094 42.332031 35.828125 L 42.328125 35.527344 L 42.324219 35.222656 C 42.359375 34.9375 42.359375 34.9375 42.46875 34.691406 C 42.65625 34.453125 42.808594 34.34375 43.082031 34.214844 C 43.839844 34.0625 44.90625 33.988281 45.601562 34.34375 "/><path style=" stroke:none;fill-rule:nonzero;fill:#0357a1;fill-opacity:1;" d="M 65.046875 34.214844 L 66.40625 34.214844 C 66.742188 34.925781 67 35.65625 67.25 36.398438 C 67.324219 36.609375 67.398438 36.824219 67.472656 37.035156 L 67.613281 37.449219 L 67.679688 37.640625 C 67.835938 38.089844 67.941406 38.539062 68.039062 39.007812 L 67.132812 39.007812 L 66.859375 38.101562 L 64.683594 38.101562 L 64.410156 39.007812 L 63.503906 39.007812 C 63.625 38.417969 63.785156 37.859375 63.976562 37.289062 C 64.0625 37.03125 64.148438 36.777344 64.234375 36.519531 C 64.324219 36.253906 64.414062 35.988281 64.503906 35.722656 L 64.675781 35.214844 L 64.753906 34.976562 L 64.832031 34.753906 L 64.894531 34.558594 C 64.953125 34.398438 64.953125 34.398438 65.046875 34.214844 M 65.679688 35.027344 C 65.554688 35.367188 65.433594 35.707031 65.3125 36.046875 L 65.203125 36.335938 L 65.105469 36.617188 L 65.011719 36.875 C 64.929688 37.128906 64.929688 37.128906 65.046875 37.46875 L 66.496094 37.46875 C 66.613281 37.128906 66.613281 37.128906 66.53125 36.875 L 66.4375 36.617188 L 66.335938 36.335938 L 66.230469 36.046875 L 66.125 35.75 C 66.039062 35.511719 65.949219 35.269531 65.863281 35.027344 Z M 65.679688 35.027344 "/><path style=" stroke:none;fill-rule:nonzero;fill:#0256a1;fill-opacity:1;" d="M 30.46875 34.214844 C 30.699219 34.210938 30.925781 34.207031 31.15625 34.210938 L 31.351562 34.210938 C 31.511719 34.210938 31.671875 34.214844 31.832031 34.214844 C 32.179688 35.210938 32.527344 36.203125 32.875 37.199219 L 32.964844 37.449219 C 33.015625 37.601562 33.070312 37.753906 33.121094 37.902344 C 33.183594 38.074219 33.242188 38.238281 33.300781 38.40625 C 33.375 38.644531 33.375 38.644531 33.375 39.007812 L 32.558594 39.007812 L 32.195312 38.191406 L 30.105469 38.191406 L 29.835938 39.007812 L 28.835938 39.007812 C 29.0625 38.105469 29.363281 37.234375 29.667969 36.359375 C 29.753906 36.101562 29.84375 35.839844 29.933594 35.582031 L 30.101562 35.089844 L 30.183594 34.855469 C 30.367188 34.316406 30.367188 34.316406 30.46875 34.214844 M 31.015625 35.027344 L 30.289062 37.378906 L 30.378906 37.46875 C 30.640625 37.476562 30.894531 37.476562 31.15625 37.476562 L 31.378906 37.472656 C 31.558594 37.472656 31.742188 37.472656 31.921875 37.46875 L 32.011719 37.289062 C 31.925781 36.917969 31.792969 36.558594 31.671875 36.199219 C 31.640625 36.097656 31.605469 35.996094 31.574219 35.890625 L 31.476562 35.597656 L 31.386719 35.324219 L 31.285156 35.121094 Z M 31.015625 35.027344 "/><path style=" stroke:none;fill-rule:nonzero;fill:#0457a1;fill-opacity:1;" d="M 55.0625 34.214844 C 55.292969 34.210938 55.519531 34.207031 55.75 34.210938 L 55.945312 34.210938 C 56.105469 34.210938 56.265625 34.214844 56.425781 34.214844 C 56.667969 34.808594 56.894531 35.40625 57.101562 36.011719 L 57.183594 36.257812 C 57.242188 36.425781 57.300781 36.59375 57.355469 36.761719 C 57.445312 37.019531 57.535156 37.277344 57.625 37.535156 L 57.792969 38.027344 L 57.871094 38.261719 L 57.945312 38.480469 L 58.011719 38.667969 C 58.058594 38.824219 58.058594 38.824219 58.058594 39.007812 L 57.148438 39.007812 C 56.878906 38.40625 56.878906 38.40625 56.878906 38.101562 L 54.699219 38.191406 L 54.425781 39.007812 L 53.429688 39.007812 C 53.625 38.402344 53.820312 37.796875 54.019531 37.191406 C 54.183594 36.683594 54.351562 36.171875 54.519531 35.660156 L 54.585938 35.453125 C 54.648438 35.261719 54.710938 35.070312 54.773438 34.878906 L 54.882812 34.550781 C 54.972656 34.304688 54.972656 34.304688 55.0625 34.214844 M 55.699219 34.9375 C 55.574219 35.292969 55.457031 35.648438 55.335938 36 L 55.230469 36.304688 L 55.128906 36.597656 L 55.039062 36.867188 C 54.957031 37.125 54.957031 37.125 54.972656 37.46875 L 56.515625 37.46875 L 56.605469 37.289062 C 56.550781 37.0625 56.550781 37.0625 56.460938 36.804688 L 56.363281 36.511719 L 56.257812 36.203125 L 56.15625 35.898438 C 56.003906 35.375 56.003906 35.375 55.699219 34.9375 "/><path style=" stroke:none;fill-rule:nonzero;fill:#0256a0;fill-opacity:1;" d="M 10.324219 34.214844 L 11.773438 34.214844 L 12.652344 36.839844 C 12.769531 37.183594 12.882812 37.527344 13 37.871094 L 13.066406 38.0625 C 13.125 38.230469 13.179688 38.402344 13.238281 38.570312 C 13.316406 38.824219 13.316406 38.824219 13.316406 39.007812 L 12.410156 39.007812 L 12.136719 38.101562 L 9.960938 38.101562 L 9.6875 39.007812 L 8.78125 39.007812 C 8.902344 38.417969 9.0625 37.859375 9.253906 37.289062 C 9.339844 37.03125 9.425781 36.777344 9.515625 36.519531 C 9.601562 36.253906 9.691406 35.988281 9.78125 35.722656 L 9.953125 35.214844 L 10.035156 34.976562 L 10.109375 34.753906 L 10.175781 34.558594 C 10.234375 34.398438 10.234375 34.398438 10.324219 34.214844 M 10.957031 35.027344 C 10.835938 35.386719 10.714844 35.742188 10.59375 36.097656 L 10.492188 36.402344 L 10.390625 36.699219 L 10.300781 36.96875 C 10.21875 37.203125 10.21875 37.203125 10.234375 37.46875 L 11.773438 37.46875 L 11.867188 37.199219 C 11.8125 36.960938 11.8125 36.960938 11.714844 36.699219 L 11.617188 36.402344 L 11.507812 36.097656 L 11.402344 35.785156 C 11.316406 35.535156 11.226562 35.28125 11.140625 35.027344 Z M 10.957031 35.027344 "/><path style=" stroke:none;fill-rule:nonzero;fill:#0055a0;fill-opacity:1;" d="M 100.4375 34.214844 L 101.34375 34.214844 L 101.351562 34.554688 C 101.359375 34.964844 101.367188 35.378906 101.378906 35.789062 C 101.382812 35.96875 101.386719 36.144531 101.390625 36.324219 C 101.394531 36.582031 101.402344 36.835938 101.40625 37.09375 L 101.410156 37.335938 C 101.410156 37.730469 101.410156 37.730469 101.527344 38.101562 C 101.847656 38.210938 102.144531 38.210938 102.480469 38.210938 L 102.664062 38.214844 C 102.828125 38.214844 102.996094 38.203125 103.160156 38.191406 L 103.433594 38.011719 C 103.460938 37.730469 103.472656 37.46875 103.476562 37.1875 C 103.476562 37.105469 103.476562 37.023438 103.480469 36.9375 C 103.484375 36.675781 103.484375 36.414062 103.488281 36.152344 C 103.492188 35.890625 103.496094 35.628906 103.5 35.367188 C 103.503906 35.203125 103.503906 35.039062 103.503906 34.875 C 103.507812 34.6875 103.515625 34.496094 103.523438 34.304688 L 103.613281 34.214844 C 103.75 34.210938 103.890625 34.207031 104.027344 34.210938 L 104.253906 34.210938 L 104.429688 34.214844 C 104.4375 34.773438 104.441406 35.332031 104.445312 35.890625 C 104.445312 36.078125 104.449219 36.269531 104.449219 36.460938 C 104.453125 36.734375 104.457031 37.003906 104.457031 37.277344 C 104.457031 37.363281 104.460938 37.449219 104.460938 37.535156 C 104.460938 37.890625 104.457031 38.136719 104.304688 38.460938 C 104.089844 38.730469 103.929688 38.855469 103.613281 39.007812 C 103.234375 39.054688 102.859375 39.050781 102.480469 39.046875 L 102.171875 39.046875 C 101.746094 39.042969 101.414062 39.03125 101.011719 38.878906 C 100.792969 38.730469 100.664062 38.601562 100.527344 38.375 C 100.445312 38.121094 100.425781 37.972656 100.425781 37.714844 L 100.425781 37.480469 L 100.429688 37.226562 L 100.429688 36.964844 C 100.429688 36.691406 100.429688 36.417969 100.429688 36.140625 C 100.433594 35.957031 100.433594 35.769531 100.433594 35.585938 C 100.433594 35.128906 100.433594 34.671875 100.4375 34.214844 M 49.34375 34.214844 L 50.808594 34.199219 L 51.265625 34.191406 C 51.390625 34.191406 51.511719 34.191406 51.632812 34.1875 L 51.820312 34.183594 C 52.136719 34.183594 52.355469 34.222656 52.648438 34.34375 C 52.882812 34.488281 52.882812 34.488281 53.015625 34.628906 C 53.28125 35.128906 53.300781 35.609375 53.28125 36.171875 C 53.234375 36.597656 53.128906 36.84375 52.882812 37.199219 C 52.574219 37.40625 52.253906 37.433594 51.886719 37.46875 C 51.617188 37.480469 51.347656 37.476562 51.074219 37.476562 L 50.34375 37.46875 L 50.253906 39.007812 L 49.34375 39.007812 Z M 50.34375 34.9375 L 50.253906 35.027344 C 50.246094 35.152344 50.242188 35.273438 50.242188 35.394531 L 50.246094 35.617188 L 50.246094 35.847656 L 50.25 36.082031 C 50.25 36.273438 50.25 36.464844 50.253906 36.65625 C 50.53125 36.667969 50.8125 36.671875 51.09375 36.679688 L 51.332031 36.6875 C 51.550781 36.691406 51.757812 36.6875 51.976562 36.65625 C 52.222656 36.519531 52.222656 36.519531 52.339844 36.292969 C 52.390625 36.074219 52.390625 36.074219 52.375 35.84375 L 52.371094 35.609375 C 52.339844 35.378906 52.285156 35.226562 52.160156 35.027344 C 51.953125 34.925781 51.835938 34.925781 51.605469 34.925781 L 50.921875 34.925781 C 50.730469 34.925781 50.535156 34.933594 50.34375 34.9375 "/><path style=" stroke:none;fill-rule:nonzero;fill:#0b5ca4;fill-opacity:1;" d="M 17.675781 34.214844 L 21.03125 34.214844 L 21.03125 34.9375 L 18.671875 34.9375 L 18.671875 36.203125 L 20.941406 36.203125 L 20.941406 36.835938 L 18.671875 36.835938 L 18.671875 38.28125 L 21.03125 38.28125 L 21.03125 39.007812 L 17.675781 39.007812 Z M 17.675781 34.214844 "/><path style=" stroke:none;fill-rule:nonzero;fill:#0155a0;fill-opacity:1;" d="M 113.835938 34.332031 C 114.058594 34.492188 114.1875 34.613281 114.320312 34.847656 C 114.382812 35.148438 114.390625 35.445312 114.414062 35.753906 L 113.503906 35.753906 L 113.425781 35.441406 L 113.324219 35.121094 C 113.039062 34.976562 112.734375 35.007812 112.421875 35.007812 L 112.222656 35 C 112.003906 34.996094 112.003906 34.996094 111.691406 35.027344 C 111.503906 35.125 111.503906 35.125 111.417969 35.300781 C 111.203125 36.003906 111.261719 36.972656 111.402344 37.683594 L 111.507812 38.011719 C 111.765625 38.214844 111.765625 38.214844 112.074219 38.214844 L 112.746094 38.214844 C 113.042969 38.207031 113.042969 38.207031 113.269531 38.121094 L 113.414062 38.011719 C 113.480469 37.691406 113.480469 37.691406 113.503906 37.378906 L 113.59375 37.289062 C 113.734375 37.28125 113.871094 37.28125 114.011719 37.28125 L 114.238281 37.285156 L 114.414062 37.289062 C 114.433594 37.71875 114.445312 38.089844 114.308594 38.503906 C 114.140625 38.734375 114.140625 38.734375 113.929688 38.882812 C 113.441406 39.0625 112.980469 39.046875 112.46875 39.046875 L 112.164062 39.050781 C 111.339844 39.050781 111.339844 39.050781 110.949219 38.839844 C 110.691406 38.644531 110.691406 38.644531 110.523438 38.390625 C 110.304688 37.78125 110.3125 37.164062 110.3125 36.527344 L 110.308594 36.277344 C 110.308594 35.769531 110.351562 35.332031 110.511719 34.847656 C 110.714844 34.59375 110.878906 34.4375 111.175781 34.296875 C 111.9375 34.039062 113.105469 33.976562 113.835938 34.332031 "/><path style=" stroke:none;fill-rule:nonzero;fill:#0256a0;fill-opacity:1;" d="M 109.035156 34.34375 C 109.238281 34.488281 109.238281 34.488281 109.402344 34.679688 C 109.558594 35.050781 109.53125 35.351562 109.511719 35.753906 L 108.605469 35.753906 L 108.515625 35.027344 C 108.246094 35.023438 107.980469 35.019531 107.714844 35.019531 C 107.636719 35.015625 107.5625 35.015625 107.484375 35.011719 L 107.265625 35.011719 L 107.0625 35.007812 C 106.851562 35.019531 106.851562 35.019531 106.609375 35.210938 C 106.460938 35.648438 106.5 36.097656 106.5 36.554688 L 106.496094 36.851562 L 106.496094 37.402344 C 106.519531 37.671875 106.570312 37.863281 106.699219 38.101562 C 107.015625 38.207031 107.273438 38.203125 107.605469 38.203125 L 107.945312 38.203125 C 108.242188 38.207031 108.242188 38.207031 108.515625 38.101562 C 108.585938 37.910156 108.585938 37.910156 108.621094 37.691406 L 108.664062 37.464844 L 108.695312 37.289062 C 108.828125 37.285156 108.964844 37.285156 109.097656 37.28125 L 109.324219 37.28125 L 109.511719 37.289062 L 109.601562 37.378906 C 109.605469 37.714844 109.574219 38.042969 109.511719 38.375 C 109.355469 38.632812 109.242188 38.765625 108.988281 38.925781 C 108.574219 39.09375 108.105469 39.035156 107.664062 39.035156 L 107.355469 39.039062 C 106.921875 39.039062 106.589844 39.035156 106.183594 38.875 C 105.832031 38.640625 105.832031 38.640625 105.699219 38.464844 C 105.472656 37.894531 105.488281 37.355469 105.492188 36.75 C 105.492188 36.566406 105.488281 36.378906 105.484375 36.195312 L 105.484375 35.511719 C 105.523438 35.171875 105.617188 34.957031 105.792969 34.667969 C 106.035156 34.441406 106.203125 34.320312 106.515625 34.214844 C 108.332031 33.980469 108.332031 33.980469 109.035156 34.34375 "/><path style=" stroke:none;fill-rule:nonzero;fill:#0156a0;fill-opacity:1;" d="M 74.367188 34.34375 C 74.574219 34.488281 74.574219 34.488281 74.738281 34.679688 C 74.890625 35.050781 74.863281 35.351562 74.847656 35.753906 L 73.9375 35.753906 L 73.847656 35.027344 C 73.582031 35.023438 73.316406 35.019531 73.046875 35.019531 C 72.972656 35.015625 72.898438 35.015625 72.820312 35.011719 L 72.597656 35.011719 L 72.394531 35.007812 C 72.183594 35.019531 72.183594 35.019531 71.941406 35.210938 C 71.796875 35.648438 71.835938 36.097656 71.835938 36.554688 L 71.832031 36.851562 L 71.832031 37.140625 L 71.828125 37.402344 C 71.851562 37.671875 71.90625 37.863281 72.03125 38.101562 C 72.351562 38.207031 72.605469 38.203125 72.941406 38.203125 L 73.28125 38.203125 C 73.578125 38.207031 73.578125 38.207031 73.847656 38.101562 C 73.921875 37.910156 73.921875 37.910156 73.957031 37.691406 L 74.027344 37.289062 L 74.9375 37.289062 C 74.957031 37.6875 74.949219 37.964844 74.835938 38.351562 C 74.679688 38.617188 74.566406 38.769531 74.304688 38.933594 C 73.886719 39.097656 73.425781 39.054688 72.984375 39.046875 L 72.679688 39.046875 C 72.257812 39.042969 71.917969 39.03125 71.519531 38.882812 C 71.242188 38.691406 71.105469 38.488281 70.945312 38.191406 C 70.773438 37.679688 70.832031 37.113281 70.832031 36.582031 L 70.824219 36.238281 C 70.820312 35.300781 70.820312 35.300781 70.976562 34.917969 C 71.144531 34.636719 71.304688 34.484375 71.578125 34.304688 C 72.367188 34.046875 73.613281 33.957031 74.367188 34.34375 "/><path style=" stroke:none;fill-rule:nonzero;fill:#0055a0;fill-opacity:1;" d="M 38.183594 34.214844 L 41.449219 34.214844 L 41.449219 34.9375 L 39.089844 34.9375 L 39.089844 36.203125 L 41.359375 36.203125 L 41.359375 36.835938 L 39.089844 36.835938 L 39.089844 38.28125 L 41.449219 38.28125 L 41.449219 39.007812 L 38.183594 39.007812 Z M 38.183594 34.214844 "/><path style=" stroke:none;fill-rule:nonzero;fill:#0d5da4;fill-opacity:1;" d="M 13.226562 34.214844 L 16.949219 34.214844 L 16.949219 34.9375 L 15.585938 34.9375 L 15.585938 39.007812 L 14.589844 39.007812 L 14.589844 34.9375 L 13.226562 34.9375 Z M 13.226562 34.214844 "/><path style=" stroke:none;fill-rule:nonzero;fill:#0055a0;fill-opacity:1;" d="M 90.910156 34.214844 L 94.71875 34.214844 L 94.71875 34.9375 L 93.269531 34.9375 L 93.269531 39.007812 L 92.359375 39.007812 L 92.359375 34.9375 L 90.910156 34.9375 Z M 90.910156 34.214844 "/><path style=" stroke:none;fill-rule:nonzero;fill:#1160a6;fill-opacity:1;" d="M 34.28125 34.214844 L 35.097656 34.214844 L 35.1875 38.191406 L 37.367188 38.28125 L 37.367188 39.007812 C 36.929688 39.007812 36.492188 39.011719 36.054688 39.011719 C 35.902344 39.011719 35.753906 39.011719 35.605469 39.011719 C 35.390625 39.015625 35.179688 39.015625 34.964844 39.015625 L 34.761719 39.015625 C 34.601562 39.015625 34.441406 39.011719 34.28125 39.007812 L 34.191406 38.914062 C 34.183594 38.773438 34.179688 38.628906 34.179688 38.484375 L 34.175781 38.203125 L 34.179688 37.902344 L 34.179688 37.59375 C 34.179688 37.375 34.179688 37.160156 34.179688 36.945312 C 34.179688 36.613281 34.179688 36.28125 34.179688 35.949219 C 34.179688 35.738281 34.179688 35.53125 34.179688 35.320312 L 34.175781 35.015625 L 34.179688 34.738281 L 34.179688 34.492188 L 34.191406 34.304688 Z M 34.28125 34.214844 "/><path style=" stroke:none;fill-rule:nonzero;fill:#0055a0;fill-opacity:1;" d="M 27.113281 34.214844 L 28.019531 34.214844 L 28.019531 39.007812 L 27.113281 39.007812 Z M 27.113281 34.214844 "/><path style=" stroke:none;fill-rule:nonzero;fill:#0457a1;fill-opacity:1;" d="M 115.410156 34.214844 L 116.226562 34.214844 L 116.226562 39.007812 L 115.410156 39.007812 C 115.300781 38.785156 115.308594 38.640625 115.308594 38.390625 L 115.308594 37.519531 C 115.308594 37.308594 115.308594 37.097656 115.308594 36.886719 C 115.308594 36.5625 115.308594 36.238281 115.308594 35.910156 C 115.308594 35.707031 115.308594 35.503906 115.308594 35.296875 L 115.308594 34.488281 L 115.320312 34.304688 Z M 115.410156 34.214844 "/><path style=" stroke:none;fill-rule:nonzero;fill:#0356a1;fill-opacity:1;" d="M 125.03125 13.066406 L 125.121094 13.066406 L 125.152344 13.285156 C 125.238281 13.875 125.320312 14.363281 125.691406 14.847656 C 125.800781 14.980469 125.914062 15.109375 126.027344 15.234375 L 125.789062 15.261719 C 125.136719 15.34375 125.136719 15.34375 124.53125 15.585938 L 124.304688 15.777344 L 124.042969 15.980469 L 123.851562 16.140625 L 123.824219 15.925781 C 123.738281 15.339844 123.644531 14.910156 123.304688 14.421875 C 123.1875 14.269531 123.066406 14.121094 122.941406 13.96875 L 123.175781 13.945312 C 123.761719 13.875 124.222656 13.789062 124.714844 13.457031 C 124.871094 13.328125 124.871094 13.328125 125.03125 13.066406 "/><path style=" stroke:none;fill-rule:nonzero;fill:#0357a1;fill-opacity:1;" d="M 137.191406 6.738281 L 137.28125 6.738281 L 137.308594 6.933594 C 137.394531 7.492188 137.492188 7.90625 137.824219 8.367188 C 138 8.53125 138.179688 8.671875 138.371094 8.820312 L 138.371094 8.910156 L 138.128906 8.976562 L 137.808594 9.066406 L 137.492188 9.15625 C 137.066406 9.316406 136.820312 9.535156 136.527344 9.882812 L 136.375 10.085938 C 136.351562 10.003906 136.332031 9.925781 136.308594 9.847656 C 136.140625 9.246094 136.007812 8.804688 135.558594 8.367188 L 135.347656 8.152344 L 135.195312 8.003906 L 135.367188 7.980469 C 135.859375 7.902344 136.257812 7.789062 136.671875 7.507812 C 136.925781 7.285156 137.046875 7.042969 137.191406 6.738281 "/><path style=" stroke:none;fill-rule:nonzero;fill:#0457a1;fill-opacity:1;" d="M 142.089844 9.542969 L 142.179688 9.722656 L 142.089844 9.992188 C 142.054688 10.621094 142.050781 11.207031 142.273438 11.800781 L 142.050781 11.757812 C 141.304688 11.652344 140.71875 11.734375 140.003906 11.980469 L 140.050781 11.773438 C 140.171875 11.152344 140.191406 10.6875 140.003906 10.085938 C 139.972656 9.964844 139.941406 9.84375 139.914062 9.722656 L 140.125 9.769531 C 140.765625 9.898438 140.765625 9.898438 141.410156 9.835938 C 141.648438 9.75 141.871094 9.667969 142.089844 9.542969 "/><path style=" stroke:none;fill-rule:nonzero;fill:#0256a0;fill-opacity:1;" d="M 144.449219 20.386719 L 144.542969 20.386719 L 144.546875 20.578125 C 144.578125 21.085938 144.636719 21.496094 144.886719 21.941406 C 145.054688 22.195312 145.242188 22.421875 145.449219 22.648438 L 145.230469 22.675781 C 144.792969 22.734375 144.4375 22.785156 144.046875 22.996094 L 143.816406 23.1875 L 143.554688 23.394531 L 143.363281 23.550781 L 143.316406 23.339844 C 143.183594 22.734375 143.023438 22.234375 142.636719 21.742188 C 142.546875 21.652344 142.457031 21.5625 142.363281 21.472656 L 142.574219 21.453125 C 143.175781 21.375 143.609375 21.246094 144.109375 20.898438 C 144.28125 20.738281 144.359375 20.597656 144.449219 20.386719 M 136.28125 26.894531 L 136.46875 27.09375 C 136.824219 27.441406 137.140625 27.738281 137.632812 27.867188 C 137.878906 27.910156 138.125 27.949219 138.371094 27.980469 L 138.265625 28.09375 C 137.917969 28.472656 137.632812 28.847656 137.460938 29.335938 C 137.414062 29.605469 137.382812 29.875 137.371094 30.148438 L 137.171875 29.945312 C 136.746094 29.53125 136.417969 29.296875 135.847656 29.128906 C 135.648438 29.0625 135.46875 28.980469 135.285156 28.882812 L 135.484375 28.757812 C 135.835938 28.429688 136.019531 28.066406 136.191406 27.617188 C 136.246094 27.371094 136.269531 27.148438 136.28125 26.894531 "/><path style=" stroke:none;fill-rule:nonzero;fill:#0457a1;fill-opacity:1;" d="M 131.382812 6.738281 L 131.535156 6.945312 C 131.910156 7.386719 132.289062 7.625 132.835938 7.824219 C 133.015625 7.859375 133.195312 7.894531 133.378906 7.914062 C 133.253906 8.097656 133.253906 8.097656 133.105469 8.277344 L 132.925781 8.277344 C 132.789062 8.542969 132.667969 8.808594 132.554688 9.085938 L 132.460938 9.3125 C 132.382812 9.539062 132.332031 9.757812 132.289062 9.992188 L 132.164062 9.800781 C 131.789062 9.394531 131.328125 9.101562 130.800781 8.925781 C 130.632812 8.882812 130.460938 8.851562 130.292969 8.820312 L 130.496094 8.625 C 130.914062 8.191406 131.121094 7.832031 131.269531 7.25 C 131.308594 7.078125 131.347656 6.910156 131.382812 6.738281 "/><path style=" stroke:none;fill-rule:nonzero;fill:#0357a1;fill-opacity:1;" d="M 132.199219 26.894531 L 132.289062 26.894531 L 132.3125 27.066406 C 132.394531 27.5625 132.511719 27.953125 132.792969 28.367188 C 132.992188 28.597656 133.207031 28.730469 133.46875 28.882812 L 133.46875 28.972656 L 133.289062 29.019531 C 132.808594 29.152344 132.414062 29.289062 132.019531 29.605469 C 131.816406 29.835938 131.816406 29.835938 131.65625 30.058594 L 131.472656 30.238281 L 131.40625 29.996094 L 131.3125 29.679688 L 131.226562 29.367188 C 131.046875 28.898438 130.742188 28.59375 130.382812 28.25 L 130.601562 28.175781 C 131.101562 27.992188 131.496094 27.828125 131.851562 27.421875 C 131.988281 27.246094 132.101562 27.089844 132.199219 26.894531 M 126.300781 9.359375 L 126.515625 9.445312 C 127.09375 9.652344 127.53125 9.753906 128.144531 9.65625 C 128.316406 9.621094 128.488281 9.582031 128.660156 9.542969 L 128.53125 9.800781 C 128.351562 10.21875 128.292969 10.628906 128.296875 11.078125 C 128.339844 11.355469 128.398438 11.621094 128.480469 11.890625 L 128.3125 11.8125 C 127.816406 11.59375 127.410156 11.484375 126.871094 11.503906 C 126.601562 11.539062 126.367188 11.609375 126.117188 11.710938 L 126.203125 11.503906 C 126.363281 11.097656 126.402344 10.796875 126.402344 10.359375 L 126.402344 10.023438 C 126.394531 9.785156 126.375 9.589844 126.300781 9.359375 M 128.480469 25.269531 L 128.46875 25.585938 C 128.464844 25.722656 128.464844 25.863281 128.460938 26.003906 L 128.453125 26.210938 C 128.449219 26.667969 128.523438 26.941406 128.75 27.347656 L 128.660156 27.527344 L 128.425781 27.4375 C 128.082031 27.335938 127.839844 27.316406 127.480469 27.347656 C 127.265625 27.410156 127.054688 27.480469 126.847656 27.558594 C 126.664062 27.617188 126.664062 27.617188 126.390625 27.617188 L 126.4375 27.429688 C 126.550781 26.910156 126.589844 26.503906 126.457031 25.988281 C 126.386719 25.800781 126.304688 25.625 126.210938 25.449219 L 126.429688 25.492188 C 126.976562 25.570312 127.453125 25.601562 127.972656 25.402344 C 128.296875 25.269531 128.296875 25.269531 128.480469 25.269531 "/><path style=" stroke:none;fill-rule:nonzero;fill:#0256a1;fill-opacity:1;" d="M 140.003906 24.90625 L 140.214844 24.992188 C 140.601562 25.144531 140.890625 25.191406 141.308594 25.1875 L 141.617188 25.191406 C 141.867188 25.179688 142.117188 25.144531 142.363281 25.085938 L 142.300781 25.277344 C 142.121094 25.855469 142.0625 26.300781 142.179688 26.894531 L 142.234375 27.171875 L 142.273438 27.347656 L 141.972656 27.210938 C 141.394531 26.996094 140.8125 27.039062 140.214844 27.121094 L 140.003906 27.167969 L 140.09375 26.917969 C 140.230469 26.4375 140.222656 25.945312 140.183594 25.449219 C 140.109375 25.128906 140.109375 25.128906 140.003906 24.90625 "/><path style=" stroke:none;fill-rule:nonzero;fill:#105ba3;fill-opacity:1;" d="M 116.410156 9.8125 C 116.695312 9.886719 116.90625 9.992188 117.136719 10.175781 C 117.390625 10.445312 117.621094 10.71875 117.738281 11.078125 C 117.808594 11.480469 117.832031 11.875 117.707031 12.269531 C 117.5625 12.585938 117.402344 12.828125 117.140625 13.054688 C 116.8125 13.28125 116.546875 13.410156 116.152344 13.460938 C 115.445312 13.476562 115.445312 13.476562 115.101562 13.34375 C 114.664062 13.082031 114.371094 12.769531 114.117188 12.328125 C 114.011719 11.9375 114 11.570312 114.050781 11.167969 C 114.152344 10.832031 114.300781 10.5625 114.542969 10.308594 C 115.136719 9.792969 115.640625 9.738281 116.410156 9.8125 M 114.777344 10.265625 C 114.519531 10.496094 114.351562 10.75 114.195312 11.0625 C 114.121094 11.449219 114.136719 11.777344 114.230469 12.164062 C 114.367188 12.503906 114.550781 12.753906 114.820312 13.003906 C 115.085938 13.183594 115.300781 13.320312 115.617188 13.367188 C 116.019531 13.375 116.347656 13.355469 116.714844 13.183594 C 117.019531 13.011719 117.21875 12.824219 117.40625 12.523438 C 117.59375 12.117188 117.636719 11.78125 117.628906 11.335938 C 117.570312 10.96875 117.433594 10.726562 117.210938 10.433594 C 116.996094 10.214844 116.796875 10.074219 116.511719 9.957031 C 115.867188 9.78125 115.320312 9.882812 114.777344 10.265625 "/><path style=" stroke:none;fill-rule:nonzero;fill:#0457a1;fill-opacity:1;" d="M 114.59375 10.988281 L 114.867188 10.988281 L 115.230469 11.890625 L 115.683594 10.988281 L 115.863281 10.988281 L 115.863281 12.253906 L 115.773438 12.253906 L 115.773438 11.351562 L 115.59375 11.351562 L 115.5625 11.523438 L 115.476562 11.976562 L 115.410156 12.164062 L 115.136719 12.253906 L 114.867188 11.53125 L 114.777344 12.253906 L 114.59375 12.253906 Z M 116.136719 10.988281 C 116.929688 10.976562 116.929688 10.976562 117.136719 11.078125 L 117.136719 12.253906 L 116.953125 12.253906 L 116.863281 11.800781 L 116.226562 11.710938 L 116.226562 12.253906 L 116.136719 12.253906 Z M 116.226562 11.078125 C 116.222656 11.230469 116.222656 11.378906 116.226562 11.53125 L 116.316406 11.621094 C 116.5 11.625 116.679688 11.625 116.863281 11.621094 C 116.898438 11.472656 116.925781 11.320312 116.953125 11.167969 L 116.863281 11.078125 C 116.652344 11.074219 116.4375 11.074219 116.226562 11.078125 "/><path style=" stroke:none;fill-rule:nonzero;fill:#044d9b;fill-opacity:1;" d="M 115.683594 10.988281 L 115.863281 10.988281 L 115.863281 12.253906 L 115.773438 12.253906 L 115.773438 11.351562 L 115.59375 11.351562 L 115.5 11.800781 L 115.410156 11.53125 C 115.542969 11.242188 115.542969 11.242188 115.683594 10.988281 "/></g></svg>